<?xml version="1.0" encoding="UTF-8" standalone="no"?>
<svg
   xmlns:dc="http://purl.org/dc/elements/1.1/"
   xmlns:cc="http://creativecommons.org/ns#"
   xmlns:rdf="http://www.w3.org/1999/02/22-rdf-syntax-ns#"
   xmlns:svg="http://www.w3.org/2000/svg"
   xmlns="http://www.w3.org/2000/svg"
   xmlns:sodipodi="http://sodipodi.sourceforge.net/DTD/sodipodi-0.dtd"
   xmlns:inkscape="http://www.inkscape.org/namespaces/inkscape"
   width="256"
   height="256"
   version="1.1"
   id="svg12"
   sodipodi:docname="punes_256x256.svg"
   inkscape:version="1.0.2 (e86c870879, 2021-01-15)">
  <metadata
     id="metadata18">
    <rdf:RDF>
      <cc:Work
         rdf:about="">
        <dc:format>image/svg+xml</dc:format>
        <dc:type
           rdf:resource="http://purl.org/dc/dcmitype/StillImage" />
      </cc:Work>
    </rdf:RDF>
  </metadata>
  <defs
     id="defs16" />
  <sodipodi:namedview
     pagecolor="#ffffff"
     bordercolor="#666666"
     borderopacity="1"
     objecttolerance="10"
     gridtolerance="10"
     guidetolerance="10"
     inkscape:pageopacity="0"
     inkscape:pageshadow="2"
     inkscape:window-width="1920"
     inkscape:window-height="1005"
     id="namedview14"
     showgrid="false"
     inkscape:zoom="1.7152864"
     inkscape:cx="109.01509"
     inkscape:cy="162.577"
     inkscape:window-x="0"
     inkscape:window-y="24"
     inkscape:window-maximized="1"
     inkscape:current-layer="svg12" />
  <rect
     style="opacity:0.2;stroke-width:4"
     width="236"
     height="236"
     x="10.699165"
     y="12.774366"
     rx="11.8"
     ry="11.8"
     id="rect2" />
  <rect
     style="fill:#e4e4e4;stroke-width:4"
     width="236"
     height="236"
     x="10.699165"
     y="8.7743664"
     rx="11.8"
     ry="11.8"
     id="rect4" />
  <path
     style="opacity:0.2;fill:#ffffff;stroke-width:4"
     d="m 22.495966,8.774367 c -6.5372,0 -11.7968,5.2596 -11.7968,11.7968 v 3.999999 c 0,-6.5372 5.2596,-11.796799 11.7968,-11.796799 H 234.90316 c 6.53599,0 11.796,5.259599 11.796,11.796799 v -3.999999 c 0,-6.5372 -5.26001,-11.7968 -11.796,-11.7968 z"
     id="path6" />
  <path
     style="opacity:0.1;stroke-width:4"
     d="m 178.69915,132.77435 c -5.19999,0 -11.99999,4.00001 -11.99999,12.00001 v 12 c 0,7.99999 6.8,12 11.99999,12 h 30 c 0,0 6.00001,0 6.00001,5.99999 0,6.00001 -6.00001,6.00001 -6.00001,6.00001 h -41.99999 v 11.99999 h 48 c 5.19999,0 12,-3.99999 12,-11.99999 v -12 c 0,-8.00001 -6.80001,-12 -12,-12 h -30 c 0,0 -6.00001,0 -6.00001,-6 0,-6 6.00001,-6 6.00001,-6 h 42 v -12.00001 z m -79.999986,0 v 48.00001 c 0,8 6.799996,11.99999 11.999996,11.99999 h 48 v -11.99999 h -42 c 0,0 -6,0 -6,-6.00001 0,-5.99999 6,-5.99999 6,-5.99999 h 42 v -12 h -42 c 0,0 -6,0 -6,-6 0,-6 6,-6 6,-6 h 42 v -12.00001 z m -67.999999,0 v 60 h 12 v -47.99999 h 30 c 6,0 6,6 6,6 v 41.99999 h 12 v -47.99999 c 0,-8 -6.800001,-12.00001 -12,-12.00001 z M 130.69916,60.774366 v 47.999994 c 0,9 8,11.99999 12,11.99999 h 35.99999 c 4.00001,0 12.00001,-2.99999 12.00001,-11.99999 V 60.774366 h -12.00001 v 41.999994 c 0,6 -5.99999,6 -5.99999,6 h -24.00001 c 0,0 -5.99999,0 -5.99999,-6 V 60.774366 Z m -67.999995,0 v 59.999984 h 12 v -17.99999 c 0,0 0,-5.999995 6,-5.999995 h 29.999995 c 5.2,0 12,-4 12,-12 V 72.774366 c 0,-8.000001 -6.8,-12 -12,-12 z m 18,12 h 23.999985 c 0,0 6.00001,0 6.00001,6 0,5.999999 -6.00001,5.999999 -6.00001,5.999999 H 80.699165 c 0,0 -6,0 -6,-5.999999 0,-6 6,-6 6,-6 z"
     id="path8" />
  <path
     style="fill:#007f0e;stroke-width:4"
     d="m 178.69915,128.77436 c -5.19999,0 -11.99999,3.99999 -11.99999,12 v 12 c 0,7.99999 6.8,11.99999 11.99999,11.99999 h 30 c 0,0 6.00001,0 6.00001,6.00001 0,5.99999 -6.00001,5.99999 -6.00001,5.99999 h -41.99999 v 12.00001 h 48 c 5.19999,0 12,-4 12,-12.00001 v -12 c 0,-7.99999 -6.80001,-11.99999 -12,-11.99999 h -30 c 0,0 -6.00001,0 -6.00001,-6.00001 0,-5.99999 6.00001,-5.99999 6.00001,-5.99999 h 42 v -12 z m -79.999986,0 v 47.99999 c 0,8.00001 6.799996,12.00001 11.999996,12.00001 h 48 v -12.00001 h -42 c 0,0 -6,0 -6,-5.99999 0,-6.00001 6,-6.00001 6,-6.00001 h 42 v -11.99999 h -42 c 0,0 -6,0 -6,-6.00001 0,-5.99999 6,-5.99999 6,-5.99999 h 42 v -12 z m -67.999999,0 v 60 h 12 v -48 h 30 c 6,0 6,5.99999 6,5.99999 v 42.00001 h 12 v -48 c 0,-8.00001 -6.800001,-12 -12,-12 z M 130.69916,56.774366 v 47.999984 c 0,9.00001 8,12.00001 12,12.00001 h 35.99999 c 4.00001,0 12.00001,-3 12.00001,-12.00001 V 56.774366 h -12.00001 v 41.999999 c 0,5.999985 -5.99999,5.999985 -5.99999,5.999985 h -24.00001 c 0,0 -5.99999,0 -5.99999,-5.999985 V 56.774366 Z m -67.999995,0 v 59.999994 h 12 V 98.774365 c 0,0 0,-6 6,-6 h 29.999995 c 5.2,0 12,-4 12,-12 v -12 c 0,-7.999999 -6.8,-11.999999 -12,-11.999999 z m 18,11.999999 h 23.999985 c 0,0 6.00001,0 6.00001,6 0,6 -6.00001,6 -6.00001,6 H 80.699165 c 0,0 -6,0 -6,-6 0,-6 6,-6 6,-6 z"
     id="path10" />
</svg>
