<?xml version="1.0" encoding="UTF-8"?>
<svg xmlns="http://www.w3.org/2000/svg" xmlns:xlink="http://www.w3.org/1999/xlink" width="425pt" height="175pt" viewBox="0 0 425 175" version="1.1">
<g id="surface1">
<path style=" stroke:none;fill-rule:nonzero;fill:rgb(10.196078%,10.196078%,10.196078%);fill-opacity:1;" d="M 11.078125 29.132812 L 415.128906 29.132812 L 415.128906 164.75 L 11.078125 164.75 Z M 11.078125 29.132812 "/>
<path style=" stroke:none;fill-rule:nonzero;fill:rgb(50.196078%,50.196078%,50.196078%);fill-opacity:1;" d="M 143.027344 24.3125 L 249.472656 24.3125 C 253.199219 24.3125 256.214844 27.332031 256.214844 31.054688 L 256.214844 38.410156 C 256.214844 42.132812 253.199219 45.152344 249.472656 45.152344 L 143.027344 45.152344 C 139.304688 45.152344 136.285156 42.132812 136.285156 38.410156 L 136.285156 31.054688 C 136.289062 27.332031 139.304688 24.3125 143.027344 24.3125 Z M 143.027344 24.3125 "/>
<path style=" stroke:none;fill-rule:nonzero;fill:rgb(50.196078%,50.196078%,50.196078%);fill-opacity:1;" d="M 143.027344 151.410156 L 249.472656 151.410156 C 253.199219 151.410156 256.214844 154.429688 256.214844 158.152344 L 256.214844 165.507812 C 256.214844 169.230469 253.199219 172.25 249.472656 172.25 L 143.027344 172.25 C 139.304688 172.25 136.285156 169.230469 136.285156 165.507812 L 136.285156 158.152344 C 136.289062 154.425781 139.304688 151.410156 143.027344 151.410156 Z M 143.027344 151.410156 "/>
<path style=" stroke:none;fill-rule:nonzero;fill:rgb(86.27451%,86.27451%,86.27451%);fill-opacity:1;" d="M 5.660156 0 C 2.53125 0 0 2.53125 0 5.660156 L 0 169.285156 C 0 172.417969 2.53125 174.949219 5.660156 174.945312 L 419.476562 174.945312 C 422.609375 174.945312 425 172.417969 425 169.285156 L 425 5.660156 C 425 2.53125 422.609375 0 419.476562 0 Z M 11.046875 29.132812 L 415.203125 29.132812 L 415.203125 164.726562 L 11.046875 164.726562 Z M 11.046875 29.132812 "/>
<path style="fill-rule:nonzero;fill:rgb(0%,0%,0%);fill-opacity:1;stroke-width:1.6523;stroke-linecap:round;stroke-linejoin:miter;stroke:rgb(100%,100%,100%);stroke-opacity:1;stroke-miterlimit:4;" d="M 87.5435 362.00275 C 84.85475 362.00275 82.82975 364.219 82.82975 366.90775 L 82.82975 400.652125 L 49.07975 400.652125 C 46.396625 400.652125 44.180375 402.868375 44.180375 405.557125 L 44.180375 432.703375 C 44.180375 435.3865 46.396625 437.60275 49.07975 437.60275 L 82.82975 437.60275 L 82.82975 471.35275 C 82.82975 474.035875 84.85475 476.0665 87.5435 476.0665 L 114.881 476.0665 C 117.564125 476.0665 119.59475 474.035875 119.59475 471.35275 L 119.59475 437.60275 L 153.339125 437.60275 C 156.02225 437.60275 158.2385 435.3865 158.2385 432.703375 L 158.2385 405.557125 C 158.2385 402.868375 156.02225 400.652125 153.339125 400.652125 L 119.59475 400.652125 L 119.59475 366.90775 C 119.59475 364.219 117.564125 362.00275 114.881 362.00275 Z M 87.5435 362.00275 " transform="matrix(0.694444,0,0,0.694444,0.00277778,-187.523611)"/>
<path style=" stroke:none;fill-rule:nonzero;fill:rgb(10.196078%,10.196078%,10.196078%);fill-opacity:1;" d="M 61.449219 66.820312 C 60.859375 66.820312 60.402344 67.277344 60.402344 67.867188 L 60.402344 93.441406 L 34.828125 93.441406 C 34.238281 93.441406 33.78125 93.898438 33.78125 94.488281 L 33.78125 112.507812 C 33.78125 113.097656 34.238281 113.601562 34.828125 113.601562 L 60.402344 113.601562 L 60.402344 139.132812 C 60.402344 139.722656 60.859375 140.226562 61.449219 140.226562 L 79.515625 140.226562 C 80.105469 140.226562 80.5625 139.722656 80.5625 139.132812 L 80.5625 113.601562 L 106.140625 113.601562 C 106.730469 113.601562 107.1875 113.097656 107.1875 112.507812 L 107.1875 94.488281 C 107.1875 93.898438 106.730469 93.441406 106.140625 93.441406 L 80.5625 93.441406 L 80.5625 67.867188 C 80.5625 67.273438 80.105469 66.820312 79.515625 66.820312 Z M 61.449219 66.820312 "/>
<path style=" stroke:none;fill-rule:nonzero;fill:rgb(50.196078%,50.196078%,50.196078%);fill-opacity:1;" d="M 143.027344 51.132812 L 249.472656 51.132812 C 253.199219 51.132812 256.214844 54.152344 256.214844 57.875 L 256.214844 65.234375 C 256.214844 68.957031 253.199219 71.976562 249.472656 71.976562 L 143.027344 71.976562 C 139.304688 71.976562 136.285156 68.957031 136.285156 65.234375 L 136.285156 57.875 C 136.289062 54.152344 139.304688 51.132812 143.027344 51.132812 Z M 143.027344 51.132812 "/>
<path style=" stroke:none;fill-rule:nonzero;fill:rgb(86.666667%,86.666667%,86.666667%);fill-opacity:1;" d="M 277.9375 99.78125 L 319.4375 99.78125 C 321.269531 99.78125 322.753906 101.265625 322.753906 103.09375 L 322.753906 144.59375 C 322.753906 146.425781 321.269531 147.910156 319.4375 147.910156 L 277.9375 147.910156 C 276.105469 147.910156 274.621094 146.425781 274.621094 144.59375 L 274.621094 103.09375 C 274.621094 101.261719 276.105469 99.78125 277.9375 99.78125 Z M 277.9375 99.78125 "/>
<path style=" stroke:none;fill-rule:nonzero;fill:rgb(100%,0%,0%);fill-opacity:1;" d="M 318.410156 124.046875 C 318.410156 134.941406 309.578125 143.773438 298.6875 143.773438 C 287.792969 143.773438 278.960938 134.941406 278.960938 124.046875 C 278.960938 113.15625 287.792969 104.324219 298.6875 104.324219 C 309.578125 104.324219 318.410156 113.152344 318.410156 124.046875 Z M 318.410156 124.046875 "/>
<path style=" stroke:none;fill-rule:nonzero;fill:rgb(86.666667%,86.666667%,86.666667%);fill-opacity:1;" d="M 332.59375 99.78125 L 374.09375 99.78125 C 375.925781 99.78125 377.410156 101.265625 377.410156 103.09375 L 377.410156 144.59375 C 377.410156 146.425781 375.925781 147.910156 374.09375 147.910156 L 332.59375 147.910156 C 330.761719 147.910156 329.277344 146.425781 329.277344 144.59375 L 329.277344 103.09375 C 329.277344 101.261719 330.761719 99.78125 332.59375 99.78125 Z M 332.59375 99.78125 "/>
<path style=" stroke:none;fill-rule:nonzero;fill:rgb(100%,0%,0%);fill-opacity:1;" d="M 373.085938 124.046875 C 373.085938 134.941406 364.253906 143.773438 353.363281 143.773438 C 342.464844 143.773438 333.636719 134.941406 333.636719 124.046875 C 333.636719 113.15625 342.464844 104.324219 353.363281 104.324219 C 364.253906 104.320312 373.085938 113.152344 373.085938 124.046875 Z M 373.085938 124.046875 "/>
<path style=" stroke:none;fill-rule:nonzero;fill:rgb(50.196078%,50.196078%,50.196078%);fill-opacity:1;" d="M 143.027344 77.972656 L 249.472656 77.972656 C 253.199219 77.972656 256.214844 80.988281 256.214844 84.714844 L 256.214844 92.070312 C 256.214844 95.792969 253.199219 98.8125 249.472656 98.8125 L 143.027344 98.8125 C 139.304688 98.8125 136.285156 95.792969 136.285156 92.070312 L 136.285156 84.714844 C 136.285156 80.988281 139.304688 77.972656 143.027344 77.972656 Z M 143.027344 77.972656 "/>
<path style=" stroke:none;fill-rule:nonzero;fill:rgb(86.666667%,86.666667%,86.666667%);fill-opacity:1;" d="M 143.800781 104.457031 L 248.722656 104.457031 C 252.875 104.457031 256.238281 107.824219 256.238281 111.972656 L 256.238281 136.515625 C 256.238281 140.667969 252.871094 144.03125 248.722656 144.03125 L 143.800781 144.03125 C 139.652344 144.03125 136.289062 140.667969 136.289062 136.515625 L 136.289062 111.972656 C 136.285156 107.824219 139.652344 104.457031 143.800781 104.457031 Z M 143.800781 104.457031 "/>
<path style="fill:none;stroke-width:1.4584;stroke-linecap:round;stroke-linejoin:miter;stroke:rgb(50.196078%,50.196078%,50.196078%);stroke-opacity:1;stroke-miterlimit:4;" d="M 212.187875 425.885875 L 353.066 425.885875 C 357.95975 425.885875 361.931 429.857125 361.931 434.750875 L 361.931 463.70275 C 361.931 468.5965 357.95975 472.56775 353.066 472.56775 L 212.187875 472.56775 C 207.294125 472.56775 203.3285 468.5965 203.3285 463.70275 L 203.3285 434.750875 C 203.3285 429.857125 207.294125 425.885875 212.187875 425.885875 Z M 212.187875 425.885875 " transform="matrix(0.694444,0,0,0.694444,0.00277778,-187.523611)"/>
<path style=" stroke:none;fill-rule:nonzero;fill:rgb(0%,0%,0%);fill-opacity:1;" d="M 156.726562 118.316406 L 177.136719 118.316406 C 180.804688 118.316406 183.777344 121.289062 183.777344 124.957031 C 183.777344 128.625 180.804688 131.597656 177.136719 131.597656 L 156.726562 131.597656 C 153.058594 131.597656 150.085938 128.625 150.085938 124.957031 C 150.085938 121.289062 153.058594 118.316406 156.726562 118.316406 Z M 156.726562 118.316406 "/>
<path style=" stroke:none;fill-rule:nonzero;fill:rgb(0%,0%,0%);fill-opacity:1;" d="M 215.054688 118.316406 L 235.46875 118.316406 C 239.136719 118.316406 242.109375 121.289062 242.109375 124.957031 C 242.109375 128.625 239.136719 131.597656 235.46875 131.597656 L 215.054688 131.597656 C 211.390625 131.597656 208.414062 128.625 208.414062 124.957031 C 208.414062 121.289062 211.386719 118.316406 215.054688 118.316406 Z M 215.054688 118.316406 "/>
<path style=" stroke:none;fill-rule:nonzero;fill:rgb(99.607843%,0%,8.627451%);fill-opacity:1;" d="M 298.320312 53.371094 L 298.320312 64.289062 L 294.839844 64.289062 L 290.394531 56.894531 C 290.148438 56.40625 290.148438 56.882812 290.148438 56.882812 L 290.148438 64.289062 L 286.589844 64.289062 L 286.589844 53.371094 L 290.148438 53.371094 C 290.148438 53.371094 294.390625 60.363281 294.621094 60.691406 C 294.839844 61.023438 294.839844 60.691406 294.839844 60.691406 L 294.839844 53.371094 L 298.320312 53.371094 "/>
<path style=" stroke:none;fill-rule:nonzero;fill:rgb(99.607843%,0%,8.627451%);fill-opacity:1;" d="M 300.089844 55.359375 L 303.347656 55.359375 L 303.347656 53.371094 L 300.089844 53.371094 Z M 300.089844 55.359375 "/>
<path style=" stroke:none;fill-rule:nonzero;fill:rgb(99.607843%,0%,8.627451%);fill-opacity:1;" d="M 320.667969 54.980469 L 320.667969 56.164062 L 322.128906 56.164062 L 322.183594 56.882812 L 320.667969 56.882812 L 320.667969 64.292969 L 317.273438 64.292969 L 317.273438 56.882812 L 315.746094 56.882812 L 315.789062 56.164062 L 317.273438 56.164062 L 317.273438 54.980469 L 320.667969 54.980469 "/>
<path style=" stroke:none;fill-rule:nonzero;fill:rgb(99.607843%,0%,8.627451%);fill-opacity:1;" d="M 314.21875 57.246094 C 315.035156 57.898438 315.320312 59.15625 315.320312 59.15625 L 315.320312 64.289062 L 311.898438 64.289062 L 311.898438 59.242188 C 311.898438 59.242188 311.640625 58.050781 310.304688 58.058594 C 308.980469 58.066406 308.722656 59.15625 308.722656 59.15625 L 308.722656 64.289062 L 305.382812 64.289062 L 305.382812 56.882812 L 308.722656 56.882812 C 309.0625 57.519531 309.867188 56.757812 310.5625 56.636719 C 311.832031 56.230469 313.210938 56.636719 314.21875 57.246094 "/>
<path style=" stroke:none;fill-rule:nonzero;fill:rgb(99.607843%,0%,8.627451%);fill-opacity:1;" d="M 300.089844 64.289062 L 303.347656 64.289062 L 303.347656 56.882812 L 300.089844 56.882812 Z M 300.089844 64.289062 "/>
<path style=" stroke:none;fill-rule:nonzero;fill:rgb(99.607843%,0%,8.627451%);fill-opacity:1;" d="M 328.535156 63.0625 C 328.535156 63.0625 328.234375 64.078125 327.160156 64.078125 C 326.082031 64.078125 325.835938 62.9375 325.835938 62.9375 L 325.878906 60.691406 L 332.082031 60.691406 C 332.070312 58.617188 331.195312 57.816406 330.488281 57.304688 C 328.402344 56.164062 325.441406 56.179688 323.410156 57.804688 C 322.703125 58.414062 322.195312 59.53125 322.25 60.597656 C 322.25 61.5625 322.648438 62.527344 323.316406 63.191406 C 324.636719 64.304688 326.617188 64.8125 328.550781 64.410156 C 329.820312 64.003906 331.441406 63.390625 331.796875 61.96875 L 328.550781 61.96875 Z M 325.945312 58.371094 C 325.945312 58.371094 326.164062 57.390625 327.265625 57.390625 C 328.359375 57.390625 328.496094 58.464844 328.496094 58.464844 L 328.523438 59.464844 L 325.945312 59.464844 L 325.945312 58.371094 "/>
<path style=" stroke:none;fill-rule:nonzero;fill:rgb(99.607843%,0%,8.627451%);fill-opacity:1;" d="M 350.628906 53.371094 L 350.628906 57.167969 C 349.507812 56.558594 347.640625 56.179688 346.46875 56.941406 C 344.996094 57.652344 344.492188 59.328125 344.4375 60.804688 C 344.492188 61.917969 345.144531 63.1875 346.113281 63.851562 C 347.328125 64.59375 348.949219 64.699219 350.3125 64.132812 C 350.4375 64.078125 350.570312 64.019531 350.679688 63.953125 C 350.789062 64.035156 350.925781 64.101562 351.078125 64.15625 C 352.046875 64.492188 353.761719 64.289062 353.761719 64.289062 L 353.761719 53.371094 Z M 350.628906 62.96875 C 350.628906 62.96875 350.285156 63.691406 349.316406 63.699219 C 348.554688 63.691406 348.035156 63.148438 348.035156 63.148438 L 348.035156 58.28125 C 348.035156 58.28125 348.253906 57.59375 349.234375 57.601562 C 350.21875 57.609375 350.628906 58.28125 350.628906 58.28125 L 350.628906 62.96875 "/>
<path style=" stroke:none;fill-rule:nonzero;fill:rgb(99.607843%,0%,8.627451%);fill-opacity:1;" d="M 342.308594 57.277344 C 343.113281 57.929688 343.414062 59.1875 343.414062 59.1875 L 343.414062 64.320312 L 339.976562 64.320312 L 339.976562 59.273438 C 339.976562 59.273438 339.71875 58.082031 338.394531 58.089844 C 337.058594 58.097656 336.8125 59.1875 336.8125 59.1875 L 336.8125 64.320312 L 333.460938 64.320312 L 333.460938 56.910156 L 336.8125 56.910156 C 337.140625 57.546875 337.945312 56.785156 338.640625 56.667969 C 339.910156 56.261719 341.285156 56.667969 342.308594 57.277344 "/>
<path style=" stroke:none;fill-rule:nonzero;fill:rgb(99.607843%,0%,8.627451%);fill-opacity:1;" d="M 360.160156 56.417969 C 357.402344 56.417969 355.183594 58.226562 355.183594 60.460938 C 355.183594 62.691406 357.402344 64.5 360.160156 64.5 C 362.898438 64.5 365.121094 62.691406 365.121094 60.460938 C 365.121094 58.226562 362.898438 56.417969 360.160156 56.417969 Z M 361.496094 62.867188 C 361.496094 62.867188 361.15625 63.585938 360.171875 63.59375 C 359.421875 63.585938 358.90625 63.046875 358.90625 63.046875 L 358.90625 58.175781 C 358.90625 58.175781 359.109375 57.492188 360.089844 57.5 C 361.074219 57.507812 361.496094 58.175781 361.496094 58.175781 L 361.496094 62.867188 "/>
<path style=" stroke:none;fill-rule:nonzero;fill:rgb(99.607843%,0%,8.627451%);fill-opacity:1;" d="M 366.570312 57.0625 C 367.292969 57.0625 367.976562 56.777344 368.492188 56.265625 C 369.007812 55.753906 369.296875 55.070312 369.296875 54.347656 C 369.296875 53.621094 369.007812 52.941406 368.492188 52.425781 C 367.976562 51.914062 367.292969 51.628906 366.570312 51.628906 C 365.066406 51.628906 363.847656 52.847656 363.847656 54.347656 C 363.847656 55.070312 364.136719 55.753906 364.652344 56.265625 C 365.167969 56.777344 365.847656 57.0625 366.570312 57.0625 Z M 364.382812 54.347656 C 364.382812 53.765625 364.609375 53.21875 365.023438 52.808594 C 365.4375 52.398438 365.992188 52.167969 366.570312 52.167969 C 367.148438 52.167969 367.707031 52.398438 368.121094 52.808594 C 368.511719 53.21875 368.738281 53.765625 368.738281 54.347656 C 368.738281 55.546875 367.769531 56.523438 366.570312 56.523438 C 365.992188 56.523438 365.4375 56.296875 365.023438 55.886719 C 364.609375 55.476562 364.382812 54.929688 364.382812 54.347656 "/>
<path style=" stroke:none;fill-rule:nonzero;fill:rgb(99.607843%,0%,8.627451%);fill-opacity:1;" d="M 365.992188 53.238281 L 366.921875 53.238281 C 367.046875 53.238281 367.148438 53.257812 367.230469 53.292969 C 367.355469 53.363281 367.4375 53.496094 367.4375 53.695312 C 367.4375 53.875 367.375 54.003906 367.273438 54.074219 C 367.167969 54.140625 367.046875 54.179688 366.859375 54.179688 L 365.992188 54.179688 Z M 365.992188 55.671875 L 365.992188 54.492188 L 366.859375 54.492188 C 367.003906 54.492188 367.128906 54.503906 367.191406 54.539062 C 367.316406 54.601562 367.375 54.722656 367.394531 54.902344 L 367.417969 55.363281 C 367.417969 55.472656 367.417969 55.542969 367.4375 55.582031 C 367.4375 55.617188 367.4375 55.648438 367.457031 55.671875 L 367.910156 55.671875 L 367.910156 55.609375 C 367.851562 55.585938 367.828125 55.53125 367.808594 55.441406 C 367.789062 55.390625 367.765625 55.3125 367.765625 55.207031 L 367.746094 54.839844 C 367.746094 54.679688 367.726562 54.5625 367.664062 54.492188 C 367.621094 54.417969 367.539062 54.359375 367.417969 54.316406 C 367.539062 54.253906 367.644531 54.167969 367.707031 54.066406 C 367.789062 53.960938 367.808594 53.824219 367.808594 53.660156 C 367.808594 53.34375 367.683594 53.125 367.417969 53.007812 C 367.292969 52.945312 367.109375 52.917969 366.902344 52.917969 L 365.621094 52.917969 L 365.621094 55.675781 L 365.992188 55.675781 "/>
<path style=" stroke:none;fill-rule:nonzero;fill:rgb(100%,0%,0%);fill-opacity:1;" d="M 142.953125 92.355469 L 148.386719 92.355469 C 149.9375 92.355469 150.714844 91.644531 150.714844 90.222656 C 150.714844 88.796875 149.9375 88.085938 148.386719 88.085938 L 144.503906 88.085938 L 144.503906 86.921875 L 150.714844 86.921875 L 150.714844 85.371094 L 145.28125 85.371094 C 143.726562 85.371094 142.953125 86.089844 142.953125 87.535156 C 142.953125 88.9375 143.726562 89.640625 145.28125 89.640625 L 149.164062 89.640625 L 149.164062 90.804688 L 142.953125 90.804688 Z M 142.953125 92.355469 "/>
<path style=" stroke:none;fill-rule:nonzero;fill:rgb(100%,0%,0%);fill-opacity:1;" d="M 159.253906 92.355469 L 153.820312 92.355469 C 152.269531 92.355469 151.492188 91.582031 151.492188 90.027344 L 151.492188 85.371094 L 159.253906 85.371094 L 159.253906 86.921875 L 153.046875 86.921875 L 153.046875 88.085938 L 159.253906 88.085938 L 159.253906 89.636719 L 153.046875 89.636719 L 153.046875 90.027344 C 153.046875 90.542969 153.304688 90.804688 153.820312 90.804688 L 159.253906 90.804688 Z M 159.253906 92.355469 "/>
<path style=" stroke:none;fill-rule:nonzero;fill:rgb(100%,0%,0%);fill-opacity:1;" d="M 160.023438 85.359375 L 160.023438 90.019531 C 160.023438 91.570312 160.796875 92.347656 162.351562 92.347656 L 167.785156 92.347656 L 167.785156 90.796875 L 162.351562 90.796875 C 161.832031 90.796875 161.574219 90.535156 161.574219 90.019531 L 161.574219 85.363281 L 160.023438 85.363281 Z M 160.023438 85.359375 "/>
<path style=" stroke:none;fill-rule:nonzero;fill:rgb(100%,0%,0%);fill-opacity:1;" d="M 176.324219 92.355469 L 170.890625 92.355469 C 169.335938 92.355469 168.5625 91.582031 168.5625 90.027344 L 168.5625 85.371094 L 176.324219 85.371094 L 176.324219 86.921875 L 170.113281 86.921875 L 170.113281 88.085938 L 176.324219 88.085938 L 176.324219 89.636719 L 170.113281 89.636719 L 170.113281 90.027344 C 170.113281 90.542969 170.371094 90.804688 170.890625 90.804688 L 176.324219 90.804688 Z M 176.324219 92.355469 "/>
<path style=" stroke:none;fill-rule:nonzero;fill:rgb(100%,0%,0%);fill-opacity:1;" d="M 184.867188 92.355469 L 179.433594 92.355469 C 177.878906 92.355469 177.101562 91.582031 177.101562 90.027344 L 177.101562 87.699219 C 177.101562 86.148438 177.878906 85.371094 179.433594 85.371094 L 184.867188 85.371094 L 184.867188 86.921875 L 179.433594 86.921875 C 178.914062 86.921875 178.65625 87.179688 178.65625 87.699219 L 178.65625 90.027344 C 178.65625 90.546875 178.914062 90.804688 179.433594 90.804688 L 184.867188 90.804688 Z M 184.867188 92.355469 "/>
<path style=" stroke:none;fill-rule:nonzero;fill:rgb(100%,0%,0%);fill-opacity:1;" d="M 185.648438 85.359375 L 193.410156 85.359375 L 193.410156 86.914062 L 190.304688 86.914062 L 190.304688 92.347656 L 188.753906 92.347656 L 188.753906 86.914062 L 185.648438 86.914062 Z M 185.648438 85.359375 "/>
<path style=" stroke:none;fill-rule:nonzero;fill:rgb(100%,0%,0%);fill-opacity:1;" d="M 207.40625 92.355469 L 212.839844 92.355469 C 214.390625 92.355469 215.167969 91.644531 215.167969 90.222656 C 215.167969 88.796875 214.390625 88.085938 212.839844 88.085938 L 208.957031 88.085938 L 208.957031 86.921875 L 215.167969 86.921875 L 215.167969 85.371094 L 209.734375 85.371094 C 208.179688 85.371094 207.402344 86.089844 207.402344 87.535156 C 207.402344 88.9375 208.179688 89.640625 209.734375 89.640625 L 213.613281 89.640625 L 213.613281 90.804688 L 207.402344 90.804688 L 207.402344 92.355469 Z M 207.40625 92.355469 "/>
<path style=" stroke:none;fill-rule:nonzero;fill:rgb(100%,0%,0%);fill-opacity:1;" d="M 215.929688 85.359375 L 223.695312 85.359375 L 223.695312 86.914062 L 220.589844 86.914062 L 220.589844 92.347656 L 219.035156 92.347656 L 219.035156 86.914062 L 215.929688 86.914062 Z M 215.929688 85.359375 "/>
<path style=" stroke:none;fill-rule:nonzero;fill:rgb(100%,0%,0%);fill-opacity:1;" d="M 230.6875 88.859375 L 230.6875 87.695312 C 230.6875 87.175781 230.429688 86.917969 229.910156 86.917969 L 226.808594 86.917969 C 226.289062 86.917969 226.03125 87.175781 226.03125 87.695312 L 226.03125 88.859375 Z M 226.03125 90.410156 L 226.03125 92.351562 L 224.476562 92.351562 L 224.476562 87.695312 C 224.476562 86.140625 225.253906 85.367188 226.808594 85.367188 L 229.914062 85.367188 C 231.464844 85.367188 232.242188 86.140625 232.242188 87.695312 L 232.242188 92.351562 L 230.6875 92.351562 L 230.6875 90.410156 Z M 226.03125 90.410156 "/>
<path style=" stroke:none;fill-rule:nonzero;fill:rgb(100%,0%,0%);fill-opacity:1;" d="M 234.5625 88.078125 L 239.21875 88.078125 L 239.21875 86.914062 L 234.5625 86.914062 Z M 234.5625 89.628906 L 234.5625 92.347656 L 233.011719 92.347656 L 233.011719 85.359375 L 238.445312 85.359375 C 239.996094 85.359375 240.773438 86.070312 240.773438 87.488281 C 240.773438 88.160156 240.660156 88.65625 240.441406 88.972656 C 240.660156 89.339844 240.773438 89.816406 240.773438 90.40625 L 240.773438 92.347656 L 239.222656 92.347656 L 239.222656 90.40625 C 239.222656 89.890625 238.960938 89.628906 238.445312 89.628906 Z M 234.5625 89.628906 "/>
<path style=" stroke:none;fill-rule:nonzero;fill:rgb(100%,0%,0%);fill-opacity:1;" d="M 241.558594 85.359375 L 249.320312 85.359375 L 249.320312 86.914062 L 246.214844 86.914062 L 246.214844 92.347656 L 244.664062 92.347656 L 244.664062 86.914062 L 241.558594 86.914062 Z M 241.558594 85.359375 "/>
<path style=" stroke:none;fill-rule:nonzero;fill:rgb(100%,0%,0%);fill-opacity:1;" d="M 317.40625 154.9375 L 322.976562 154.9375 L 322.976562 153.546875 L 317.40625 153.546875 Z M 317.40625 158.1875 L 322.976562 158.1875 L 322.976562 156.796875 L 317.40625 156.796875 Z M 315.550781 160.046875 L 315.550781 151.6875 L 322.050781 151.6875 C 323.90625 151.6875 324.835938 152.53125 324.835938 154.214844 C 324.835938 154.902344 324.6875 155.453125 324.390625 155.867188 C 324.6875 156.277344 324.835938 156.824219 324.835938 157.511719 C 324.835938 159.199219 323.90625 160.046875 322.050781 160.046875 Z M 315.550781 160.046875 "/>
<path style=" stroke:none;fill-rule:nonzero;fill:rgb(100%,0%,0%);fill-opacity:1;" d="M 377.652344 156.214844 L 377.652344 154.824219 C 377.652344 154.203125 377.34375 153.894531 376.726562 153.894531 L 373.011719 153.894531 C 372.390625 153.894531 372.082031 154.203125 372.082031 154.824219 L 372.082031 156.214844 Z M 372.082031 158.074219 L 372.082031 160.394531 L 370.226562 160.394531 L 370.226562 154.824219 C 370.226562 152.964844 371.15625 152.039062 373.011719 152.039062 L 376.726562 152.039062 C 378.582031 152.039062 379.511719 152.964844 379.511719 154.824219 L 379.511719 160.394531 L 377.65625 160.394531 L 377.65625 158.074219 Z M 372.082031 158.074219 "/>
<path style="fill:none;stroke-width:0.5;stroke-linecap:butt;stroke-linejoin:miter;stroke:rgb(0%,0%,0%);stroke-opacity:1;stroke-miterlimit:4;" d="M 63.181625 408.3415 L 57.702875 413.814625 L 52.22975 419.293375 L 57.702875 424.772125 L 63.181625 430.250875 L 63.181625 426.96025 L 74.1335 426.96025 L 74.1335 411.6265 L 63.181625 411.6265 Z M 63.181625 408.3415 " transform="matrix(0.694444,0,0,0.694444,0.00277778,-187.523611)"/>
<path style="fill:none;stroke-width:0.5;stroke-linecap:butt;stroke-linejoin:miter;stroke:rgb(0%,0%,0%);stroke-opacity:1;stroke-miterlimit:4;" d="M 139.681625 408.3415 L 145.160375 413.814625 L 150.639125 419.293375 L 139.681625 430.250875 L 139.681625 426.96025 L 128.72975 426.96025 L 128.72975 411.6265 L 139.681625 411.6265 Z M 139.681625 408.3415 " transform="matrix(0.694444,0,0,0.694444,0.00277778,-187.523611)"/>
<path style="fill:none;stroke-width:0.5;stroke-linecap:butt;stroke-linejoin:miter;stroke:rgb(0%,0%,0%);stroke-opacity:1;stroke-miterlimit:4;" d="M 112.276625 380.6665 L 106.797875 375.193375 L 101.32475 369.714625 L 95.846 375.193375 L 90.36725 380.6665 L 93.65225 380.6665 L 93.65225 391.624 L 108.991625 391.624 L 108.991625 380.6665 Z M 112.276625 380.6665 " transform="matrix(0.694444,0,0,0.694444,0.00277778,-187.523611)"/>
<path style="fill:none;stroke-width:0.5;stroke-linecap:butt;stroke-linejoin:miter;stroke:rgb(0%,0%,0%);stroke-opacity:1;stroke-miterlimit:4;" d="M 112.276625 458.330875 L 106.797875 463.809625 L 101.32475 469.288375 L 90.36725 458.330875 L 93.65225 458.330875 L 93.65225 447.379 L 108.991625 447.379 L 108.991625 458.330875 Z M 112.276625 458.330875 " transform="matrix(0.694444,0,0,0.694444,0.00277778,-187.523611)"/>
<path style="fill:none;stroke-width:0.7366;stroke-linecap:butt;stroke-linejoin:miter;stroke:rgb(0%,0%,0%);stroke-opacity:1;stroke-miterlimit:4;" d="M 114.64475 419.113375 C 114.650375 426.369625 108.77225 432.259 101.510375 432.264625 C 94.2485 432.27025 88.36475 426.3865 88.359125 419.13025 C 88.359125 419.124625 88.359125 419.113375 88.359125 419.10775 C 88.3535 411.8515 94.231625 405.962125 101.4935 405.9565 C 108.74975 405.950875 114.639125 411.834625 114.64475 419.090875 C 114.64475 419.0965 114.64475 419.10775 114.64475 419.113375 Z M 114.64475 419.113375 " transform="matrix(0.694444,0,0,0.694444,0.00277778,-187.523611)"/>
<path style=" stroke:none;fill-rule:nonzero;fill:rgb(10.196078%,10.196078%,10.196078%);fill-opacity:1;" d="M 158.476562 119.609375 L 175.414062 119.609375 C 179.078125 119.609375 182.050781 122.003906 182.050781 124.960938 C 182.050781 127.914062 179.078125 130.308594 175.414062 130.308594 L 158.476562 130.308594 C 154.808594 130.308594 151.835938 127.914062 151.835938 124.960938 C 151.835938 122.003906 154.808594 119.609375 158.476562 119.609375 Z M 158.476562 119.609375 "/>
<path style=" stroke:none;fill-rule:nonzero;fill:rgb(10.196078%,10.196078%,10.196078%);fill-opacity:1;" d="M 216.789062 119.609375 L 233.726562 119.609375 C 237.394531 119.609375 240.367188 122.003906 240.367188 124.960938 C 240.367188 127.914062 237.394531 130.308594 233.726562 130.308594 L 216.789062 130.308594 C 213.125 130.308594 210.152344 127.914062 210.152344 124.960938 C 210.152344 122.003906 213.121094 119.609375 216.789062 119.609375 Z M 216.789062 119.609375 "/>
</g>
</svg>
