/* XPM */
static char * target_48x48_xpm[] = {
"48 48 3 1",
" 	c None",
".	c #FFFFFF",
"+	c #000000",
"                                                ",
"                        .                       ",
"                       .+.                      ",
"                       .+.                      ",
"                       .+.                      ",
"                       .+.                      ",
"                       .+.                      ",
"                       .+.                      ",
"                       .+.                      ",
"                       .+.                      ",
"                       .+.                      ",
"                       .+.                      ",
"                       .+.                      ",
"                       .+.                      ",
"                       .+.                      ",
"                       .+.                      ",
"                       .+.                      ",
"                       .+.                      ",
"                       .+.                      ",
"                       .+.                      ",
"                    ....+....                   ",
"                    .+++++++.                   ",
"                    .+.....+.                   ",
"  ...................+.   .+..................  ",
" .++++++++++++++++++++.   .+++++++++++++++++++. ",
"  ...................+.   .+..................  ",
"                    .+.....+.                   ",
"                    .+++++++.                   ",
"                    ....+....                   ",
"                       .+.                      ",
"                       .+.                      ",
"                       .+.                      ",
"                       .+.                      ",
"                       .+.                      ",
"                       .+.                      ",
"                       .+.                      ",
"                       .+.                      ",
"                       .+.                      ",
"                       .+.                      ",
"                       .+.                      ",
"                       .+.                      ",
"                       .+.                      ",
"                       .+.                      ",
"                       .+.                      ",
"                       .+.                      ",
"                       .+.                      ",
"                        .                       ",
"                                                "};
