<svg id="Layer_1" enable-background="new 0 0 512 512" height="512" viewBox="0 0 512 512" width="512" xmlns="http://www.w3.org/2000/svg"><g><path d="m504.703 378.988h-.58c0-28.71-41.6-54.1-105.31-69.49-40.45-9.77-89.81-15.51-143.1-15.51-53.28 0-102.65 5.74-143.1 15.52-61.13 14.76-101.91 38.73-105.11 66.01l.2-227c0-46.94 111.21-85 248.41-85 137.19 0 248.41 38.06 248.41 85z" fill="#5cd5ff"/><path d="m398.813 264.828v44.67c-8.11-1.96-16.57-3.75-25.36-5.37-35.04-6.47-75.13-10.14-117.74-10.14-53.28 0-102.65 5.74-143.1 15.52v-56.81l30.38-6.25 47.88-67.9 59.4 64.41 58.42-43.44 58.7 58.72 6.06 1.27z" fill="#91ff31"/><path d="m398.813 264.828v44.67c-8.11-1.96-16.57-3.75-25.36-5.37v-44.62z" fill="#00ea80"/><path d="m7.5 148.52c0 28.682 41.519 54.047 105.114 69.44v230.52c-63.712-15.389-105.114-40.777-105.114-69.49z" fill="#5ab5ff"/><path d="m504.326 148.52.174 230.47c0 28.714-41.989 54.102-105.701 69.49l.022-230.425c63.816-15.385 105.505-40.794 105.505-69.535" fill="#5ab5ff"/><path d="m283.963 135.728c0 15.55-12.61 28.16-28.15 28.16-4.06 0-7.91-.86-11.39-2.41-9.87-4.37-16.76-14.25-16.76-25.75s6.89-21.38 16.76-25.75c3.48-1.55 7.33-2.41 11.39-2.41 15.54 0 28.15 12.61 28.15 28.16z" fill="#ffeb31"/><path d="m283.963 135.728c0 15.55-12.61 28.16-28.15 28.16-4.06 0-7.91-.86-11.39-2.41 9.87-4.37 16.76-14.26 16.76-25.75s-6.89-21.38-16.76-25.75c3.48-1.55 7.33-2.41 11.39-2.41 15.54 0 28.15 12.61 28.15 28.16z" fill="#ffce00"/></g><g><path d="m511.826 148.514v-.003c-.007-26.19-27.709-50.074-78.007-67.252-3.914-1.34-8.183.752-9.521 4.674-1.339 3.92.754 8.183 4.674 9.521 43.122 14.727 67.854 34.068 67.854 53.065 0 23.559-38.227 47.409-99.763 62.243-3.368.812-5.742 3.825-5.742 7.29l-.004 37.537-20.2-4.236-57.12-57.141c-2.633-2.633-6.794-2.936-9.78-.716l-53.007 39.417-54.818-59.452c-1.535-1.666-3.737-2.547-6.003-2.4-2.261.148-4.333 1.311-5.639 3.162l-46.178 65.479-18.458 3.799v-25.543c0-3.463-2.37-6.475-5.736-7.289-61.298-14.836-99.378-38.65-99.378-62.149 0-18.969 24.671-38.289 67.687-53.008 46.157-15.794 107.677-24.492 173.226-24.492 50.937 0 99.743 5.274 141.143 15.254 4.028.977 8.079-1.507 9.049-5.533.971-4.027-1.507-8.078-5.533-9.049-42.534-10.253-92.556-15.672-144.659-15.672-67.158 0-130.402 8.985-178.083 25.3-50.189 17.174-77.83 41.039-77.83 67.2v65c0 4.143 3.358 7.5 7.5 7.5s7.5-3.357 7.5-7.5v-32.771c16.949 17.301 47.792 32.215 90.114 43.071v215.018c-55.845-14.902-90.114-37.498-90.114-59.848v-130.47c0-4.143-3.358-7.5-7.5-7.5s-7.5 3.357-7.5 7.5v130.47c0 31.779 40.404 59.765 110.853 76.78.583.141 1.173.21 1.761.21 1.666 0 3.304-.556 4.639-1.607 1.807-1.422 2.861-3.594 2.861-5.893v-133.035c8.968-2.037 18.358-3.878 27.996-5.488 4.085-.683 6.844-4.547 6.162-8.633s-4.548-6.854-8.633-6.162c-8.74 1.459-17.289 3.105-25.525 4.914v-41.26l24.388-5.019c1.868-.384 3.519-1.465 4.618-3.023l42.537-60.317 53.1 57.588c2.601 2.822 6.91 3.224 9.989.935l53.223-39.577 54.118 54.138c1.031 1.03 2.339 1.738 3.766 2.038l25.464 5.339-.003 29.161c-40.503-8.902-87.15-13.588-135.607-13.588-26.176 0-51.974 1.373-76.68 4.081-4.117.451-7.089 4.154-6.638 8.272s4.153 7.092 8.273 6.638c24.165-2.648 49.413-3.991 75.045-3.991 48.689 0 95.421 4.818 135.605 13.957l-.013 133.032c0 2.3 1.054 4.472 2.86 5.894 1.336 1.052 2.974 1.607 4.64 1.607.588 0 1.179-.069 1.761-.21 70.822-17.106 111.44-45.092 111.44-76.787zm-105.526 290.325.021-214.919c42.547-10.87 73.535-25.827 90.53-43.19l.149 198.26c0 22.274-34.493 44.874-90.7 59.849z"/><path d="m220.16 135.725c0 19.662 15.992 35.659 35.649 35.659s35.649-15.997 35.649-35.659-15.992-35.659-35.649-35.659-35.649 15.997-35.649 35.659zm56.299 0c0 11.392-9.264 20.659-20.649 20.659-11.386 0-20.649-9.268-20.649-20.659s9.263-20.659 20.649-20.659c11.385 0 20.649 9.267 20.649 20.659z"/></g></svg>