<?xml version="1.0" encoding="iso-8859-1"?>
<!-- Generator: Adobe Illustrator 19.0.0, SVG Export Plug-In . SVG Version: 6.00 Build 0)  -->
<svg version="1.1" id="Layer_1" xmlns="http://www.w3.org/2000/svg" xmlns:xlink="http://www.w3.org/1999/xlink" x="0px" y="0px"
	 viewBox="0 0 512.001 512.001" style="enable-background:new 0 0 512.001 512.001;" xml:space="preserve">
<g>
	<path style="fill:#ED8C18;" d="M256.002,309.332c-64.801,0-117.333-52.531-117.333-117.332c0-64.8,52.532-117.334,117.333-117.334
		c64.8,0,117.332,52.534,117.332,117.334C373.334,256.801,320.802,309.332,256.002,309.332L256.002,309.332z M320.001,373.333
		c0-35.347-28.654-64.001-63.999-64.001c-35.346,0-64,28.654-64,64.001s28.654,64.001,64,64.001
		C291.346,437.334,320.001,408.68,320.001,373.333L320.001,373.333z M415.678,10.668H96.324c-23.644,0-42.991,19.345-42.991,42.99
		v447.676h405.335V53.658C458.668,30.012,439.322,10.668,415.678,10.668z"/>
	<path style="fill:#ABB8B9;" d="M256.002,309.332c-35.346,0-64,28.654-64,64.001s28.654,64.001,64,64.001
		c35.345,0,63.999-28.654,63.999-64.001C320.001,337.986,291.346,309.332,256.002,309.332L256.002,309.332z M256.002,352
		c11.781,0,21.332,9.548,21.332,21.333s-9.551,21.333-21.332,21.333c-11.782,0-21.333-9.548-21.333-21.333
		C234.669,361.548,244.22,352,256.002,352z"/>
	<path style="fill:#657694;" d="M138.668,192c0,64.801,52.532,117.332,117.333,117.332c64.8,0,117.332-52.531,117.332-117.332
		c0-64.8-52.532-117.334-117.332-117.334C191.201,74.665,138.668,127.2,138.668,192L138.668,192z M330.667,192
		c0,41.237-33.429,74.666-74.665,74.666S181.334,233.237,181.334,192c0-41.236,33.432-74.665,74.668-74.665
		C297.239,117.334,330.667,150.763,330.667,192z"/>
	<path style="fill:#ABB8B9;" d="M181.334,192c0,41.237,33.432,74.666,74.668,74.666s74.665-33.429,74.665-74.666
		c0-41.236-33.429-74.665-74.665-74.665C214.765,117.334,181.334,150.763,181.334,192L181.334,192z M256.002,170.668
		c11.781,0,21.332,9.549,21.332,21.332c0,11.78-9.551,21.333-21.332,21.333c-11.782,0-21.333-9.553-21.333-21.333
		C234.669,180.216,244.22,170.668,256.002,170.668z"/>
	<g>
		<circle style="fill:#657694;" cx="256" cy="192.005" r="21.333"/>
		<circle style="fill:#657694;" cx="256" cy="373.332" r="21.333"/>
	</g>
	<g>
		<path style="fill:#000003;" d="M415.678,0H96.324C66.737,0,42.665,24.07,42.665,53.658v447.676
			c0,5.891,4.776,10.668,10.668,10.668h405.335c5.892,0,10.668-4.777,10.668-10.668V53.658C469.336,24.07,445.266,0,415.678,0z
			 M448.001,490.665H64V53.658c0-17.823,14.501-32.323,32.324-32.323h319.354c17.823,0,32.323,14.499,32.323,32.323L448.001,490.665
			L448.001,490.665z"/>
		<path style="fill:#000003;" d="M106.668,192c0-16.457,2.696-32.694,8.015-48.261c1.905-5.576-1.071-11.639-6.645-13.543
			c-5.575-1.904-11.638,1.071-13.544,6.646c-6.078,17.792-9.16,36.351-9.16,55.158c0,29.917,7.907,59.426,22.867,85.334
			c1.976,3.422,5.561,5.335,9.248,5.335c1.809,0,3.644-0.461,5.324-1.431c5.102-2.946,6.851-9.47,3.904-14.572
			C113.587,243.996,106.668,218.177,106.668,192z"/>
		<path style="fill:#000003;" d="M389.231,102.761c-5.102,2.945-6.851,9.47-3.904,14.572c13.088,22.67,20.006,48.489,20.006,74.666
			c0,16.449-2.696,32.687-8.013,48.264c-1.904,5.576,1.073,11.638,6.648,13.541c1.142,0.389,2.304,0.575,3.448,0.575
			c4.436,0,8.58-2.791,10.095-7.224c6.075-17.801,9.157-36.358,9.157-55.156c0-29.917-7.907-59.426-22.865-85.334
			C400.858,101.563,394.332,99.814,389.231,102.761z"/>
		<path style="fill:#000003;" d="M384.002,192c0-70.581-57.42-128.002-128-128.002c-70.579,0-127.999,57.421-127.999,128.002
			c0,55.425,35.412,102.728,84.797,120.49c-19.023,13.547-31.466,35.763-31.466,60.843c0,41.17,33.495,74.664,74.667,74.664
			s74.668-33.494,74.668-74.664c0-25.082-12.443-47.297-31.467-60.843C348.59,294.729,384.002,247.425,384.002,192z
			 M309.336,373.333c0,29.405-23.925,53.329-53.333,53.329c-29.408,0-53.332-23.924-53.332-53.329
			c0-29.408,23.924-53.333,53.332-53.333C285.41,319.999,309.336,343.924,309.336,373.333z M256.002,298.664
			c-58.815,0-106.664-47.849-106.664-106.665c0-58.817,47.849-106.667,106.664-106.667S362.667,133.183,362.667,192
			C362.667,250.815,314.816,298.664,256.002,298.664z"/>
		<path style="fill:#000003;" d="M256.002,106.663c-47.053,0-85.334,38.283-85.334,85.337c0,47.053,38.28,85.334,85.334,85.334
			s85.335-38.28,85.335-85.334C341.337,144.945,303.056,106.663,256.002,106.663z M256.002,255.998
			c-35.289,0-63.999-28.71-63.999-63.999c0-35.29,28.71-64.002,63.999-64.002c35.289,0,64,28.712,64,64.002
			C320.002,227.289,291.291,255.998,256.002,255.998z"/>
		<path style="fill:#000003;" d="M256.002,160c-17.645,0-32,14.355-32,31.999c0,17.645,14.355,32,32,32s32.002-14.355,32.002-32
			C288.004,174.356,273.647,160,256.002,160z M256.002,202.665c-5.882,0-10.665-4.784-10.665-10.665
			c0-5.88,4.783-10.664,10.665-10.664c5.882,0,10.666,4.784,10.666,10.664C266.669,197.881,261.883,202.665,256.002,202.665z"/>
		<path style="fill:#000003;" d="M256.002,405.333c17.645,0,32.002-14.355,32.002-32c0-17.645-14.356-32-32.002-32s-32,14.355-32,32
			C224.002,390.978,238.357,405.333,256.002,405.333z M256.002,362.667c5.882,0,10.666,4.784,10.666,10.665
			s-4.784,10.665-10.666,10.665c-5.882,0-10.665-4.784-10.665-10.665S250.12,362.667,256.002,362.667z"/>
		<path style="fill:#000003;" d="M111.954,121.688c1.659,0.939,3.463,1.386,5.243,1.386c3.719,0,7.332-1.948,9.294-5.416
			l0.187-0.327c2.945-5.103,1.195-11.627-3.91-14.571c-5.102-2.945-11.625-1.194-14.57,3.909l-0.275,0.481
			C105.021,112.277,106.827,118.786,111.954,121.688z"/>
		<path style="fill:#000003;" d="M389.428,281.284c1.659,0.939,3.463,1.386,5.243,1.386c3.719,0,7.332-1.948,9.294-5.416
			l0.187-0.328c2.945-5.103,1.195-11.627-3.91-14.571c-5.102-2.945-11.625-1.194-14.57,3.91l-0.275,0.481
			C382.496,271.873,384.302,278.382,389.428,281.284z"/>
		<path style="fill:#000003;" d="M106.666,437.329c-5.874,0-10.665,4.792-10.665,10.67c0,5.876,4.792,10.668,10.665,10.668
			c5.876,0,10.67-4.792,10.67-10.668C117.336,442.121,112.542,437.329,106.666,437.329z"/>
		<path style="fill:#000003;" d="M149.333,437.329c-5.878,0-10.669,4.792-10.669,10.67c0,5.876,4.791,10.668,10.669,10.668
			c5.875,0,10.665-4.792,10.665-10.668C159.999,442.121,155.207,437.329,149.333,437.329z"/>
	</g>
</g>
<g>
</g>
<g>
</g>
<g>
</g>
<g>
</g>
<g>
</g>
<g>
</g>
<g>
</g>
<g>
</g>
<g>
</g>
<g>
</g>
<g>
</g>
<g>
</g>
<g>
</g>
<g>
</g>
<g>
</g>
</svg>
