<?xml version="1.0" encoding="iso-8859-1"?>
<!-- Generator: Adobe Illustrator 19.0.0, SVG Export Plug-In . SVG Version: 6.00 Build 0)  -->
<svg version="1.1" id="Capa_1" xmlns="http://www.w3.org/2000/svg" xmlns:xlink="http://www.w3.org/1999/xlink" x="0px" y="0px"
	 viewBox="0 0 512 512" style="enable-background:new 0 0 512 512;" xml:space="preserve">
<polygon style="fill:#BABABA;" points="470.367,63.568 448.435,41.635 468.327,9.584 504.432,7.57 502.418,43.675 "/>
<path style="fill:#DFEAEF;" d="M301.463,248.925l-38.387-38.387l170.97-170.97c3.772-3.772,9.889-3.772,13.661,0l24.726,24.726
	c3.772,3.772,3.772,9.889,0,13.661L301.463,248.925z"/>
<g>
	<path style="fill:#BABABA;" d="M278.744,294.444l60.632-60.632c6.853-6.853,6.853-17.963,0-24.816l-36.37-36.37
		c-6.853-6.853-17.963-6.853-24.816,0l-60.632,60.632L278.744,294.444z"/>
	
		<rect x="367.013" y="96.841" transform="matrix(0.7071 0.7071 -0.7071 0.7071 198.7755 -244.1957)" style="fill:#BABABA;" width="54.289" height="42.01"/>
</g>
<path style="fill:#BFCFD6;" d="M472.433,64.295L460.07,51.932l-177.8,177.8l19.193,19.193l170.97-170.97
	C476.205,74.183,476.206,68.067,472.433,64.295z"/>
<g>
	<polygon style="fill:#A4A5A4;" points="470.368,63.568 502.418,43.675 504.432,7.57 459.401,52.601 	"/>
	<path style="fill:#A4A5A4;" d="M339.377,208.996l-18.186-18.185l-73.04,73.04l30.593,30.593l60.632-60.632
		C346.229,226.959,346.229,215.849,339.377,208.996z"/>
	
		<rect x="390.192" y="106.438" transform="matrix(0.7071 0.7071 -0.7071 0.7071 208.3745 -248.1755)" style="fill:#A4A5A4;" width="27.14" height="42.01"/>
</g>
<path style="fill:#8FD649;" d="M70.869,490.465l-49.332-49.332c-9.295-9.295-9.295-24.365,0-33.66l202.408-202.408
	c9.295-9.295,24.365-9.295,33.66,0l49.332,49.332c9.295,9.295,9.295,24.365,0,33.66L104.528,490.465
	C95.233,499.76,80.163,499.76,70.869,490.465z"/>
<path style="fill:#66CB54;" d="M306.936,254.398l-37.249-37.249c9.295,9.295,9.295,24.365,0,33.66L67.279,453.216
	c-9.295,9.295-24.365,9.295-33.66,0l37.249,37.249c9.295,9.295,24.365,9.295,33.66,0l202.408-202.408
	C316.231,278.763,316.231,263.693,306.936,254.398z"/>
<path d="M197.531,386.758l-98.355,98.356c-3.066,3.066-7.142,4.754-11.478,4.754s-8.412-1.689-11.478-4.754l-49.332-49.333
	c-3.066-3.066-4.754-7.142-4.754-11.478s1.689-8.412,4.754-11.478l98.356-98.355c2.956-2.956,2.956-7.748,0-10.704
	c-2.956-2.957-7.748-2.956-10.704,0l-98.356,98.355c-5.925,5.925-9.188,13.803-9.188,22.182s3.263,16.257,9.188,22.182
	l19.314,19.314l-33.281,33.28c-2.956,2.956-2.956,7.748,0,10.704s7.748,2.956,10.704,0l33.28-33.281l19.314,19.314
	c5.925,5.925,13.803,9.188,22.182,9.188s16.257-3.263,22.182-9.188l98.355-98.356c2.956-2.956,2.956-7.748,0-10.704
	C205.28,383.802,200.487,383.802,197.531,386.758z"/>
<path d="M509.784,2.218c-1.523-1.524-3.621-2.327-5.773-2.205l-36.105,2.013c-2.465,0.137-4.708,1.468-6.01,3.566l-15.263,24.591
	c-6.065-2.142-13.094-0.81-17.939,4.033L300.816,162.095c-9.223-4.096-20.426-2.374-27.978,5.178l-24.254,24.254
	c-10.388-2.653-21.878,0.072-29.992,8.187l-75.508,75.508c-2.956,2.956-2.956,7.748,0,10.704c2.956,2.956,7.748,2.956,10.704,0
	l75.508-75.508c4.722-4.721,11.65-5.915,17.493-3.593l0.674,0.305c0.892,0.403,1.733,0.877,2.52,1.414
	c0.097,0.067,0.191,0.141,0.287,0.211c0.293,0.209,0.583,0.422,0.859,0.649c0.385,0.319,0.762,0.654,1.123,1.014l49.332,49.332
	c0.361,0.361,0.695,0.738,1.015,1.123c0.229,0.278,0.442,0.569,0.653,0.864c0.068,0.094,0.14,0.185,0.206,0.28
	c0.537,0.788,1.012,1.63,1.416,2.523l0.305,0.673c2.322,5.843,1.127,12.772-3.594,17.493l-75.508,75.508
	c-2.956,2.956-2.956,7.748,0,10.704c1.478,1.478,3.415,2.217,5.352,2.217c1.937,0,3.874-0.739,5.352-2.217l75.508-75.508
	c8.115-8.115,10.839-19.604,8.186-29.992l24.254-24.254c7.552-7.552,9.274-18.754,5.178-27.977l48.597-48.598l0,0l24.297-24.297
	l54.984-54.985c4.844-4.844,6.175-11.873,4.033-17.939l24.591-15.263c2.097-1.302,3.428-3.545,3.566-6.01l2.013-36.105
	C512.109,5.841,511.307,3.741,509.784,2.218z M334.024,228.46l-21.169,21.169c-0.187-0.197-0.376-0.391-0.568-0.582l-49.332-49.332
	c-0.192-0.192-0.386-0.381-0.582-0.568l21.168-21.169c3.605-3.605,9.301-3.863,13.213-0.788l0.29,0.246
	c0.206,0.175,0.414,0.347,0.609,0.542l36.37,36.37c0.195,0.196,0.369,0.405,0.545,0.612l0.237,0.278
	C337.888,219.151,337.631,224.852,334.024,228.46z M340.385,199.3l-27.682-27.683l47.415-47.415l27.683,27.683L340.385,199.3z
	 M398.504,141.181l-27.683-27.683l19.001-19.001l27.682,27.682L398.504,141.181z M467.081,72.603l-38.872,38.872l-27.683-27.683
	l38.872-38.872c0.816-0.816,2.143-0.816,2.958,0l1.24,1.24l22.246,22.246l1.24,1.24C467.896,70.462,467.896,71.788,467.081,72.603z
	 M495.081,39.321l-22.779,14.138l-13.758-13.758l14.138-22.779l23.723-1.323L495.081,39.321z"/>
<g>
</g>
<g>
</g>
<g>
</g>
<g>
</g>
<g>
</g>
<g>
</g>
<g>
</g>
<g>
</g>
<g>
</g>
<g>
</g>
<g>
</g>
<g>
</g>
<g>
</g>
<g>
</g>
<g>
</g>
</svg>
