<svg height="496pt" viewBox="0 -24 496 496" width="496pt" xmlns="http://www.w3.org/2000/svg"><path d="m160 136-152 255.601562v16.398438c0 17.671875 14.328125 32 32 32h296l-45.199219-78.078125zm0 0" fill="#c2fb3b"/><path d="m456 8h-416c-17.671875 0-32 14.328125-32 32v351.601562l152-255.601562 130.800781 225.921875 77.199219-129.921875 113.214844 195.488281c4.375-5.558593 6.761718-12.417969 6.785156-19.488281v-368c0-17.671875-14.328125-32-32-32zm-88 176c-26.507812 0-48-21.492188-48-48s21.492188-48 48-48 48 21.492188 48 48-21.492188 48-48 48zm0 0" fill="#006df0"/><path d="m290.800781 361.921875 45.199219 78.078125h120c9.894531-.023438 19.210938-4.648438 25.214844-12.511719l-113.214844-195.488281zm0 0" fill="#c2fb3b"/><path d="m416 136c0 26.507812-21.492188 48-48 48s-48-21.492188-48-48 21.492188-48 48-48 48 21.492188 48 48zm0 0" fill="#ffda44"/><path d="m496 40c-.027344-22.082031-17.917969-39.9726562-40-40h-416c-22.082031.0273438-39.9726562 17.917969-40 40v368c.0273438 22.082031 17.917969 39.972656 40 40h416c12-.042969 23.339844-5.507812 30.855469-14.863281.433593-.410157.816406-.871094 1.144531-1.367188 5.171875-6.847656 7.976562-15.191406 8-23.769531zm-456-24h416c13.253906 0 24 10.746094 24 24v368c0 .414062-.105469.800781-.121094 1.214844l-104.957031-181.214844c-1.421875-2.460938-4.039063-3.984375-6.882813-4h-.039062c-2.824219 0-5.4375 1.484375-6.878906 3.910156l-70.234375 118.203125-123.964844-214.113281c-1.421875-2.457031-4.035156-3.980469-6.875-4h-.046875c-2.820312 0-5.429688 1.488281-6.871094 3.910156l-137.128906 230.59375v-322.503906c0-13.253906 10.746094-24 24-24zm-24 392v-14.207031l143.902344-241.984375 162.226562 280.191406h-282.128906c-13.253906 0-24-10.746094-24-24zm324.609375 24-40.539063-70.023438 67.839844-114.160156 103.394532 178.519532c-4.273438 3.632812-9.695313 5.640624-15.304688 5.664062zm0 0"/><path d="m368 192c30.929688 0 56-25.070312 56-56s-25.070312-56-56-56-56 25.070312-56 56c.035156 30.914062 25.085938 55.964844 56 56zm0-96c22.089844 0 40 17.910156 40 40s-17.910156 40-40 40-40-17.910156-40-40c.027344-22.082031 17.917969-39.972656 40-40zm0 0"/></svg>