<svg id="Layer_1" enable-background="new 0 0 512 512" height="512" viewBox="0 0 512 512" width="512" xmlns="http://www.w3.org/2000/svg"><path d="m496 168c0 188.059 1.277 182.527-3.09 196.91-8.96 29.57-36.42 51.09-68.91 51.09h-336c-39.76 0-72-32.24-72-72v-176c0-39.833 32.319-72 72-72h336c39.76 0 72 32.24 72 72z" fill="#6994ff"/><path d="m496 168c0 188.059 1.277 182.527-3.09 196.91-14.542 4.415 8.361 3.09-356.91 3.09-39.76 0-72-32.24-72-72 0-188.059-1.277-182.527 3.09-196.91 14.542-4.415-8.361-3.09 356.91-3.09 39.76 0 72 32.24 72 72z" fill="#80aaff"/><g fill="#ece2e2"><path d="m392 288h-24c-8.837 0-16 7.163-16 16s7.163 16 16 16h24c22.056 0 40-17.944 40-40s-17.944-40-40-40c-4.411 0-8-3.589-8-8s3.589-8 8-8h24c8.837 0 16-7.163 16-16s-7.163-16-16-16h-24c-22.056 0-40 17.944-40 40s17.944 40 40 40c4.411 0 8 3.589 8 8s-3.589 8-8 8z"/><path d="m167.978 256c19.65-26.115 1.059-64-31.978-64h-40c-8.837 0-16 7.163-16 16v96c0 8.837 7.163 16 16 16h40c33.067 0 51.605-37.915 31.978-64zm-55.978-32h24c4.411 0 8 3.589 8 8s-3.589 8-8 8h-24zm0 48h24c4.411 0 8 3.589 8 8s-3.589 8-8 8h-24z"/><path d="m208 320c8.837 0 16-7.163 16-16v-96c0-8.837-7.163-16-16-16s-16 7.163-16 16v96c0 8.837 7.163 16 16 16z"/><path d="m288 320c26.468 0 48-21.532 48-48v-32c0-26.468-21.532-48-48-48s-48 21.532-48 48v32c0 26.468 21.532 48 48 48zm-16-80c0-8.822 7.178-16 16-16s16 7.178 16 16v32c0 8.822-7.178 16-16 16s-16-7.178-16-16z"/></g><path d="m480 448c-11.818 0-22.153 6.445-27.695 16h-52.305v-48h32c35.29 0 64-28.71 64-64v-192c0-35.29-28.71-64-64-64h-32v-48h52.305c5.542 9.555 15.877 16 27.695 16 17.645 0 32-14.355 32-32s-14.355-32-32-32c-11.818 0-22.153 6.445-27.695 16h-68.305c-8.837 0-16 7.163-16 16v64h-32v-48c0-8.837-7.163-16-16-16s-16 7.163-16 16v48h-32v-80c0-8.837-7.163-16-16-16s-16 7.163-16 16v80h-32v-48c0-8.837-7.163-16-16-16s-16 7.163-16 16v48h-32v-64c0-8.837-7.163-16-16-16h-68.305c-5.542-9.555-15.877-16-27.695-16-17.645 0-32 14.355-32 32s14.355 32 32 32c11.818 0 22.153-6.445 27.695-16h52.305v48h-32c-35.29 0-64 28.71-64 64v192c0 35.29 28.71 64 64 64h32v48h-52.305c-5.542-9.555-15.877-16-27.695-16-17.645 0-32 14.355-32 32s14.355 32 32 32c11.818 0 22.153-6.445 27.695-16h68.305c8.837 0 16-7.163 16-16v-64h32v48c0 8.837 7.163 16 16 16s16-7.163 16-16v-48h32v80c0 8.837 7.163 16 16 16s16-7.163 16-16v-80h32v48c0 8.837 7.163 16 16 16s16-7.163 16-16v-48h32v64c0 8.837 7.163 16 16 16h68.305c5.542 9.555 15.877 16 27.695 16 17.645 0 32-14.355 32-32s-14.355-32-32-32zm-432-96v-192c0-17.645 14.355-32 32-32h352c17.645 0 32 14.355 32 32v192c0 17.645-14.355 32-32 32h-352c-17.645 0-32-14.355-32-32z"/></svg>