<?xml version="1.0" encoding="iso-8859-1"?>
<!-- Generator: Adobe Illustrator 19.0.0, SVG Export Plug-In . SVG Version: 6.00 Build 0)  -->
<svg version="1.1" id="Capa_1" xmlns="http://www.w3.org/2000/svg" xmlns:xlink="http://www.w3.org/1999/xlink" x="0px" y="0px"
	 viewBox="0 0 512 512" style="enable-background:new 0 0 512 512;" xml:space="preserve">
<path style="fill:#FFDB2D;" d="M512,396H0V296h512V396z"/>
<rect x="256" y="296" style="fill:#FEC000;" width="256" height="100"/>
<g>
	<rect x="241" y="311" style="fill:#FFB74F;" width="30" height="85"/>
	<rect x="181" y="311" style="fill:#FFB74F;" width="30" height="85"/>
	<rect x="121" y="311" style="fill:#FFB74F;" width="30" height="85"/>
	<rect x="61" y="311" style="fill:#FFB74F;" width="30" height="85"/>
</g>
<g>
	<rect x="421" y="311" style="fill:#FF9A00;" width="30" height="85"/>
	<rect x="361" y="311" style="fill:#FF9A00;" width="30" height="85"/>
	<rect x="301" y="311" style="fill:#FF9A00;" width="30" height="85"/>
	<rect x="256" y="311" style="fill:#FF9A00;" width="15" height="85"/>
</g>
<path style="fill:#00C379;" d="M512,326H0v-90h15c8.271,0,15-6.729,15-15s-6.729-15-15-15H0v-90h512v90h-15c-8.271,0-15,6.729-15,15
	s6.729,15,15,15h15V326z"/>
<path style="fill:#00A753;" d="M497,206h15v-90H256v210h256v-90h-15c-8.271,0-15-6.729-15-15S488.729,206,497,206z"/>
<path style="fill:#78777F;" d="M296,281h-80V161h80V281z"/>
<path style="fill:#57555C;" d="M416,281h-80V161h80V281z"/>
<path style="fill:#78777F;" d="M176,281H96V161h80V281z"/>
<path style="fill:#57555C;" d="M296,281h-40V161h40V281z"/>
<g>
</g>
<g>
</g>
<g>
</g>
<g>
</g>
<g>
</g>
<g>
</g>
<g>
</g>
<g>
</g>
<g>
</g>
<g>
</g>
<g>
</g>
<g>
</g>
<g>
</g>
<g>
</g>
<g>
</g>
</svg>
