<?xml version="1.0" encoding="utf-8"?>
<!-- Generator: Adobe Illustrator 17.0.0, SVG Export Plug-In . SVG Version: 6.00 Build 0)  -->
<!DOCTYPE svg PUBLIC "-//W3C//DTD SVG 1.1//EN" "http://www.w3.org/Graphics/SVG/1.1/DTD/svg11.dtd">
<svg version="1.1" id="Layer_1" xmlns="http://www.w3.org/2000/svg" xmlns:xlink="http://www.w3.org/1999/xlink" x="0px" y="0px"
	 width="512px" height="512px" viewBox="0 0 512 512" enable-background="new 0 0 512 512" xml:space="preserve">
<g>
	<g>
		<defs>
			<path id="SVGID_1_" d="M507.412,256c0,138.841-112.561,251.412-251.412,251.412C117.159,507.412,4.588,394.841,4.588,256
				C4.588,117.148,117.159,4.588,256,4.588C394.851,4.588,507.412,117.148,507.412,256z"/>
		</defs>
		<linearGradient id="SVGID_2_" gradientUnits="userSpaceOnUse" x1="189.1169" y1="21.9062" x2="304.3475" y2="425.2132">
			<stop  offset="0" style="stop-color:#F4C93E"/>
			<stop  offset="1" style="stop-color:#ECBF29"/>
		</linearGradient>
		<use xlink:href="#SVGID_1_"  overflow="visible" fill="url(#SVGID_2_)"/>
		<clipPath id="SVGID_3_">
			<use xlink:href="#SVGID_1_"  overflow="visible"/>
		</clipPath>
		<rect x="103.9" y="113.292" clip-path="url(#SVGID_3_)" fill="#E57746" width="62.853" height="36.664"/>
		<path clip-path="url(#SVGID_3_)" fill="#3C566D" d="M500.425,161.751c0,7.938-6.435,14.362-14.383,14.362h-49.8
			c-7.949,0-14.383-6.424-14.383-14.362v-13.136c0-7.933,6.435-14.373,14.383-14.373h49.8c7.949,0,14.383,6.44,14.383,14.373
			V161.751z"/>
		<path clip-path="url(#SVGID_3_)" fill="#FFFFFF" d="M526.614,393.639c0,12.89-10.455,23.442-23.222,23.442H99.389
			c-12.767,0-23.222-10.552-23.222-23.442V178.625c0-12.89,10.455-23.432,23.222-23.432h404.003
			c12.767,0,23.222,10.542,23.222,23.432V393.639z"/>
		<rect x="233.3" y="149.956" clip-path="url(#SVGID_3_)" fill="#C7E0E5" width="162.37" height="47.14"/>
		<polygon clip-path="url(#SVGID_3_)" fill="#E0EAE9" points="352.53,108.054 276.112,108.054 233.136,149.956 395.506,149.956 		
			"/>
		<rect x="76.167" y="197.096" clip-path="url(#SVGID_3_)" fill="#F3783E" width="450.447" height="172.846"/>
		<path clip-path="url(#SVGID_3_)" fill="#EDC64A" d="M411.711,259.56c0,0,34.628-9.043,42.168-1.504
			c0.726,0.522,9.033,20.311,4.521,24.092c-4.521,3.77-30.874,19.575-30.874,19.575L411.711,259.56z"/>
		<path opacity="0.6" clip-path="url(#SVGID_3_)" fill="#7C7B7B" d="M526.614,393.639V290.265l-146.657-87.932l-2.015,214.748
			h125.451C516.159,417.081,526.614,406.529,526.614,393.639z"/>
		<path clip-path="url(#SVGID_3_)" fill="#F3783E" d="M312.817,180.472c-71.006,0-128.56,57.549-128.56,128.55
			c0,70.991,57.554,128.55,128.56,128.55c70.986,0,128.55-57.559,128.55-128.55C441.367,238.021,383.803,180.472,312.817,180.472z"
			/>
		<path clip-path="url(#SVGID_3_)" fill="#EDC64A" d="M420.396,309.022c0,59.426-48.173,107.584-107.579,107.584
			c-59.415,0-107.578-48.158-107.578-107.584c0-59.406,48.163-107.573,107.578-107.573
			C372.223,201.449,420.396,249.616,420.396,309.022z"/>
		<path clip-path="url(#SVGID_3_)" fill="#3C566D" d="M397.971,307.682c0,47.038-38.127,85.164-85.154,85.164
			c-47.037,0-85.164-38.127-85.164-85.164s38.127-85.175,85.164-85.175C359.844,222.507,397.971,260.644,397.971,307.682z"/>
	</g>
</g>
</svg>
