<svg height="512pt" viewBox="-7 0 512 512" width="512pt" xmlns="http://www.w3.org/2000/svg"><path d="m427.902344 7.5h-344.957032c-16.203124 0-29.335937 13.132812-29.335937 29.332031v438.335938c0 16.199219 13.132813 29.332031 29.335937 29.332031h344.957032c16.199218 0 29.332031-13.132812 29.332031-29.332031v-438.335938c0-16.199219-13.132813-29.332031-29.332031-29.332031zm0 0" fill="#e8afe5"/><g fill="#e894e4"><path d="m124.5625 58.707031c0 10.90625-8.839844 19.746094-19.746094 19.746094s-19.746094-8.839844-19.746094-19.746094 8.839844-19.746093 19.746094-19.746093 19.746094 8.839843 19.746094 19.746093zm0 0"/><path d="m425.773438 58.707031c0 10.90625-8.839844 19.746094-19.746094 19.746094s-19.746094-8.839844-19.746094-19.746094 8.839844-19.746093 19.746094-19.746093 19.746094 8.839843 19.746094 19.746093zm0 0"/><path d="m124.5625 453.292969c0 10.90625-8.839844 19.746093-19.746094 19.746093s-19.746094-8.839843-19.746094-19.746093 8.839844-19.746094 19.746094-19.746094 19.746094 8.839844 19.746094 19.746094zm0 0"/><path d="m425.773438 453.292969c0 10.90625-8.839844 19.746093-19.746094 19.746093s-19.746094-8.839843-19.746094-19.746093 8.839844-19.746094 19.746094-19.746094 19.746094 8.839844 19.746094 19.746094zm0 0"/></g><path d="m364.863281 355.902344c0 60.441406-49 109.441406-109.441406 109.441406s-109.441406-49-109.441406-109.441406 49-109.441406 109.441406-109.441406 109.441406 49 109.441406 109.441406zm0 0" fill="#5d5360"/><path d="m328.046875 355.902344c0 40.109375-32.515625 72.625-72.625 72.625s-72.625-32.515625-72.625-72.625 32.515625-72.625 72.625-72.625 72.625 32.515625 72.625 72.625zm0 0" fill="#6ee4ff"/><path d="m275.421875 408.527344c-40.109375 0-72.625-32.515625-72.625-72.625 0-14.941406 4.515625-28.824219 12.253906-40.371094-19.449219 13.03125-32.253906 35.203125-32.253906 60.371094 0 40.109375 32.515625 72.625 72.625 72.625 25.167969 0 47.339844-12.804688 60.371094-32.253906-11.542969 7.738281-25.429688 12.253906-40.371094 12.253906zm0 0" fill="#61caff"/><path d="m334.742188 126.980469c0 43.808593-35.511719 79.320312-79.320313 79.320312-43.804687 0-79.320313-35.511719-79.320313-79.320312 0-43.804688 35.515626-79.320313 79.320313-79.320313 43.808594 0 79.320313 35.515625 79.320313 79.320313zm0 0" fill="#5d5360"/><path d="m299.460938 126.980469c0 24.320312-19.71875 44.039062-44.039063 44.039062s-44.039063-19.71875-44.039063-44.039062c0-24.320313 19.71875-44.039063 44.039063-44.039063s44.039063 19.71875 44.039063 44.039063zm0 0" fill="#6ee4ff"/><path d="m275.421875 151.019531c-24.320313 0-44.039063-19.71875-44.039063-44.039062 0-7 1.640626-13.613281 4.546876-19.492188-14.539063 7.191407-24.546876 22.171875-24.546876 39.492188 0 24.320312 19.71875 44.039062 44.039063 44.039062 17.320313 0 32.300781-10.003906 39.492187-24.546875-5.878906 2.90625-12.492187 4.546875-19.492187 4.546875zm0 0" fill="#61caff"/><path d="m479.234375 119.660156-26.476563 10.589844c-6.464843 2.585938-10.707031 8.847656-10.707031 15.8125v67.578125c-4.480469.25-9.175781 1.378906-13.738281 3.488281-15.1875 7.011719-23.167969 22.082032-17.820312 33.660156 5.34375 11.578126 21.988281 15.285157 37.175781 8.273438 12.097656-5.585938 19.613281-16.28125 19.472656-26.253906 0-.074219.011719-.144532.011719-.214844v-76.929688c14.824218-3.941406 20.929687-16.125 23.425781-26.230468 1.636719-6.632813-5-12.3125-11.34375-9.773438zm0 0" fill="#ffff7f"/><path d="m77.929688 267.84375-26.476563 10.59375c-6.464844 2.585938-10.703125 8.847656-10.703125 15.8125v67.574219c-4.484375.25-9.175781 1.382812-13.742188 3.488281-15.1875 7.011719-23.164062 22.082031-17.820312 33.664062 5.34375 11.578126 21.988281 15.28125 37.179688 8.269532 12.097656-5.582032 19.609374-16.277344 19.472656-26.253906 0-.070313.007812-.140626.007812-.210938v-76.933594c14.824219-3.9375 20.929688-16.121094 23.425782-26.230468 1.636718-6.632813-5-12.308594-11.34375-9.773438zm0 0" fill="#ffff7f"/><path d="m104.855469 31.460938c-15.023438 0-27.246094 12.222656-27.246094 27.246093 0 15.023438 12.222656 27.246094 27.246094 27.246094 15.023437 0 27.246093-12.222656 27.246093-27.246094 0-15.023437-12.222656-27.246093-27.246093-27.246093zm0 39.492187c-6.753907 0-12.246094-5.492187-12.246094-12.246094 0-6.753906 5.492187-12.246093 12.246094-12.246093 6.75 0 12.246093 5.492187 12.246093 12.246093 0 6.753907-5.496093 12.246094-12.246093 12.246094zm0 0"/><path d="m406.066406 85.953125c15.023438 0 27.246094-12.222656 27.246094-27.246094 0-15.023437-12.222656-27.246093-27.246094-27.246093-15.023437 0-27.246094 12.222656-27.246094 27.246093 0 15.023438 12.222657 27.246094 27.246094 27.246094zm0-39.492187c6.753906 0 12.246094 5.492187 12.246094 12.246093 0 6.753907-5.492188 12.246094-12.246094 12.246094s-12.246094-5.492187-12.246094-12.246094c0-6.753906 5.496094-12.246093 12.246094-12.246093zm0 0"/><path d="m104.855469 426.046875c-15.023438 0-27.246094 12.222656-27.246094 27.246094 0 15.023437 12.222656 27.246093 27.246094 27.246093 15.023437 0 27.246093-12.222656 27.246093-27.246093 0-15.023438-12.222656-27.246094-27.246093-27.246094zm0 39.492187c-6.753907 0-12.246094-5.492187-12.246094-12.246093 0-6.75 5.492187-12.246094 12.246094-12.246094 6.75 0 12.246093 5.496094 12.246093 12.246094 0 6.753906-5.496093 12.246093-12.246093 12.246093zm0 0"/><path d="m406.066406 480.539062c15.023438 0 27.246094-12.222656 27.246094-27.246093 0-15.023438-12.222656-27.246094-27.246094-27.246094-15.023437 0-27.246094 12.222656-27.246094 27.246094 0 15.023437 12.222657 27.246093 27.246094 27.246093zm0-39.492187c6.753906 0 12.246094 5.496094 12.246094 12.246094 0 6.753906-5.492188 12.246093-12.246094 12.246093s-12.246094-5.492187-12.246094-12.246093c0-6.75 5.496094-12.246094 12.246094-12.246094zm0 0"/><path d="m255.460938 472.84375c64.480468 0 116.941406-52.460938 116.941406-116.941406 0-64.480469-52.460938-116.9375-116.941406-116.9375-64.480469 0-116.941407 52.457031-116.941407 116.9375 0 64.480468 52.460938 116.941406 116.941407 116.941406zm0-218.882812c56.210937 0 101.941406 45.730468 101.941406 101.941406 0 56.210937-45.730469 101.941406-101.941406 101.941406-56.210938 0-101.941407-45.730469-101.941407-101.941406 0-56.210938 45.730469-101.941406 101.941407-101.941406zm0 0"/><path d="m255.460938 436.027344c44.183593 0 80.125-35.941406 80.125-80.125 0-44.179688-35.941407-80.125-80.125-80.125-44.179688 0-80.125 35.945312-80.125 80.125 0 44.183594 35.945312 80.125 80.125 80.125zm0-145.25c35.910156 0 65.125 29.214844 65.125 65.125s-29.214844 65.125-65.125 65.125c-35.910157 0-65.125-29.214844-65.125-65.125s29.214843-65.125 65.125-65.125zm0 0"/><path d="m255.460938 213.800781c47.875 0 86.820312-38.949219 86.820312-86.820312 0-47.871094-38.949219-86.820313-86.820312-86.820313-47.871094 0-86.820313 38.949219-86.820313 86.820313 0 47.875 38.949219 86.820312 86.820313 86.820312zm0-158.640625c39.601562 0 71.820312 32.21875 71.820312 71.820313 0 39.601562-32.21875 71.820312-71.820312 71.820312-39.601563 0-71.820313-32.21875-71.820313-71.820312 0-39.601563 32.21875-71.820313 71.820313-71.820313zm0 0"/><path d="m255.460938 178.519531c28.417968 0 51.539062-23.121093 51.539062-51.539062s-23.121094-51.539063-51.539062-51.539063c-28.417969 0-51.539063 23.121094-51.539063 51.539063s23.121094 51.539062 51.539063 51.539062zm0-88.078125c20.148437 0 36.539062 16.394532 36.539062 36.539063 0 20.148437-16.390625 36.539062-36.539062 36.539062-20.148438 0-36.539063-16.390625-36.539063-36.539062 0-20.144531 16.390625-36.539063 36.539063-36.539063zm0 0"/><path d="m427.941406 0h-344.960937c-20.308594 0-36.832031 16.523438-36.832031 36.832031v82.175781c0 4.144532 3.359374 7.5 7.5 7.5 4.144531 0 7.5-3.355468 7.5-7.5v-82.175781c0-12.039062 9.796874-21.832031 21.832031-21.832031h344.960937c12.039063 0 21.832032 9.792969 21.832032 21.832031v86.550781c0 .132813-2.082032.980469-2.253907 1.070313-7.90625 4.199219-12.914062 12.644531-12.929687 21.582031v.027344 61.070312c-1.988282.441407-3.957032 1.039063-5.90625 1.757813-9.8125 3.628906-18.628906 10.511719-23.570313 19.84375-5.441406 10.273437-4.902343 23.59375 3.433594 32.195313 6.03125 6.222656 14.914063 9.179687 23.542969 9.179687 6.0625 0 12.125-1.359375 17.683594-3.757813v93.65625c0 4.140626 3.355468 7.5 7.5 7.5 4.140624 0 7.5-3.359374 7.5-7.5v-104.078124c6.246093-6.617188 9.9375-14.804688 9.90625-22.949219.003906-.128907.007812-.257813.007812-.386719v-71.597656c11.632812-4.984375 19.601562-15.167969 23.207031-29.765625 3.050781-12.347657-9.664062-23.234375-21.410156-18.535157l-11.710937 4.6875v-80.550781c0-20.308593-16.523438-36.832031-36.832032-36.832031zm54.117188 126.621094c.648437-.257813 1.449218.296875 1.273437 1.011718-2.800781 11.347657-8.878906 18.339844-18.066406 20.78125-3.289063.875-5.574219 3.847657-5.574219 7.25v76.746094c-.003906 8.390625-6.261718 15.089844-13.242187 18.890625-8.359375 4.546875-28.144531 6.945313-29.96875-6.476562-.726563-5.335938 2.082031-10.46875 5.644531-14.230469 5.226562-5.523438 12.789062-9.042969 20.378906-9.460938 3.925782-.21875 7.085938-3.5625 7.085938-7.492187v-67.574219c0-3.921875 2.351562-7.394531 5.992187-8.851562 0 0 26.414063-10.566406 26.476563-10.59375zm0 0"/><path d="m30.792969 418.292969c5.097656 0 10.34375-.984375 15.355469-2.84375v59.71875c0 20.308593 16.523437 36.832031 36.832031 36.832031h344.960937c20.308594 0 36.832032-16.523438 36.832032-36.832031v-85.160157c0-4.140624-3.359376-7.5-7.5-7.5-4.140626 0-7.5 3.359376-7.5 7.5v85.160157c0 12.039062-9.792969 21.832031-21.832032 21.832031h-344.960937c-12.035157 0-21.832031-9.792969-21.832031-21.832031v-68.761719c7.234374-6.554688 12.242187-15.71875 12.242187-25.628906v-71.597656c11.628906-4.984376 19.597656-15.164063 23.203125-29.765626 3.035156-12.292968-9.699219-23.226562-21.410156-18.53125l-14.035156 5.613282v-117.488282c0-4.140624-3.355469-7.5-7.5-7.5-4.140626 0-7.5 3.359376-7.5 7.5v123.679688c-7.890626 4.25-12.859376 12.425781-12.859376 21.5625v61.066406c-3.183593.710938-6.320312 1.773438-9.382812 3.1875-15.757812 7.273438-29.664062 25.902344-21.488281 43.613282 4.605469 9.976562 15.476562 16.175781 28.375 16.175781zm-13.726563-34.355469c4.554688-8.601562 14.582032-14.09375 24.136719-14.625 3.976563-.21875 7.085937-3.507812 7.085937-7.488281v-67.574219c0-3.921875 2.351563-7.394531 5.992188-8.851562 0 0 26.425781-10.570313 26.476562-10.589844.648438-.257813 1.445313.300781 1.273438 1.011718-1.542969 6.25-4.484375 12.46875-9.609375 16.5625-2.441406 1.949219-5.257813 3.363282-8.460937 4.214844-3.285157.875-5.574219 3.847656-5.574219 7.25v76.730469c0 5.609375-3.199219 10.964844-7.253907 14.65625-8.398437 7.652344-28.84375 14.140625-35.097656.597656-2.132812-4.625-.269531-9.4375 1.03125-11.894531zm0 0"/></svg>