<?xml version="1.0" encoding="iso-8859-1"?>
<!-- Generator: Adobe Illustrator 19.0.0, SVG Export Plug-In . SVG Version: 6.00 Build 0)  -->
<svg version="1.1" id="Layer_1" xmlns="http://www.w3.org/2000/svg" xmlns:xlink="http://www.w3.org/1999/xlink" x="0px" y="0px"
	 viewBox="0 0 512 512" style="enable-background:new 0 0 512 512;" xml:space="preserve">
<rect x="193.73" y="304.432" style="fill:#FFDC64;" width="124.541" height="152.216"/>
<rect x="13.838" y="55.351" style="fill:#A2A8D3;" width="179.892" height="401.297"/>
<circle style="fill:#767B95;" cx="103.784" cy="359.784" r="36.901"/>
<path d="M103.784,410.523c-27.977,0-50.739-22.762-50.739-50.739s22.762-50.739,50.739-50.739s50.739,22.762,50.739,50.739
	C154.523,387.761,131.761,410.523,103.784,410.523z M103.784,336.72c-12.717,0-23.064,10.347-23.064,23.064
	s10.347,23.064,23.064,23.064s23.064-10.347,23.064-23.064S116.501,336.72,103.784,336.72z"/>
<circle style="fill:#7BFFCD;" cx="103.784" cy="161.446" r="52.499"/>
<path d="M103.784,227.779c-36.579,0-66.337-29.758-66.337-66.337s29.758-66.339,66.337-66.339s66.337,29.758,66.337,66.337
	S140.363,227.779,103.784,227.779z M103.784,122.779c-21.319,0-38.662,17.344-38.662,38.662s17.343,38.663,38.662,38.663
	s38.662-17.344,38.662-38.662S125.102,122.779,103.784,122.779z"/>
<path d="M145.934,280.908c-0.899,0-1.813-0.097-2.698-0.277c-0.886-0.166-1.757-0.443-2.588-0.789
	c-0.83-0.346-1.647-0.775-2.394-1.273c-0.761-0.498-1.467-1.079-2.103-1.716c-0.637-0.637-1.218-1.342-1.716-2.103
	c-0.498-0.747-0.927-1.55-1.273-2.394c-0.346-0.83-0.609-1.702-0.789-2.588c-0.18-0.886-0.277-1.799-0.277-2.698
	s0.097-1.813,0.277-2.698c0.18-0.886,0.443-1.757,0.789-2.588c0.346-0.844,0.775-1.647,1.273-2.394
	c0.498-0.761,1.079-1.467,1.716-2.103c0.637-0.637,1.342-1.218,2.103-1.716c0.747-0.498,1.564-0.927,2.394-1.273
	s1.702-0.609,2.588-0.789c1.785-0.36,3.626-0.36,5.411,0c0.886,0.18,1.744,0.443,2.588,0.789c0.83,0.346,1.633,0.775,2.38,1.273
	c0.761,0.498,1.467,1.079,2.103,1.716c0.65,0.637,1.218,1.342,1.73,2.103c0.498,0.747,0.927,1.55,1.273,2.394
	c0.346,0.83,0.609,1.702,0.789,2.588c0.18,0.886,0.263,1.799,0.263,2.698s-0.083,1.813-0.263,2.698
	c-0.18,0.886-0.443,1.757-0.789,2.588c-0.346,0.844-0.775,1.647-1.273,2.394c-0.512,0.761-1.079,1.467-1.73,2.103
	c-0.637,0.637-1.342,1.218-2.103,1.716c-0.747,0.498-1.55,0.927-2.38,1.273c-0.844,0.346-1.702,0.623-2.588,0.789
	C147.747,280.811,146.833,280.908,145.934,280.908z"/>
<rect x="318.27" y="55.351" style="fill:#A2A8D3;" width="179.892" height="401.297"/>
<circle style="fill:#767B95;" cx="408.216" cy="359.784" r="36.901"/>
<path d="M408.216,410.523c-27.977,0-50.739-22.762-50.739-50.739s22.762-50.739,50.739-50.739s50.739,22.762,50.739,50.739
	S436.194,410.523,408.216,410.523z M408.216,336.72c-12.717,0-23.064,10.347-23.064,23.064s10.347,23.064,23.064,23.064
	s23.064-10.347,23.064-23.064S420.933,336.72,408.216,336.72z"/>
<circle style="fill:#7BFFCD;" cx="408.216" cy="161.446" r="52.499"/>
<path d="M408.216,227.779c-36.579,0-66.337-29.758-66.337-66.337s29.758-66.339,66.337-66.339s66.337,29.758,66.337,66.337
	S444.795,227.779,408.216,227.779z M408.216,122.779c-21.319,0-38.662,17.344-38.662,38.662s17.344,38.662,38.662,38.662
	c21.317,0,38.662-17.344,38.662-38.662S429.535,122.779,408.216,122.779z"/>
<path d="M498.162,41.514H318.27c-7.643,0-13.838,6.195-13.838,13.838v235.243h-96.865V55.351c0-7.643-6.195-13.838-13.838-13.838
	H13.838C6.195,41.514,0,47.709,0,55.351v401.297c0,7.643,6.195,13.838,13.838,13.838H193.73H318.27h179.892
	c7.643,0,13.838-6.195,13.838-13.838V55.351C512,47.709,505.805,41.514,498.162,41.514z M27.676,280.908h76.75
	c7.643,0,13.838-6.195,13.838-13.838s-6.195-13.838-13.838-13.838h-76.75V69.189h152.216v235.243v138.378H27.676V280.908z
	 M207.568,318.27h96.865v124.541h-96.865V318.27z M484.324,442.811H332.108V304.432v-23.524h76.75
	c7.643,0,13.838-6.195,13.838-13.838s-6.195-13.838-13.838-13.838h-76.75V69.189h152.216V442.811z"/>
<path d="M450.366,280.908c-0.899,0-1.799-0.097-2.698-0.277c-0.886-0.166-1.757-0.443-2.588-0.789
	c-0.83-0.346-1.647-0.775-2.394-1.273s-1.467-1.079-2.103-1.716c-2.574-2.574-4.054-6.144-4.054-9.783
	c0-0.899,0.097-1.813,0.277-2.698s0.443-1.757,0.789-2.588c0.346-0.844,0.775-1.647,1.273-2.394
	c0.498-0.761,1.079-1.467,1.716-2.103c2.574-2.574,6.144-4.054,9.783-4.054c3.653,0,7.21,1.481,9.783,4.054
	c0.65,0.637,1.218,1.342,1.73,2.103c0.498,0.747,0.927,1.55,1.273,2.394c0.346,0.83,0.609,1.702,0.789,2.588
	c0.18,0.886,0.263,1.799,0.263,2.698c0,3.639-1.467,7.21-4.054,9.783C457.59,279.427,454.019,280.908,450.366,280.908z"/>
<g>
</g>
<g>
</g>
<g>
</g>
<g>
</g>
<g>
</g>
<g>
</g>
<g>
</g>
<g>
</g>
<g>
</g>
<g>
</g>
<g>
</g>
<g>
</g>
<g>
</g>
<g>
</g>
<g>
</g>
</svg>
