<?xml version="1.0" encoding="iso-8859-1"?>
<!-- Generator: Adobe Illustrator 19.0.0, SVG Export Plug-In . SVG Version: 6.00 Build 0)  -->
<svg version="1.1" id="Layer_1" xmlns="http://www.w3.org/2000/svg" xmlns:xlink="http://www.w3.org/1999/xlink" x="0px" y="0px"
	 viewBox="0 0 448.014 448.014" style="enable-background:new 0 0 448.014 448.014;" xml:space="preserve">
<g transform="translate(0 -1020.36)" shape-rendering="auto" image-rendering="auto" color-rendering="auto" color-interpolation="sRGB">
	<path style="fill:#5A3392;" d="M311.524,1276.498c-1.884,0.145-3.655,0.953-5.001,2.279l-67.906,67.875
		c-3.119,3.104-3.146,8.145-0.061,11.281l22.625,22.625c3.108,3.141,8.174,3.168,11.315,0.061c0.02-0.02,0.04-0.041,0.06-0.061
		l67.875-67.875c2.87-2.914,3.078-7.525,0.484-10.688c-0.191-0.213-0.392-0.416-0.605-0.607l-22.625-22.625
		c-1.639-1.613-3.893-2.443-6.188-2.279L311.524,1276.498z"/>
	<path style="fill:#3CDEF6;" d="M312.118,1295.714l11.343,11.377l-22.656,22.656l-11.313-11.408l22.625-22.623V1295.714z"/>
	<path style="fill:#29A3EC;" d="M278.149,1329.683l11.313,11.408l-22.625,22.623l-11.344-11.377l22.656-22.656L278.149,1329.683z"/>
	<path style="fill:#5A3392;" d="M166.586,1361.933c-2.1,0.018-4.11,0.861-5.594,2.348l-22.594,22.656
		c-3.065,3.133-3.038,8.15,0.061,11.25l67.906,67.906c3.109,3.041,8.078,3.041,11.187,0l22.625-22.625
		c3.119-3.104,3.146-8.145,0.061-11.281l-67.906-67.906c-1.523-1.525-3.596-2.371-5.751-2.348H166.586z"/>
	<path style="fill:#EE746C;" d="M166.805,1381.244l22.625,22.627l-11.375,11.344l-22.625-22.627L166.805,1381.244z"/>
	<path style="fill:#FB9761;" d="M200.68,1415.121l22.657,22.656l-11.344,11.375l-22.656-22.656L200.68,1415.121z"/>
	<g>
		<path style="fill:#5A3392;" d="M304.055,1020.369c-4.419-0.021-8.017,3.546-8.037,7.964c-0.01,2.213,0.896,4.331,2.504,5.851
			l10.282,10.28l-44.656,44.655l-34.25-34.25c-1.51-1.576-3.598-2.467-5.781-2.467c-4.419-0.035-8.03,3.518-8.065,7.936
			c-0.018,2.221,0.888,4.35,2.502,5.877l17.438,17.406L98.428,1221.152c-1.629,1.619-2.484,3.861-2.346,6.154l4.499,73.344
			l-42.063,42.063c-3.117,3.148-3.092,8.227,0.056,11.344c3.126,3.096,8.162,3.096,11.288,0l42.094-42.094l73.281,4.529
			c2.298,0.131,4.542-0.736,6.156-2.377l137.532-137.533l17.437,17.406c3.266,2.99,8.338,2.766,11.328-0.502
			c2.81-3.07,2.804-7.779-0.015-10.842l-34.25-34.248l44.656-44.656l10.282,10.281c3.254,3.004,8.326,2.801,11.33-0.453
			c2.83-3.064,2.836-7.789,0.014-10.861l-79.844-79.843c-1.511-1.598-3.612-2.503-5.811-2.504L304.055,1020.369z"/>
		<g>
			<path style="fill:#FFFFFF;" d="M320.118,1055.775l36.625,36.66l-44.625,44.623l-36.687-36.656l44.687-44.625V1055.775z"/>
			<path style="fill:#FFFFFF;" d="M247.274,1094.9l70.313,70.344l-134.938,134.938l-66.375-4.027l-4.034-66.252l135.031-135
				L247.274,1094.9z"/>
		</g>
		<path style="fill:#EBFEFF;" d="M247.274,1094.9l-135.031,135l4.031,66.127l166.063-166.063L247.274,1094.9z"/>
		<g>
			<path style="fill:#5A3392;" d="M147.456,1180.42l-11.339,11.34l52.678,52.678l11.339-11.338l-52.678-52.678V1180.42z"/>
			<path style="fill:#5A3392;" d="M179.464,1148.412l-11.339,11.338l28.701,28.701l11.339-11.338L179.464,1148.412z"/>
			<path style="fill:#5A3392;" d="M211.472,1116.404l-11.339,11.338l52.677,52.678l11.339-11.338L211.472,1116.404L211.472,1116.404
				z"/>
		</g>
		<path style="fill:#EBFEFF;" d="M320.118,1055.775L275.43,1100.4l18.25,18.219l44.625-44.625L320.118,1055.775z"/>
	</g>
</g>
<g>
</g>
<g>
</g>
<g>
</g>
<g>
</g>
<g>
</g>
<g>
</g>
<g>
</g>
<g>
</g>
<g>
</g>
<g>
</g>
<g>
</g>
<g>
</g>
<g>
</g>
<g>
</g>
<g>
</g>
</svg>
