<?xml version="1.0" encoding="iso-8859-1"?>
<!-- Generator: Adobe Illustrator 19.0.0, SVG Export Plug-In . SVG Version: 6.00 Build 0)  -->
<svg version="1.1" id="Layer_1" xmlns="http://www.w3.org/2000/svg" xmlns:xlink="http://www.w3.org/1999/xlink" x="0px" y="0px"
	 viewBox="0 0 460 460" style="enable-background:new 0 0 460 460;" xml:space="preserve">
<g id="XMLID_1058_">
	<path id="XMLID_1059_" style="fill:#F0651F;" d="M336.914,143.091L230,0l-20,200l20,200c82.713,0,149.767-67.054,149.767-149.767
		V126.341L336.914,143.091z"/>
	<path id="XMLID_1060_" style="fill:#F58330;" d="M123.086,143.091l-42.853-16.749v123.892C80.233,332.946,147.287,400,230,400V0
		L123.086,143.091z"/>
	<polygon id="XMLID_1061_" style="fill:#624950;" points="383.511,460 230,460 210,430 230,400 383.511,400 	"/>
	<polygon id="XMLID_1062_" style="fill:#967151;" points="230,400 230,460 136.489,460 116.489,430 136.489,400 	"/>
	<rect id="XMLID_1063_" x="76.489" y="400" style="fill:#CB9851;" width="60" height="60"/>
	<path id="XMLID_1064_" style="fill:#FFC052;" d="M297.163,226.567c10.753,14.429,16.448,31.674,16.448,49.822
		C313.611,322.493,276.103,360,230,360l-20-111.656l20-111.656L297.163,226.567z"/>
	<path id="XMLID_1065_" style="fill:#F9D4A0;" d="M230,136.688V360c-46.103,0-83.611-37.507-83.611-83.611
		c0-18.148,5.695-35.393,16.49-49.875L230,136.688z"/>
</g>
<g>
</g>
<g>
</g>
<g>
</g>
<g>
</g>
<g>
</g>
<g>
</g>
<g>
</g>
<g>
</g>
<g>
</g>
<g>
</g>
<g>
</g>
<g>
</g>
<g>
</g>
<g>
</g>
<g>
</g>
</svg>
