<?xml version="1.0" encoding="iso-8859-1"?>
<!-- Generator: Adobe Illustrator 19.0.0, SVG Export Plug-In . SVG Version: 6.00 Build 0)  -->
<svg version="1.1" id="Capa_1" xmlns="http://www.w3.org/2000/svg" xmlns:xlink="http://www.w3.org/1999/xlink" x="0px" y="0px"
	 viewBox="0 0 58 58" style="enable-background:new 0 0 58 58;" xml:space="preserve">
<path style="fill:#56A157;" d="M49,0c0,2.761-2.239,5-5,5s-5-2.239-5-5H0v58h39c0-2.761,2.239-5,5-5s5,2.239,5,5h9V0H49z"/>
<polygon style="fill:#EBDA6C;" points="0,0 0,8 8,0 "/>
<path style="fill:#EDDC6E;" d="M43.033,10H14.967C12.224,10,10,12.224,10,14.967V20.5c0,0.828,0.672,1.5,1.5,1.5h0
	c0.828,0,1.5,0.672,1.5,1.5v11c0,0.828-0.672,1.5-1.5,1.5h0c-0.828,0-1.5,0.672-1.5,1.5v5.533C10,45.776,12.224,48,14.967,48h28.067
	C45.776,48,48,45.776,48,43.033V14.967C48,12.224,45.776,10,43.033,10z"/>
<g>
	<circle style="fill:#EDDC6E;" cx="3" cy="50" r="1"/>
	<circle style="fill:#EDDC6E;" cx="3" cy="55" r="1"/>
	<circle style="fill:#EDDC6E;" cx="55" cy="3" r="1"/>
	<circle style="fill:#EDDC6E;" cx="55" cy="55" r="1"/>
	<circle style="fill:#EDDC6E;" cx="5" cy="48" r="1"/>
	<circle style="fill:#EDDC6E;" cx="53" cy="34" r="1"/>
	<circle style="fill:#EDDC6E;" cx="55" cy="36" r="1"/>
	<circle style="fill:#EDDC6E;" cx="53" cy="44" r="1"/>
	<circle style="fill:#EDDC6E;" cx="55" cy="46" r="1"/>
	<circle style="fill:#EDDC6E;" cx="53" cy="24" r="1"/>
	<circle style="fill:#EDDC6E;" cx="55" cy="26" r="1"/>
	<circle style="fill:#EDDC6E;" cx="3" cy="45" r="1"/>
	<circle style="fill:#EDDC6E;" cx="5" cy="43" r="1"/>
	<circle style="fill:#EDDC6E;" cx="3" cy="40" r="1"/>
	<circle style="fill:#EDDC6E;" cx="5" cy="38" r="1"/>
	<circle style="fill:#EDDC6E;" cx="3" cy="35" r="1"/>
	<circle style="fill:#EDDC6E;" cx="5" cy="33" r="1"/>
	<circle style="fill:#EDDC6E;" cx="3" cy="30" r="1"/>
	<circle style="fill:#EDDC6E;" cx="5" cy="28" r="1"/>
	<circle style="fill:#EDDC6E;" cx="3" cy="25" r="1"/>
	<circle style="fill:#EDDC6E;" cx="5" cy="23" r="1"/>
	<circle style="fill:#EDDC6E;" cx="3" cy="10" r="1"/>
	<circle style="fill:#EDDC6E;" cx="16" cy="3" r="1"/>
	<circle style="fill:#EDDC6E;" cx="12" cy="3" r="1"/>
	<circle style="fill:#EDDC6E;" cx="3" cy="13" r="1"/>
	<circle style="fill:#EDDC6E;" cx="36" cy="55" r="1"/>
	<circle style="fill:#EDDC6E;" cx="34" cy="53" r="1"/>
	<circle style="fill:#EDDC6E;" cx="31" cy="55" r="1"/>
	<circle style="fill:#EDDC6E;" cx="29" cy="53" r="1"/>
	<circle style="fill:#EDDC6E;" cx="26" cy="55" r="1"/>
	<circle style="fill:#EDDC6E;" cx="24" cy="53" r="1"/>
	<circle style="fill:#EDDC6E;" cx="21" cy="55" r="1"/>
	<circle style="fill:#EDDC6E;" cx="19" cy="53" r="1"/>
	<circle style="fill:#EDDC6E;" cx="16" cy="55" r="1"/>
	<circle style="fill:#EDDC6E;" cx="14" cy="53" r="1"/>
	<circle style="fill:#EDDC6E;" cx="11" cy="55" r="1"/>
	<circle style="fill:#EDDC6E;" cx="9" cy="53" r="1"/>
</g>
<path style="fill:#414141;" d="M41.687,45H16.313C14.483,45,13,43.517,13,41.687V16.313C13,14.483,14.483,13,16.313,13h25.375
	C43.517,13,45,14.483,45,16.313v25.375C45,43.517,43.517,45,41.687,45z"/>
<g>
	<path style="fill:#AFB6BB;" d="M40.446,24.385c-1.09-2.48-3.927-3.962-7.59-3.962c-2.146,0-4.434,0.507-6.614,1.464
		c-2.862,1.258-5.25,3.163-6.725,5.365c-1.567,2.34-1.938,4.75-1.044,6.786C19.563,36.519,22.4,38,26.063,38
		c2.147,0,4.434-0.507,6.615-1.464c2.862-1.258,5.25-3.163,6.725-5.365C40.97,28.831,41.341,26.421,40.446,24.385z M37.741,30.059
		c-1.266,1.89-3.35,3.54-5.868,4.646C29.944,35.552,27.935,36,26.063,36c-2.845,0-4.998-1.034-5.759-2.767
		c-0.609-1.388-0.299-3.116,0.875-4.868c1.266-1.891,3.35-3.541,5.868-4.646c1.928-0.848,3.937-1.296,5.809-1.296
		c2.845,0,4.999,1.034,5.759,2.767C39.225,26.577,38.915,28.307,37.741,30.059z"/>
	<path style="fill:#AFB6BB;" d="M33,28h-7c-0.552,0-1,0.447-1,1s0.448,1,1,1h7c0.552,0,1-0.447,1-1S33.552,28,33,28z"/>
</g>
<g>
</g>
<g>
</g>
<g>
</g>
<g>
</g>
<g>
</g>
<g>
</g>
<g>
</g>
<g>
</g>
<g>
</g>
<g>
</g>
<g>
</g>
<g>
</g>
<g>
</g>
<g>
</g>
<g>
</g>
</svg>
