<svg id="Layer_5" enable-background="new 0 0 64 64" height="512" viewBox="0 0 64 64" width="512" xmlns="http://www.w3.org/2000/svg"><g><g><g><path d="m58 14v6h2c1.1 0 2 .9 2 2v20c0 1.1-.9 2-2 2h-2v6c0 1.1-.9 2-2 2h-30c-1.1 0-2-.9-2-2v-2c0-1.1-.45-2.1-1.17-2.83-.73-.72-1.73-1.17-2.83-1.17-2.21 0-4 1.79-4 4v2c0 1.1-.9 2-2 2h-10c-1.1 0-2-.9-2-2v-36c0-1.1.9-2 2-2h52c1.1 0 2 .9 2 2z" fill="#5cd6b3"/></g><g><path d="m18 17v22c0 .55-.45 1-1 1h-2c-.55 0-1-.45-1-1v-22c0-.55.45-1 1-1h2c.55 0 1 .45 1 1z" fill="#37bc9b"/></g><g><path d="m10 17v22c0 .55-.45 1-1 1h-2c-.55 0-1-.45-1-1v-22c0-.55.45-1 1-1h2c.55 0 1 .45 1 1z" fill="#37bc9b"/></g><g><path d="m42 32v2h-2-4-4-4-2v-2-4-4-2h2 4 4 4 2v2 4z" fill="#ffeaa7"/></g><g><circle cx="54" cy="26" fill="#ff826e" r="2"/></g><g><circle cx="54" cy="36" fill="#ff826e" r="2"/></g><g><path d="m6 44h6v4h-6z" fill="#fcd770"/></g><g><path d="m28 44h6v4h-6z" fill="#fcd770"/></g><g><path d="m38 44h6v4h-6z" fill="#fcd770"/></g><g><path d="m48 44h6v4h-6z" fill="#fcd770"/></g></g><g><path d="m60 19h-1v-5c0-1.654-1.346-3-3-3h-52c-1.654 0-3 1.346-3 3v36c0 1.654 1.346 3 3 3h10c1.654 0 3-1.346 3-3v-2c0-1.654 1.346-3 3-3s3 1.346 3 3v2c0 1.654 1.346 3 3 3h30c1.654 0 3-1.346 3-3v-5h1c1.654 0 3-1.346 3-3v-20c0-1.654-1.346-3-3-3zm1 23c0 .551-.448 1-1 1h-3v7c0 .551-.448 1-1 1h-30c-.552 0-1-.449-1-1v-2c0-2.757-2.243-5-5-5s-5 2.243-5 5v2c0 .551-.448 1-1 1h-10c-.552 0-1-.449-1-1v-36c0-.551.448-1 1-1h52c.552 0 1 .449 1 1v7h3c.552 0 1 .449 1 1z"/><path d="m5 49h8v-6h-8zm2-4h4v2h-4z"/><path d="m27 49h8v-6h-8zm2-4h4v2h-4z"/><path d="m37 49h8v-6h-8zm2-4h4v2h-4z"/><path d="m47 49h8v-6h-8zm2-4h4v2h-4z"/><path d="m37 39v-4h2v4h2v-4h2v-2h4v-2h-4v-2h4v-2h-4v-2h4v-2h-4v-2h-2v-4h-2v4h-2v-4h-2v4h-2v-4h-2v4h-2v-4h-2v4h-2v2h-4v2h4v2h-4v2h4v2h-4v2h4v2h2v4h2v-4h2v4h2v-4h2v4zm-10-16h14v10h-14z"/><path d="m29 25h2v2h-2z"/><path d="m33 25h6v2h-6z"/><path d="m29 29h10v2h-10z"/><path d="m7 41h2c1.103 0 2-.897 2-2v-22c0-1.103-.897-2-2-2h-2c-1.103 0-2 .897-2 2v22c0 1.103.897 2 2 2zm0-24h2l.001 22h-2.001z"/><path d="m17 15h-2c-1.103 0-2 .897-2 2v22c0 1.103.897 2 2 2h2c1.103 0 2-.897 2-2v-22c0-1.103-.897-2-2-2zm-2 24v-22h2l.001 22z"/><path d="m54 23c-1.654 0-3 1.346-3 3s1.346 3 3 3 3-1.346 3-3-1.346-3-3-3zm0 4c-.552 0-1-.449-1-1s.448-1 1-1 1 .449 1 1-.448 1-1 1z"/><path d="m54 33c-1.654 0-3 1.346-3 3s1.346 3 3 3 3-1.346 3-3-1.346-3-3-3zm0 4c-.552 0-1-.449-1-1s.448-1 1-1 1 .449 1 1-.448 1-1 1z"/><path d="m45 15h2v2h-2z"/><path d="m53 15h2v2h-2z"/><path d="m49 15h2v2h-2z"/></g></g></svg>