<svg id="Capa_1" enable-background="new 0 0 512 512" height="512" viewBox="0 0 512 512" width="512" xmlns="http://www.w3.org/2000/svg"><g><g><path d="m256.157 92.608-114.083 114.084c-23.695 23.695-28.23 59.284-13.627 87.544l-25.794 25.794c-8.908 8.908-8.908 23.352 0 32.26s23.352 8.908 32.26 0l25.794-25.794c28.26 14.603 63.849 10.068 87.544-13.627l114.083-114.083z" fill="#d8ecfe"/><path d="m345.754 182.205-114.084 114.083c-23.695 23.695-56.859 30.655-81.772 19.398l-25.794 25.794c-7.346 7.346-17.682 9.386-25.299 5.665 1.014 1.843 2.286 3.582 3.848 5.144 8.908 8.908 23.352 8.908 32.26 0l25.794-25.794c28.26 14.603 63.849 10.068 87.544-13.627l114.083-114.083z" fill="#b3dafe"/><path d="m404.586 180.742-12.105-12.105 32.971-32.971c29.32-29.32 29.32-76.857 0-106.176s-76.857-29.32-106.177 0l-32.971 32.971-12.104-12.105c-8.325-8.325-21.822-8.325-30.148 0s-8.325 21.823 0 30.148l12.105 12.105 106.177 106.177 12.105 12.105c8.325 8.325 21.823 8.325 30.148 0s8.324-21.824-.001-30.149z" fill="#596c76"/><path d="m404.586 180.742-12.105-12.105 32.971-32.971c29.32-29.32 29.32-76.857 0-106.177-2.908-2.908-6.001-5.515-9.232-7.847 21.173 29.344 18.565 70.533-7.846 96.944l-32.971 32.971 12.105 12.105c8.325 8.325 8.325 21.823 0 30.148s-21.823 8.325-30.148 0l4.974 4.974 12.105 12.105c8.325 8.325 21.823 8.325 30.148 0 8.324-8.325 8.324-21.822-.001-30.147z" fill="#465a61"/><path d="m122.904 239.399c-5.095 18.138-3.253 37.815 5.542 54.836l-25.794 25.794c-8.908 8.908-8.908 23.352 0 32.26s23.352 8.908 32.26 0l25.794-25.794c28.26 14.603 63.849 10.068 87.544-13.627l73.469-73.469z" fill="#01c0fa"/><path d="m231.67 296.288c-23.695 23.695-56.859 30.655-81.772 19.398l-25.794 25.794c-7.346 7.346-17.682 9.386-25.299 5.665 8.632 14.491 26.23 15.022 36.108 5.144l25.794-25.794c26.576 13.733 59.235 10.406 82.522-9.048 1.724-1.44 3.402-2.961 5.021-4.579l73.469-73.469h-33.16z" fill="#0290cf"/></g><path d="m103.643 390.697s-39.085 46.363-39.085 74.717c0 21.586 17.499 39.085 39.085 39.085s39.085-17.499 39.085-39.085c.001-28.354-39.085-74.717-39.085-74.717z" fill="#01c0fa"/><circle cx="246.545" cy="465.415" fill="#fedf30" r="39.085"/><circle cx="389.447" cy="465.415" fill="#c365af" r="39.085"/><g><path d="m447.922 80.885c-4.124-.323-7.737 2.77-8.056 6.9-1.239 16.043-8.197 31.153-19.593 42.549l-32.973 32.974c-2.929 2.929-2.929 7.678 0 10.607l12.105 12.105c5.388 5.388 5.388 14.155 0 19.543-5.389 5.388-14.155 5.387-19.542 0l-130.395-130.395c-5.388-5.388-5.388-14.155 0-19.542 5.389-5.389 14.155-5.388 19.542 0l67.68 67.68c1.464 1.464 3.384 2.197 5.304 2.197s3.839-.732 5.304-2.197c2.929-2.929 2.929-7.678 0-10.607l-50.271-50.271 27.67-27.67c12.765-12.765 29.737-19.794 47.788-19.794 18.052 0 35.024 7.03 47.789 19.795 7.443 7.443 12.91 16.234 16.247 26.127 1.323 3.926 5.581 6.033 9.504 4.71 3.925-1.324 6.034-5.579 4.71-9.504-4.082-12.102-10.762-22.849-19.854-31.941-32.2-32.2-84.592-32.199-116.792 0l-27.67 27.67-6.802-6.802c-11.237-11.237-29.52-11.237-40.757 0s-11.237 29.521 0 40.757l6.802 6.802-108.788 108.787c-24.34 24.34-30.804 60.464-17.369 91.291l-22.055 22.055c-5.726 5.726-8.879 13.338-8.879 21.435s3.154 15.71 8.879 21.435c1.7 1.7 3.556 3.147 5.518 4.358.218.135.436.271.657.4 4.698 2.736 9.977 4.107 15.259 4.106 7.762 0 15.526-2.955 21.435-8.864l22.055-22.054c10.622 4.629 21.832 6.891 32.96 6.89 21.361-.001 42.408-8.337 58.331-24.26l108.788-108.788 6.802 6.802c5.618 5.619 12.998 8.427 20.378 8.427s14.76-2.809 20.379-8.428c5.443-5.443 8.442-12.68 8.442-20.378s-2.998-14.935-8.442-20.378l-6.802-6.802 27.67-27.67c13.924-13.924 22.427-32.392 23.942-52.001.32-4.13-2.77-7.737-6.9-8.056zm-204.864 226.665c-20.897 20.897-52.565 25.828-78.803 12.269-2.9-1.499-6.438-.948-8.747 1.36l-25.796 25.795c-5.97 5.97-15.685 5.97-21.655 0-.371-.371-.718-.756-1.042-1.153-.045-.055-.082-.114-.126-.17-.278-.351-.547-.707-.79-1.076l-.008-.013c-3.346-5.084-3.347-11.738-.004-16.824l.013-.021c.243-.368.511-.723.788-1.074.044-.056.082-.116.127-.172.324-.398.672-.783 1.042-1.153l25.795-25.795c2.309-2.309 2.859-5.846 1.36-8.747-6.896-13.346-9.233-28.731-6.284-43.896h174.8zm75.672-75.672h-185.069c3.297-7.25 7.922-14.007 13.82-19.906l108.788-108.788 95.577 95.577z"/><path d="m109.479 385.854c-1.425-1.691-3.524-2.666-5.735-2.666s-4.309.976-5.735 2.666c-.321.381-7.979 9.492-16.615 22.216-2.326 3.427-1.434 8.092 1.994 10.418s8.092 1.435 10.418-1.994c3.669-5.406 7.188-10.166 9.958-13.78 12.221 15.92 31.567 44.89 31.567 62.698 0 17.418-14.17 31.588-31.588 31.588s-31.588-14.17-31.588-31.588c0-6.18 2.369-14.265 7.041-24.033 1.788-3.737.208-8.215-3.53-10.003-3.737-1.788-8.215-.207-10.003 3.53-5.647 11.804-8.51 22.068-8.51 30.506 0 25.689 20.9 46.589 46.589 46.589s46.589-20.9 46.589-46.589c0-13.227-6.979-30.744-20.743-52.064-9.916-15.361-19.698-27.006-20.109-27.494z"/><path d="m246.656 418.822c-25.689 0-46.589 20.9-46.589 46.589s20.9 46.589 46.589 46.589 46.589-20.9 46.589-46.589-20.899-46.589-46.589-46.589zm0 78.177c-17.418 0-31.588-14.17-31.588-31.588s14.17-31.588 31.588-31.588 31.588 14.17 31.588 31.588-14.17 31.588-31.588 31.588z"/><path d="m389.569 418.822c-25.689 0-46.589 20.9-46.589 46.589s20.899 46.589 46.589 46.589 46.589-20.9 46.589-46.589-20.9-46.589-46.589-46.589zm0 78.177c-17.418 0-31.588-14.17-31.588-31.588s14.17-31.588 31.588-31.588 31.588 14.17 31.588 31.588-14.171 31.588-31.588 31.588z"/></g></g></svg>