<?xml version="1.0" encoding="UTF-8" standalone="no"?>
<svg
   xmlns:dc="http://purl.org/dc/elements/1.1/"
   xmlns:cc="http://creativecommons.org/ns#"
   xmlns:rdf="http://www.w3.org/1999/02/22-rdf-syntax-ns#"
   xmlns:svg="http://www.w3.org/2000/svg"
   xmlns="http://www.w3.org/2000/svg"
   xmlns:xlink="http://www.w3.org/1999/xlink"
   xmlns:sodipodi="http://sodipodi.sourceforge.net/DTD/sodipodi-0.dtd"
   xmlns:inkscape="http://www.inkscape.org/namespaces/inkscape"
   width="256"
   height="256"
   viewBox="0 0 67.733323 67.733323"
   version="1.1"
   id="svg2179"
   sodipodi:docname="compressed_files.svg"
   inkscape:version="1.0.2 (e86c870879, 2021-01-15)">
  <sodipodi:namedview
     pagecolor="#ffffff"
     bordercolor="#666666"
     borderopacity="1"
     objecttolerance="10"
     gridtolerance="10"
     guidetolerance="10"
     inkscape:pageopacity="0"
     inkscape:pageshadow="2"
     inkscape:window-width="1920"
     inkscape:window-height="1006"
     id="namedview71"
     showgrid="false"
     inkscape:zoom="2.0129346"
     inkscape:cx="238.99199"
     inkscape:cy="86.135049"
     inkscape:window-x="0"
     inkscape:window-y="24"
     inkscape:window-maximized="1"
     inkscape:current-layer="svg2179" />
  <defs
     id="defs2173">
    <filter
       id="filter4039"
       x="-0.031272724"
       width="1.0625455"
       y="-0.10320002"
       height="1.2064">
      <feGaussianBlur
         stdDeviation="0.42999998"
         id="feGaussianBlur4041" />
    </filter>
    <filter
       id="filter3941"
       x="-0.15636364"
       width="1.3127273"
       y="-0.51600009"
       height="2.0320003">
      <feGaussianBlur
         stdDeviation="2.1499999"
         id="feGaussianBlur3943" />
    </filter>
    <linearGradient
       xlink:href="#linearGradient6977"
       id="linearGradient3685"
       gradientUnits="userSpaceOnUse"
       gradientTransform="matrix(0.159975,0,0,0.1765787,298.70076,53.371862)"
       x1="52"
       y1="40.482288"
       x2="52"
       y2="76.67421" />
    <linearGradient
       id="linearGradient6977">
      <stop
         style="stop-color:#ebd3ad;stop-opacity:1;"
         offset="0"
         id="stop7039" />
      <stop
         id="stop6981"
         offset="1"
         style="stop-color:#e9b96e;stop-opacity:1" />
    </linearGradient>
    <linearGradient
       xlink:href="#linearGradient5967"
       id="linearGradient3719"
       gradientUnits="userSpaceOnUse"
       gradientTransform="matrix(0.1549758,0,0,0.1517241,299.35074,56.193103)"
       x1="174.01562"
       y1="236"
       x2="30"
       y2="64" />
    <linearGradient
       id="linearGradient5967">
      <stop
         id="stop5969"
         offset="0"
         style="stop-color:#c17d11;stop-opacity:1;" />
      <stop
         id="stop5971"
         offset="1"
         style="stop-color:#e9b96e;stop-opacity:1" />
    </linearGradient>
    <radialGradient
       xlink:href="#linearGradient3712"
       id="radialGradient3719"
       cx="321.7785"
       cy="96.847473"
       fx="321.7785"
       fy="96.847473"
       r="15.5"
       gradientTransform="matrix(4.6140944,0,0,0.6613562,-1154.7032,27.949324)"
       gradientUnits="userSpaceOnUse" />
    <linearGradient
       id="linearGradient3712">
      <stop
         style="stop-color:#e9b96e;stop-opacity:1;"
         offset="0"
         id="stop3714" />
      <stop
         style="stop-color:#e9b96e;stop-opacity:0;"
         offset="1"
         id="stop3716" />
    </linearGradient>
    <radialGradient
       xlink:href="#linearGradient3737"
       id="radialGradient3747"
       gradientUnits="userSpaceOnUse"
       gradientTransform="matrix(1.1851374,0,0,0.1612901,-56.76846,59.129051)"
       cx="320.7493"
       cy="70.499977"
       fx="320.7493"
       fy="70.499977"
       r="15.500023" />
    <linearGradient
       id="linearGradient3737">
      <stop
         id="stop3739"
         offset="0"
         style="stop-color:#faefde;stop-opacity:1" />
      <stop
         style="stop-color:#e9b96e;stop-opacity:1"
         offset="0.68321055"
         id="stop3741" />
      <stop
         id="stop3743"
         offset="1"
         style="stop-color:#e9b96e;stop-opacity:0" />
    </linearGradient>
    <radialGradient
       xlink:href="#linearGradient3757"
       id="radialGradient3763"
       cx="321.375"
       cy="70.5"
       fx="321.375"
       fy="70.5"
       r="15.5"
       gradientTransform="matrix(1,0,0,0.4274194,0,40.366935)"
       gradientUnits="userSpaceOnUse" />
    <linearGradient
       id="linearGradient3757">
      <stop
         style="stop-color:#ffffff;stop-opacity:1;"
         offset="0"
         id="stop3759" />
      <stop
         style="stop-color:#ffffff;stop-opacity:0;"
         offset="1"
         id="stop3761" />
    </linearGradient>
    <linearGradient
       xlink:href="#linearGradient3582"
       id="linearGradient3588"
       x1="314.81003"
       y1="69.553268"
       x2="321.78522"
       y2="69.490768"
       gradientUnits="userSpaceOnUse"
       gradientTransform="matrix(0.914635,0,0,1,27.274119,0)" />
    <linearGradient
       id="linearGradient3582">
      <stop
         style="stop-color:#000000;stop-opacity:1;"
         offset="0"
         id="stop3584" />
      <stop
         style="stop-color:#000000;stop-opacity:0;"
         offset="1"
         id="stop3586" />
    </linearGradient>
    <radialGradient
       xlink:href="#linearGradient7000"
       id="radialGradient3479"
       gradientUnits="userSpaceOnUse"
       gradientTransform="matrix(0.194642,-0.362756,0.2778653,0.17262,263.08914,83.463419)"
       cx="93.23716"
       cy="132.00948"
       fx="93.23716"
       fy="132.00948"
       r="48.719242" />
    <linearGradient
       id="linearGradient7000">
      <stop
         id="stop7002"
         offset="0"
         style="stop-color:#eeeeec;stop-opacity:1" />
      <stop
         id="stop7005"
         offset="1"
         style="stop-color:#e9b96e;stop-opacity:1" />
    </linearGradient>
    <linearGradient
       xlink:href="#linearGradient3497"
       id="linearGradient3503"
       x1="317"
       y1="65.25"
       x2="313.625"
       y2="62.475075"
       gradientUnits="userSpaceOnUse" />
    <linearGradient
       id="linearGradient3497">
      <stop
         style="stop-color:#c17d11;stop-opacity:1;"
         offset="0"
         id="stop3499" />
      <stop
         style="stop-color:#c17d11;stop-opacity:0;"
         offset="1"
         id="stop3501" />
    </linearGradient>
    <radialGradient
       xlink:href="#linearGradient3757"
       id="radialGradient3729"
       cx="318.26694"
       cy="81.264877"
       fx="318.26694"
       fy="81.264877"
       r="15.375"
       gradientTransform="matrix(11.694835,-3.1336215,0.2338827,0.8728621,-3435.8358,1012.645)"
       gradientUnits="userSpaceOnUse" />
    <linearGradient
       xlink:href="#linearGradient3757"
       id="linearGradient3538"
       x1="316.42142"
       y1="58.144356"
       x2="304.1875"
       y2="67.203125"
       gradientUnits="userSpaceOnUse" />
    <linearGradient
       xlink:href="#linearGradient3582"
       id="linearGradient3600"
       gradientUnits="userSpaceOnUse"
       gradientTransform="matrix(0.8365572,0,0,1,52.219983,0)"
       x1="334.77948"
       y1="69.490768"
       x2="327.34198"
       y2="69.490768" />
    <linearGradient
       xlink:href="#linearGradient5967"
       id="linearGradient3568"
       gradientUnits="userSpaceOnUse"
       gradientTransform="matrix(0.1516675,0,0,0.1638445,300.96358,54.165417)"
       x1="251.94502"
       y1="18.836056"
       x2="161.94502"
       y2="46.195984" />
    <linearGradient
       xlink:href="#linearGradient3497"
       id="linearGradient3570"
       gradientUnits="userSpaceOnUse"
       x1="325.65164"
       y1="62.475075"
       x2="328.24478"
       y2="61.084908" />
    <linearGradient
       xlink:href="#linearGradient3757"
       id="linearGradient3572"
       gradientUnits="userSpaceOnUse"
       x1="322.26392"
       y1="55.34375"
       x2="329.12961"
       y2="64.329506" />
  </defs>
  <metadata
     id="metadata2176">
    <rdf:RDF>
      <cc:Work
         rdf:about="">
        <dc:format>image/svg+xml</dc:format>
        <dc:type
           rdf:resource="http://purl.org/dc/dcmitype/StillImage" />
        <dc:title></dc:title>
      </cc:Work>
    </rdf:RDF>
  </metadata>
  <g
     id="layer1"
     transform="matrix(5.9576694,0,0,5.7075174,-18.38536,-12.758069)">
    <g
       style="display:inline;enable-background:new"
       id="g4045"
       transform="matrix(0.26458333,0,0,0.26458333,-75.750926,-11.670375)">
      <path
         style="display:inline;opacity:0.630631;fill:#000000;fill-opacity:1;fill-rule:evenodd;stroke:#000000;stroke-width:1;stroke-linecap:round;stroke-linejoin:miter;stroke-miterlimit:4;stroke-dashoffset:0.7;stroke-opacity:1;filter:url(#filter4039);enable-background:new"
         d="m 306.85949,83.750002 c -0.53176,0 -0.80448,0.549796 -0.95986,1.059472 L 303.575,92.33614 c -0.0534,0.13055 -0.0623,0.27339 -0.075,0.41386 h 32 l -0.075,-0.41386 -2.32463,-7.653581 c -0.1551,-0.509808 -0.42809,-0.932557 -0.95986,-0.932557 z"
         id="path5974" />
      <path
         style="display:inline;opacity:0.55;fill:#000000;fill-opacity:1;fill-rule:evenodd;stroke:#000000;stroke-width:1;stroke-linecap:round;stroke-linejoin:miter;stroke-miterlimit:4;stroke-dashoffset:0.7;stroke-opacity:1;filter:url(#filter3941);enable-background:new"
         d="m 306.85949,83.500002 c -0.53176,0 -0.80448,0.549796 -0.95986,1.059472 L 303.575,92.086143 C 303.5216,92.216689 303.5127,92.359529 303.5,92.5 h 32 l -0.075,-0.413857 -2.32463,-7.653584 c -0.1551,-0.509808 -0.42809,-0.932557 -0.95986,-0.932557 z"
         id="path5976" />
      <path
         id="path5978"
         d="m 322.875,54.40625 c -0.22574,0.05967 -0.38093,0.266585 -0.375,0.5 L 322.5937,61.5 h -4.1875 l 0.0312,-2.5625 c 0.004,-0.140759 -0.0451,-0.288544 -0.15625,-0.375 -0.11117,-0.08646 -0.27085,-0.101205 -0.40625,-0.0625 l -11.375,3 c -0.14053,0.04996 -0.24632,0.167506 -0.28125,0.3125 l -0.0625,0.21875 c -0.0969,0.168963 -0.19309,0.344585 -0.25,0.53125 l -2.34375,7.53125 c -0.0484,0.113939 -0.0625,0.211936 -0.0625,0.34375 -0.002,0.02117 0.002,0.04139 0,0.0625 v 20.34375 c 0,0.527252 0.43699,1.656249 0.96875,1.65625 h 30.0625 c 0.53176,0 0.96875,-1.128996 0.96875,-1.65625 V 70.5 L 335.4375,70.09375 335.40625,70 c -0.003,-0.03303 0.0101,-0.06122 0,-0.09375 l -2.46875,-8.125 c -0.026,-0.09705 -0.0804,-0.184105 -0.15625,-0.25 L 323.3125,54.5 c -0.12321,-0.09783 -0.28503,-0.132502 -0.4375,-0.09375 z"
         style="display:inline;fill:url(#linearGradient3685);fill-opacity:1;fill-rule:evenodd;stroke:#8f5902;stroke-width:1;stroke-linecap:round;stroke-linejoin:miter;stroke-miterlimit:4;stroke-dashoffset:0.7;stroke-opacity:1;enable-background:new" />
      <rect
         y="66"
         x="309"
         height="1"
         width="23.340202"
         id="rect3606"
         style="display:inline;opacity:0.189189;fill:#ffffff;fill-opacity:1;stroke:none;stroke-width:2;stroke-linecap:round;stroke-linejoin:round;stroke-miterlimit:4;stroke-dasharray:none;stroke-dashoffset:0.5;stroke-opacity:1;enable-background:new" />
      <path
         id="path5981"
         d="M 304.92985,70 C 304.41471,70 304,70.406014 304,70.910345 v 19.572413 0.606896 c 0,0.504331 0.41471,0.910345 0.92985,0.910346 h 29.1403 C 334.5853,92 335,91.593984 335,91.089654 V 70.910345 C 335,70.406014 334.5853,70 334.07015,70 Z"
         style="display:inline;fill:url(#linearGradient3719);fill-opacity:1;fill-rule:evenodd;stroke:none;stroke-width:1;stroke-linecap:round;stroke-linejoin:miter;stroke-miterlimit:4;stroke-dashoffset:0.7;stroke-opacity:1;enable-background:new" />
      <path
         id="path5983"
         d="M 304.92985,70 C 304.41471,70 304,70.406014 304,70.910345 v 19.572413 0.606896 c 0,0.504331 0.41471,0.910345 0.92985,0.910346 h 29.1403 C 334.5853,92 335,91.593984 335,91.089654 V 70.910345 C 335,70.406014 334.5853,70 334.07015,70 Z"
         style="display:inline;opacity:0.815315;fill:url(#radialGradient3719);fill-opacity:1;fill-rule:evenodd;stroke:none;stroke-width:1;stroke-linecap:round;stroke-linejoin:miter;stroke-miterlimit:4;stroke-dashoffset:0.7;stroke-opacity:1;enable-background:new" />
      <path
         id="path5985"
         d="m 304.71875,68 -0.6875,2.25 c 3.3e-4,0.01041 3.3e-4,0.02084 0,0.03125 -0.0217,0.051 -0.0312,0.05999 -0.0312,0.15625 3.3e-4,0.01041 3.3e-4,0.02084 0,0.03125 0.003,-0.0331 -4.8e-4,0.02092 0,0.03125 4.8e-4,0.01033 0.005,-0.02314 0,0.03125 V 73 h 31 V 70.5625 70.5 l -0.0312,-0.25 -0.0312,-0.09375 L 334.28125,68 Z"
         style="display:inline;opacity:0.5;fill:url(#radialGradient3747);fill-opacity:1;fill-rule:evenodd;stroke:none;stroke-width:1;stroke-linecap:round;stroke-linejoin:miter;stroke-miterlimit:4;stroke-dashoffset:0.7;stroke-opacity:1;enable-background:new" />
      <rect
         y="70"
         x="304"
         height="1"
         width="31"
         id="rect5987"
         style="display:inline;opacity:0.623306;fill:url(#radialGradient3763);fill-opacity:1;stroke:none;stroke-width:2;stroke-linecap:round;stroke-linejoin:round;stroke-miterlimit:4;stroke-dasharray:none;stroke-dashoffset:0.5;stroke-opacity:1;enable-background:new" />
      <path
         id="path3558"
         d="m 307.9375,61.90625 c -0.11711,0 -0.1826,0.04816 -0.28125,0.1875 -0.0986,0.139338 -0.18612,0.364653 -0.25,0.59375 l -2.125,7.40625 H 323.5 v -8.1875 z"
         style="display:inline;opacity:0.369369;fill:url(#linearGradient3588);fill-opacity:1;fill-rule:evenodd;stroke:none;stroke-width:1;stroke-linecap:round;stroke-linejoin:miter;stroke-miterlimit:4;stroke-dashoffset:0.7;stroke-opacity:1;enable-background:new" />
      <rect
         y="65"
         x="309"
         height="1"
         width="23.340202"
         id="rect3602"
         style="opacity:0.396396;fill:#c17d11;fill-opacity:1;stroke:none;stroke-width:2;stroke-linecap:round;stroke-linejoin:round;stroke-miterlimit:4;stroke-dasharray:none;stroke-dashoffset:0.5;stroke-opacity:1" />
      <path
         id="path3466"
         style="display:inline;overflow:visible;visibility:visible;fill:url(#radialGradient3479);fill-opacity:1;fill-rule:evenodd;stroke:none;stroke-width:1;stroke-linecap:butt;stroke-linejoin:miter;stroke-miterlimit:4;stroke-dasharray:none;stroke-dashoffset:0;stroke-opacity:1;marker:none;marker-start:none;marker-mid:none;marker-end:none;enable-background:new"
         d="m 317.87891,59.09375 -11.16016,2.943359 -2.48047,7.800782 13.51953,-2.964844 z" />
      <path
         id="path3489"
         style="display:inline;overflow:visible;visibility:visible;fill:none;fill-opacity:1;fill-rule:evenodd;stroke:url(#linearGradient3503);stroke-width:1;stroke-linecap:butt;stroke-linejoin:miter;stroke-miterlimit:4;stroke-dasharray:none;stroke-dashoffset:0;stroke-opacity:1;marker:none;marker-start:none;marker-mid:none;marker-end:none;enable-background:new"
         d="m 317.97461,58.496094 a 0.44138172,0.44138172 0 0 0 -0.0879,0.01563 l -11.375,3 a 0.44138172,0.44138172 0 0 0 -0.30664,0.292969 l -2.5625,8.0625 a 0.44138172,0.44138172 0 0 0 0.51367,0.564453 l 13.8125,-3.03125 a 0.44138172,0.44138172 0 0 0 0.34766,-0.423829 l 0.125,-8.03125 a 0.44138172,0.44138172 0 0 0 -0.4668,-0.449218 z" />
      <path
         id="path5993"
         style="display:inline;opacity:0.369369;fill:none;fill-opacity:1;fill-rule:evenodd;stroke:url(#radialGradient3729);stroke-width:1;stroke-linecap:round;stroke-linejoin:miter;stroke-miterlimit:4;stroke-dashoffset:0.7;stroke-opacity:1;enable-background:new"
         d="m 323.63281,56.125 0.0762,5.359375 a 1.1145117,1.1145117 0 0 1 -1.11523,1.130859 h -4.1875 a 1.1145117,1.1145117 0 0 1 -1.11523,-1.128906 l 0.0215,-1.683594 -10.13477,2.671875 a 1.1145117,1.1145117 0 0 1 -0.0547,0.111329 c -0.0895,0.156194 -0.13882,0.262805 -0.15039,0.300781 a 1.1145117,1.1145117 0 0 1 -0.002,0.0078 l -2.34375,7.53125 a 1.1145117,1.1145117 0 0 1 -0.0137,0.03516 1.1145117,1.1145117 0 0 1 -0.004,0.07617 c 0.0156,-0.173544 0.0195,-0.154006 0,0.0625 l 0.006,-0.09961 v 20.34375 c 0,-0.04425 0.0648,0.326704 0.16407,0.523438 0.006,0.01144 0.006,0.0071 0.0117,0.01758 h 29.41796 c 0.006,-0.01051 0.006,-0.0061 0.0117,-0.01758 0.0993,-0.196733 0.16407,-0.567684 0.16407,-0.523438 V 70.585938 l -0.0352,-0.228516 v -0.0059 a 1.1145117,1.1145117 0 0 1 -0.0527,-0.240234 c -0.002,-0.01503 0.001,-0.0075 0,-0.02148 l -2.3711,-7.806641 z" />
      <path
         id="path3524"
         style="display:inline;overflow:visible;visibility:visible;opacity:0.531532;fill:none;fill-opacity:1;fill-rule:evenodd;stroke:url(#linearGradient3538);stroke-width:1;stroke-linecap:butt;stroke-linejoin:miter;stroke-miterlimit:4;stroke-dasharray:none;stroke-dashoffset:0;stroke-opacity:1;marker:none;marker-start:none;marker-mid:none;marker-end:none;enable-background:new"
         d="m 317.55469,59.505859 -10.58789,2.791016 -2.26172,7.115234 12.74023,-2.794921 z" />
      <path
         id="path3593"
         d="m 323.0625,61.90625 v 8.1875 h 10.65625 l -2.125,-7.53125 c -0.0613,-0.220339 -0.13082,-0.426301 -0.21875,-0.53125 -0.0879,-0.104949 -0.16684,-0.125 -0.3125,-0.125 z"
         style="display:inline;opacity:0.369369;fill:url(#linearGradient3600);fill-opacity:1;fill-rule:evenodd;stroke:none;stroke-width:1;stroke-linecap:round;stroke-linejoin:miter;stroke-miterlimit:4;stroke-dashoffset:0.7;stroke-opacity:1;enable-background:new" />
      <g
         id="g3562">
        <path
           style="display:inline;overflow:visible;visibility:visible;fill:url(#linearGradient3568);fill-opacity:1;fill-rule:evenodd;stroke:none;stroke-width:1;stroke-linecap:butt;stroke-linejoin:miter;stroke-miterlimit:4;stroke-dasharray:none;stroke-dashoffset:0;stroke-opacity:1;marker:none;marker-start:none;marker-mid:none;marker-end:none;enable-background:new"
           id="path3468"
           d="m 323,54.90625 0.125,8.125 11.8125,7.03125 -2.46875,-8.125 z" />
        <path
           style="display:inline;overflow:visible;visibility:visible;fill:none;fill-opacity:1;fill-rule:evenodd;stroke:url(#linearGradient3570);stroke-width:1;stroke-linecap:butt;stroke-linejoin:miter;stroke-miterlimit:4;stroke-dasharray:none;stroke-dashoffset:0;stroke-opacity:1;marker:none;marker-start:none;marker-mid:none;marker-end:none;enable-background:new"
           id="path3491"
           d="m 323.02344,54.402344 a 0.5039415,0.5039415 0 0 0 -0.52735,0.511718 l 0.125,8.125 a 0.5039415,0.5039415 0 0 0 0.2461,0.425782 l 11.8125,7.03125 a 0.5039415,0.5039415 0 0 0 0.74023,-0.580078 l -2.46875,-8.125 a 0.5039415,0.5039415 0 0 0 -0.18164,-0.257813 l -9.46875,-7.03125 a 0.5039415,0.5039415 0 0 0 -0.27734,-0.09961 z" />
        <path
           style="display:inline;overflow:visible;visibility:visible;opacity:0.252252;fill:none;fill-opacity:1;fill-rule:evenodd;stroke:url(#linearGradient3572);stroke-width:1;stroke-linecap:butt;stroke-linejoin:miter;stroke-miterlimit:4;stroke-dasharray:none;stroke-dashoffset:0;stroke-opacity:1;marker:none;marker-start:none;marker-mid:none;marker-end:none;enable-background:new"
           id="path3526"
           d="m 323.49414,55.869141 0.10547,6.888671 10.52148,6.263672 -2.06445,-6.794922 z" />
        <path
           style="display:inline;overflow:visible;visibility:visible;opacity:0.369369;fill:#ffffff;fill-opacity:1;fill-rule:evenodd;stroke:none;stroke-width:1;stroke-linecap:butt;stroke-linejoin:miter;stroke-miterlimit:4;stroke-dashoffset:0;stroke-opacity:1;marker:none;marker-start:none;marker-mid:none;marker-end:none;enable-background:new"
           d="m 323,54.90625 0.125,8.125 11.8125,7.03125 -10.875,-7.24908 -0.0625,-6.31434 8.46875,5.43842 z"
           id="path3548" />
      </g>
      <rect
         y="62"
         x="319"
         height="1"
         width="3"
         id="rect3604"
         style="display:inline;opacity:0.207207;fill:#ffffff;fill-opacity:1;stroke:none;stroke-width:2;stroke-linecap:round;stroke-linejoin:round;stroke-miterlimit:4;stroke-dasharray:none;stroke-dashoffset:0.5;stroke-opacity:1;enable-background:new" />
    </g>
  </g>
</svg>
