<?xml version="1.0" encoding="UTF-8" standalone="no"?>
<!-- Created with Inkscape (http://www.inkscape.org/) -->

<svg
   id="svg11300"
   height="512"
   width="512"
   version="1.1"
   sodipodi:docname="Dialog-apply.svg"
   inkscape:version="1.2.1 (9c6d41e410, 2022-07-14)"
   xmlns:inkscape="http://www.inkscape.org/namespaces/inkscape"
   xmlns:sodipodi="http://sodipodi.sourceforge.net/DTD/sodipodi-0.dtd"
   xmlns="http://www.w3.org/2000/svg"
   xmlns:svg="http://www.w3.org/2000/svg"
   xmlns:rdf="http://www.w3.org/1999/02/22-rdf-syntax-ns#"
   xmlns:cc="http://creativecommons.org/ns#"
   xmlns:dc="http://purl.org/dc/elements/1.1/">
  <sodipodi:namedview
     id="namedview17"
     pagecolor="#ffffff"
     bordercolor="#666666"
     borderopacity="1.0"
     inkscape:showpageshadow="2"
     inkscape:pageopacity="0.0"
     inkscape:pagecheckerboard="0"
     inkscape:deskcolor="#d1d1d1"
     showgrid="false"
     inkscape:zoom="0.86915209"
     inkscape:cx="-208.82421"
     inkscape:cy="316.9756"
     inkscape:window-width="1920"
     inkscape:window-height="1005"
     inkscape:window-x="0"
     inkscape:window-y="24"
     inkscape:window-maximized="1"
     inkscape:current-layer="svg11300" />
  <defs
     id="defs3">
    <radialGradient
       id="radialGradient1444"
       gradientUnits="userSpaceOnUse"
       cy="36.421001"
       cx="24.837"
       gradientTransform="matrix(1,0,0,0.53672,0,16.873)"
       r="15.645">
      <stop
         id="stop8664"
         offset="0" />
      <stop
         id="stop8666"
         stop-opacity="0"
         offset="1" />
    </radialGradient>
    <linearGradient
       id="linearGradient1455"
       y2="24.558001"
       gradientUnits="userSpaceOnUse"
       x2="-91.513"
       gradientTransform="translate(0.52714,-0.023199)"
       y1="-5.3878999"
       x1="-84.344002">
      <stop
         id="stop1733"
         stop-color="#a7cc5c"
         offset="0" />
      <stop
         id="stop1735"
         stop-color="#789e2d"
         offset="1" />
    </linearGradient>
  </defs>
  <metadata
     id="metadata4">
    <rdf:RDF>
      <cc:Work
         rdf:about="">
        <dc:format>image/svg+xml</dc:format>
        <dc:type
           rdf:resource="http://purl.org/dc/dcmitype/StillImage" />
        <dc:creator>
          <cc:Agent>
            <dc:title>Jakub Steiner</dc:title>
          </cc:Agent>
        </dc:creator>
        <dc:source>http://jimmac.musichall.cz</dc:source>
        <cc:license
           rdf:resource="http://creativecommons.org/licenses/by-sa/2.0/" />
        <dc:title>Dialog ok</dc:title>
        <dc:subject>
          <rdf:Bag>
            <rdf:li>ok</rdf:li>
            <rdf:li>sure</rdf:li>
            <rdf:li>set</rdf:li>
            <rdf:li>apply</rdf:li>
          </rdf:Bag>
        </dc:subject>
        <dc:contributor>
          <cc:Agent>
            <dc:title>Andreas Nilsson</dc:title>
          </cc:Agent>
        </dc:contributor>
      </cc:Work>
      <cc:License
         rdf:about="http://creativecommons.org/licenses/by-sa/2.0/">
        <cc:permits
           rdf:resource="http://web.resource.org/cc/Reproduction" />
        <cc:permits
           rdf:resource="http://web.resource.org/cc/Distribution" />
        <cc:requires
           rdf:resource="http://web.resource.org/cc/Notice" />
        <cc:requires
           rdf:resource="http://web.resource.org/cc/Attribution" />
        <cc:permits
           rdf:resource="http://web.resource.org/cc/DerivativeWorks" />
        <cc:requires
           rdf:resource="http://web.resource.org/cc/ShareAlike" />
      </cc:License>
    </rdf:RDF>
  </metadata>
  <g
     id="layer1"
     transform="matrix(11.897362,0,0,11.897362,-29.54545,-53.17918)">
    <path
       id="path8660"
       opacity="0.20455"
       style="color:#000000;fill:url(#radialGradient1444)"
       d="m 40.482,36.421 a 15.645,8.3969 0 1 1 -31.29,0 15.645,8.3969 0 1 1 31.29,0 z"
       fill-rule="evenodd"
       transform="matrix(1.2145,0,0,0.59546,-6.1638,20.313)"
       fill="url(#radialGradient1444)" />
    <g
       id="g1529"
       transform="translate(111.74,15.579)">
      <g
         id="g1450"
         stroke-linejoin="round"
         transform="matrix(1.0173,-0.24356,0.24356,1.0173,-1.7457,-23.383)"
         stroke-linecap="round"
         stroke-width="0.95598">
        <path
           id="path1542"
           d="m -73.882,-4.6293 c -0.508,-0.1774 -1.086,-0.0464 -1.471,0.3789 l -16.382,18.116 -5.93,-7.5776 c -0.567,-0.5127 -1.436,-0.4782 -1.948,0.0888 l -4.297,3.4306 c -0.51,0.5672 -0.47,1.4382 0.1,1.9512 0,0 10.731,14.247 10.745,14.259 0.133,0.12 0.283,0.2 0.441,0.26 0.514,0.194 1.118,0.075 1.51,-0.36 L -69.02,1.4856 c 0.512,-0.56653 0.467,-1.4377 -0.1,-1.9504 l -4.282,-3.8854 c -0.141,-0.1282 -0.311,-0.2204 -0.48,-0.2795 z"
           stroke="#42770c"
           fill="url(#linearGradient1455)"
           style="fill:url(#linearGradient1455)" />
        <path
           id="path1544"
           opacity="0.481"
           d="m -74.979,-3.2017 -8.31,9.2229 -7.384,8.1218 c -0.206,0.129 -0.283,0.674 -1.051,0.685 -0.532,0.008 -0.578,-0.2 -1.024,-0.666 l -5.24,-6.6527 c -0.581,-0.7501 -0.566,-0.7148 -1.198,-0.3235 l -3.374,2.6527 c -0.88,0.5805 -0.88,1.0585 -0.14,1.8255 0,0 9.755,12.933 9.768,12.945 0.126,0.113 0.058,0.125 0.576,0.706 0.333,0.372 0.895,-0.423 1.264,-0.831 L -69.85,1.048 c 0.482,-0.53326 0.454,-0.53108 -0.082,-1.016 l -3.849,-3.3932 c -0.553,-0.4976 -0.557,-0.4944 -1.198,0.1595 z"
           stroke="#ffffff"
           fill="none" />
      </g>
    </g>
  </g>
</svg>
