<?xml version="1.0" encoding="UTF-8" standalone="no"?>
<!-- Generator: Adobe Illustrator 21.1.0, SVG Export Plug-In . SVG Version: 6.00 Build 0)  -->

<svg
   version="1.1"
   id="Layer_1"
   x="0px"
   y="0px"
   viewBox="0 0 512 512"
   style="enable-background:new 0 0 512 512;"
   xml:space="preserve"
   sodipodi:docname="copy.svg"
   inkscape:version="1.1 (c68e22c387, 2021-05-23)"
   xmlns:inkscape="http://www.inkscape.org/namespaces/inkscape"
   xmlns:sodipodi="http://sodipodi.sourceforge.net/DTD/sodipodi-0.dtd"
   xmlns="http://www.w3.org/2000/svg"
   xmlns:svg="http://www.w3.org/2000/svg"><defs
   id="defs29" /><sodipodi:namedview
   id="namedview27"
   pagecolor="#ffffff"
   bordercolor="#666666"
   borderopacity="1.0"
   inkscape:pageshadow="2"
   inkscape:pageopacity="0.0"
   inkscape:pagecheckerboard="0"
   showgrid="false"
   inkscape:zoom="1.4707031"
   inkscape:cx="123.07039"
   inkscape:cy="255.66003"
   inkscape:window-width="2560"
   inkscape:window-height="1366"
   inkscape:window-x="0"
   inkscape:window-y="24"
   inkscape:window-maximized="1"
   inkscape:current-layer="Layer_1" />
<g
   id="g6"
   transform="matrix(13.384748,0,0,13.384748,-3.4483094,0)">
	<path
   style="fill:#f5c276"
   d="M 6.363,37.5 C 5.887,37.5 5.5,37.103 5.5,36.615 V 3.385 C 5.5,2.897 5.888,2.5 6.363,2.5 H 16.54 C 16.513,2.668 16.5,2.834 16.5,3 c 0,1.93 1.57,3.5 3.5,3.5 1.93,0 3.5,-1.57 3.5,-3.5 0,-0.166 -0.013,-0.332 -0.04,-0.5 h 10.177 c 0.476,0 0.863,0.397 0.863,0.885 v 33.23 c 0,0.488 -0.388,0.885 -0.863,0.885 H 6.363 Z"
   id="path2" />
	<path
   style="fill:#c29653"
   d="M 33.636,3 C 33.837,3 34,3.173 34,3.385 V 36.616 C 34,36.827 33.837,37 33.636,37 H 6.364 C 6.163,37 6,36.827 6,36.615 V 3.385 C 6,3.173 6.163,3 6.364,3 H 16 c 0,2.206 1.794,4 4,4 2.206,0 4,-1.794 4,-4 h 9.636 m 0,-1 H 22.816 C 22.928,2.314 23,2.647 23,3 23,4.657 21.657,6 20,6 18.343,6 17,4.657 17,3 17,2.647 17.072,2.314 17.184,2 H 6.364 C 5.611,2 5,2.62 5,3.385 V 36.616 C 5,37.38 5.611,38 6.364,38 H 33.637 C 34.389,38 35,37.38 35,36.615 V 3.385 C 35,2.62 34.389,2 33.636,2 Z"
   id="path4" />
</g>
<g
   id="g10"
   transform="matrix(13.384748,0,0,13.384748,-3.4483094,0)">
	<rect
   x="9"
   y="6"
   style="fill:#ffffff"
   width="22"
   height="28"
   id="rect8" />
</g>
<path
   style="fill:#66798f;stroke-width:13.3847"
   d="m 294.88434,26.769497 c 3.01157,6.893145 3.8682,14.937379 1.32509,23.383155 -3.30603,10.962109 -12.54151,19.796043 -23.67762,22.472992 -22.07145,5.286976 -41.74703,-11.296727 -41.74703,-32.471399 0,-4.764971 1.03063,-9.275631 2.82419,-13.384748 H 170.55342 V 80.30849 c 0,14.790147 11.97935,26.7695 26.76949,26.7695 H 331.1704 c 14.79014,0 26.76949,-11.979353 26.76949,-26.7695 V 26.769497 Z"
   id="path12" />
<g
   id="g16"
   transform="matrix(13.384748,0,0,13.384748,-3.4483094,0)">
	<path
   style="fill:#66798f"
   d="m 20,1 c 1.103,0 2,0.897 2,2 0,1.103 -0.897,2 -2,2 -1.103,0 -2,-0.897 -2,-2 0,-1.103 0.897,-2 2,-2 m 0,-1 c -1.657,0 -3,1.343 -3,3 0,1.657 1.343,3 3,3 1.657,0 3,-1.343 3,-3 0,-1.657 -1.343,-3 -3,-3 z"
   id="path14" />
</g>
<path
   style="fill:#36404d;stroke-width:13.3847"
   d="m 331.1704,214.15597 h -53.539 V 361.3882 H 250.86191 V 214.15597 h -53.539 V 200.77122 H 331.1704 Z"
   id="path18" />
<rect
   x="237.47716"
   y="348.00345"
   style="fill:#36404d;stroke-width:13.3847"
   width="53.538994"
   height="13.384748"
   id="rect20" />
<polygon
   style="fill:#36404d"
   points="15,15 16,15 15.5,17 15,17 "
   id="polygon22"
   transform="matrix(13.384748,0,0,13.384748,-3.4483094,0)" />
<polygon
   style="fill:#36404d"
   points="25,15 24,15 24.5,17 25,17 "
   id="polygon24"
   transform="matrix(13.384748,0,0,13.384748,-3.4483094,0)" />
</svg>
