<?xml version="1.0" encoding="windows-1252"?>
<!-- Generator: Adobe Illustrator 21.1.0, SVG Export Plug-In . SVG Version: 6.00 Build 0)  -->
<svg xmlns="http://www.w3.org/2000/svg" xmlns:xlink="http://www.w3.org/1999/xlink" version="1.1" id="Layer_1" x="0px" y="0px" viewBox="0 0 40 40" style="enable-background:new 0 0 40 40;" xml:space="preserve">
<g>
	<path style="fill:#F5C276;" d="M6.363,37.5c-0.476,0-0.863-0.397-0.863-0.885V3.385C5.5,2.897,5.888,2.5,6.363,2.5H16.54   C16.513,2.668,16.5,2.834,16.5,3c0,1.93,1.57,3.5,3.5,3.5s3.5-1.57,3.5-3.5c0-0.166-0.013-0.332-0.04-0.5h10.177   c0.476,0,0.863,0.397,0.863,0.885v33.23c0,0.488-0.388,0.885-0.863,0.885H6.363z"/>
	<path style="fill:#C29653;" d="M33.636,3C33.837,3,34,3.173,34,3.385v33.231C34,36.827,33.837,37,33.636,37H6.364   C6.163,37,6,36.827,6,36.615V3.385C6,3.173,6.163,3,6.364,3H16c0,2.206,1.794,4,4,4s4-1.794,4-4H33.636 M33.636,2h-10.82   C22.928,2.314,23,2.647,23,3c0,1.657-1.343,3-3,3s-3-1.343-3-3c0-0.353,0.072-0.686,0.184-1H6.364C5.611,2,5,2.62,5,3.385v33.231   C5,37.38,5.611,38,6.364,38h27.273C34.389,38,35,37.38,35,36.615V3.385C35,2.62,34.389,2,33.636,2L33.636,2z"/>
</g>
<g>
	<rect x="9" y="6" style="fill:#FFFFFF;" width="22" height="28"/>
</g>
<path style="fill:#66798F;" d="M22.289,2c0.225,0.515,0.289,1.116,0.099,1.747c-0.247,0.819-0.937,1.479-1.769,1.679  C18.97,5.821,17.5,4.582,17.5,3c0-0.356,0.077-0.693,0.211-1H13v4c0,1.105,0.895,2,2,2h10c1.105,0,2-0.895,2-2V2H22.289z"/>
<g>
	<path style="fill:#66798F;" d="M20,1c1.103,0,2,0.897,2,2s-0.897,2-2,2s-2-0.897-2-2S18.897,1,20,1 M20,0c-1.657,0-3,1.343-3,3   s1.343,3,3,3s3-1.343,3-3S21.657,0,20,0L20,0z"/>
</g>
<path style="fill:#36404D;" d="M25,16h-4v11h-2V16h-4v-1h10V16z"/>
<rect x="18" y="26" style="fill:#36404D;" width="4" height="1"/>
<polygon style="fill:#36404D;" points="15.5,17 15,17 15,15 16,15 "/>
<polygon style="fill:#36404D;" points="24.5,17 25,17 25,15 24,15 "/>
</svg>