<?xml version="1.0" encoding="iso-8859-1"?>
<!-- Generator: Adobe Illustrator 19.0.0, SVG Export Plug-In . SVG Version: 6.00 Build 0)  -->
<svg version="1.1" id="Layer_1" xmlns="http://www.w3.org/2000/svg" xmlns:xlink="http://www.w3.org/1999/xlink" x="0px" y="0px"
	 viewBox="0 0 374 374" style="enable-background:new 0 0 374 374;" xml:space="preserve">
<g>
	<rect y="53.43" style="fill:#C3C6C8;" width="374" height="267.139"/>
	<g>
		<g>
			<rect x="26.715" y="80.144" style="fill:#005FAD;" width="53.43" height="53.428"/>
			<rect x="80.145" y="80.144" style="fill:#0071CE;" width="53.428" height="53.428"/>
			<rect x="133.572" y="80.144" style="fill:#5E96DC;" width="53.428" height="53.428"/>
			<rect x="26.715" y="133.572" style="fill:#4F7FBA;" width="53.43" height="53.429"/>
			<rect x="80.145" y="133.572" style="fill:#005FAD;" width="53.428" height="53.429"/>
			<rect x="80.145" y="187.001" style="fill:#5E96DC;" width="53.428" height="53.429"/>
			<rect x="133.572" y="133.572" style="fill:#0071CE;" width="53.428" height="53.429"/>
			<rect x="187" y="80.144" style="fill:#0071CE;" width="53.428" height="53.428"/>
			<rect x="240.428" y="80.144" style="fill:#005FAD;" width="53.43" height="53.428"/>
			<rect x="293.857" y="80.144" style="fill:#0071CE;" width="53.428" height="53.428"/>
			<rect x="240.428" y="133.572" style="fill:#4F7FBA;" width="53.43" height="53.429"/>
			<rect x="293.857" y="133.572" style="fill:#005FAD;" width="53.428" height="53.429"/>
			<rect x="293.857" y="187.001" style="fill:#5E96DC;" width="53.428" height="53.429"/>
		</g>
		<rect x="26.715" y="187.001" style="fill:#00BD5E;" width="53.43" height="53.429"/>
		<rect x="26.715" y="240.429" style="fill:#00BD5E;" width="53.43" height="53.428"/>
		<rect x="80.145" y="240.429" style="fill:#009638;" width="53.428" height="53.428"/>
		<rect x="133.572" y="240.429" style="fill:#009638;" width="53.428" height="53.428"/>
		<rect x="187" y="240.429" style="fill:#00BD5E;" width="53.428" height="53.428"/>
		<rect x="240.428" y="240.429" style="fill:#00BD5E;" width="53.43" height="53.428"/>
		<rect x="293.857" y="240.429" style="fill:#009638;" width="53.428" height="53.428"/>
		<rect x="133.572" y="187.001" style="fill:#00BD5E;" width="53.428" height="53.429"/>
		<rect x="187" y="187.001" style="fill:#009638;" width="53.428" height="53.429"/>
		<rect x="187" y="133.572" style="fill:#00BD5E;" width="53.428" height="53.429"/>
		<rect x="240.428" y="187.001" style="fill:#00BD5E;" width="53.43" height="53.429"/>
	</g>
</g>
<g>
</g>
<g>
</g>
<g>
</g>
<g>
</g>
<g>
</g>
<g>
</g>
<g>
</g>
<g>
</g>
<g>
</g>
<g>
</g>
<g>
</g>
<g>
</g>
<g>
</g>
<g>
</g>
<g>
</g>
</svg>
