<?xml version="1.0" encoding="UTF-8" standalone="no"?>
<!-- Generator: Adobe Illustrator 9.0, SVG Export Plug-In  -->

<svg
   xmlns:dc="http://purl.org/dc/elements/1.1/"
   xmlns:cc="http://creativecommons.org/ns#"
   xmlns:rdf="http://www.w3.org/1999/02/22-rdf-syntax-ns#"
   xmlns:svg="http://www.w3.org/2000/svg"
   xmlns="http://www.w3.org/2000/svg"
   xmlns:xlink="http://www.w3.org/1999/xlink"
   xmlns:sodipodi="http://sodipodi.sourceforge.net/DTD/sodipodi-0.dtd"
   xmlns:inkscape="http://www.inkscape.org/namespaces/inkscape"
   width="256pt"
   height="256pt"
   viewBox="0 0 256 256"
   xml:space="preserve"
   version="1.1"
   id="svg21"
   sodipodi:docname="default.svg"
   inkscape:version="0.92.2 2405546, 2018-03-11"><metadata
   id="metadata27"><rdf:RDF><cc:Work
       rdf:about=""><dc:format>image/svg+xml</dc:format><dc:type
         rdf:resource="http://purl.org/dc/dcmitype/StillImage" /><dc:title></dc:title></cc:Work></rdf:RDF></metadata><defs
   id="defs25"><radialGradient
     inkscape:collect="always"
     xlink:href="#aigrd1"
     id="radialGradient29"
     gradientUnits="userSpaceOnUse"
     cx="18.804701"
     cy="16.5483"
     fx="18.804701"
     fy="16.5483"
     r="25.2026" /><radialGradient
     inkscape:collect="always"
     xlink:href="#aigrd1"
     id="radialGradient31"
     gradientUnits="userSpaceOnUse"
     cx="18.804701"
     cy="16.5483"
     fx="18.804701"
     fy="16.5483"
     r="25.2026" /></defs><sodipodi:namedview
   pagecolor="#ffffff"
   bordercolor="#666666"
   borderopacity="1"
   objecttolerance="10"
   gridtolerance="10"
   guidetolerance="10"
   inkscape:pageopacity="0"
   inkscape:pageshadow="2"
   inkscape:window-width="1494"
   inkscape:window-height="999"
   id="namedview23"
   showgrid="false"
   inkscape:zoom="1.3037281"
   inkscape:cx="340.60383"
   inkscape:cy="135.21712"
   inkscape:window-x="0"
   inkscape:window-y="24"
   inkscape:window-maximized="0"
   inkscape:current-layer="svg21" />
	<g
   id="Layer_x0020_2"
   style="clip-rule:nonzero;fill-rule:nonzero;stroke:#000000;stroke-miterlimit:4"
   transform="matrix(5.3050846,0,0,5.3050846,0,1.3559058)">
		<path
   style="fill:none;stroke:none"
   d="M 48,48 H 0 V 0 h 48 z"
   id="path2"
   inkscape:connector-curvature="0" />
	</g>
	<g
   id="Layer_x0020_3"
   style="clip-rule:nonzero;fill-rule:nonzero;stroke:#000000;stroke-miterlimit:4"
   transform="matrix(5.3050846,0,0,5.3050846,0,1.3559058)">
		<g
   id="g14">
			<radialGradient
   id="aigrd1"
   cx="18.804701"
   cy="16.5483"
   r="25.2026"
   fx="18.804701"
   fy="16.5483"
   gradientUnits="userSpaceOnUse">
				<stop
   offset="0"
   style="stop-color:#FED182"
   id="stop5" />
				<stop
   offset="0.2809"
   style="stop-color:#FFB310"
   id="stop7" />
				<stop
   offset="1"
   style="stop-color:#996E04"
   id="stop9" />
			</radialGradient>
			<path
   style="clip-rule:evenodd;fill:url(#radialGradient29);fill-rule:evenodd;stroke-width:5;stroke-linecap:round;stroke-linejoin:round"
   d="M 37.1,10.9 27.8,22 v 0.2 l 13.9,-2.8 v 8.8 l -14,-2.3 V 26 l 9.4,10.8 -7.7,4.4 -5,-13.4 -0.2,0.1 -5,13.3 L 11.7,36.8 21,25.9 V 25.7 L 7.4,28.2 V 19.4 L 21,22.2 V 22 L 11.9,11 19.6,6.6 24.4,20 h 0.2 l 5,-13.4 7.6,4.3 z"
   id="path12"
   inkscape:connector-curvature="0" />
		</g>
		<g
   id="g18">
			<path
   style="clip-rule:evenodd;fill:url(#radialGradient31);fill-rule:evenodd;stroke:none"
   d="M 37.1,10.9 27.8,22 v 0.2 l 13.9,-2.8 v 8.8 l -14,-2.3 V 26 l 9.4,10.8 -7.7,4.4 -5,-13.4 -0.2,0.1 -5,13.3 L 11.7,36.8 21,25.9 V 25.7 L 7.4,28.2 V 19.4 L 21,22.2 V 22 L 11.9,11 19.6,6.6 24.4,20 h 0.2 l 5,-13.4 7.6,4.3 z"
   id="path16"
   inkscape:connector-curvature="0" />
		</g>
	</g>
</svg>