<svg height="480pt" viewBox="0 -40 480 480" width="480pt" xmlns="http://www.w3.org/2000/svg"><path d="m416 72h-392v256h432v-256zm0 0" fill="#d5c7b7"/><g fill="#fff"><path d="m400 24c0-8.835938 7.164062-16 16-16h-32c8.835938 0 16 7.164062 16 16zm0 0"/><path d="m272 24c0-8.835938 7.164062-16 16-16h-32c8.835938 0 16 7.164062 16 16zm0 0"/><path d="m336 24c0-8.835938 7.164062-16 16-16h-32c8.835938 0 16 7.164062 16 16zm0 0"/><path d="m144 24c0-8.835938 7.164062-16 16-16h-32c8.835938 0 16 7.164062 16 16zm0 0"/><path d="m400 56c0 8.835938-7.164062 16-16 16h32c-8.835938 0-16-7.164062-16-16zm0 0"/><path d="m80 56c0 8.835938-7.164062 16-16 16h32c-8.835938 0-16-7.164062-16-16zm0 0"/><path d="m144 56c0 8.835938-7.164062 16-16 16h32c-8.835938 0-16-7.164062-16-16zm0 0"/><path d="m272 56c0 8.835938-7.164062 16-16 16h32c-8.835938 0-16-7.164062-16-16zm0 0"/><path d="m336 56c0 8.835938-7.164062 16-16 16h32c-8.835938 0-16-7.164062-16-16zm0 0"/><path d="m208 56c0 8.835938-7.164062 16-16 16h32c-8.835938 0-16-7.164062-16-16zm0 0"/><path d="m208 24c0-8.835938 7.164062-16 16-16h-32c8.835938 0 16 7.164062 16 16zm0 0"/><path d="m16 56v-32c0-8.835938 7.164062-16 16-16h-24v64h24c-8.835938 0-16-7.164062-16-16zm0 0"/><path d="m80 24c0-8.835938 7.164062-16 16-16h-32c8.835938 0 16 7.164062 16 16zm0 0"/><path d="m464 24v32c0 8.835938-7.164062 16-16 16h24v-64h-24c8.835938 0 16 7.164062 16 16zm0 0"/><path d="m224 8h32c8.835938 0 16 7.164062 16 16v32c0 8.835938-7.164062 16-16 16h-32c-8.835938 0-16-7.164062-16-16v-32c0-8.835938 7.164062-16 16-16zm0 0"/><path d="m288 8h32c8.835938 0 16 7.164062 16 16v32c0 8.835938-7.164062 16-16 16h-32c-8.835938 0-16-7.164062-16-16v-32c0-8.835938 7.164062-16 16-16zm0 0"/><path d="m352 8h32c8.835938 0 16 7.164062 16 16v32c0 8.835938-7.164062 16-16 16h-32c-8.835938 0-16-7.164062-16-16v-32c0-8.835938 7.164062-16 16-16zm0 0"/><path d="m32 8h32c8.835938 0 16 7.164062 16 16v32c0 8.835938-7.164062 16-16 16h-32c-8.835938 0-16-7.164062-16-16v-32c0-8.835938 7.164062-16 16-16zm0 0"/><path d="m96 8h32c8.835938 0 16 7.164062 16 16v32c0 8.835938-7.164062 16-16 16h-32c-8.835938 0-16-7.164062-16-16v-32c0-8.835938 7.164062-16 16-16zm0 0"/><path d="m160 8h32c8.835938 0 16 7.164062 16 16v32c0 8.835938-7.164062 16-16 16h-32c-8.835938 0-16-7.164062-16-16v-32c0-8.835938 7.164062-16 16-16zm0 0"/><path d="m416 8h32c8.835938 0 16 7.164062 16 16v32c0 8.835938-7.164062 16-16 16h-32c-8.835938 0-16-7.164062-16-16v-32c0-8.835938 7.164062-16 16-16zm0 0"/><path d="m208 376c0 8.835938-7.164062 16-16 16h32c-8.835938 0-16-7.164062-16-16zm0 0"/><path d="m464 344v32c0 8.835938-7.164062 16-16 16h24v-64h-24c8.835938 0 16 7.164062 16 16zm0 0"/><path d="m272 376c0 8.835938-7.164062 16-16 16h32c-8.835938 0-16-7.164062-16-16zm0 0"/><path d="m144 376c0 8.835938-7.164062 16-16 16h32c-8.835938 0-16-7.164062-16-16zm0 0"/><path d="m400 376c0 8.835938-7.164062 16-16 16h32c-8.835938 0-16-7.164062-16-16zm0 0"/><path d="m336 376c0 8.835938-7.164062 16-16 16h32c-8.835938 0-16-7.164062-16-16zm0 0"/><path d="m80 376c0 8.835938-7.164062 16-16 16h32c-8.835938 0-16-7.164062-16-16zm0 0"/></g><path d="m208 344c0-8.835938 7.164062-16 16-16h-32c8.835938 0 16 7.164062 16 16zm0 0" fill="#c3e0f6"/><path d="m272 344c0-8.835938 7.164062-16 16-16h-32c8.835938 0 16 7.164062 16 16zm0 0" fill="#c3e0f6"/><path d="m144 344c0-8.835938 7.164062-16 16-16h-32c8.835938 0 16 7.164062 16 16zm0 0" fill="#c3e0f6"/><path d="m80 344c0-8.835938 7.164062-16 16-16h-32c8.835938 0 16 7.164062 16 16zm0 0" fill="#c3e0f6"/><path d="m336 344c0-8.835938 7.164062-16 16-16h-32c8.835938 0 16 7.164062 16 16zm0 0" fill="#c3e0f6"/><path d="m16 376v-32c0-8.835938 7.164062-16 16-16h-24v64h24c-8.835938 0-16-7.164062-16-16zm0 0" fill="#fff"/><path d="m400 344c0-8.835938 7.164062-16 16-16h-32c8.835938 0 16 7.164062 16 16zm0 0" fill="#c3e0f6"/><path d="m224 328h32c8.835938 0 16 7.164062 16 16v32c0 8.835938-7.164062 16-16 16h-32c-8.835938 0-16-7.164062-16-16v-32c0-8.835938 7.164062-16 16-16zm0 0" fill="#fff"/><path d="m288 328h32c8.835938 0 16 7.164062 16 16v32c0 8.835938-7.164062 16-16 16h-32c-8.835938 0-16-7.164062-16-16v-32c0-8.835938 7.164062-16 16-16zm0 0" fill="#fff"/><path d="m352 328h32c8.835938 0 16 7.164062 16 16v32c0 8.835938-7.164062 16-16 16h-32c-8.835938 0-16-7.164062-16-16v-32c0-8.835938 7.164062-16 16-16zm0 0" fill="#fff"/><path d="m32 328h32c8.835938 0 16 7.164062 16 16v32c0 8.835938-7.164062 16-16 16h-32c-8.835938 0-16-7.164062-16-16v-32c0-8.835938 7.164062-16 16-16zm0 0" fill="#fff"/><path d="m96 328h32c8.835938 0 16 7.164062 16 16v32c0 8.835938-7.164062 16-16 16h-32c-8.835938 0-16-7.164062-16-16v-32c0-8.835938 7.164062-16 16-16zm0 0" fill="#fff"/><path d="m160 328h32c8.835938 0 16 7.164062 16 16v32c0 8.835938-7.164062 16-16 16h-32c-8.835938 0-16-7.164062-16-16v-32c0-8.835938 7.164062-16 16-16zm0 0" fill="#fff"/><path d="m416 328h32c8.835938 0 16 7.164062 16 16v32c0 8.835938-7.164062 16-16 16h-32c-8.835938 0-16-7.164062-16-16v-32c0-8.835938 7.164062-16 16-16zm0 0" fill="#fff"/><path d="m24 72h432v16h-432zm0 0" fill="#baaea0"/><path d="m80 96h320c17.671875 0 32 14.328125 32 32v144c0 17.671875-14.328125 32-32 32h-320c-17.671875 0-32-14.328125-32-32v-144c0-17.671875 14.328125-32 32-32zm0 0" fill="#fffae3"/><path d="m472 80c4.417969 0 8-3.582031 8-8v-64c0-4.417969-3.582031-8-8-8h-464c-4.417969 0-8 3.582031-8 8v64c0 4.417969 3.582031 8 8 8h8v240h-8c-4.417969 0-8 3.582031-8 8v64c0 4.417969 3.582031 8 8 8h464c4.417969 0 8-3.582031 8-8v-64c0-4.417969-3.582031-8-8-8h-8v-240zm-24-64c4.417969 0 8 3.582031 8 8v32c0 4.417969-3.582031 8-8 8h-32c-4.417969 0-8-3.582031-8-8v-32c0-4.417969 3.582031-8 8-8zm-64 0c4.417969 0 8 3.582031 8 8v32c0 4.417969-3.582031 8-8 8h-32c-4.417969 0-8-3.582031-8-8v-32c0-4.417969 3.582031-8 8-8zm-64 0c4.417969 0 8 3.582031 8 8v32c0 4.417969-3.582031 8-8 8h-32c-4.417969 0-8-3.582031-8-8v-32c0-4.417969 3.582031-8 8-8zm-64 0c4.417969 0 8 3.582031 8 8v32c0 4.417969-3.582031 8-8 8h-32c-4.417969 0-8-3.582031-8-8v-32c0-4.417969 3.582031-8 8-8zm-64 0c4.417969 0 8 3.582031 8 8v32c0 4.417969-3.582031 8-8 8h-32c-4.417969 0-8-3.582031-8-8v-32c0-4.417969 3.582031-8 8-8zm-64 0c4.417969 0 8 3.582031 8 8v32c0 4.417969-3.582031 8-8 8h-32c-4.417969 0-8-3.582031-8-8v-32c0-4.417969 3.582031-8 8-8zm-64 0c4.417969 0 8 3.582031 8 8v32c0 4.417969-3.582031 8-8 8h-32c-4.417969 0-8-3.582031-8-8v-32c0-4.417969 3.582031-8 8-8zm-32 368c-4.417969 0-8-3.582031-8-8v-32c0-4.417969 3.582031-8 8-8h32c4.417969 0 8 3.582031 8 8v32c0 4.417969-3.582031 8-8 8zm64 0c-4.417969 0-8-3.582031-8-8v-32c0-4.417969 3.582031-8 8-8h32c4.417969 0 8 3.582031 8 8v32c0 4.417969-3.582031 8-8 8zm64 0c-4.417969 0-8-3.582031-8-8v-32c0-4.417969 3.582031-8 8-8h32c4.417969 0 8 3.582031 8 8v32c0 4.417969-3.582031 8-8 8zm64 0c-4.417969 0-8-3.582031-8-8v-32c0-4.417969 3.582031-8 8-8h32c4.417969 0 8 3.582031 8 8v32c0 4.417969-3.582031 8-8 8zm64 0c-4.417969 0-8-3.582031-8-8v-32c0-4.417969 3.582031-8 8-8h32c4.417969 0 8 3.582031 8 8v32c0 4.417969-3.582031 8-8 8zm64 0c-4.417969 0-8-3.582031-8-8v-32c0-4.417969 3.582031-8 8-8h32c4.417969 0 8 3.582031 8 8v32c0 4.417969-3.582031 8-8 8zm64 0c-4.417969 0-8-3.582031-8-8v-32c0-4.417969 3.582031-8 8-8h32c4.417969 0 8 3.582031 8 8v32c0 4.417969-3.582031 8-8 8zm32-64h-416v-240h416zm0 0" fill="#202020"/></svg>