<?xml version="1.0" encoding="utf-8"?>
<!-- Generator: Adobe Illustrator 16.0.0, SVG Export Plug-In . SVG Version: 6.00 Build 0)  -->
<!DOCTYPE svg PUBLIC "-//W3C//DTD SVG 1.1//EN" "http://www.w3.org/Graphics/SVG/1.1/DTD/svg11.dtd">
<svg version="1.1" id="Capa_1" xmlns="http://www.w3.org/2000/svg" xmlns:xlink="http://www.w3.org/1999/xlink" x="0px" y="0px"
	 width="800px" height="800px" viewBox="0 0 800 800" enable-background="new 0 0 800 800" xml:space="preserve">
<g>
	<polygon fill="#103B9B" points="24.807,331.323 24.807,232.411 173.175,331.323 	"/>
	<polygon fill="#103B9B" points="25.807,234.279 25.807,330.323 169.872,330.323 	"/>
	<polygon fill="#103B9B" points="154.567,153.839 331.322,153.839 331.322,271.675 	"/>
	<polygon fill="#103B9B" points="330.322,154.839 157.87,154.839 330.322,269.807 	"/>
	<polygon fill="#103B9B" points="24.807,468.678 173.175,468.678 24.807,567.589 	"/>
	<polygon fill="#103B9B" points="25.807,469.678 25.807,565.721 169.872,469.678 	"/>
	<polygon fill="#103B9B" points="468.678,153.839 645.433,153.839 468.678,271.675 	"/>
	<polygon fill="#103B9B" points="642.13,154.839 469.678,154.839 469.678,269.807 	"/>
	<polygon fill="#103B9B" points="626.825,331.323 775.193,232.411 775.193,331.323 	"/>
	<polygon fill="#103B9B" points="774.193,330.323 774.193,234.279 630.128,330.323 	"/>
	<polygon fill="#103B9B" points="154.567,646.161 331.322,528.323 331.322,646.161 	"/>
	<polygon fill="#103B9B" points="157.87,645.161 330.322,645.161 330.322,530.191 	"/>
	<polygon fill="#103B9B" points="626.825,468.678 775.193,468.678 775.193,567.589 	"/>
	<polygon fill="#103B9B" points="774.193,565.721 774.193,469.678 630.128,469.678 	"/>
	<polygon fill="#103B9B" points="468.678,646.161 468.678,528.323 645.433,646.161 	"/>
	<polygon fill="#103B9B" points="469.678,645.161 642.13,645.161 469.678,530.191 	"/>
	<polygon fill="#FFFFFF" points="642.13,154.839 469.678,269.807 469.678,154.839 450.322,154.839 450.322,349.677 774.193,349.677 
		774.193,330.323 630.128,330.323 774.193,234.279 774.193,166.045 527.778,330.323 481.254,330.323 469.678,330.323 
		469.678,313.244 469.678,282.228 660.743,154.839 	"/>
	<polygon fill="#FFFFFF" points="157.87,645.161 330.322,530.191 330.322,645.161 349.678,645.161 349.678,450.322 25.807,450.322 
		25.807,469.678 169.872,469.678 25.807,565.721 25.807,633.954 272.222,469.678 318.746,469.678 330.322,469.678 330.322,486.77 
		330.322,517.786 139.262,645.161 	"/>
	<polygon fill="#ED1F34" points="52.217,646.161 318.443,468.678 331.322,468.678 331.322,487.305 93.041,646.161 	"/>
	<polygon fill="#ED1F34" points="318.746,469.678 55.52,645.161 92.738,645.161 330.322,486.77 330.322,469.678 	"/>
	<polygon fill="#ED1F34" points="234.126,331.323 24.807,191.44 24.807,164.177 275.525,331.323 	"/>
	<polygon fill="#ED1F34" points="25.807,166.045 25.807,190.906 234.429,330.323 272.222,330.323 	"/>
	<polygon fill="#ED1F34" points="524.476,468.678 564.026,468.678 775.193,609.788 775.193,635.822 	"/>
	<polygon fill="#ED1F34" points="774.193,633.954 774.193,610.322 563.723,469.678 527.778,469.678 	"/>
	<polygon fill="#ED1F34" points="468.678,331.323 468.678,312.708 706.959,153.839 747.783,153.839 481.557,331.323 	"/>
	<polygon fill="#ED1F34" points="481.254,330.323 744.48,154.839 707.262,154.839 469.678,313.244 469.678,330.323 	"/>
	<path d="M800,657.979v-54.572c0-0.021,0-0.041,0-0.062V142.02c0-0.014,0-0.025,0-0.039v-0.045c0-0.076-0.011-0.15-0.012-0.226
		c-0.006-0.348-0.02-0.693-0.054-1.041c-0.014-0.148-0.041-0.291-0.061-0.436c-0.036-0.272-0.07-0.545-0.125-0.815
		c-0.038-0.189-0.09-0.374-0.136-0.561c-0.054-0.22-0.104-0.44-0.169-0.659c-0.069-0.227-0.153-0.446-0.232-0.666
		c-0.063-0.172-0.118-0.346-0.189-0.516c-0.111-0.27-0.239-0.53-0.368-0.79c-0.059-0.119-0.108-0.237-0.17-0.354
		c-0.178-0.33-0.37-0.65-0.573-0.963c-0.027-0.043-0.05-0.088-0.077-0.131c-0.002-0.003-0.005-0.007-0.009-0.01
		c-0.241-0.359-0.497-0.708-0.772-1.042c-0.125-0.153-0.265-0.289-0.396-0.435c-0.146-0.162-0.287-0.331-0.442-0.485
		c-0.217-0.217-0.447-0.417-0.678-0.616c-0.084-0.072-0.162-0.153-0.249-0.224c-0.221-0.181-0.451-0.344-0.682-0.509
		c-0.11-0.08-0.217-0.167-0.33-0.243c-0.2-0.134-0.408-0.251-0.614-0.374c-0.158-0.094-0.313-0.194-0.475-0.28
		c-0.164-0.088-0.334-0.162-0.503-0.243c-0.215-0.103-0.427-0.21-0.646-0.303c-0.126-0.052-0.255-0.093-0.382-0.14
		c-0.267-0.1-0.532-0.201-0.806-0.285c-0.1-0.031-0.201-0.05-0.303-0.078c-0.301-0.083-0.602-0.167-0.91-0.227
		c-0.138-0.027-0.276-0.04-0.414-0.063c-0.298-0.05-0.596-0.1-0.9-0.127c-0.398-0.038-0.8-0.06-1.202-0.06
		c-0.009-0.002-0.018-0.002-0.024-0.002h-83.654c-0.016,0-0.029,0-0.045,0H12.903c-0.007,0-0.014,0-0.021,0
		c-0.403,0.002-0.805,0.022-1.206,0.06c-0.351,0.033-0.695,0.088-1.038,0.148c-0.091,0.016-0.183,0.024-0.272,0.042
		c-0.337,0.067-0.666,0.155-0.993,0.248c-0.072,0.021-0.146,0.035-0.218,0.057c-0.296,0.089-0.583,0.198-0.871,0.308
		c-0.105,0.04-0.213,0.072-0.316,0.117c-0.241,0.1-0.473,0.215-0.706,0.33c-0.146,0.072-0.298,0.136-0.442,0.213
		c-0.184,0.098-0.359,0.21-0.538,0.318c-0.184,0.11-0.372,0.215-0.552,0.335c-0.136,0.091-0.262,0.193-0.394,0.288
		c-0.208,0.151-0.42,0.299-0.621,0.464c-0.108,0.088-0.207,0.188-0.312,0.279c-0.208,0.182-0.42,0.363-0.618,0.561
		c-0.189,0.188-0.361,0.391-0.539,0.59c-0.1,0.114-0.207,0.217-0.303,0.333c-0.275,0.334-0.532,0.682-0.772,1.041
		c-0.003,0.005-0.007,0.009-0.01,0.014c-0.033,0.05-0.059,0.104-0.091,0.153c-0.198,0.306-0.389,0.618-0.561,0.939
		c-0.065,0.12-0.117,0.246-0.177,0.368c-0.126,0.256-0.253,0.511-0.361,0.776c-0.072,0.174-0.129,0.351-0.193,0.526
		c-0.079,0.218-0.162,0.434-0.23,0.657c-0.067,0.22-0.115,0.44-0.17,0.663c-0.046,0.186-0.098,0.368-0.134,0.557
		c-0.053,0.272-0.089,0.545-0.125,0.819c-0.019,0.145-0.046,0.288-0.06,0.434c-0.035,0.348-0.046,0.695-0.053,1.041
		C0.01,141.786,0,141.86,0,141.936v0.045c0,0.014,0,0.025,0,0.039v55.811c0,0.016,0,0.029,0,0.044v460.104c0,0.014,0,0.025,0,0.04
		v0.044c0,0.076,0.01,0.15,0.012,0.226c0.005,0.348,0.019,0.693,0.053,1.041c0.014,0.146,0.041,0.289,0.06,0.436
		c0.036,0.273,0.071,0.545,0.125,0.817c0.038,0.188,0.09,0.373,0.136,0.561c0.053,0.22,0.103,0.44,0.168,0.659
		c0.069,0.225,0.151,0.441,0.232,0.662c0.063,0.174,0.119,0.35,0.191,0.521c0.11,0.268,0.239,0.526,0.366,0.784
		c0.059,0.119,0.108,0.239,0.172,0.357c0.177,0.331,0.37,0.65,0.573,0.964c0.027,0.043,0.05,0.088,0.078,0.131
		c0.001,0.003,0.005,0.007,0.007,0.01c0.278,0.417,0.585,0.811,0.908,1.191c0.1,0.118,0.207,0.227,0.31,0.342
		c0.224,0.246,0.458,0.481,0.699,0.709c0.134,0.126,0.268,0.249,0.406,0.368c0.256,0.22,0.523,0.427,0.797,0.628
		c0.115,0.084,0.224,0.176,0.34,0.255c0.389,0.265,0.792,0.507,1.209,0.73c0.1,0.054,0.203,0.097,0.305,0.146
		c0.335,0.167,0.676,0.322,1.027,0.461c0.133,0.052,0.265,0.099,0.397,0.146c0.332,0.119,0.669,0.222,1.012,0.313
		c0.136,0.036,0.272,0.073,0.41,0.104c0.354,0.081,0.714,0.145,1.079,0.196c0.125,0.018,0.25,0.043,0.375,0.057
		c0.459,0.052,0.926,0.083,1.399,0.084c0.022,0,0.044,0.004,0.068,0.004c0.005,0,0.012,0,0.018,0h83.623c0.017,0,0.036,0,0.053,0
		h690.458c0.005,0,0.013,0.002,0.018,0.002c0.022,0,0.045-0.004,0.067-0.004c0.473-0.002,0.938-0.032,1.398-0.084
		c0.124-0.014,0.246-0.04,0.369-0.057c0.367-0.052,0.73-0.115,1.086-0.198c0.135-0.031,0.269-0.067,0.402-0.104
		c0.348-0.093,0.688-0.197,1.022-0.316c0.131-0.046,0.26-0.091,0.389-0.143c0.356-0.14,0.702-0.298,1.041-0.466
		c0.097-0.049,0.196-0.09,0.292-0.142c0.42-0.224,0.824-0.468,1.215-0.732c0.113-0.078,0.221-0.167,0.33-0.248
		c0.277-0.201,0.548-0.411,0.806-0.635c0.138-0.119,0.271-0.241,0.402-0.365c0.244-0.229,0.477-0.466,0.704-0.712
		c0.103-0.113,0.208-0.222,0.308-0.339c0.323-0.38,0.63-0.775,0.908-1.19c0.002-0.004,0.005-0.007,0.007-0.011
		c0.029-0.043,0.05-0.087,0.078-0.13c0.203-0.313,0.396-0.632,0.572-0.964c0.063-0.117,0.112-0.237,0.171-0.354
		c0.129-0.26,0.256-0.52,0.368-0.79c0.07-0.17,0.125-0.344,0.188-0.516c0.081-0.221,0.164-0.44,0.232-0.666
		c0.065-0.219,0.115-0.438,0.169-0.657c0.047-0.188,0.098-0.371,0.136-0.563c0.054-0.27,0.09-0.544,0.124-0.815
		c0.019-0.146,0.047-0.289,0.062-0.437c0.035-0.346,0.047-0.693,0.054-1.039c0.002-0.076,0.012-0.15,0.012-0.226v-0.045
		C800,658.006,800,657.992,800,657.979z M469.678,313.244l237.584-158.405h37.219L481.254,330.323h46.524l246.415-164.277v68.234
		v96.043v19.354H450.322V154.839h19.355H642.13h18.613L469.678,282.228V313.244z M349.678,349.677H25.807v-19.354v-96.043v-12.335
		l162.176,108.378h46.446L25.807,190.906v-24.86l246.416,164.277h46.524L55.52,154.839h102.352h172.45h19.355V349.677z
		 M330.322,486.77L92.738,645.161H55.52l263.226-175.483h-46.524L25.807,633.954v-68.233v-96.043v-19.355h323.871v194.839h-19.355
		H157.87h-18.608l191.061-127.375V486.77z M450.322,450.322h233.549c7.128,0,12.903-5.777,12.903-12.903l0,0
		c0-7.126-5.775-12.902-12.903-12.902H437.419c-7.127,0-12.903,5.776-12.903,12.902v207.742h-49.031V437.419
		c0-7.126-5.776-12.902-12.903-12.902H25.807v-49.033h336.774c7.127,0,12.903-5.777,12.903-12.903V154.839h49.031v207.742
		c0,7.126,5.776,12.903,12.903,12.903h336.774v49.033h-38.709c-7.128,0-12.903,5.776-12.903,12.902l0,0
		c0,7.126,5.775,12.903,12.903,12.903h38.709v19.355v96.043v13.565L610.171,469.678h-46.448l210.471,140.645v23.631L527.778,469.678
		h-46.524L744.48,645.161H642.13H469.678h-19.355V450.322z"/>
	<polygon fill="#FFFFFF" points="330.322,269.807 157.87,154.839 55.52,154.839 318.746,330.323 272.222,330.323 234.429,330.323 
		187.983,330.323 25.807,221.944 25.807,234.279 169.872,330.323 25.807,330.323 25.807,349.677 349.678,349.677 349.678,154.839 
		330.322,154.839 	"/>
	<path fill="#FFFFFF" d="M469.678,530.191l172.452,114.97H744.48L481.254,469.678h46.524h35.946h46.448l164.021,109.608v-13.565
		l-144.065-96.043h144.065v-19.355h-38.709c-7.128,0-12.903-5.777-12.903-12.903h-25.807c0,7.126-5.775,12.903-12.903,12.903
		H450.322v194.839h19.355V530.191z"/>
	<path fill="#ED1F34" d="M374.484,646.161V437.419c0-6.563-5.34-11.902-11.903-11.902H24.807v-51.033h337.774
		c6.563,0,11.903-5.34,11.903-11.903V153.839h51.031v208.742c0,6.563,5.34,11.903,11.903,11.903h337.774v51.033h-39.709
		c-6.563,0-11.903,5.339-11.903,11.902v1h-27.807v-1c0-6.563-5.34-11.902-11.903-11.902H437.419
		c-6.563,0-11.903,5.339-11.903,11.902v208.742H374.484z"/>
	<path fill="#ED1F34" d="M722.581,437.419c0-7.126,5.775-12.902,12.903-12.902h38.709v-49.033H437.419
		c-7.127,0-12.903-5.777-12.903-12.903V154.839h-49.031v207.742c0,7.126-5.776,12.903-12.903,12.903H25.807v49.033h336.774
		c7.127,0,12.903,5.776,12.903,12.902v207.742h49.031V437.419c0-7.126,5.776-12.902,12.903-12.902h246.452
		c7.128,0,12.903,5.776,12.903,12.902l0,0H722.581L722.581,437.419z"/>
</g>
</svg>
