<?xml version="1.0" encoding="utf-8"?>
<!-- Generator: Adobe Illustrator 16.0.0, SVG Export Plug-In . SVG Version: 6.00 Build 0)  -->
<!DOCTYPE svg PUBLIC "-//W3C//DTD SVG 1.1//EN" "http://www.w3.org/Graphics/SVG/1.1/DTD/svg11.dtd">
<svg version="1.1" id="Capa_1" xmlns="http://www.w3.org/2000/svg" xmlns:xlink="http://www.w3.org/1999/xlink" x="0px" y="0px"
	 width="800px" height="800px" viewBox="0 0 800 800" enable-background="new 0 0 800 800" xml:space="preserve">
<g>
	<path fill="#FFFFFF" d="M516.129,245.161v-90.322H283.871v490.322h232.258V296.774c0-7.126,5.777-12.903,12.903-12.903v-25.807
		C521.906,258.064,516.129,252.287,516.129,245.161z"/>
	<rect x="24.807" y="153.839" fill="#259245" width="234.258" height="492.322"/>
	<rect x="25.807" y="154.839" fill="#259245" width="232.258" height="490.322"/>
	<path fill="#ED1F34" d="M540.936,646.161V296.774c0-6.563-5.34-11.903-11.903-11.903h-1v-27.807h1
		c6.563,0,11.903-5.34,11.903-11.903v-91.322h234.258v492.322H540.936z"/>
	<path fill="#ED1F34" d="M541.936,245.161c0,7.126-5.777,12.903-12.903,12.903v25.807c7.126,0,12.903,5.777,12.903,12.903v348.387
		h232.258V154.839H541.936V245.161z"/>
	<path d="M787.097,129.032H12.903C5.777,129.032,0,134.81,0,141.936v516.129c0,7.126,5.777,12.903,12.903,12.903h774.193
		c7.126,0,12.903-5.777,12.903-12.903V141.936C800,134.81,794.223,129.032,787.097,129.032z M774.193,645.161H541.936V296.774
		c0-7.126-5.777-12.903-12.903-12.903s-12.903,5.777-12.903,12.903v348.387H283.871V154.839h232.258v90.322
		c0,7.126,5.777,12.903,12.903,12.903s12.903-5.777,12.903-12.903v-90.322h232.258V645.161z M25.807,154.839h232.258v490.322H25.807
		V154.839z"/>
</g>
</svg>
