<?xml version="1.0" encoding="utf-8"?>
<!-- Generator: Adobe Illustrator 16.0.0, SVG Export Plug-In . SVG Version: 6.00 Build 0)  -->
<!DOCTYPE svg PUBLIC "-//W3C//DTD SVG 1.1//EN" "http://www.w3.org/Graphics/SVG/1.1/DTD/svg11.dtd">
<svg version="1.1" id="Capa_1" xmlns="http://www.w3.org/2000/svg" xmlns:xlink="http://www.w3.org/1999/xlink" x="0px" y="0px"
	 width="800px" height="800px" viewBox="0 0 800 800" enable-background="new 0 0 800 800" xml:space="preserve">
<g>
	<path fill="#FFFFFF" d="M167.742,473.118h606.451V326.882H25.807v146.236h90.322c7.128,0,12.903,5.777,12.903,12.903h25.807
		C154.839,478.896,160.614,473.118,167.742,473.118z"/>
	<path fill="#259245" d="M24.807,646.161V497.925h91.322c6.563,0,11.903-5.34,11.903-11.903v-1h27.807v1
		c0,6.563,5.34,11.903,11.903,11.903h607.451v148.236H24.807z"/>
	<path fill="#259245" d="M167.742,498.925c-7.128,0-12.903-5.777-12.903-12.903h-25.807c0,7.126-5.775,12.903-12.903,12.903H25.807
		v146.236h748.387V498.925H167.742z"/>
	<rect x="24.807" y="153.839" fill="#ED1F34" width="750.387" height="148.236"/>
	<rect x="25.807" y="154.839" fill="#ED1F34" width="748.387" height="146.236"/>
	<path d="M787.097,129.032H12.903C5.775,129.032,0,134.81,0,141.936v516.129c0,7.126,5.775,12.903,12.903,12.903h774.193
		c7.128,0,12.903-5.777,12.903-12.903V141.936C800,134.81,794.225,129.032,787.097,129.032z M774.193,154.839v146.236H25.807
		V154.839H774.193z M25.807,645.161V498.925h90.322c7.128,0,12.903-5.777,12.903-12.903s-5.775-12.903-12.903-12.903H25.807V326.882
		h748.387v146.236H167.742c-7.128,0-12.903,5.777-12.903,12.903s5.775,12.903,12.903,12.903h606.451v146.236H25.807z"/>
</g>
</svg>
