<?xml version="1.0" encoding="utf-8"?>
<!-- Generator: Adobe Illustrator 16.0.0, SVG Export Plug-In . SVG Version: 6.00 Build 0)  -->
<!DOCTYPE svg PUBLIC "-//W3C//DTD SVG 1.1//EN" "http://www.w3.org/Graphics/SVG/1.1/DTD/svg11.dtd">
<svg version="1.1" id="Capa_1" xmlns="http://www.w3.org/2000/svg" xmlns:xlink="http://www.w3.org/1999/xlink" x="0px" y="0px"
	 width="800px" height="800px" viewBox="0 0 800 800" enable-background="new 0 0 800 800" xml:space="preserve">
<g>
	<path fill="#FFE000" d="M644.161,530.032v-1c0-6.563-5.34-11.903-11.903-11.903H24.807V282.871h750.387v234.258h-91.322
		c-6.563,0-11.903,5.34-11.903,11.903v1H644.161z"/>
	<path fill="#FFE000" d="M683.871,516.129h90.322V283.871H25.807v232.258h606.451c7.126,0,12.903,5.777,12.903,12.903h25.807
		C670.968,521.906,676.745,516.129,683.871,516.129z"/>
	<rect x="24.807" y="153.839" fill="#ED1F34" width="750.387" height="105.226"/>
	<rect x="25.807" y="154.839" fill="#ED1F34" width="748.387" height="103.226"/>
	<path fill="#ED1F34" d="M24.807,646.161V540.936h607.451c6.563,0,11.903-5.34,11.903-11.903v-1h27.807v1
		c0,6.563,5.34,11.903,11.903,11.903h91.322v105.226H24.807z"/>
	<path fill="#ED1F34" d="M683.871,541.936c-7.126,0-12.903-5.777-12.903-12.903h-25.807c0,7.126-5.777,12.903-12.903,12.903H25.807
		v103.226h748.387V541.936H683.871z"/>
	<path d="M787.097,129.032H12.903C5.777,129.032,0,134.81,0,141.936v516.129c0,7.126,5.777,12.903,12.903,12.903h774.193
		c7.126,0,12.903-5.777,12.903-12.903V141.936C800,134.81,794.223,129.032,787.097,129.032z M774.193,154.839v103.226H25.807
		V154.839H774.193z M25.807,645.161V541.936h606.451c7.126,0,12.903-5.777,12.903-12.903s-5.777-12.903-12.903-12.903H25.807
		V283.871h748.387v232.258h-90.322c-7.126,0-12.903,5.777-12.903,12.903s5.777,12.903,12.903,12.903h90.322v103.226H25.807z"/>
</g>
</svg>
