<?xml version="1.0" encoding="utf-8"?>
<!-- Generator: Adobe Illustrator 16.0.0, SVG Export Plug-In . SVG Version: 6.00 Build 0)  -->
<!DOCTYPE svg PUBLIC "-//W3C//DTD SVG 1.1//EN" "http://www.w3.org/Graphics/SVG/1.1/DTD/svg11.dtd">
<svg version="1.1" id="Capa_1" xmlns="http://www.w3.org/2000/svg" xmlns:xlink="http://www.w3.org/1999/xlink" x="0px" y="0px"
	 width="800px" height="800px" viewBox="0 0 800 800" enable-background="new 0 0 800 800" xml:space="preserve">
<g>
	<path fill="#ED1F34" d="M24.807,646.161V153.839h659.064c6.563,0,11.903-5.34,11.903-11.903v-1h27.807v1
		c0,6.563,5.34,11.903,11.903,11.903h39.709v492.322H24.807z M270.968,215.193c-101.903,0-184.807,82.904-184.807,184.807
		c0,101.902,82.904,184.807,184.807,184.807c64.296,0,122.991-32.656,157.01-87.354c3.181-5.111,2.038-11.805-2.658-15.569
		c-2.105-1.689-4.751-2.619-7.447-2.619c-3.135,0-6.093,1.207-8.329,3.399c-21.767,21.315-50.512,33.055-80.94,33.055
		c-54.694,0-102.363-38.819-113.346-92.305c-1.13-5.501-6.027-9.493-11.644-9.493c-0.604,0-1.215,0.047-1.817,0.139l-1.04,0.16
		l-0.106-1.047c-0.441-4.343-0.666-8.773-0.666-13.17c0-4.396,0.224-8.827,0.666-13.169l0.106-1.047l1.04,0.16
		c0.6,0.092,1.208,0.138,1.811,0.138c5.62,0,10.52-3.994,11.65-9.495c10.983-53.485,58.652-92.305,113.346-92.305
		c30.43,0,59.175,11.739,80.94,33.055c2.238,2.192,5.197,3.399,8.332,3.399c2.696,0,5.341-0.93,7.444-2.618
		c4.695-3.767,5.838-10.461,2.658-15.571C393.962,247.849,335.267,215.193,270.968,215.193z M486.918,314.977
		c-1.249,0-2.486,0.196-3.68,0.584c-4.655,1.513-7.954,5.815-8.207,10.707l-2.383,46.105l-43.112,16.512
		c-4.572,1.75-7.645,6.218-7.645,11.116c0,4.897,3.072,9.365,7.645,11.116l43.112,16.511l2.383,46.105
		c0.251,4.891,3.55,9.193,8.207,10.706c1.193,0.389,2.431,0.585,3.678,0.585c3.61,0,6.984-1.611,9.258-4.421l29.027-35.898
		l44.585,11.981c1.008,0.271,2.046,0.408,3.087,0.408c3.799,0,7.399-1.834,9.632-4.907c2.878-3.962,3.018-9.383,0.348-13.487
		L557.678,400l25.175-38.699c2.669-4.105,2.529-9.526-0.348-13.487c-2.232-3.074-5.833-4.909-9.63-4.909
		c-1.041,0-2.08,0.138-3.089,0.409l-44.585,11.981l-29.027-35.898C493.903,316.588,490.53,314.977,486.918,314.977z"/>
	<path fill="#ED1F34" d="M683.871,154.839H25.807v490.322h748.387V154.839h-38.709c-7.127,0-12.903-5.777-12.903-12.903h-25.807
		C696.774,149.062,690.997,154.839,683.871,154.839z M428.827,497.98c-34.202,54.993-93.214,87.826-157.859,87.826
		c-102.453,0-185.807-83.354-185.807-185.807s83.354-185.807,185.807-185.807c64.646,0,123.659,32.831,157.859,87.826
		c3.45,5.545,2.211,12.793-2.882,16.879c-5.092,4.086-12.437,3.723-17.103-0.847c-21.577-21.132-50.074-32.769-80.24-32.769
		c-54.222,0-101.479,38.484-112.367,91.506c-1.39,6.765-7.847,11.178-14.591,10.144c-0.437,4.296-0.661,8.655-0.661,13.068
		c0,4.412,0.224,8.772,0.661,13.068c6.754-1.036,13.201,3.377,14.591,10.142c10.888,53.022,58.145,91.506,112.367,91.506
		c30.166,0,58.663-11.639,80.24-32.769c4.664-4.571,12.007-4.933,17.103-0.847C431.04,485.188,432.277,492.436,428.827,497.98z
		 M583.69,438.154c2.914,4.479,2.765,10.295-0.377,14.62s-8.63,6.264-13.787,4.877l-43.957-11.813l-28.618,35.393
		c-2.494,3.083-6.207,4.792-10.035,4.792c-1.33,0-2.675-0.207-3.986-0.634c-5.084-1.651-8.623-6.268-8.897-11.605l-2.349-45.456
		l-42.505-16.278c-4.991-1.911-8.287-6.704-8.287-12.05c0-5.345,3.296-10.139,8.287-12.05l42.505-16.279l2.349-45.456
		c0.276-5.338,3.815-9.955,8.897-11.606c5.088-1.653,10.662,0.001,14.021,4.158l28.618,35.393l43.957-11.813
		c5.161-1.388,10.646,0.552,13.787,4.877s3.291,10.139,0.377,14.621L558.871,400L583.69,438.154z"/>
	<path d="M787.097,129.032h-51.612c-7.127,0-12.903,5.777-12.903,12.903s5.776,12.903,12.903,12.903h38.709v490.322H25.807V154.839
		h658.064c7.126,0,12.903-5.777,12.903-12.903s-5.777-12.903-12.903-12.903H12.903C5.777,129.032,0,134.81,0,141.936v516.129
		c0,7.126,5.777,12.903,12.903,12.903h774.193c7.126,0,12.903-5.777,12.903-12.903V141.936
		C800,134.81,794.223,129.032,787.097,129.032z"/>
	<path fill="#FFFFFF" d="M190.956,371.598c13.342-64.967,71.231-112.121,137.647-112.121c7.506,0,14.928,0.588,22.212,1.743
		C326.985,247.491,299.616,240,270.968,240c-88.224,0-160,71.776-160,160s71.776,160,160,160c28.648,0,56.016-7.491,79.847-21.22
		c-7.284,1.154-14.704,1.743-22.212,1.743c-66.416,0-124.305-47.154-137.647-112.121c-1.433-6.981,3.063-13.801,10.044-15.234
		c0.215-0.043,0.43-0.064,0.645-0.098c-0.437-4.298-0.661-8.657-0.661-13.068s0.224-8.772,0.661-13.068
		c-0.215-0.035-0.43-0.055-0.645-0.1C194.018,385.399,189.522,378.579,190.956,371.598z"/>
	<path fill="#FFFFFF" d="M510.778,376.915l-12.714-15.723l-1.043,20.192c-0.263,5.096-3.504,9.559-8.27,11.384l-18.882,7.233
		l18.882,7.232c4.766,1.825,8.007,6.288,8.27,11.385l1.043,20.192l12.714-15.724c3.209-3.967,8.458-5.67,13.382-4.348l19.528,5.248
		l-11.026-16.95c-2.781-4.276-2.781-9.792,0-14.071l11.026-16.95l-19.528,5.248C519.238,382.581,513.987,380.883,510.778,376.915z"
		/>
	<path d="M583.312,347.226c-3.143-4.325-8.628-6.266-13.787-4.877l-43.957,11.812l-28.618-35.393
		c-3.359-4.157-8.934-5.812-14.021-4.158c-5.083,1.652-8.622,6.268-8.897,11.606l-2.349,45.456l-42.505,16.279
		c-4.991,1.911-8.287,6.705-8.287,12.05c0,5.346,3.296,10.139,8.287,12.05l42.505,16.278l2.349,45.456
		c0.276,5.338,3.815,9.954,8.897,11.605c1.312,0.427,2.655,0.634,3.986,0.634c3.828,0,7.541-1.707,10.035-4.792l28.618-35.393
		l43.957,11.813c5.157,1.387,10.646-0.552,13.787-4.877s3.291-10.139,0.377-14.62L558.871,400l24.817-38.154
		C586.604,357.364,586.453,351.551,583.312,347.226z M532.662,392.965c-2.781,4.277-2.781,9.792,0,14.072l11.026,16.949
		l-19.528-5.248c-4.926-1.322-10.173,0.381-13.382,4.349l-12.714,15.723l-1.043-20.192c-0.263-5.096-3.504-9.559-8.27-11.385
		L469.87,400l18.882-7.233c4.766-1.825,8.007-6.288,8.27-11.384l1.043-20.193l12.714,15.723c3.209,3.967,8.46,5.667,13.382,4.348
		l19.528-5.248L532.662,392.965z"/>
	<path d="M425.945,481.102c-5.094-4.087-12.437-3.726-17.103,0.846c-21.577,21.132-50.074,32.77-80.24,32.77
		c-54.222,0-101.479-38.484-112.367-91.507c-1.389-6.765-7.837-11.177-14.591-10.142c-0.215,0.033-0.43,0.055-0.645,0.098
		c-6.981,1.434-11.477,8.255-10.044,15.235c13.342,64.967,71.231,112.12,137.647,112.12c7.506,0,14.928-0.589,22.212-1.743
		c-23.831,13.728-51.198,21.22-79.847,21.22c-88.224,0-160-71.776-160-160c0-88.224,71.776-160,160-160
		c28.648,0,56.018,7.491,79.847,21.22c-7.284-1.155-14.706-1.743-22.212-1.743c-66.416,0-124.305,47.153-137.647,112.12
		c-1.433,6.981,3.063,13.801,10.044,15.234c0.215,0.045,0.43,0.065,0.645,0.1c6.744,1.034,13.201-3.377,14.591-10.144
		c10.888-53.022,58.145-91.506,112.367-91.506c30.166,0,58.663,11.637,80.24,32.769c4.666,4.568,12.009,4.931,17.103,0.847
		c5.093-4.086,6.332-11.334,2.882-16.879c-34.2-54.992-93.214-87.823-157.859-87.823c-102.453,0-185.807,83.354-185.807,185.807
		s83.354,185.807,185.807,185.807c64.646,0,123.657-32.833,157.859-87.826C432.277,492.436,431.04,485.188,425.945,481.102z"/>
</g>
</svg>
