<?xml version="1.0" encoding="iso-8859-1"?>
<!-- Generator: Adobe Illustrator 19.0.0, SVG Export Plug-In . SVG Version: 6.00 Build 0)  -->
<svg version="1.1" id="Layer_1" xmlns="http://www.w3.org/2000/svg" xmlns:xlink="http://www.w3.org/1999/xlink" x="0px" y="0px"
	 viewBox="0 0 799.999 799.999" style="enable-background:new 0 0 799.999 799.999;" xml:space="preserve">
<g>
	<path style="fill:#259245;" d="M24.807,646.16V153.838h39.709c6.563,0,11.903-5.34,11.903-11.903v-1h27.806v1
		c0,6.563,5.34,11.903,11.903,11.903h659.064V646.16H24.807z M400,203.178c-2.097,0-4.165,0.558-5.979,1.612L75.74,389.707
		c-3.653,2.123-5.923,6.066-5.923,10.292c0,4.225,2.269,8.169,5.92,10.293l318.279,184.915c1.813,1.054,3.881,1.61,5.98,1.61
		c2.1,0,4.168-0.557,5.981-1.61l223.375-129.779c5.675-3.297,7.61-10.597,4.314-16.273l-0.503-0.864l24.043-13.968l0.502,0.865
		c2.124,3.654,6.072,5.925,10.306,5.925c2.088,0,4.151-0.558,5.968-1.612l50.275-29.21c3.653-2.123,5.923-6.066,5.923-10.293
		c0-4.225-2.27-8.169-5.923-10.292L405.979,204.79C404.164,203.735,402.097,203.178,400,203.178z"/>
	<path style="fill:#259245;" d="M64.516,154.838H25.807V645.16h748.387V154.838H116.129c-7.127,0-12.903-5.775-12.903-12.903H77.419
		C77.419,149.062,71.644,154.838,64.516,154.838z M393.518,203.925c4.009-2.329,8.955-2.329,12.963,0l318.28,184.916
		c3.976,2.311,6.42,6.56,6.42,11.157c0,4.598-2.446,8.849-6.42,11.157l-50.276,29.211c-6.163,3.577-14.06,1.486-17.64-4.676l0,0
		l-22.313,12.963l0,0c3.578,6.161,1.486,14.06-4.677,17.64L406.479,596.071c-2.005,1.165-4.243,1.746-6.483,1.746
		c-2.239,0-4.478-0.581-6.482-1.746L75.234,411.156c-3.971-2.31-6.417-6.56-6.417-11.157c0-4.597,2.446-8.848,6.42-11.157
		L393.518,203.925z"/>
	<path d="M787.097,129.031H116.129c-7.127,0-12.903,5.775-12.903,12.903s5.776,12.903,12.903,12.903h658.064v490.322H25.807V154.838
		h38.709c7.128,0,12.903-5.775,12.903-12.903s-5.775-12.903-12.903-12.903H12.903C5.775,129.031,0,134.807,0,141.935v516.129
		c0,7.128,5.775,12.903,12.903,12.903h774.193c7.128,0,12.903-5.775,12.903-12.903V141.935
		C800,134.807,794.225,129.031,787.097,129.031z"/>
	<path style="fill:#FFE000;" d="M105.416,399.999L400,228.848l294.584,171.151l-32.56,18.917
		c-5.675,3.298-7.609,10.598-4.313,16.274l0.503,0.864l-24.044,13.969l-0.502-0.864c-2.125-3.656-6.074-5.927-10.307-5.927
		c-2.087,0-4.15,0.558-5.966,1.612L400,571.149L105.416,399.999z M400,283.091c-64.463,0-116.908,52.445-116.908,116.908
		c0,64.464,52.445,116.908,116.908,116.908c43.372,0,82.977-23.896,103.358-62.362l0.032-0.061l0.04-0.056
		c0.7-0.971,1.251-2.044,1.636-3.19l0.021-0.062l0.028-0.059c7.824-16.026,11.792-33.226,11.792-51.119
		C516.908,335.536,464.464,283.091,400,283.091z"/>
	<path style="fill:#FFE000;" d="M661.522,418.052l31.072-18.053L400,230.005L107.406,399.999L400,569.993L616.893,443.98
		c6.159-3.579,14.057-1.488,17.64,4.676l22.314-12.964C653.268,429.53,655.36,421.632,661.522,418.052z M400,517.907
		c-65.015,0-117.908-52.894-117.908-117.908c0-65.015,52.894-117.908,117.908-117.908s117.908,52.893,117.908,117.908
		c0,18.479-4.284,35.973-11.894,51.558c-0.413,1.229-1.008,2.396-1.772,3.457C484.442,492.381,445.154,517.907,400,517.907z"/>
	<path d="M68.817,399.999c0,4.598,2.446,8.848,6.42,11.157l318.28,184.915c2.004,1.165,4.242,1.746,6.482,1.746
		s4.479-0.581,6.482-1.746l223.376-129.779c6.162-3.58,8.254-11.479,4.676-17.64l0,0c-3.584-6.164-11.48-8.254-17.64-4.676
		L400,569.993L107.406,399.999L400,230.005l292.594,169.994l-31.073,18.053c-6.162,3.58-8.254,11.479-4.676,17.64l0,0
		c3.58,6.162,11.477,8.253,17.64,4.676l50.276-29.211c3.976-2.311,6.42-6.56,6.42-11.157c0-4.597-2.446-8.848-6.42-11.157
		L406.48,203.927c-4.008-2.33-8.954-2.33-12.963,0L75.238,388.842C71.264,391.151,68.817,395.402,68.817,399.999z"/>
	<path style="fill:#103B9B;" d="M489.698,417.545c-18.517-25.743-43.808-45.713-73.141-57.752
		c-20.494-8.411-42.106-12.675-64.237-12.675c-9.521,0-19.112,0.813-28.507,2.417l-2.308,0.394l1.311-1.939
		c17.394-25.729,46.248-41.09,77.185-41.09c51.336,0,93.102,41.765,93.102,93.102c0,5.664-0.542,11.433-1.61,17.146l-0.431,2.298
		L489.698,417.545z"/>
	<path style="fill:#103B9B;" d="M416.938,358.867c29.705,12.192,55.083,32.389,73.572,58.094c1.029-5.502,1.594-11.166,1.594-16.962
		c0-50.785-41.318-92.102-92.102-92.102c-31.744,0-59.789,16.143-76.356,40.65C354.898,343.214,387.193,346.661,416.938,358.867z"/>
	<path style="fill:#103B9B;" d="M400,493.101c-51.336,0-93.102-41.766-93.102-93.102c0-7.444,0.906-14.908,2.692-22.186l0.136-0.554
		l0.546-0.165c13.628-4.111,27.748-6.195,41.966-6.195c19.027,0,37.625,3.673,55.278,10.917
		c30.793,12.64,56.525,35.662,72.455,64.825l0.273,0.502l-0.293,0.491C463.181,475.679,432.545,493.101,400,493.101z"/>
	<path style="fill:#103B9B;" d="M407.138,382.741c-30.816-12.646-64.859-14.257-96.576-4.69c-1.728,7.039-2.663,14.383-2.663,21.948
		c0,50.785,41.318,92.102,92.102,92.102c33.574,0,62.999-18.066,79.095-44.98C463.238,418.091,437.908,395.371,407.138,382.741z"/>
	<path style="fill:#FFFFFF;" d="M504.242,455.014c0.766-1.061,1.361-2.227,1.772-3.457
		C505.447,452.722,504.848,453.869,504.242,455.014z"/>
	<path style="fill:#FFFFFF;" d="M407.138,382.741c30.771,12.63,56.099,35.35,71.956,64.38c5.473-9.15,9.388-19.325,11.415-30.16
		c-18.49-25.705-43.866-45.901-73.573-58.094c-29.744-12.207-62.038-15.653-93.293-10.319c-5.991,8.86-10.461,18.823-13.083,29.503
		C342.278,368.484,376.321,370.095,407.138,382.741z"/>
	<path d="M517.908,399.999c0-65.015-52.894-117.908-117.908-117.908s-117.908,52.893-117.908,117.908S334.986,517.907,400,517.907
		c45.154,0,84.442-25.526,104.242-62.896c0.605-1.145,1.205-2.292,1.772-3.457C513.624,435.972,517.908,418.478,517.908,399.999z
		 M400,492.101c-50.785,0-92.102-41.318-92.102-92.102c0-7.563,0.936-14.909,2.663-21.948c2.622-10.68,7.092-20.643,13.082-29.503
		c16.568-24.507,44.613-40.65,76.356-40.65c50.785,0,92.102,41.318,92.102,92.102c0,5.796-0.563,11.46-1.593,16.962
		c-2.027,10.835-5.942,21.01-11.415,30.16C462.999,474.034,433.574,492.101,400,492.101z"/>
</g>
<g>
</g>
<g>
</g>
<g>
</g>
<g>
</g>
<g>
</g>
<g>
</g>
<g>
</g>
<g>
</g>
<g>
</g>
<g>
</g>
<g>
</g>
<g>
</g>
<g>
</g>
<g>
</g>
<g>
</g>
</svg>
