<svg id="Capa_1" enable-background="new 0 0 512 512" height="512" viewBox="0 0 512 512" width="512" xmlns="http://www.w3.org/2000/svg"><g><g><path d="m488.468 95.677h-464.936c-8.854 0-16.032 7.178-16.032 16.032v288.581c0 8.854 7.178 16.032 16.032 16.032h464.935c8.854 0 16.032-7.178 16.032-16.032v-288.58c.001-8.855-7.177-16.033-16.031-16.033z" fill="#e5646e"/><path d="m147.874 188.771-25.81-.227-12.673-27.733c-1.197-3.591-6.276-3.591-7.474 0l-9.249 27.733-29.234.227c-3.784.029-5.354 4.859-2.309 7.108l23.518 17.366-8.818 27.873c-1.142 3.609 2.967 6.594 6.046 4.393l23.784-17 23.784 17c3.079 2.201 7.188-.784 6.046-4.393l-8.818-27.873 23.518-17.366c3.044-2.249 1.474-7.079-2.311-7.108z" fill="#ffe07d"/><path d="m31.548 352.194v-256.517h-8.016c-8.854 0-16.032 7.178-16.032 16.032v288.581c0 8.854 7.179 16.032 16.032 16.032h464.935c8.854 0 16.032-7.178 16.032-16.032v-8.016h-432.87c-22.1 0-40.081-17.98-40.081-40.08z" fill="#db4655"/></g><g><path d="m99.783 190.917 7.627-22.871c1.384.38 2.89.368 4.353-.12 3.929-1.31 6.053-5.558 4.742-9.487-1.56-4.677-5.92-7.82-10.851-7.82-4.931 0-9.292 3.142-10.852 7.82l-7.553 22.647-23.873.186c-4.931.038-9.267 3.215-10.791 7.904s.117 9.808 4.084 12.736l19.205 14.183-7.202 22.762c-1.487 4.701.194 9.807 4.183 12.705s9.364 2.919 13.375.052l19.422-13.883 19.423 13.883c1.993 1.425 4.323 2.136 6.652 2.136 2.358 0 4.717-.729 6.724-2.188 3.989-2.898 5.669-8.004 4.182-12.705l-7.201-22.762 19.205-14.183c3.967-2.929 5.608-8.048 4.084-12.737s-5.86-7.865-10.783-7.903l-25.811-.227c-4.137-.053-7.529 3.292-7.565 7.434-.037 4.142 3.292 7.529 7.434 7.565l15.156.133-14.943 11.035c-2.579 1.905-3.662 5.238-2.695 8.295l5.598 17.693-15.098-10.791c-2.609-1.865-6.114-1.865-8.723 0l-15.098 10.791 5.598-17.693c.967-3.057-.116-6.391-2.696-8.295l-14.929-11.024 18.558-.145c3.209-.023 6.045-2.084 7.059-5.126z"/><path d="m202.571 160.497c-4.142 0-7.5 3.358-7.5 7.5v3.712l-3.53-1.147c-3.943-1.281-8.17.876-9.451 4.815-.25.769-.369 1.55-.369 2.317-.001 3.162 2.014 6.103 5.184 7.133l3.531 1.147-2.183 3.004c-.967 1.332-1.433 2.875-1.433 4.404.001 2.318 1.073 4.604 3.092 6.071 1.331.967 2.874 1.433 4.402 1.433 2.319 0 4.606-1.072 6.074-3.092l2.182-3.004 2.183 3.004c2.435 3.352 7.125 4.094 10.476 1.659 2.02-1.467 3.092-3.753 3.092-6.071 0-1.529-.465-3.073-1.433-4.405l-2.182-3.003 3.531-1.147c3.17-1.03 5.186-3.971 5.185-7.133 0-.768-.119-1.548-.369-2.317-1.28-3.939-5.514-6.097-9.45-4.815l-3.531 1.147v-3.713c-.001-4.141-3.359-7.499-7.501-7.499z"/><path d="m223.421 230.239c0-.768-.119-1.548-.369-2.317-1.28-3.939-5.514-6.096-9.45-4.815l-3.531 1.147v-3.713c0-4.142-3.358-7.5-7.5-7.5s-7.5 3.358-7.5 7.5v3.712l-3.53-1.147c-3.943-1.28-8.17.876-9.451 4.815-.25.769-.369 1.55-.369 2.317-.001 3.162 2.014 6.103 5.184 7.133l3.531 1.147-2.182 3.003c-.967 1.332-1.433 2.876-1.433 4.405.001 2.318 1.073 4.604 3.092 6.071 3.351 2.435 8.041 1.691 10.476-1.66l2.182-3.003 2.183 3.004c1.467 2.02 3.754 3.092 6.074 3.092 1.528 0 3.071-.466 4.402-1.433 2.019-1.467 3.091-3.753 3.092-6.072 0-1.529-.465-3.073-1.433-4.405l-2.182-3.003 3.531-1.147c3.169-1.028 5.184-3.969 5.183-7.131z"/><path d="m185.989 269.383c0-.768-.119-1.548-.369-2.318-1.28-3.939-5.515-6.094-9.45-4.815l-3.531 1.147v-3.712c0-4.143-3.358-7.5-7.5-7.5s-7.5 3.357-7.5 7.5v3.712l-3.53-1.146c-3.941-1.281-8.17.876-9.451 4.815-.25.769-.369 1.55-.369 2.317-.001 3.162 2.014 6.103 5.184 7.133l3.531 1.147-2.182 3.003c-.967 1.332-1.433 2.875-1.433 4.405.001 2.318 1.073 4.604 3.092 6.071 3.351 2.435 8.041 1.691 10.476-1.66l2.182-3.003 2.183 3.003c1.467 2.02 3.754 3.092 6.074 3.092 1.528 0 3.071-.466 4.402-1.433 2.019-1.467 3.091-3.753 3.092-6.072 0-1.529-.465-3.072-1.433-4.404l-2.182-3.003 3.531-1.147c3.169-1.03 5.184-3.97 5.183-7.132z"/><path d="m165.139 125.233c-4.142 0-7.5 3.358-7.5 7.5v3.712l-3.53-1.147c-3.941-1.28-8.17.876-9.451 4.815-.25.77-.369 1.55-.369 2.317-.001 3.162 2.014 6.104 5.184 7.133l3.531 1.147-2.182 3.004c-.967 1.332-1.433 2.875-1.433 4.404.001 2.318 1.073 4.604 3.092 6.071 3.351 2.435 8.041 1.691 10.476-1.659l2.182-3.003 2.183 3.003c1.467 2.021 3.754 3.093 6.074 3.092 1.528 0 3.071-.466 4.402-1.433 2.019-1.467 3.091-3.753 3.092-6.071 0-1.529-.465-3.073-1.433-4.404l-2.182-3.004 3.531-1.146c3.17-1.03 5.186-3.971 5.185-7.133 0-.768-.119-1.548-.369-2.318-1.28-3.939-5.515-6.094-9.45-4.815l-3.531 1.147v-3.712c-.002-4.142-3.36-7.5-7.502-7.5z"/><path d="m488.468 88.178h-400.809c-4.142 0-7.5 3.357-7.5 7.5 0 4.142 3.358 7.5 7.5 7.5h400.809c4.705 0 8.532 3.827 8.532 8.532v288.58c0 4.705-3.828 8.532-8.532 8.532h-464.936c-4.705 0-8.532-3.827-8.532-8.532v-288.58c0-4.705 3.828-8.532 8.532-8.532h32.066c4.142 0 7.5-3.358 7.5-7.5 0-4.143-3.358-7.5-7.5-7.5h-32.066c-12.975 0-23.532 10.556-23.532 23.532v288.58c0 12.976 10.557 23.532 23.532 23.532h464.936c12.976 0 23.532-10.556 23.532-23.532v-288.58c0-12.976-10.557-23.532-23.532-23.532z"/></g></g></svg>