<?xml version="1.0" encoding="iso-8859-1"?>
<!-- Generator: Adobe Illustrator 19.0.0, SVG Export Plug-In . SVG Version: 6.00 Build 0)  -->
<svg xmlns="http://www.w3.org/2000/svg" xmlns:xlink="http://www.w3.org/1999/xlink" version="1.1" id="Capa_1" x="0px" y="0px" viewBox="0 0 505 505" style="enable-background:new 0 0 505 505;" xml:space="preserve" width="512" height="512">
<g>
	<rect x="54.063" y="7.5" style="fill:#B1DCEE;" width="75.384" height="490"/>
	<rect x="375.554" y="7.5" style="fill:#B1DCEE;" width="75.384" height="490"/>
	<rect x="54.063" y="89.162" style="fill:#5A9DEE;" width="75.384" height="81.676"/>
	<rect x="54.063" y="252.493" style="fill:#5A9DEE;" width="75.384" height="81.676"/>
	<rect x="54.063" y="415.824" style="fill:#5A9DEE;" width="75.384" height="81.676"/>
	<rect x="375.554" y="89.162" style="fill:#5A9DEE;" width="75.384" height="81.676"/>
	<rect x="375.554" y="252.493" style="fill:#5A9DEE;" width="75.384" height="81.676"/>
	<rect x="375.554" y="415.824" style="fill:#5A9DEE;" width="75.384" height="81.676"/>
	<g>
		<polyline style="fill:#5A9DEE;" points="184.503,497.5 129.446,497.5 129.446,7.5 375.554,7.5 375.554,497.5 204.505,497.5   "/>
		<path style="fill:#214245;" d="M383.054,0h-15H136.946h-15H46.563v81.662v96.676v66.655v96.676v66.655V505h75.384h15h47.557v-15    h-47.557v-81.676v-66.655v-96.676v-66.655V81.662V15h231.107v66.662v96.676v66.655v96.676v66.655V490H204.505v15h163.549h15    h75.384v-96.676v-66.655v-96.676v-66.655V81.662V0H383.054z M61.563,96.662h60.384v66.676H61.563V96.662z M61.563,259.993h60.384    v66.676H61.563V259.993z M121.946,490H61.563v-66.676h60.384V490z M121.946,408.324H61.563v-66.655h60.384V408.324z     M121.946,244.993H61.563v-66.655h60.384V244.993z M61.563,81.662V15h60.384v66.662H61.563z M383.054,96.662h60.384v66.676    h-60.384V96.662z M383.054,259.993h60.384v66.676h-60.384V259.993z M443.438,490h-60.384v-66.676h60.384V490z M443.438,408.324    h-60.384v-66.655h60.384V408.324z M443.438,244.993h-60.384v-66.655h60.384V244.993z M383.054,81.662V15h60.384v66.662H383.054z"/>
	</g>
</g>















</svg>
