<?xml version="1.0" encoding="iso-8859-1"?>
<!-- Generator: Adobe Illustrator 19.0.0, SVG Export Plug-In . SVG Version: 6.00 Build 0)  -->
<svg version="1.1" id="Layer_1" xmlns="http://www.w3.org/2000/svg" xmlns:xlink="http://www.w3.org/1999/xlink" x="0px" y="0px"
	 viewBox="0 0 512 512" style="enable-background:new 0 0 512 512;" xml:space="preserve">
<path style="fill:#394049;" d="M498.845,465.786H187.921c-7.266,0-13.156-5.89-13.156-13.155V234.135
	c0-7.265,5.89-13.155,13.156-13.155h310.924c7.265,0,13.155,5.89,13.155,13.155v218.496C512,459.896,506.11,465.786,498.845,465.786
	z"/>
<rect x="211.606" y="257.828" style="fill:#FFFFFF;" width="263.548" height="171.116"/>
<path style="opacity:0.2;enable-background:new    ;" d="M202.729,450.978c-7.266,0-13.155-5.89-13.155-13.155v-37.625h212.607
	c7.266,0,13.156-5.89,13.156-13.156V220.98H187.922c-7.266,0-13.155,5.89-13.155,13.155v218.496c0,7.266,5.89,13.155,13.155,13.155
	h310.923c7.266,0,13.155-5.89,13.155-13.155v-1.652H202.729V450.978z"/>
<path style="fill:#4A5058;" d="M411.462,378.403H100.538c-7.266,0-13.155-5.89-13.155-13.155V146.752
	c0-7.266,5.89-13.156,13.155-13.156h310.923c7.266,0,13.155,5.89,13.155,13.156v218.496
	C424.617,372.513,418.727,378.403,411.462,378.403z"/>
<rect x="124.23" y="170.44" style="fill:#8CCFDE;" width="263.548" height="171.116"/>
<path style="opacity:0.2;enable-background:new    ;" d="M115.346,363.595c-7.266,0-13.155-5.89-13.155-13.155v-37.625h212.607
	c7.266,0,13.156-5.89,13.156-13.156V133.597H100.538c-7.266,0-13.155,5.89-13.155,13.155v218.496c0,7.266,5.89,13.155,13.155,13.155
	h310.923c7.266,0,13.155-5.89,13.155-13.155v-1.652h-309.27V363.595z"/>
<path style="fill:#394049;" d="M324.079,291.02H13.155C5.89,291.02,0,285.13,0,277.865V59.369c0-7.266,5.89-13.155,13.155-13.155
	h310.923c7.266,0,13.156,5.89,13.156,13.155v218.496C337.234,285.13,331.344,291.02,324.079,291.02z"/>
<path style="opacity:0.2;enable-background:new    ;" d="M27.963,276.212c-7.266,0-13.155-5.89-13.155-13.155V46.214h-1.652
	C5.89,46.214,0,52.104,0,59.369v218.496c0,7.266,5.89,13.155,13.155,13.155h310.923c7.266,0,13.156-5.89,13.156-13.155v-1.652
	H27.963V276.212z"/>
<rect x="36.843" y="83.053" style="fill:#F5DF5D;" width="263.548" height="171.116"/>
<g>
	<path style="opacity:0.2;fill:#25292F;enable-background:new    ;" d="M262.612,105.528l-50.101,75.507l-29.214-44.028
		c-2.251-3.393-7.232-3.393-9.483,0L96.071,254.176H300.39V148.171c-11.089-16.712-22.206-33.467-28.296-42.646
		C269.842,102.132,264.864,102.136,262.612,105.528z"/>
	<path style="opacity:0.2;fill:#25292F;enable-background:new    ;" d="M262.612,105.528l-26.866,40.49
		c9.054,6.02,19.92,9.53,31.608,9.53c11.688,0,22.553-3.511,31.608-9.53l-26.866-40.49
		C269.845,102.136,264.864,102.136,262.612,105.528z"/>
	<path style="opacity:0.2;fill:#25292F;enable-background:new    ;" d="M173.815,137.008l-15.604,23.517
		c5.828,3.875,12.822,6.138,20.345,6.138c7.524,0,14.517-2.262,20.345-6.138l-15.604-23.517
		C181.047,133.615,176.066,133.615,173.815,137.008z"/>
	<circle style="opacity:0.2;fill:#25292F;enable-background:new    ;" cx="114.479" cy="127.169" r="17.819"/>
</g>
<g>
</g>
<g>
</g>
<g>
</g>
<g>
</g>
<g>
</g>
<g>
</g>
<g>
</g>
<g>
</g>
<g>
</g>
<g>
</g>
<g>
</g>
<g>
</g>
<g>
</g>
<g>
</g>
<g>
</g>
</svg>
