<?xml version="1.0" encoding="UTF-8" standalone="no"?>
<svg
   xmlns:dc="http://purl.org/dc/elements/1.1/"
   xmlns:cc="http://creativecommons.org/ns#"
   xmlns:rdf="http://www.w3.org/1999/02/22-rdf-syntax-ns#"
   xmlns:svg="http://www.w3.org/2000/svg"
   xmlns="http://www.w3.org/2000/svg"
   xml:space="preserve"
   style="enable-background:new 0 0 512 512;"
   viewBox="0 0 512 512"
   y="0px"
   x="0px"
   id="Layer_1"
   version="1.1"><metadata
   id="metadata55"><rdf:RDF><cc:Work
       rdf:about=""><dc:format>image/svg+xml</dc:format><dc:type
         rdf:resource="http://purl.org/dc/dcmitype/StillImage" /><dc:title></dc:title></cc:Work></rdf:RDF></metadata><defs
   id="defs53" />
<g
   style="fill:#00ff00"
   id="g10">
	<path
   id="path2"
   d="M185.947,290.969L62.287,414.781v-60.686c0-13.76-11.154-24.915-24.915-24.915   s-24.915,11.154-24.915,24.915v120.837c0,13.76,10.85,24.611,24.611,24.611h120.837c13.76,0,24.915-11.154,24.915-24.915   c0-13.76-11.154-24.915-24.915-24.915H97.219l123.812-123.66c9.73-9.73,9.806-25.429,0.076-35.159   C211.376,281.165,195.676,281.24,185.947,290.969z"
   style="fill:#00ff00" />
	<path
   id="path4"
   d="M291.702,326.072l123.812,123.641h-60.686c-13.76,0-24.915,11.154-24.915,24.915   c0,13.76,11.154,24.915,24.915,24.915h120.837c13.76,0,23.88-10.813,23.88-24.574V354.132c0-13.76-11.154-24.915-24.915-24.915   c-13.76,0-24.915,11.154-24.915,24.915v60.686L326.419,291.007c-9.73-9.73-25.246-9.815-34.975-0.086   C281.715,300.65,281.971,316.342,291.702,326.072z"
   style="fill:#00ff00" />
	<path
   id="path6"
   d="M221.02,185.618L97.209,62.287h60.686c13.76,0,24.915-11.154,24.915-24.915   s-11.154-24.915-24.915-24.915H37.058c-13.76,0-24.601,10.194-24.601,23.954v120.837c0,13.76,11.154,24.915,24.915,24.915   s24.915-11.154,24.915-24.915V96.562l123.655,123.812c9.73,9.73,25.427,9.97,35.156,0.24   C230.827,210.885,230.75,195.349,221.02,185.618z"
   style="fill:#00ff00" />
	<path
   id="path8"
   d="M326.391,220.373L449.713,96.561v60.686c0,13.76,11.154,24.915,24.915,24.915   c13.76,0,24.915-11.154,24.915-24.915V36.411c0-13.759-10.176-23.953-23.937-23.953H354.769c-13.76,0-24.915,11.154-24.915,24.915   s11.154,24.915,24.915,24.915h60.686L291.643,185.619c-9.73,9.73-9.975,25.265-0.244,34.994   C301.13,230.343,316.66,230.104,326.391,220.373z"
   style="fill:#00ff00" />
</g>
<path
   id="path12"
   d="M177.137,282.161L74.745,384.706v-30.612c0-20.607-16.765-37.372-37.372-37.372S0,333.488,0,354.095v120.837  C0,495.539,16.461,512,37.068,512h120.837c20.607,0,37.372-16.765,37.372-37.372s-16.765-37.372-37.372-37.372h-30.612  l102.546-102.394c14.57-14.571,14.646-38.206,0.076-52.777C215.344,267.513,191.71,267.589,177.137,282.161z M212.222,317.395  L88.41,441.208c-3.562,3.563-4.628,8.769-2.701,13.424c1.928,4.655,6.47,7.539,11.509,7.539h60.686  c6.869,0,12.457,5.588,12.457,12.457c0,6.869-5.588,12.457-12.457,12.457H37.068c-6.869,0-12.153-5.284-12.153-12.153V354.096  c0-6.869,5.588-12.457,12.457-12.457s12.457,5.588,12.457,12.457v60.686c0,5.038,2.884,9.581,7.538,11.509  c4.655,1.928,9.939,0.861,13.5-2.699L194.641,299.78c4.856-4.857,12.743-4.857,17.599,0  C217.098,304.635,217.079,312.538,212.222,317.395z" />
<path
   id="path14"
   d="M282.893,334.882l102.546,102.374h-30.612c-20.607,0-37.372,16.765-37.372,37.372S334.22,512,354.827,512h120.837  C496.27,512,512,495.576,512,474.969V354.132c0-20.607-16.765-37.372-37.372-37.372s-37.372,16.765-37.372,37.372v30.612  L335.228,282.198c-14.571-14.57-38.023-14.656-52.594-0.086C268.063,296.685,268.32,320.309,282.893,334.882z M318.128,299.816  l123.813,123.812c3.563,3.562,8.402,4.628,13.058,2.701c4.655-1.928,7.173-6.47,7.173-11.509v-60.686  c0-6.869,5.588-12.457,12.457-12.457c6.869,0,12.457,5.588,12.457,12.457V474.97c0,6.869-4.553,12.116-11.422,12.116H354.827  c-6.869,0-12.457-5.588-12.457-12.457c0-6.869,5.588-12.457,12.457-12.457h60.686c5.038,0,9.581-2.864,11.509-7.519  s0.861-9.93-2.7-13.491L300.512,317.393c-4.857-4.856-4.857-12.74,0-17.596C305.368,294.937,313.271,294.958,318.128,299.816z" />
<path
   id="path16"
   d="M229.829,176.809L127.284,74.745h30.612c20.607,0,37.372-16.765,37.372-37.372S178.502,0,157.895,0H37.058  C16.451,0,0,15.805,0,36.412v120.837c0,20.607,16.765,37.372,37.372,37.372s37.372-16.765,37.372-37.372v-30.612l102.389,102.546  c14.571,14.57,38.203,14.811,52.775,0.24C244.479,214.852,244.401,191.381,229.829,176.809z M194.595,211.564L70.782,87.754  c-3.563-3.562-8.764-4.628-13.418-2.701c-4.655,1.928-7.534,6.47-7.534,11.509v60.686c0,6.869-5.588,12.457-12.457,12.457  s-12.457-5.588-12.457-12.457V36.412c0-6.869,5.274-11.497,12.143-11.497h120.837c6.869,0,12.457,5.588,12.457,12.457  s-5.588,12.457-12.457,12.457H97.209c-5.038,0-9.581,2.555-11.509,7.209c-1.928,4.655-0.861,9.774,2.7,13.337l123.812,123.691  c4.857,4.856,4.857,12.702,0,17.557C207.354,216.483,199.451,216.423,194.595,211.564z" />
<path
   id="path18"
   d="M335.199,229.182l102.056-102.546v30.612c0,20.607,16.765,37.372,37.372,37.372S512,177.855,512,157.248V36.411  C512,15.805,496.213,0,475.606,0H354.769c-20.607,0-37.372,16.765-37.372,37.372s16.765,37.372,37.372,37.372h30.612  L282.835,176.809c-14.57,14.571-14.816,38.041-0.244,52.613C297.162,243.994,320.628,243.754,335.199,229.182z M300.453,193.947  L424.265,70.134c3.562-3.563,4.628-8.44,2.701-13.095c-1.928-4.654-6.472-7.209-11.511-7.209h-60.686  c-6.869,0-12.457-5.588-12.457-12.457s5.588-12.457,12.457-12.457h120.837c6.869,0,11.479,4.627,11.479,11.497v120.837  c0,6.869-5.588,12.457-12.457,12.457c-6.869,0-12.457-5.588-12.457-12.457V96.561c0-5.038-2.546-9.581-7.2-11.509  c-4.655-1.928-9.77-0.861-13.332,2.7l-123.69,123.812c-4.856,4.857-12.7,4.857-17.556,0  C295.534,206.707,295.595,198.804,300.453,193.947z" />
<g
   id="g20">
</g>
<g
   id="g22">
</g>
<g
   id="g24">
</g>
<g
   id="g26">
</g>
<g
   id="g28">
</g>
<g
   id="g30">
</g>
<g
   id="g32">
</g>
<g
   id="g34">
</g>
<g
   id="g36">
</g>
<g
   id="g38">
</g>
<g
   id="g40">
</g>
<g
   id="g42">
</g>
<g
   id="g44">
</g>
<g
   id="g46">
</g>
<g
   id="g48">
</g>
</svg>