<?xml version="1.0" encoding="UTF-8" standalone="no"?>
<!-- Generator: Adobe Illustrator 16.0.0, SVG Export Plug-In . SVG Version: 6.00 Build 0)  -->

<svg
   version="1.1"
   id="Capa_1"
   x="0px"
   y="0px"
   width="128"
   height="128"
   viewBox="0 0 128 128"
   enable-background="new 0 0 19 25.85"
   xml:space="preserve"
   sodipodi:docname="Xbox_Right_Trigger.svg"
   inkscape:version="1.1 (c68e22c387, 2021-05-23)"
   xmlns:inkscape="http://www.inkscape.org/namespaces/inkscape"
   xmlns:sodipodi="http://sodipodi.sourceforge.net/DTD/sodipodi-0.dtd"
   xmlns="http://www.w3.org/2000/svg"
   xmlns:svg="http://www.w3.org/2000/svg"><defs
   id="defs43" /><sodipodi:namedview
   id="namedview41"
   pagecolor="#ffffff"
   bordercolor="#666666"
   borderopacity="1.0"
   inkscape:pageshadow="2"
   inkscape:pageopacity="0.0"
   inkscape:pagecheckerboard="0"
   showgrid="false"
   width="128px"
   inkscape:zoom="2.5747166"
   inkscape:cx="-99.234221"
   inkscape:cy="32.624949"
   inkscape:window-width="2560"
   inkscape:window-height="1366"
   inkscape:window-x="0"
   inkscape:window-y="24"
   inkscape:window-maximized="1"
   inkscape:current-layer="Capa_1" />
<g
   id="g38"
   transform="matrix(4.9500843,0,0,4.9500843,16.971724,0.02016042)">
	<g
   id="g30">
		<linearGradient
   id="SVGID_1_"
   gradientUnits="userSpaceOnUse"
   x1="9.5"
   y1="0"
   x2="9.5"
   y2="25.8496">
			<stop
   offset="0"
   style="stop-color:#5B5B5F"
   id="stop2" />
			<stop
   offset="0.0231"
   style="stop-color:#59595D"
   id="stop4" />
			<stop
   offset="0.4507"
   style="stop-color:#333335"
   id="stop6" />
			<stop
   offset="0.7912"
   style="stop-color:#1C1C1D"
   id="stop8" />
			<stop
   offset="1"
   style="stop-color:#141414"
   id="stop10" />
		</linearGradient>
		<path
   fill="url(#SVGID_1_)"
   d="m 19,23.586 c 0,1.249 -1.014,2.264 -2.264,2.264 H 2.264 C 1.014,25.85 0,24.835 0,23.586 V 2.264 C 0,1.015 1.014,0 2.264,0 H 16.737 C 17.986,0 19,1.015 19,2.264 Z"
   id="path13"
   style="fill:url(#SVGID_1_)" />
		<linearGradient
   id="SVGID_2_"
   gradientUnits="userSpaceOnUse"
   x1="9.5"
   y1="0"
   x2="9.5"
   y2="25.8496">
			<stop
   offset="0"
   style="stop-color:#5B5B5F"
   id="stop15" />
			<stop
   offset="0.0626"
   style="stop-color:#535356"
   id="stop17" />
			<stop
   offset="0.3018"
   style="stop-color:#373739"
   id="stop19" />
			<stop
   offset="0.5397"
   style="stop-color:#242425"
   id="stop21" />
			<stop
   offset="0.7739"
   style="stop-color:#181818"
   id="stop23" />
			<stop
   offset="1"
   style="stop-color:#141414"
   id="stop25" />
		</linearGradient>
		<path
   fill="url(#SVGID_2_)"
   d="m 16.736,1.51 c 0.416,0 0.754,0.338 0.754,0.754 v 21.322 c 0,0.416 -0.338,0.754 -0.754,0.754 H 2.264 C 1.848,24.34 1.51,24.002 1.51,23.586 V 2.264 C 1.51,1.848 1.848,1.51 2.264,1.51 h 14.472 m 0,-1.51 H 2.264 C 1.014,0 0,1.015 0,2.264 v 21.322 c 0,1.249 1.014,2.264 2.264,2.264 h 14.473 c 1.25,0 2.264,-1.015 2.264,-2.264 V 2.264 C 19,1.015 17.986,0 16.736,0 Z"
   id="path28"
   style="fill:url(#SVGID_2_)" />
	</g>
	<g
   id="g36">
		<path
   fill="#ffffff"
   d="m 8.953,12.479 c 0.225,-0.367 0.34,-0.793 0.34,-1.267 0,-0.356 -0.064,-0.695 -0.191,-1.007 C 8.973,9.893 8.787,9.619 8.549,9.394 8.311,9.171 8.026,8.994 7.697,8.867 7.373,8.741 7.006,8.677 6.609,8.677 h -4.31 v 8.497 h 2.029 v -3.179 h 1.621 c 0.545,0 0.775,0.108 0.873,0.2 0.139,0.129 0.209,0.364 0.209,0.699 v 2.279 H 9.072 V 14.686 C 9.072,14.172 8.988,13.791 8.816,13.521 8.705,13.348 8.548,13.204 8.347,13.088 8.596,12.935 8.797,12.731 8.953,12.479 Z M 7.094,12.002 c -0.15,0.162 -0.428,0.245 -0.828,0.245 H 4.328 V 10.46 h 2 c 0.365,0 0.625,0.082 0.77,0.242 0.154,0.171 0.227,0.385 0.227,0.657 -0.001,0.264 -0.075,0.474 -0.231,0.643 z"
   id="path32" />
		<polygon
   fill="#ffffff"
   points="16.701,10.472 16.701,8.676 9.721,8.676 9.721,10.472 12.166,10.472 12.166,17.173 14.244,17.173 14.244,10.472 "
   id="polygon34" />
	</g>
</g>
</svg>
