<?xml version="1.0" encoding="UTF-8" standalone="no"?>
<!--part of the matt icon theme by sixsixfive released under CC0 (https://creativecommons.org/publicdomain/zero/1.0/) on openclipart-->
<svg xmlns="http://www.w3.org/2000/svg" xmlns:xlink="http://www.w3.org/1999/xlink" viewBox="0 0 128 128">
 <defs id="0">
  <linearGradient id="R">
   <stop id="13"/>
   <stop offset="1" id="14" stop-opacity="0"/>
  </linearGradient>
  <linearGradient id="S">
   <stop id="15" stop-color="#fff"/>
   <stop offset="1" id="16" stop-color="#fff" stop-opacity="0"/>
  </linearGradient>
  <linearGradient id="T">
   <stop id="17" stop-color="#eee"/>
   <stop offset="1" id="18" stop-color="#eee" stop-opacity="0"/>
  </linearGradient>
  <linearGradient id="U">
   <stop id="19" stop-color="#555"/>
   <stop offset="1" id="1A" stop-color="#555" stop-opacity="0"/>
  </linearGradient>
  <linearGradient id="V">
   <stop id="1B" stop-color="#898989"/>
   <stop offset="1" id="1C" stop-color="#ddd" stop-opacity="0"/>
  </linearGradient>
  <linearGradient id="W">
   <stop id="1D" stop-color="#c0c0c0"/>
   <stop offset="1" id="1E" stop-color="#c8c8c8"/>
  </linearGradient>
  <filter id="X">
   <feGaussianBlur stdDeviation="0.66183" id="1F"/>
  </filter>
  <radialGradient xlink:href="#T" id="Y" gradientUnits="userSpaceOnUse" gradientTransform="matrix(0.6561167,2.3972584,-2.8174228,0.7711134,102.01467,-255.76496)" cx="109.77" cy="15.731" r="12.354"/>
  <linearGradient xlink:href="#U" id="Z" gradientUnits="userSpaceOnUse" x1="62.11" y1="19.426" x2="63.46" y2="39.39"/>
  <linearGradient xlink:href="#T" id="a" gradientUnits="userSpaceOnUse" x1="79.42" y1="32.572" x2="79.46" y2="38.873"/>
  <linearGradient xlink:href="#T" id="b" gradientUnits="userSpaceOnUse" x1="96.48" y1="25.26" x2="55.03" y2="40.677"/>
  <radialGradient xlink:href="#R" id="c" cx="40.635" cy="113.04" r="25.18" gradientTransform="matrix(1,0,0,0.1386139,0,97.373042)" gradientUnits="userSpaceOnUse"/>
  <linearGradient xlink:href="#U" id="d" gradientUnits="userSpaceOnUse" gradientTransform="matrix(0.7253122,-0.4907237,0.4907237,0.7253122,-5.5055512,73.888001)" x1="115.64" y1="27.773" x2="126.02" y2="46.52"/>
  <linearGradient xlink:href="#U" id="e" gradientUnits="userSpaceOnUse" gradientTransform="matrix(0.7253122,-0.4907237,0.4907237,0.7253122,-5.5055512,73.888001)" x1="125.39" y1="3.514" x2="136.4" y2="36.77"/>
  <linearGradient xlink:href="#U" id="f" gradientUnits="userSpaceOnUse" gradientTransform="matrix(0.7253122,-0.4907237,0.4907237,0.7253122,-5.5055512,73.888001)" x1="108.41" y1="16.446" x2="115.32" y2="36.77"/>
  <linearGradient xlink:href="#U" id="g" gradientUnits="userSpaceOnUse" gradientTransform="matrix(0.7253122,-0.4907237,0.4907237,0.7253122,-5.5055512,73.888001)" x1="119.4" y1="-1.958" x2="129.17" y2="27.02"/>
  <linearGradient xlink:href="#V" id="h" gradientUnits="userSpaceOnUse" gradientTransform="matrix(0.7253122,-0.4907237,0.4907237,0.7253122,-5.5055512,73.888001)" x1="32.07" y1="15.424" x2="42.27" y2="44.576"/>
  <linearGradient xlink:href="#W" id="i" gradientUnits="userSpaceOnUse" gradientTransform="matrix(0.7253122,-0.4907237,0.4907237,0.7253122,-5.5055512,73.888001)" y1="0" x2="0" y2="60"/>
  <linearGradient xlink:href="#S" id="j" gradientUnits="userSpaceOnUse" x1="31.622" y1="30.921" x2="43.4" y2="33.375" gradientTransform="matrix(0.9818961,0.18942,-0.18942,0.9818961,11.945548,-10.297077)"/>
  <radialGradient r="58.957" cy="-9.299" cx="8.155" gradientTransform="matrix(1,0,0,0.8435374,55.843712,21.608207)" gradientUnits="userSpaceOnUse" id="k" xlink:href="#p"/>
  <radialGradient r="52.941" cy="2.44" cx="-36.475" gradientTransform="matrix(0.130915,1.0424259,-1.2868879,0.1616162,28.865455,67.411459)" gradientUnits="userSpaceOnUse" id="l" xlink:href="#n"/>
  <linearGradient y2="99.34" x2="0" y1="-0.031" gradientUnits="userSpaceOnUse" id="m" xlink:href="#o"/>
  <linearGradient id="n">
   <stop id="1G" stop-color="#323232"/>
   <stop id="1H" offset="1" stop-color="#262626"/>
  </linearGradient>
  <linearGradient id="o">
   <stop id="1I" stop-color="#eee"/>
   <stop id="1J" offset="1" stop-color="#918b8b"/>
  </linearGradient>
  <linearGradient id="p">
   <stop id="1K" stop-color="#bbb"/>
   <stop id="1L" offset="1" stop-color="#a3a3a3"/>
  </linearGradient>
  <radialGradient xlink:href="#n" id="q" gradientUnits="userSpaceOnUse" gradientTransform="matrix(0.130915,1.0424259,-1.2868879,0.1616162,-122.91904,69.839657)" cx="-36.475" cy="2.44" r="52.941"/>
  <radialGradient xlink:href="#p" id="r" gradientUnits="userSpaceOnUse" gradientTransform="matrix(1,0,0,0.8435374,-95.940778,24.036405)" cx="8.155" cy="-9.299" r="58.957"/>
 </defs>
 <path id="1" d="M 65.814011,113.04227 A 25.178844,3.4901369 0 1 1 15.456322,113.04227 A 25.178844,3.4901369 0 1 1 65.814011,113.04227 z" transform="translate(-6.7309782,-3.2984037)" opacity="0.249" fill="url(#c)" stroke-linejoin="round" stroke-linecap="round" stroke-width="3.2"/>
 <text x="35.675" y="-54.32" id="2" font-size="3.285"><tspan x="35.675" y="-54.32" id="s"/>
 </text>
 <text x="35.675" y="-54.32" id="3" font-size="3.285"><tspan x="35.675" y="-54.32" id="t"/>
 </text>
 <text x="64.972" y="-99.29" id="4" font-size="3.285"><tspan x="64.972" y="-99.29" id="u"/>
 </text>
 <text x="64.972" y="-99.29" id="5" font-size="3.285"><tspan x="64.972" y="-99.29" id="v"/>
 </text>
 <text x="66.969" y="-114.8" id="6" font-size="3.285"><tspan x="66.969" y="-114.8" id="w"/>
 </text>
 <path d="M 48.925914,33.63186 C 42.824266,13.587421 52.969248,34.358405 54.530044,39.399028 L 56.952648,37.367145 C 51.97055,22.982643 39.494888,14.546613 46.017129,34.945143 L 48.925914,33.63186 z" id="7" fill="#323232" fill-rule="evenodd"/>
 <path id="8" d="M 48.925914,33.63186 C 42.824266,13.587421 52.969248,34.358405 54.530044,39.399028 L 56.952648,37.367145 C 51.97055,22.982643 39.494888,14.546613 46.017129,34.945143 L 48.925914,33.63186 z" fill="url(#j)" fill-rule="evenodd"/>
 <path d="M 16.253813,59.166291 C 4.2426442,67.292675 1.0897752,83.636197 9.2161587,95.647368 C 9.6254002,96.252237 10.046315,96.832339 10.495631,97.39198 C 10.843764,98.012629 11.217983,98.606159 11.623771,99.205932 C 19.618917,111.02312 35.863651,114.02998 47.874821,105.90359 C 52.196807,102.97947 55.376429,98.992533 57.315545,94.560103 C 58.409077,87.914842 64.462716,79.746086 73.650394,73.529988 C 82.82089,67.325515 92.634594,64.743815 99.209657,66.18281 C 104.06463,66.042588 108.94883,64.582814 113.28891,61.646451 C 125.30008,53.520067 128.55174,37.322557 120.55659,25.505365 C 120.1508,24.905591 119.73904,24.337467 119.29249,23.783398 C 118.94011,23.158175 118.55822,22.551678 118.14898,21.946802 C 110.02259,9.9356333 93.679074,6.7827645 81.667904,14.909148 C 81.453349,15.054309 81.257478,15.210864 81.048591,15.361198 C 81.024687,15.372922 80.98795,15.369186 80.965262,15.384536 L 52.678084,34.522761 L 45.243634,39.552679 L 16.95646,58.690902 C 16.938855,58.702813 16.942339,58.73084 16.926465,58.744236 C 16.705916,58.884147 16.471582,59.018953 16.253815,59.166288 L 16.253813,59.166291 z" id="9" fill="#919191"/>
 <path id="A" d="M 84.23788,1.0095532 A 9.4528303,6.5810843 0 1 1 65.332219,1.0095532 A 9.4528303,6.5810843 0 1 1 84.23788,1.0095532 z" transform="matrix(0.7253122,-0.4907237,0.4907237,0.7253122,-5.399083,73.562939)" fill="#c0c0c0"/>
 <path d="M 16.253813,59.166291 C 4.2426442,67.292675 1.0897752,83.636197 9.2161587,95.647368 C 17.342543,107.65854 33.686066,110.8114 45.697234,102.68502 C 50.019221,99.760895 53.191946,95.763767 55.107288,91.296198 C 56.15583,84.584439 62.177784,76.368851 71.365462,70.152753 C 80.535958,63.948279 90.381483,61.413615 97.001395,62.918904 C 101.88033,62.814091 106.77124,61.364241 111.11132,58.427877 C 123.12249,50.301493 126.27536,33.957971 118.14898,21.946802 C 110.02259,9.9356333 93.679074,6.7827645 81.667904,14.909148 C 81.453349,15.054309 81.257478,15.210864 81.048591,15.361198 C 81.024687,15.372922 80.98795,15.369186 80.965262,15.384536 L 52.678084,34.522761 L 45.243634,39.552679 L 16.95646,58.690902 C 16.938855,58.702813 16.942339,58.73084 16.926465,58.744236 C 16.705916,58.884147 16.471582,59.018953 16.253815,59.166288 L 16.253813,59.166291 z" id="B" fill="url(#i)"/>
 <path id="C" d="M 18.652829,73.851806 C 18.099916,74.223353 18.02358,75.075304 18.483149,75.759 L 21.717872,80.571776 L 16.787501,83.885626 C 16.168705,84.301112 15.971248,85.07948 16.342856,85.632366 L 21.0987,92.708339 C 21.47031,93.261191 22.265378,93.372023 22.883981,92.956224 L 27.813925,89.641711 L 31.05038,94.45705 C 31.509886,95.140753 32.325857,95.3892 32.878733,95.017605 L 39.952087,90.263396 C 40.504801,89.89156 40.58304,89.042422 40.123519,88.35874 L 36.887079,83.543424 L 41.817022,80.228912 C 42.435797,79.81344 42.633247,79.035076 42.261662,78.482197 L 37.505802,71.406235 C 37.135115,70.854746 36.340042,70.743895 35.721439,71.159728 L 30.791067,74.473577 L 27.556352,69.66081 C 27.096889,68.97717 26.279233,68.726144 25.726355,69.097708 L 18.65294,73.851821 L 18.652829,73.851806 z" fill="url(#h)"/>
 <path d="M 89.90196,23.612069 C 87.056347,25.426127 86.43948,29.773927 88.680933,32.301199 C 90.775448,34.939333 95.154283,35.125326 97.441403,32.639051 C 99.851825,30.291516 99.610988,25.922329 96.907572,23.895019 C 94.948445,22.302173 91.980571,22.166029 89.90196,23.612069 L 89.90196,23.612069 z" id="D" fill="url(#g)"/>
 <path d="M 87.614722,35.46842 C 84.76911,37.282476 84.152242,41.630276 86.393695,44.157549 C 88.488211,46.795682 92.867045,46.981675 95.154165,44.4954 C 97.564587,42.147865 97.32375,37.778678 94.620334,35.751369 C 92.661208,34.158522 89.693333,34.022378 87.614722,35.46842 L 87.614722,35.46842 z" id="E" fill="url(#f)"/>
 <path d="M 101.75831,25.899307 C 98.912697,27.713364 98.295829,32.061165 100.53728,34.588437 C 102.6318,37.22657 107.01064,37.412564 109.29775,34.926289 C 111.70817,32.578753 111.46734,28.209567 108.76392,26.182257 C 106.80479,24.58941 103.83692,24.453267 101.75831,25.899307 L 101.75831,25.899307 z" id="F" fill="url(#e)"/>
 <path d="M 99.471072,37.755657 C 96.62546,39.569714 96.008592,43.917514 98.250044,46.444786 C 100.34456,49.08292 104.7234,49.268913 107.01051,46.782638 C 109.42093,44.435102 109.1801,40.065916 106.47668,38.038607 C 104.51756,36.445759 101.54968,36.309616 99.471072,37.755657 L 99.471072,37.755657 z" id="G" fill="url(#d)"/>
 <path id="H" d="M 30.397613,30.441463 A 4.1640563,4.1640563 0 1 1 22.0695,30.441463 A 4.1640563,4.1640563 0 1 1 30.397613,30.441463 z" transform="matrix(0.8712073,-0.5894318,0.5894318,0.8712073,52.407143,17.456303)" fill="#323232"/>
 <path transform="matrix(0.8712073,-0.5894318,0.5894318,0.8712073,61.976154,31.59974)" d="M 30.397613,30.441463 A 4.1640563,4.1640563 0 1 1 22.0695,30.441463 A 4.1640563,4.1640563 0 1 1 30.397613,30.441463 z" id="I" fill="#323232"/>
 <path transform="matrix(0.5894318,0.8712073,-0.8712073,0.5894318,116.11934,-9.9965872)" d="M 30.397613,30.441463 A 4.1640563,4.1640563 0 1 1 22.0695,30.441463 A 4.1640563,4.1640563 0 1 1 30.397613,30.441463 z" id="J" fill="#323232"/>
 <path id="K" d="M 30.397613,30.441463 A 4.1640563,4.1640563 0 1 1 22.0695,30.441463 A 4.1640563,4.1640563 0 1 1 30.397613,30.441463 z" transform="matrix(0.5894318,0.8712073,-0.8712073,0.5894318,101.9759,-0.4275785)" fill="#323232"/>
 <path id="L" d="M 22.875,16.625 C 22.897417,16.625071 22.688787,16.697907 22.6875,17.125 L 22.65625,23.75 C 22.655013,24.405325 22.124075,24.936263 21.46875,24.9375 L 14.6875,24.90625 C 14.413813,24.905285 14.343921,25.037742 14.34375,25.09375 L 14.3125,34.8125 C 14.312357,34.859752 14.373212,34.999142 14.65625,35 L 21.4375,35.03125 C 22.092825,35.032487 22.623763,35.563425 22.625,36.21875 L 22.59375,42.84375 C 22.59246,43.262111 22.794801,43.343792 22.78125,43.34375 L 32.5,43.375 C 32.478193,43.374943 32.717527,43.275729 32.71875,42.875 L 32.71875,36.25 C 32.719987,35.594675 33.250925,35.063737 33.90625,35.0625 L 40.6875,35.09375 C 40.961015,35.094714 41.062428,34.929638 41.0625,34.90625 L 41.09375,25.1875 C 41.093882,25.143884 41.031272,25.000843 40.75,25 L 33.96875,24.96875 C 33.313425,24.967513 32.782487,24.436575 32.78125,23.78125 L 32.78125,17.15625 C 32.782539,16.738038 32.580133,16.656208 32.59375,16.65625 L 22.875,16.625 z" transform="matrix(0.7253122,-0.4907237,0.4907237,0.7253122,-5.5055512,73.888001)" fill="#323232"/>
 <path d="M 122.34375,15.78125 C 121.97166,15.78535 121.57243,15.82865 121.1875,15.9375 C 119.64778,16.372896 118.73556,17.514857 119.15625,18.5 C 119.57694,19.485143 121.17903,19.935396 122.71875,19.5 C 124.25847,19.064604 125.17069,17.922643 124.75,16.9375 C 124.43448,16.198643 123.46001,15.769087 122.34375,15.78125 L 122.34375,15.78125 z M 112.25,25.875 C 111.87791,25.88 111.47868,25.92874 111.09375,26.0625 C 109.55403,26.597549 108.64181,28.008127 109.0625,29.21875 C 109.48319,30.429373 111.08528,31.003799 112.625,30.46875 C 114.16472,29.933701 115.07694,28.491873 114.65625,27.28125 C 114.34073,26.373283 113.36626,25.860054 112.25,25.875 z M 131.84375,26.1875 C 131.57316,26.1911 131.27993,26.24648 131,26.34375 C 129.8803,26.732845 129.22532,27.744618 129.53125,28.625 C 129.83718,29.505382 131.0053,29.920345 132.125,29.53125 C 133.2447,29.142155 133.89968,28.099132 133.59375,27.21875 C 133.3643,26.558464 132.65551,26.176631 131.84375,26.1875 z M 121.4375,35.96875 C 121.16691,35.97235 120.87368,36.02773 120.59375,36.125 C 119.47405,36.514095 118.81907,37.525868 119.125,38.40625 C 119.43093,39.286632 120.59905,39.701595 121.71875,39.3125 C 122.83845,38.923405 123.49343,37.880382 123.1875,37 C 122.95805,36.339714 122.24926,35.957881 121.4375,35.96875 z" id="M" transform="matrix(0.7253122,-0.4907237,0.4907237,0.7253122,-5.5055512,73.888001)" opacity="0.566" fill="url(#Y)" filter="url(#X)"/>
 <g id="N" transform="matrix(0.7253122,-0.4907237,0.4907237,0.7253122,-5.5055512,73.888001)" fill="#bbb">
  <g id="x">
   <path d="M 27.704247,41.374869 C 27.691247,41.372969 27.678567,41.370169 27.666487,41.366469 C 27.623007,41.357569 27.584867,41.337779 27.561593,41.311919 L 26.596571,40.216741 C 26.590571,40.212841 26.584941,40.208541 26.579791,40.204161 L 25.631557,39.12157 C 25.570357,39.04554 25.673497,38.937371 25.803583,38.941138 L 27.712646,38.941138 L 29.609124,38.941138 C 29.734401,38.940904 29.831433,39.042753 29.776954,39.117374 L 28.828715,40.204161 L 27.884672,41.29934 C 27.855562,41.34565 27.779992,41.37729 27.704255,41.37487 L 27.704255,41.374863 L 27.704247,41.374869 z" id="1M"/>
   <path id="1N" d="M 27.701832,18.625173 C 27.714832,18.627073 27.727512,18.629873 27.739592,18.633573 C 27.783072,18.642473 27.821212,18.662263 27.844486,18.688123 L 28.809508,19.783301 C 28.815508,19.787201 28.821138,19.791501 28.826288,19.795881 L 29.774522,20.878472 C 29.835722,20.954502 29.732582,21.062671 29.602496,21.058904 L 27.693433,21.058904 L 25.796955,21.058904 C 25.671678,21.059138 25.574646,20.957289 25.629125,20.882668 L 26.577364,19.795881 L 27.521407,18.700702 C 27.550517,18.654392 27.626087,18.622752 27.701824,18.625172 L 27.701824,18.625179 L 27.701832,18.625173 z"/>
  </g>
  <g transform="matrix(0,-1,1,0,-2.2969815,57.703061)" id="y">
   <path id="1O" d="M 27.704247,41.374869 C 27.691247,41.372969 27.678567,41.370169 27.666487,41.366469 C 27.623007,41.357569 27.584867,41.337779 27.561593,41.311919 L 26.596571,40.216741 C 26.590571,40.212841 26.584941,40.208541 26.579791,40.204161 L 25.631557,39.12157 C 25.570357,39.04554 25.673497,38.937371 25.803583,38.941138 L 27.712646,38.941138 L 29.609124,38.941138 C 29.734401,38.940904 29.831433,39.042753 29.776954,39.117374 L 28.828715,40.204161 L 27.884672,41.29934 C 27.855562,41.34565 27.779992,41.37729 27.704255,41.37487 L 27.704255,41.374863 L 27.704247,41.374869 z"/>
   <path d="M 27.701832,18.625173 C 27.714832,18.627073 27.727512,18.629873 27.739592,18.633573 C 27.783072,18.642473 27.821212,18.662263 27.844486,18.688123 L 28.809508,19.783301 C 28.815508,19.787201 28.821138,19.791501 28.826288,19.795881 L 29.774522,20.878472 C 29.835722,20.954502 29.732582,21.062671 29.602496,21.058904 L 27.693433,21.058904 L 25.796955,21.058904 C 25.671678,21.059138 25.574646,20.957289 25.629125,20.882668 L 26.577364,19.795881 L 27.521407,18.700702 C 27.550517,18.654392 27.626087,18.622752 27.701824,18.625172 L 27.701824,18.625179 L 27.701832,18.625173 z" id="1P"/>
  </g>
 </g>
 <path id="O" d="M 53.9375,30.6875 C 52.410666,30.6875 50.983935,31.143923 49.875,32 C 48.766065,32.856077 47.96875,34.188591 47.96875,35.71875 C 47.96875,37.248909 48.766065,38.581423 49.875,39.4375 C 50.983935,40.293577 52.410666,40.75 53.9375,40.75 L 68.34375,40.75 C 69.870584,40.75 71.297315,40.293577 72.40625,39.4375 C 73.515185,38.581423 74.3125,37.248909 74.3125,35.71875 C 74.3125,34.188591 73.515185,32.856077 72.40625,32 C 71.297315,31.143923 69.870584,30.6875 68.34375,30.6875 L 53.9375,30.6875 z M 81.84375,30.6875 C 80.316916,30.6875 78.890185,31.143923 77.78125,32 C 76.672315,32.856077 75.875,34.188591 75.875,35.71875 C 75.875,37.248909 76.672315,38.581423 77.78125,39.4375 C 78.890185,40.293577 80.316916,40.75 81.84375,40.75 L 96.25,40.75 C 97.776834,40.75 99.203565,40.293577 100.3125,39.4375 C 101.42144,38.581423 102.21875,37.248909 102.21875,35.71875 C 102.21875,34.188591 101.42144,32.856077 100.3125,32 C 99.203565,31.143923 97.776834,30.6875 96.25,30.6875 L 81.84375,30.6875 z" transform="matrix(0.7253122,-0.4907237,0.4907237,0.7253122,-5.5055512,73.888001)" fill="url(#Z)"/>
 <g id="P" transform="matrix(0.7253122,-0.4907237,0.4907237,0.7253122,-6.4558958,74.530975)">
  <rect ry="3.151" y="32.572" x="51.15" height="6.301" width="22.61" id="z" fill="#252525" rx="4.1"/>
  <rect id="10" width="22.61" height="6.301" x="79.05" y="32.572" ry="3.151" fill="#252525" rx="4.1"/>
 </g>
 <g transform="matrix(0.7253122,-0.4907237,0.4907237,0.7253122,-6.4558958,74.530975)" id="Q" opacity="0.258" fill="url(#b)">
  <rect id="11" width="22.61" height="6.301" x="51.15" y="32.572" ry="3.151" fill="url(#a)" rx="4.1"/>
  <rect ry="3.151" y="32.572" x="79.05" height="6.301" width="22.61" id="12" fill="url(#a)" rx="4.1"/>
 </g>
</svg>
