<?xml version="1.0" encoding="UTF-8" standalone="no"?>
<!-- Generator: Adobe Illustrator 16.0.0, SVG Export Plug-In . SVG Version: 6.00 Build 0)  -->

<svg
   version="1.1"
   id="Capa_1"
   x="0px"
   y="0px"
   width="128"
   height="128"
   viewBox="0 0 128 128"
   enable-background="new 0 0 29 13.564"
   xml:space="preserve"
   sodipodi:docname="Xbox_Right_Bumper.svg"
   inkscape:version="1.1 (c68e22c387, 2021-05-23)"
   xmlns:inkscape="http://www.inkscape.org/namespaces/inkscape"
   xmlns:sodipodi="http://sodipodi.sourceforge.net/DTD/sodipodi-0.dtd"
   xmlns="http://www.w3.org/2000/svg"
   xmlns:svg="http://www.w3.org/2000/svg"><defs
   id="defs43" /><sodipodi:namedview
   id="namedview41"
   pagecolor="#ffffff"
   bordercolor="#666666"
   borderopacity="1.0"
   inkscape:pageshadow="2"
   inkscape:pageopacity="0.0"
   inkscape:pagecheckerboard="0"
   showgrid="false"
   width="128px"
   inkscape:zoom="1.5657328"
   inkscape:cx="-34.807983"
   inkscape:cy="141.78665"
   inkscape:window-width="2560"
   inkscape:window-height="1366"
   inkscape:window-x="0"
   inkscape:window-y="24"
   inkscape:window-maximized="1"
   inkscape:current-layer="Capa_1" />
<g
   id="g38"
   transform="matrix(4.4133632,0,0,4.4133632,0.0062336,34.066916)">
	<g
   id="g30">
		<linearGradient
   id="SVGID_1_"
   gradientUnits="userSpaceOnUse"
   x1="14.5"
   y1="0"
   x2="14.5"
   y2="13.564">
			<stop
   offset="0"
   style="stop-color:#5B5B5F"
   id="stop2" />
			<stop
   offset="0.0231"
   style="stop-color:#59595D"
   id="stop4" />
			<stop
   offset="0.4507"
   style="stop-color:#333335"
   id="stop6" />
			<stop
   offset="0.7912"
   style="stop-color:#1C1C1D"
   id="stop8" />
			<stop
   offset="1"
   style="stop-color:#141414"
   id="stop10" />
		</linearGradient>
		<path
   fill="url(#SVGID_1_)"
   d="m 29,11.269 c 0,3.061 -29,3.061 -29,0 V 5.542 C 0,2.482 2.48,0 5.541,0 H 23.459 C 26.52,0 29,2.482 29,5.542 Z"
   id="path13"
   style="fill:url(#SVGID_1_)" />
		<linearGradient
   id="SVGID_2_"
   gradientUnits="userSpaceOnUse"
   x1="14.5"
   y1="0"
   x2="14.5"
   y2="13.5635">
			<stop
   offset="0"
   style="stop-color:#5B5B5F"
   id="stop15" />
			<stop
   offset="0.0626"
   style="stop-color:#535356"
   id="stop17" />
			<stop
   offset="0.3018"
   style="stop-color:#373739"
   id="stop19" />
			<stop
   offset="0.5397"
   style="stop-color:#242425"
   id="stop21" />
			<stop
   offset="0.7739"
   style="stop-color:#181818"
   id="stop23" />
			<stop
   offset="1"
   style="stop-color:#141414"
   id="stop25" />
		</linearGradient>
		<path
   fill="url(#SVGID_2_)"
   d="m 23.459,1.479 c 2.24,0 4.063,1.822 4.063,4.063 v 5.233 c -0.43,0.195 -1.559,0.568 -4.25,0.878 -2.432,0.278 -5.547,0.433 -8.771,0.433 -3.224,0 -6.34,-0.154 -8.771,-0.433 C 3.037,11.343 1.91,10.97 1.478,10.775 V 5.542 c 0,-2.241 1.824,-4.063 4.064,-4.063 H 23.459 M 23.459,0 H 5.541 C 2.48,0 0,2.482 0,5.542 v 5.727 c 0,1.53 7.25,2.295 14.5,2.295 7.25,0 14.5,-0.765 14.5,-2.295 V 5.542 C 29,2.482 26.52,0 23.459,0 Z"
   id="path28"
   style="fill:url(#SVGID_2_)" />
	</g>
	<g
   id="g36">
		<path
   fill="#ffffff"
   d="M 13.809,6.346 C 14.03,5.989 14.141,5.571 14.141,5.107 14.141,4.757 14.078,4.426 13.953,4.121 13.828,3.814 13.646,3.548 13.412,3.326 13.18,3.106 12.9,2.933 12.58,2.81 12.262,2.686 11.902,2.623 11.514,2.623 H 7.295 v 8.319 H 9.281 V 7.829 h 1.586 c 0.533,0 0.76,0.106 0.855,0.196 0.137,0.127 0.205,0.356 0.205,0.685 v 2.232 h 1.998 V 8.507 C 13.925,8.002 13.843,7.63 13.673,7.364 13.566,7.195 13.411,7.053 13.216,6.942 13.459,6.793 13.656,6.593 13.809,6.346 Z M 11.988,5.881 C 11.842,6.038 11.57,6.117 11.179,6.117 H 9.281 V 4.369 h 1.957 c 0.357,0 0.611,0.079 0.754,0.238 0.15,0.165 0.223,0.376 0.223,0.644 0,0.257 -0.074,0.462 -0.227,0.63 z"
   id="path32" />
		<path
   fill="#ffffff"
   d="M 21.602,7.586 C 21.532,7.355 21.438,7.152 21.319,6.982 21.2,6.81 21.055,6.666 20.887,6.55 20.832,6.514 20.776,6.478 20.719,6.446 20.885,6.328 21.032,6.176 21.158,5.995 21.361,5.696 21.465,5.352 21.465,4.974 21.465,4.252 21.24,3.676 20.797,3.252 20.358,2.834 19.715,2.621 18.887,2.621 h -4.1 v 8.319 h 3.764 c 1.047,0 1.842,-0.232 2.361,-0.687 0.525,-0.463 0.793,-1.092 0.793,-1.868 0,-0.302 -0.035,-0.572 -0.103,-0.799 z M 16.76,4.369 h 1.814 c 0.342,0 0.594,0.057 0.73,0.163 0.127,0.101 0.188,0.27 0.188,0.515 0,0.314 -0.094,0.678 -0.822,0.678 h -1.91 z m 2.689,4.582 c -0.18,0.181 -0.432,0.268 -0.766,0.268 H 16.76 V 7.446 h 1.947 c 0.332,0 0.59,0.069 0.768,0.201 0.164,0.125 0.244,0.327 0.244,0.619 0,0.28 -0.088,0.504 -0.27,0.685 z"
   id="path34" />
	</g>
</g>
</svg>
