<?xml version="1.0" encoding="UTF-8" standalone="no"?>
<!-- Generator: Adobe Illustrator 16.0.0, SVG Export Plug-In . SVG Version: 6.00 Build 0)  -->

<svg
   version="1.1"
   id="Capa_1"
   x="0px"
   y="0px"
   width="128"
   height="128"
   viewBox="0 0 128 128"
   enable-background="new 0 0 14.999 12.113"
   xml:space="preserve"
   sodipodi:docname="Xbox_360_Back.svg"
   inkscape:version="1.1 (c68e22c387, 2021-05-23)"
   xmlns:inkscape="http://www.inkscape.org/namespaces/inkscape"
   xmlns:sodipodi="http://sodipodi.sourceforge.net/DTD/sodipodi-0.dtd"
   xmlns="http://www.w3.org/2000/svg"
   xmlns:svg="http://www.w3.org/2000/svg"><defs
   id="defs41" /><sodipodi:namedview
   id="namedview39"
   pagecolor="#ffffff"
   bordercolor="#666666"
   borderopacity="1.0"
   inkscape:pageshadow="2"
   inkscape:pageopacity="0.0"
   inkscape:pagecheckerboard="0"
   showgrid="false"
   width="128px"
   inkscape:zoom="7.7705771"
   inkscape:cx="78.694284"
   inkscape:cy="63.444451"
   inkscape:window-width="2560"
   inkscape:window-height="1366"
   inkscape:window-x="0"
   inkscape:window-y="24"
   inkscape:window-maximized="1"
   inkscape:current-layer="Capa_1" />
<g
   id="g36"
   transform="matrix(8.5339176,0,0,8.5414245,0,12.997748)">
	<g
   id="g30">
		
			<linearGradient
   id="SVGID_1_"
   gradientUnits="userSpaceOnUse"
   x1="-900.74951"
   y1="0"
   x2="-900.74951"
   y2="10.8416"
   gradientTransform="matrix(-1,0,0,1,-893.25,0)">
			<stop
   offset="0"
   style="stop-color:#5B5B5F"
   id="stop2" />
			<stop
   offset="0.0231"
   style="stop-color:#59595D"
   id="stop4" />
			<stop
   offset="0.4507"
   style="stop-color:#333335"
   id="stop6" />
			<stop
   offset="0.7912"
   style="stop-color:#1C1C1D"
   id="stop8" />
			<stop
   offset="1"
   style="stop-color:#141414"
   id="stop10" />
		</linearGradient>
		<path
   fill="url(#SVGID_1_)"
   d="m 0,6.057 c 0,3.346 2.711,6.057 6.057,6.057 H 8.943 C 12.289,12.114 15,9.403 15,6.057 v 0 C 14.999,2.713 12.288,0 8.942,0 H 6.057 C 2.711,0 0,2.713 0,6.057 Z"
   id="path13"
   style="fill:url(#SVGID_1_)" />
		
			<linearGradient
   id="SVGID_2_"
   gradientUnits="userSpaceOnUse"
   x1="-900.74951"
   y1="0"
   x2="-900.74951"
   y2="12.1133"
   gradientTransform="matrix(-1,0,0,1,-893.25,0)">
			<stop
   offset="0"
   style="stop-color:#5B5B5F"
   id="stop15" />
			<stop
   offset="0.0807"
   style="stop-color:#505053"
   id="stop17" />
			<stop
   offset="0.3078"
   style="stop-color:#363638"
   id="stop19" />
			<stop
   offset="0.5369"
   style="stop-color:#232324"
   id="stop21" />
			<stop
   offset="0.767"
   style="stop-color:#181818"
   id="stop23" />
			<stop
   offset="1"
   style="stop-color:#141414"
   id="stop25" />
		</linearGradient>
		<path
   fill="url(#SVGID_2_)"
   d="m 6.057,1.201 h 2.886 c 2.678,0 4.855,2.178 4.855,4.855 0,2.678 -2.178,4.856 -4.855,4.856 H 6.057 C 3.379,10.912 1.202,8.734 1.202,6.056 1.201,3.379 3.379,1.201 6.057,1.201 M 6.057,0 C 2.711,0 0,2.713 0,6.057 0,9.403 2.711,12.114 6.057,12.114 H 8.943 C 12.289,12.114 15,9.403 15,6.057 14.999,2.713 12.288,0 8.942,0 Z"
   id="path28"
   style="fill:url(#SVGID_2_)" />
	</g>
	<g
   id="g34">
		<polygon
   fill="#eaeaea"
   points="8.917,8.56 8.917,6.058 8.917,3.554 6.75,4.806 4.582,6.058 6.75,7.309 "
   id="polygon32" />
	</g>
</g>
</svg>
