<?xml version="1.0" encoding="iso-8859-1"?>
<!-- Generator: Adobe Illustrator 19.0.0, SVG Export Plug-In . SVG Version: 6.00 Build 0)  -->
<svg version="1.1" id="Layer_1" xmlns="http://www.w3.org/2000/svg" xmlns:xlink="http://www.w3.org/1999/xlink" x="0px" y="0px"
	 viewBox="0 0 512 512" style="enable-background:new 0 0 512 512;" xml:space="preserve">
<g>
	<g>
		<g>
			<path d="M362.667,341.333c11.776,0,21.333-9.557,21.333-21.333s-9.557-21.333-21.333-21.333s-21.333,9.557-21.333,21.333
				S350.891,341.333,362.667,341.333z"/>
			<path d="M362.667,384c-11.776,0-21.333,9.557-21.333,21.333s9.557,21.333,21.333,21.333S384,417.109,384,405.333
				S374.443,384,362.667,384z"/>
			<path d="M320,384c11.776,0,21.333-9.557,21.333-21.333s-9.557-21.333-21.333-21.333s-21.333,9.557-21.333,21.333
				S308.224,384,320,384z"/>
			<path d="M405.333,384c11.776,0,21.333-9.557,21.333-21.333s-9.557-21.333-21.333-21.333S384,350.891,384,362.667
				S393.557,384,405.333,384z"/>
			<path d="M192,341.333h-21.333V320c0-11.782-9.551-21.333-21.333-21.333C137.551,298.667,128,308.218,128,320v21.333h-21.333
				c-11.782,0-21.333,9.551-21.333,21.333S94.885,384,106.667,384H128v21.333c0,11.782,9.551,21.333,21.333,21.333
				c11.782,0,21.333-9.551,21.333-21.333V384H192c11.782,0,21.333-9.551,21.333-21.333S203.782,341.333,192,341.333z"/>
			<path d="M490.667,213.333H277.333v-128c0-11.685,9.649-21.333,21.333-21.333C310.351,64,320,73.649,320,85.333v21.333
				c0,35.249,28.751,64,64,64c35.249,0,64-28.751,64-64V21.333C448,9.551,438.449,0,426.667,0s-21.333,9.551-21.333,21.333v85.333
				c0,11.685-9.649,21.333-21.333,21.333c-11.685,0-21.333-9.649-21.333-21.333V85.333c0-35.249-28.751-64-64-64
				c-35.249,0-64,28.751-64,64v128H21.333C9.551,213.333,0,222.885,0,234.667v256C0,502.449,9.551,512,21.333,512h469.333
				c11.782,0,21.333-9.551,21.333-21.333v-256C512,222.885,502.449,213.333,490.667,213.333z M469.333,469.333H42.667V256h426.667
				V469.333z"/>
		</g>
	</g>
</g>
<g>
</g>
<g>
</g>
<g>
</g>
<g>
</g>
<g>
</g>
<g>
</g>
<g>
</g>
<g>
</g>
<g>
</g>
<g>
</g>
<g>
</g>
<g>
</g>
<g>
</g>
<g>
</g>
<g>
</g>
</svg>
