<?xml version="1.0" encoding="UTF-8" standalone="no"?>
<!-- Generator: Adobe Illustrator 16.0.0, SVG Export Plug-In . SVG Version: 6.00 Build 0)  -->

<svg
   version="1.1"
   id="Capa_1"
   x="0px"
   y="0px"
   width="128"
   height="128"
   viewBox="0 0 128 128"
   enable-background="new 0 0 20.004 21.08"
   xml:space="preserve"
   sodipodi:docname="PlayStation_4_L2.svg"
   inkscape:version="1.1 (c68e22c387, 2021-05-23)"
   xmlns:inkscape="http://www.inkscape.org/namespaces/inkscape"
   xmlns:sodipodi="http://sodipodi.sourceforge.net/DTD/sodipodi-0.dtd"
   xmlns="http://www.w3.org/2000/svg"
   xmlns:svg="http://www.w3.org/2000/svg"><defs
   id="defs1091" /><sodipodi:namedview
   id="namedview1089"
   pagecolor="#ffffff"
   bordercolor="#666666"
   borderopacity="1.0"
   inkscape:pageshadow="2"
   inkscape:pageopacity="0.0"
   inkscape:pagecheckerboard="0"
   showgrid="false"
   inkscape:zoom="4.4651329"
   inkscape:cx="66.403399"
   inkscape:cy="16.796813"
   inkscape:window-width="2560"
   inkscape:window-height="1366"
   inkscape:window-x="0"
   inkscape:window-y="24"
   inkscape:window-maximized="1"
   inkscape:current-layer="Capa_1" />
<g
   id="g1086"
   transform="matrix(6.0721063,0,0,6.0721063,3.2664616,-4.0199999e-7)">
	<g
   id="g1070">
		
			<linearGradient
   id="SVGID_1_"
   gradientUnits="userSpaceOnUse"
   x1="-975.36517"
   y1="0"
   x2="-975.36517"
   y2="21.080099"
   gradientTransform="translate(985.3672)">
			<stop
   offset="0"
   style="stop-color:#5A5B5E"
   id="stop1044" />
			<stop
   offset="0.2088"
   style="stop-color:#525255"
   id="stop1046" />
			<stop
   offset="0.5493"
   style="stop-color:#3B3B3D"
   id="stop1048" />
			<stop
   offset="0.9769"
   style="stop-color:#161415"
   id="stop1050" />
			<stop
   offset="1"
   style="stop-color:#141213"
   id="stop1052" />
		</linearGradient>
		<path
   fill="url(#SVGID_1_)"
   d="m 20.003,18.628 c 0,1.616 -1.308,2.451 -2.925,2.451 H 2.459 c -1.617,0 -2.606,-1.229 -2.441,-2.451 0.096,-0.702 0.42,-2.051 1.453,-5.415 C 2.207,10.818 3.524,7.055 4.965,4.901 6.728,2.267 9.292,0 12.477,0 c 2.287,0 4.641,1.411 5.822,3.928 1.707,3.635 1.705,8.795 1.705,8.795 z"
   id="path1055"
   style="fill:url(#SVGID_1_)" />
		
			<linearGradient
   id="SVGID_2_"
   gradientUnits="userSpaceOnUse"
   x1="-207.55569"
   y1="0"
   x2="-207.55569"
   y2="21.080099"
   gradientTransform="matrix(-1,0,0,1,-197.5537,0)">
			<stop
   offset="0"
   style="stop-color:#5A5B5E"
   id="stop1057" />
			<stop
   offset="0.0231"
   style="stop-color:#58595C"
   id="stop1059" />
			<stop
   offset="0.4507"
   style="stop-color:#333234"
   id="stop1061" />
			<stop
   offset="0.7912"
   style="stop-color:#1C1B1C"
   id="stop1063" />
			<stop
   offset="1"
   style="stop-color:#141213"
   id="stop1065" />
		</linearGradient>
		<path
   fill="url(#SVGID_2_)"
   d="m 12.477,1.763 c 1.738,0 3.397,1.145 4.229,2.914 1.514,3.226 1.537,8 1.537,8.048 l -10e-4,5.902 c 0,0.281 -0.091,0.376 -0.175,0.441 -0.201,0.154 -0.57,0.248 -0.988,0.248 H 2.459 C 2.188,19.316 1.973,19.239 1.85,19.099 1.812,19.056 1.75,18.967 1.765,18.863 1.864,18.137 2.319,16.458 3.157,13.729 3.661,12.085 4.991,8.031 6.428,5.882 7.458,4.344 9.613,1.763 12.477,1.763 M 12.477,0 C 9.292,0 6.728,2.267 4.965,4.902 3.524,7.055 2.207,10.819 1.471,13.214 0.438,16.578 0.114,17.927 0.018,18.629 -0.147,19.851 0.842,21.08 2.459,21.08 h 14.619 c 1.617,0 2.925,-0.835 2.925,-2.451 l 0.001,-5.905 c 0,0 0.002,-5.161 -1.705,-8.795 C 17.118,1.411 14.764,0 12.477,0 Z"
   id="path1068"
   style="fill:url(#SVGID_2_)" />
	</g>
	<g
   id="g1084">
		<g
   id="g1076">
			<path
   fill="#ffffff"
   d="M 5.688,15.924 V 8.525 h 1.549 v 6.051 h 3.666 v 1.349 H 5.688 Z"
   id="path1072" />
			<path
   fill="#ffffff"
   d="M 10.967,15.989 H 5.624 V 8.46 h 1.678 v 6.051 h 3.666 v 1.478 z m -5.215,-0.13 h 5.086 V 14.641 H 7.172 V 8.59 h -1.42 z"
   id="path1074" />
		</g>
		<g
   id="g1082">
			<path
   fill="#ffffff"
   d="m 11.282,15.924 c 0,-0.342 0.027,-0.661 0.084,-0.958 0.055,-0.297 0.162,-0.591 0.322,-0.881 0.16,-0.289 0.385,-0.582 0.674,-0.88 0.291,-0.297 0.672,-0.616 1.148,-0.958 0.268,-0.186 0.488,-0.354 0.662,-0.502 0.176,-0.148 0.314,-0.289 0.418,-0.424 0.105,-0.133 0.18,-0.268 0.225,-0.4 0.043,-0.135 0.066,-0.279 0.066,-0.435 0,-0.187 -0.027,-0.343 -0.078,-0.468 C 14.75,9.891 14.678,9.791 14.586,9.717 14.492,9.643 14.383,9.59 14.256,9.561 c -0.125,-0.029 -0.26,-0.045 -0.4,-0.045 -0.334,0 -0.598,0.095 -0.791,0.284 -0.193,0.189 -0.291,0.533 -0.291,1.03 h -1.393 c 0,-0.802 0.211,-1.428 0.631,-1.877 0.42,-0.449 1.012,-0.673 1.778,-0.673 0.371,0 0.711,0.046 1.02,0.134 0.307,0.09 0.572,0.223 0.791,0.401 0.219,0.178 0.389,0.403 0.512,0.675 0.123,0.272 0.184,0.588 0.184,0.952 0,0.282 -0.037,0.538 -0.111,0.769 -0.074,0.231 -0.195,0.457 -0.361,0.68 -0.168,0.224 -0.389,0.45 -0.664,0.68 -0.273,0.23 -0.609,0.487 -1.002,0.77 -0.283,0.207 -0.52,0.433 -0.713,0.674 -0.193,0.242 -0.297,0.459 -0.313,0.652 h 3.188 v 1.259 h -5.039 z"
   id="path1078" />
			<path
   fill="#ffffff"
   d="m 16.383,15.989 h -5.166 v -0.064 c 0,-0.344 0.027,-0.67 0.084,-0.97 0.057,-0.303 0.168,-0.605 0.33,-0.9 0.162,-0.293 0.393,-0.594 0.684,-0.895 0.291,-0.297 0.682,-0.623 1.158,-0.965 0.264,-0.184 0.486,-0.352 0.658,-0.499 0.17,-0.144 0.309,-0.283 0.408,-0.413 0.1,-0.127 0.172,-0.256 0.213,-0.382 0.041,-0.126 0.063,-0.266 0.063,-0.414 0,-0.177 -0.023,-0.325 -0.072,-0.443 C 14.696,9.928 14.63,9.836 14.546,9.769 14.46,9.702 14.358,9.653 14.243,9.625 14.12,9.598 13.991,9.582 13.856,9.582 c -0.314,0 -0.566,0.09 -0.746,0.266 -0.18,0.176 -0.27,0.508 -0.27,0.984 v 0.064 h -1.523 v -0.064 c 0,-0.814 0.219,-1.462 0.646,-1.922 0.432,-0.461 1.045,-0.694 1.826,-0.694 0.375,0 0.725,0.046 1.037,0.137 0.316,0.091 0.59,0.229 0.814,0.413 0.224,0.184 0.404,0.419 0.529,0.697 0.127,0.278 0.191,0.607 0.191,0.979 0,0.288 -0.039,0.554 -0.115,0.788 -0.076,0.237 -0.201,0.473 -0.373,0.699 -0.17,0.227 -0.395,0.459 -0.672,0.691 -0.275,0.23 -0.615,0.49 -1.008,0.771 -0.275,0.203 -0.512,0.426 -0.699,0.662 -0.16,0.2 -0.26,0.385 -0.289,0.546 h 3.178 v 1.39 z m -5.037,-0.13 h 4.908 V 14.73 h -3.193 l 0.006,-0.069 c 0.016,-0.206 0.125,-0.437 0.326,-0.688 0.195,-0.245 0.439,-0.476 0.725,-0.687 0.391,-0.279 0.727,-0.537 1,-0.766 0.27,-0.227 0.49,-0.452 0.652,-0.67 0.162,-0.215 0.281,-0.438 0.354,-0.66 0.07,-0.223 0.107,-0.474 0.107,-0.749 0,-0.354 -0.061,-0.665 -0.178,-0.927 -0.119,-0.26 -0.285,-0.479 -0.494,-0.649 -0.211,-0.173 -0.469,-0.304 -0.77,-0.39 -0.301,-0.087 -0.637,-0.131 -1,-0.131 -0.744,0 -1.326,0.22 -1.73,0.653 -0.395,0.423 -0.6,1.019 -0.611,1.769 h 1.262 c 0.01,-0.479 0.113,-0.82 0.311,-1.012 0.203,-0.201 0.484,-0.303 0.836,-0.303 0.145,0 0.283,0.016 0.416,0.047 0.135,0.031 0.254,0.088 0.354,0.168 0.102,0.08 0.182,0.19 0.238,0.326 0.053,0.133 0.082,0.3 0.082,0.493 0,0.162 -0.023,0.315 -0.07,0.454 -0.047,0.141 -0.125,0.282 -0.232,0.422 -0.107,0.137 -0.252,0.281 -0.428,0.433 -0.176,0.149 -0.4,0.319 -0.668,0.505 -0.469,0.338 -0.852,0.658 -1.139,0.95 -0.283,0.292 -0.508,0.583 -0.664,0.866 -0.156,0.283 -0.262,0.572 -0.316,0.861 -0.053,0.275 -0.08,0.572 -0.084,0.883 z"
   id="path1080" />
		</g>
	</g>
</g>
</svg>
