<?xml version="1.0" encoding="UTF-8" standalone="no"?>
<!-- Generator: Adobe Illustrator 16.0.0, SVG Export Plug-In . SVG Version: 6.00 Build 0)  -->

<svg
   version="1.1"
   id="Capa_1"
   x="0px"
   y="0px"
   width="128"
   height="128"
   viewBox="0 0 128 128.00001"
   enable-background="new 0 0 20.001 19.842"
   xml:space="preserve"
   sodipodi:docname="PlayStation_4_Dpad_Down.svg"
   inkscape:version="1.1 (c68e22c387, 2021-05-23)"
   xmlns:inkscape="http://www.inkscape.org/namespaces/inkscape"
   xmlns:sodipodi="http://sodipodi.sourceforge.net/DTD/sodipodi-0.dtd"
   xmlns="http://www.w3.org/2000/svg"
   xmlns:svg="http://www.w3.org/2000/svg"><defs
   id="defs95" /><sodipodi:namedview
   id="namedview93"
   pagecolor="#ffffff"
   bordercolor="#666666"
   borderopacity="1.0"
   inkscape:pageshadow="2"
   inkscape:pageopacity="0.0"
   inkscape:pagecheckerboard="0"
   showgrid="false"
   inkscape:zoom="2.3718628"
   inkscape:cx="-121.63435"
   inkscape:cy="27.82623"
   inkscape:window-width="2560"
   inkscape:window-height="1366"
   inkscape:window-x="0"
   inkscape:window-y="24"
   inkscape:window-maximized="1"
   inkscape:current-layer="Capa_1" />
<g
   id="g90"
   transform="scale(6.39968,6.4509626)">
	<g
   id="g16">
		
			<linearGradient
   id="SVGID_1_"
   gradientUnits="userSpaceOnUse"
   x1="-132.3262"
   y1="-295.40631"
   x2="-132.3262"
   y2="-286.88571"
   gradientTransform="rotate(180,-61.1621,-137.78225)">
			<stop
   offset="0.3"
   style="stop-color:#0044A1"
   id="stop2" />
			<stop
   offset="1"
   style="stop-color:#5FB1DA"
   id="stop4" />
		</linearGradient>
		<path
   fill="url(#SVGID_1_)"
   d="m 6.669,14.292 3.332,-2.971 3.332,2.971 v 4.436 c 0,0.615 -0.5,1.114 -1.115,1.114 H 7.782 c -0.615,0 -1.113,-0.499 -1.113,-1.114 z"
   id="path7"
   style="fill:url(#SVGID_1_)" />
		<linearGradient
   id="SVGID_2_"
   gradientUnits="userSpaceOnUse"
   x1="10.001"
   y1="19.841801"
   x2="10.001"
   y2="11.3213">
			<stop
   offset="0.3"
   style="stop-color:#1B388A"
   id="stop9" />
			<stop
   offset="1"
   style="stop-color:#5FB1DA"
   id="stop11" />
		</linearGradient>
		<path
   fill="url(#SVGID_2_)"
   d="m 10.001,12.191 2.682,2.392 v 4.145 c 0,0.256 -0.209,0.465 -0.465,0.465 H 7.782 c -0.256,0 -0.464,-0.209 -0.464,-0.465 v -4.145 l 2.683,-2.392 m 0,-0.87 -3.332,2.971 v 4.436 c 0,0.615 0.498,1.114 1.113,1.114 h 4.436 c 0.615,0 1.115,-0.499 1.115,-1.114 v -4.436 z"
   id="path14"
   style="fill:url(#SVGID_2_)" />
	</g>
	<g
   id="g40">
		<linearGradient
   id="SVGID_3_"
   gradientUnits="userSpaceOnUse"
   x1="10.001"
   y1="8.5205002"
   x2="10.001"
   y2="0.00048828131">
			<stop
   offset="0.3"
   style="stop-color:#1E1E1E"
   id="stop18" />
			<stop
   offset="1"
   style="stop-color:#5B5B5F"
   id="stop20" />
		</linearGradient>
		<path
   fill="url(#SVGID_3_)"
   d="M 13.332,5.55 10.001,8.521 6.669,5.55 V 1.114 C 6.669,0.499 7.167,0 7.782,0 h 4.436 c 0.615,0 1.114,0.499 1.114,1.114 z"
   id="path23"
   style="fill:url(#SVGID_3_)" />
		<linearGradient
   id="SVGID_4_"
   gradientUnits="userSpaceOnUse"
   x1="10.001"
   y1="8.5205002"
   x2="10.001"
   y2="0.00048828131">
			<stop
   offset="0"
   style="stop-color:#141414"
   id="stop25" />
			<stop
   offset="0.2261"
   style="stop-color:#181818"
   id="stop27" />
			<stop
   offset="0.4603"
   style="stop-color:#242425"
   id="stop29" />
			<stop
   offset="0.6982"
   style="stop-color:#373739"
   id="stop31" />
			<stop
   offset="0.9374"
   style="stop-color:#535356"
   id="stop33" />
			<stop
   offset="1"
   style="stop-color:#5B5B5F"
   id="stop35" />
		</linearGradient>
		<path
   fill="url(#SVGID_4_)"
   d="m 12.218,0.65 c 0.256,0 0.465,0.208 0.465,0.464 V 5.259 L 10.001,7.65 7.317,5.259 V 1.114 C 7.317,0.858 7.526,0.65 7.782,0.65 h 4.436 m 0,-0.65 H 7.782 C 7.167,0 6.669,0.499 6.669,1.114 V 5.55 L 10.001,8.521 13.332,5.55 V 1.114 C 13.332,0.499 12.833,0 12.218,0 Z"
   id="path38"
   style="fill:url(#SVGID_4_)" />
	</g>
	<g
   id="g64">
		
			<linearGradient
   id="SVGID_5_"
   gradientUnits="userSpaceOnUse"
   x1="-104.7935"
   y1="-205.3506"
   x2="-111.4575"
   y2="-205.3506"
   gradientTransform="rotate(90,-153.82865,-35.78175)">
			<stop
   offset="0.3"
   style="stop-color:#1E1E1E"
   id="stop42" />
			<stop
   offset="1"
   style="stop-color:#5B5B5F"
   id="stop44" />
		</linearGradient>
		<path
   fill="url(#SVGID_5_)"
   d="M 14.45,13.253 11.479,9.921 14.45,6.589 h 4.438 c 0.615,0 1.113,0.499 1.113,1.114 v 4.437 c 0,0.614 -0.5,1.113 -1.113,1.113 z"
   id="path47"
   style="fill:url(#SVGID_5_)" />
		<linearGradient
   id="SVGID_6_"
   gradientUnits="userSpaceOnUse"
   x1="15.7402"
   y1="13.2529"
   x2="15.7402"
   y2="6.5889001">
			<stop
   offset="0"
   style="stop-color:#141414"
   id="stop49" />
			<stop
   offset="0.2325"
   style="stop-color:#181818"
   id="stop51" />
			<stop
   offset="0.4734"
   style="stop-color:#242425"
   id="stop53" />
			<stop
   offset="0.7181"
   style="stop-color:#373739"
   id="stop55" />
			<stop
   offset="0.9641"
   style="stop-color:#525256"
   id="stop57" />
			<stop
   offset="1"
   style="stop-color:#57575B"
   id="stop59" />
		</linearGradient>
		<path
   fill="url(#SVGID_6_)"
   d="m 18.888,7.239 c 0.256,0 0.463,0.207 0.463,0.464 v 4.437 c 0,0.256 -0.207,0.463 -0.463,0.463 H 14.742 L 12.351,9.921 14.742,7.239 h 4.146 m 0,-0.65 H 14.45 l -2.971,3.332 2.971,3.332 h 4.438 c 0.613,0 1.113,-0.499 1.113,-1.113 V 7.703 c 0,-0.615 -0.498,-1.114 -1.113,-1.114 z"
   id="path62"
   style="fill:url(#SVGID_6_)" />
	</g>
	<g
   id="g88">
		
			<linearGradient
   id="SVGID_7_"
   gradientUnits="userSpaceOnUse"
   x1="-16.8643"
   y1="-58.359901"
   x2="-10.2002"
   y2="-58.359901"
   gradientTransform="rotate(-90,29.5044,-33.1157)">
			<stop
   offset="0.3"
   style="stop-color:#1E1E1E"
   id="stop66" />
			<stop
   offset="1"
   style="stop-color:#5B5B5F"
   id="stop68" />
		</linearGradient>
		<path
   fill="url(#SVGID_7_)"
   d="M 5.55,6.589 8.521,9.921 5.55,13.253 H 1.114 C 0.499,13.253 0,12.754 0,12.14 V 7.702 C 0,7.088 0.499,6.589 1.114,6.589 Z"
   id="path71"
   style="fill:url(#SVGID_7_)" />
		<linearGradient
   id="SVGID_8_"
   gradientUnits="userSpaceOnUse"
   x1="4.2607002"
   y1="13.2529"
   x2="4.2607002"
   y2="6.5889001">
			<stop
   offset="0"
   style="stop-color:#141414"
   id="stop73" />
			<stop
   offset="0.2261"
   style="stop-color:#181818"
   id="stop75" />
			<stop
   offset="0.4603"
   style="stop-color:#242425"
   id="stop77" />
			<stop
   offset="0.6982"
   style="stop-color:#373739"
   id="stop79" />
			<stop
   offset="0.9374"
   style="stop-color:#535356"
   id="stop81" />
			<stop
   offset="1"
   style="stop-color:#5B5B5F"
   id="stop83" />
		</linearGradient>
		<path
   fill="url(#SVGID_8_)"
   d="M 5.259,7.239 7.65,9.921 5.259,12.603 H 1.114 c -0.256,0 -0.465,-0.207 -0.465,-0.463 V 7.702 c 0,-0.256 0.209,-0.463 0.465,-0.463 H 5.259 M 5.55,6.589 H 1.114 C 0.499,6.589 0,7.088 0,7.702 v 4.438 c 0,0.614 0.499,1.113 1.114,1.113 H 5.55 L 8.521,9.921 Z"
   id="path86"
   style="fill:url(#SVGID_8_)" />
	</g>
</g>
</svg>
