<?xml version="1.0" encoding="UTF-8" standalone="no"?>
<!-- Generator: Adobe Illustrator 16.0.0, SVG Export Plug-In . SVG Version: 6.00 Build 0)  -->

<svg
   version="1.1"
   id="Capa_1"
   x="0px"
   y="0px"
   width="128"
   height="128"
   viewBox="0 0 128 128"
   enable-background="new 0 0 20.007 20.006"
   xml:space="preserve"
   sodipodi:docname="PlayStation_Home.svg"
   inkscape:version="1.1 (c68e22c387, 2021-05-23)"
   xmlns:inkscape="http://www.inkscape.org/namespaces/inkscape"
   xmlns:sodipodi="http://sodipodi.sourceforge.net/DTD/sodipodi-0.dtd"
   xmlns="http://www.w3.org/2000/svg"
   xmlns:svg="http://www.w3.org/2000/svg"><defs
   id="defs3164" /><sodipodi:namedview
   id="namedview3162"
   pagecolor="#ffffff"
   bordercolor="#666666"
   borderopacity="1.0"
   inkscape:pageshadow="2"
   inkscape:pageopacity="0.0"
   inkscape:pagecheckerboard="0"
   showgrid="false"
   inkscape:zoom="2.3524192"
   inkscape:cx="147.29517"
   inkscape:cy="-31.031884"
   inkscape:window-width="2560"
   inkscape:window-height="1366"
   inkscape:window-x="0"
   inkscape:window-y="24"
   inkscape:window-maximized="1"
   inkscape:current-layer="Capa_1" />
<g
   id="g3153"
   transform="scale(6.3977608,6.3980804)">
	
		<linearGradient
   id="SVGID_1_"
   gradientUnits="userSpaceOnUse"
   x1="96.000504"
   y1="355.99561"
   x2="116.0068"
   y2="355.99561"
   gradientTransform="rotate(90,231,134.9995)">
		<stop
   offset="0"
   style="stop-color:#5B5B5F"
   id="stop3133" />
		<stop
   offset="1"
   style="stop-color:#141414"
   id="stop3135" />
	</linearGradient>
	<circle
   fill="url(#SVGID_1_)"
   cx="10.003"
   cy="10.003"
   r="10.003"
   id="circle3138"
   style="fill:url(#SVGID_1_)" />
	<linearGradient
   id="SVGID_2_"
   gradientUnits="userSpaceOnUse"
   x1="10.0034"
   y1="0"
   x2="10.0034"
   y2="20.0063">
		<stop
   offset="0"
   style="stop-color:#5B5B5F"
   id="stop3140" />
		<stop
   offset="0.0231"
   style="stop-color:#59595D"
   id="stop3142" />
		<stop
   offset="0.4507"
   style="stop-color:#333335"
   id="stop3144" />
		<stop
   offset="0.7912"
   style="stop-color:#1C1C1D"
   id="stop3146" />
		<stop
   offset="1"
   style="stop-color:#141414"
   id="stop3148" />
	</linearGradient>
	<path
   fill="url(#SVGID_2_)"
   d="m 10.003,1.291 c 4.804,0 8.713,3.909 8.713,8.713 0,4.804 -3.909,8.712 -8.713,8.712 -4.803,0 -8.712,-3.909 -8.712,-8.712 0,-4.803 3.909,-8.713 8.712,-8.713 M 10.003,0 C 4.479,0 0,4.479 0,10.003 c 0,5.524 4.479,10.003 10.003,10.003 5.525,0 10.004,-4.479 10.004,-10.003 C 20.007,4.479 15.528,0 10.003,0 Z"
   id="path3151"
   style="fill:url(#SVGID_2_)" />
</g>
<path
   fill="#ffffff"
   d="m 80.131954,68.86254 c 2.687059,0 4.939071,-1.087674 6.51292,-3.141458 1.701805,-2.220134 2.597491,-5.547135 2.597491,-9.622713 0,-11.791662 -3.9986,-16.942117 -16.461438,-21.216034 C 68.833508,33.545136 59.953416,30.787563 53.280552,29.437568 V 94.22453 l 13.166591,4.177947 V 43.814055 c 0,-3.378187 1.893738,-5.470359 4.305694,-4.670599 3.608337,0.998101 3.608337,5.086474 3.608337,6.628412 v 21.715084 c 2.047283,0.908528 3.985805,1.375588 5.77078,1.375588 z"
   id="path3155"
   style="stroke-width:6.39792" />
<path
   fill="#ffffff"
   d="m 108.71715,82.362489 c 0.5694,-0.716585 0.74854,-1.458762 0.52461,-2.194541 -0.2751,-0.90213 -1.45229,-2.642407 -6.17383,-4.139558 -5.873148,-2.226532 -13.927929,-3.160652 -20.52402,-2.450465 -6.365772,0.703789 -10.978558,2.316105 -11.02974,2.335299 l -0.287899,0.09597 v 7.012296 l 14.874794,-5.240028 c 2.853401,-1.023693 7.267856,-1.254024 9.654221,-0.473458 1.7146,0.563031 2.08567,1.46516 2.092067,2.124163 0.0064,0.786963 -0.505423,1.906628 -3.006947,2.802359 L 71.226271,90.6544 v 6.685994 L 102.89519,85.971007 c 0.0384,-0.0128 4.20333,-1.56753 5.82196,-3.608518 z"
   id="path3157"
   style="stroke-width:6.39792" />
<path
   fill="#ffffff"
   d="M 48.437447,69.931019 28.092568,77.16085 c -0.07038,0.02559 -5.137402,1.708287 -8.061179,3.870839 -1.036437,0.767769 -1.503474,1.714685 -1.330734,2.667999 0.326286,1.778667 2.65507,3.435769 6.218623,4.440268 7.453392,2.463261 15.271455,3.090273 22.827211,1.849045 l 0.68456,-0.115165 v -5.655903 l -6.173839,2.239328 c -2.853401,1.023693 -7.274254,1.254024 -9.660619,0.473458 -1.7146,-0.563031 -2.08567,-1.465161 -2.092068,-2.124163 -0.0128,-0.786964 0.505424,-1.906628 3.013346,-2.808757 l 14.919578,-5.342397 z"
   id="path3159"
   style="stroke-width:6.39792" />
</svg>
