<?xml version="1.0" encoding="UTF-8" standalone="no"?>
<!-- Generator: Adobe Illustrator 16.0.0, SVG Export Plug-In . SVG Version: 6.00 Build 0)  -->

<svg
   version="1.1"
   id="Capa_1"
   x="0px"
   y="0px"
   width="128"
   height="128"
   viewBox="0 0 128 128"
   enable-background="new 0 0 20.004 19.846"
   xml:space="preserve"
   sodipodi:docname="PlayStation_4_Dpad_Up.svg"
   inkscape:version="1.1 (c68e22c387, 2021-05-23)"
   xmlns:inkscape="http://www.inkscape.org/namespaces/inkscape"
   xmlns:sodipodi="http://sodipodi.sourceforge.net/DTD/sodipodi-0.dtd"
   xmlns="http://www.w3.org/2000/svg"
   xmlns:svg="http://www.w3.org/2000/svg"><defs
   id="defs95" /><sodipodi:namedview
   id="namedview93"
   pagecolor="#ffffff"
   bordercolor="#666666"
   borderopacity="1.0"
   inkscape:pageshadow="2"
   inkscape:pageopacity="0.0"
   inkscape:pagecheckerboard="0"
   showgrid="false"
   inkscape:zoom="4.7427692"
   inkscape:cx="2.6355911"
   inkscape:cy="46.808097"
   inkscape:window-width="2560"
   inkscape:window-height="1366"
   inkscape:window-x="0"
   inkscape:window-y="24"
   inkscape:window-maximized="1"
   inkscape:current-layer="Capa_1" />
<g
   id="g90"
   transform="scale(6.3987203,6.4499874)">
	<g
   id="g16">
		<linearGradient
   id="SVGID_1_"
   gradientUnits="userSpaceOnUse"
   x1="10.002"
   y1="8.5228996"
   x2="10.002"
   y2="0">
			<stop
   offset="0.3"
   style="stop-color:#0044A1"
   id="stop2" />
			<stop
   offset="1"
   style="stop-color:#5FB1DA"
   id="stop4" />
		</linearGradient>
		<path
   fill="url(#SVGID_1_)"
   d="M 13.335,5.551 10.002,8.523 6.67,5.551 V 1.114 C 6.67,0.499 7.168,0 7.783,0 h 4.438 c 0.615,0 1.114,0.499 1.114,1.114 z"
   id="path7"
   style="fill:url(#SVGID_1_)" />
		<linearGradient
   id="SVGID_2_"
   gradientUnits="userSpaceOnUse"
   x1="10.002"
   y1="8.5228996"
   x2="10.002"
   y2="0">
			<stop
   offset="0.3"
   style="stop-color:#1B388A"
   id="stop9" />
			<stop
   offset="1"
   style="stop-color:#5FB1DA"
   id="stop11" />
		</linearGradient>
		<path
   fill="url(#SVGID_2_)"
   d="m 12.221,0.65 c 0.256,0 0.465,0.208 0.465,0.464 V 5.26 L 10.002,7.652 7.319,5.26 V 1.114 C 7.319,0.858 7.527,0.65 7.783,0.65 h 4.438 m 0,-0.65 H 7.783 C 7.168,0 6.67,0.499 6.67,1.114 v 4.437 l 3.332,2.972 3.333,-2.972 V 1.114 C 13.335,0.499 12.836,0 12.221,0 Z"
   id="path14"
   style="fill:url(#SVGID_2_)" />
	</g>
	<g
   id="g40">
		
			<linearGradient
   id="SVGID_3_"
   gradientUnits="userSpaceOnUse"
   x1="-98.903801"
   y1="-262.10739"
   x2="-98.903801"
   y2="-253.5845"
   gradientTransform="rotate(180,-44.4502,-121.13085)">
			<stop
   offset="0.3"
   style="stop-color:#1E1E1E"
   id="stop18" />
			<stop
   offset="1"
   style="stop-color:#5B5B5F"
   id="stop20" />
		</linearGradient>
		<path
   fill="url(#SVGID_3_)"
   d="m 6.67,14.294 3.332,-2.972 3.333,2.972 v 4.437 c 0,0.616 -0.499,1.114 -1.114,1.114 H 7.783 c -0.615,0 -1.113,-0.499 -1.113,-1.114 z"
   id="path23"
   style="fill:url(#SVGID_3_)" />
		<linearGradient
   id="SVGID_4_"
   gradientUnits="userSpaceOnUse"
   x1="10.002"
   y1="19.845699"
   x2="10.002"
   y2="11.3228">
			<stop
   offset="0"
   style="stop-color:#141414"
   id="stop25" />
			<stop
   offset="0.2261"
   style="stop-color:#181818"
   id="stop27" />
			<stop
   offset="0.4603"
   style="stop-color:#242425"
   id="stop29" />
			<stop
   offset="0.6982"
   style="stop-color:#373739"
   id="stop31" />
			<stop
   offset="0.9374"
   style="stop-color:#535356"
   id="stop33" />
			<stop
   offset="1"
   style="stop-color:#5B5B5F"
   id="stop35" />
		</linearGradient>
		<path
   fill="url(#SVGID_4_)"
   d="m 10.002,12.194 2.684,2.392 v 4.146 c 0,0.256 -0.209,0.464 -0.465,0.464 H 7.783 c -0.256,0 -0.464,-0.208 -0.464,-0.464 v -4.146 l 2.683,-2.392 m 0,-0.871 -3.332,2.971 v 4.437 c 0,0.616 0.498,1.114 1.113,1.114 h 4.438 c 0.615,0 1.114,-0.499 1.114,-1.114 v -4.437 z"
   id="path38"
   style="fill:url(#SVGID_4_)" />
	</g>
	<g
   id="g64">
		
			<linearGradient
   id="SVGID_5_"
   gradientUnits="userSpaceOnUse"
   x1="-104.73"
   y1="-171.9902"
   x2="-111.3955"
   y2="-171.9902"
   gradientTransform="rotate(90,-137.1167,-19.1304)">
			<stop
   offset="0.3"
   style="stop-color:#1E1E1E"
   id="stop42" />
			<stop
   offset="1"
   style="stop-color:#5B5B5F"
   id="stop44" />
		</linearGradient>
		<path
   fill="url(#SVGID_5_)"
   d="M 14.453,13.256 11.482,9.923 14.453,6.59 h 4.438 c 0.615,0 1.113,0.499 1.113,1.114 v 4.437 c 0,0.615 -0.498,1.114 -1.113,1.114 h -4.438 z"
   id="path47"
   style="fill:url(#SVGID_5_)" />
		<linearGradient
   id="SVGID_6_"
   gradientUnits="userSpaceOnUse"
   x1="15.7432"
   y1="13.2559"
   x2="15.7432"
   y2="6.5903001">
			<stop
   offset="0"
   style="stop-color:#141414"
   id="stop49" />
			<stop
   offset="0.2325"
   style="stop-color:#181818"
   id="stop51" />
			<stop
   offset="0.4734"
   style="stop-color:#242425"
   id="stop53" />
			<stop
   offset="0.7181"
   style="stop-color:#373739"
   id="stop55" />
			<stop
   offset="0.9641"
   style="stop-color:#525256"
   id="stop57" />
			<stop
   offset="1"
   style="stop-color:#57575B"
   id="stop59" />
		</linearGradient>
		<path
   fill="url(#SVGID_6_)"
   d="m 18.891,7.24 c 0.256,0 0.465,0.208 0.465,0.464 v 4.437 c 0,0.255 -0.209,0.464 -0.465,0.464 H 14.745 L 12.354,9.922 14.745,7.239 h 4.146 m 0,-0.649 h -4.438 l -2.971,3.333 2.971,3.333 h 4.438 c 0.615,0 1.113,-0.5 1.113,-1.114 V 7.705 c 0,-0.616 -0.498,-1.115 -1.113,-1.115 z"
   id="path62"
   style="fill:url(#SVGID_6_)" />
	</g>
	<g
   id="g88">
		
			<linearGradient
   id="SVGID_7_"
   gradientUnits="userSpaceOnUse"
   x1="16.496099"
   y1="-58.419399"
   x2="23.1621"
   y2="-58.419399"
   gradientTransform="rotate(-90,46.21635,-16.46435)">
			<stop
   offset="0.3"
   style="stop-color:#1E1E1E"
   id="stop66" />
			<stop
   offset="1"
   style="stop-color:#5B5B5F"
   id="stop68" />
		</linearGradient>
		<path
   fill="url(#SVGID_7_)"
   d="M 5.551,6.59 8.523,9.923 5.551,13.256 H 1.114 C 0.498,13.256 0,12.756 0,12.142 V 7.704 C 0,7.089 0.498,6.59 1.114,6.59 Z"
   id="path71"
   style="fill:url(#SVGID_7_)" />
		<linearGradient
   id="SVGID_8_"
   gradientUnits="userSpaceOnUse"
   x1="4.2617002"
   y1="13.2559"
   x2="4.2617002"
   y2="6.5897999">
			<stop
   offset="0"
   style="stop-color:#141414"
   id="stop73" />
			<stop
   offset="0.2261"
   style="stop-color:#181818"
   id="stop75" />
			<stop
   offset="0.4603"
   style="stop-color:#242425"
   id="stop77" />
			<stop
   offset="0.6982"
   style="stop-color:#373739"
   id="stop79" />
			<stop
   offset="0.9374"
   style="stop-color:#535356"
   id="stop81" />
			<stop
   offset="1"
   style="stop-color:#5B5B5F"
   id="stop83" />
		</linearGradient>
		<path
   fill="url(#SVGID_8_)"
   d="M 5.26,7.24 7.652,9.923 5.26,12.605 H 1.114 C 0.858,12.605 0.65,12.397 0.65,12.141 V 7.704 C 0.65,7.449 0.858,7.24 1.114,7.24 H 5.26 M 5.551,6.59 H 1.114 C 0.498,6.59 0,7.089 0,7.704 v 4.438 c 0,0.615 0.498,1.114 1.114,1.114 H 5.551 L 8.523,9.923 Z"
   id="path86"
   style="fill:url(#SVGID_8_)" />
	</g>
</g>
</svg>
