<?xml version="1.0" encoding="iso-8859-1"?>
<!-- Generator: Adobe Illustrator 19.0.0, SVG Export Plug-In . SVG Version: 6.00 Build 0)  -->
<svg version="1.1" id="Capa_1" xmlns="http://www.w3.org/2000/svg" xmlns:xlink="http://www.w3.org/1999/xlink" x="0px" y="0px"
	 viewBox="0 0 430.655 430.655" style="enable-background:new 0 0 430.655 430.655;" xml:space="preserve">
<path style="fill:#DBDBDB;" d="M421.724,274.055l-21.328-123.424c-7.217-41.752-46.914-69.749-88.666-62.532
	c-3.444,0.595-6.843,1.425-10.174,2.484c-16.076,5.07-30.019,15.324-39.648,29.16c-30.463,7.758-62.366,7.914-92.904,0.456
	c-9.623-14.052-23.678-24.474-39.92-29.6c-40.377-12.845-83.523,9.473-96.368,49.851c-1.06,3.333-1.892,6.735-2.488,10.181
	L8.892,274.055c-5.643,32.344,16.003,63.138,48.347,68.78c24.64,4.299,49.335-7.285,61.781-28.98l26.36-16.944
	c42.156-27.091,96.244-27.091,138.4,0l28.568,18.36c17.162,28.016,53.785,36.814,81.801,19.653
	c20.783-12.731,31.698-36.853,27.543-60.869L421.724,274.055z"/>
<path style="fill:#EAEAE8;" d="M18.196,220.223c16.462,33.483,50.521,54.702,87.832,54.72h218.568
	c37.31-0.016,71.367-21.236,87.824-54.72l-12-69.6c-7.217-41.752-46.914-69.748-88.666-62.532
	c-3.452,0.597-6.859,1.429-10.198,2.492c-16.076,5.07-30.019,15.324-39.648,29.16c-30.463,7.758-62.366,7.914-92.904,0.456
	c-9.623-14.052-23.678-24.474-39.92-29.6c-40.377-12.845-83.523,9.473-96.368,49.851c-1.06,3.333-1.892,6.735-2.488,10.181
	L18.196,220.223z"/>
<circle style="fill:#89B140;" cx="358.596" cy="198.943" r="16"/>
<circle style="fill:#FBB540;" cx="278.596" cy="198.943" r="16"/>
<circle style="fill:#1F6C8C;" cx="318.596" cy="158.943" r="16"/>
<circle style="fill:#F86688;" cx="318.596" cy="238.943" r="16"/>
<g>
	<path style="fill:none;stroke:#8ACED8;stroke-width:2;stroke-linecap:round;stroke-miterlimit:10;" d="M182.596,246.943h16"/>
	<path style="fill:none;stroke:#8ACED8;stroke-width:2;stroke-linecap:round;stroke-miterlimit:10;" d="M230.596,246.943h16"/>
</g>
<path style="fill:#62666A;" d="M158.596,182.943h-24v-24h-32v24h-24v32h24v24h32v-24h24V182.943z"/>
<path d="M0.996,272.703c-6.345,36.738,18.294,71.663,55.031,78.007c3.81,0.658,7.67,0.987,11.537,0.985
	c23.405,0.008,45.129-12.163,57.344-32.128l24.8-15.928c39.546-25.345,90.23-25.345,129.776,0l27.112,17.408
	c20.335,31.226,62.133,40.056,93.36,19.721c4.863-3.167,9.297-6.948,13.192-11.249c13.997-15.358,20.089-36.334,16.496-56.8
	l-21.368-123.448c-7.968-46.115-51.81-77.04-97.925-69.072c-3.806,0.658-7.562,1.574-11.243,2.744
	c-16.757,5.266-31.435,15.665-41.96,29.728c-27.398,6.498-55.92,6.646-83.384,0.432c-10.536-14.272-25.328-24.832-42.248-30.16
	l-0.336-0.096c-44.645-13.988-92.177,10.865-106.164,55.51c-1.118,3.568-1.998,7.206-2.636,10.89L0.996,272.703z M70.124,104.967
	c16.972-10.314,37.578-12.78,56.504-6.76l0.296,0.088c14.442,4.615,26.927,13.924,35.472,26.448
	c1.111,1.622,2.779,2.778,4.688,3.248c31.822,7.748,65.058,7.58,96.8-0.488c1.87-0.47,3.503-1.608,4.592-3.2
	c8.602-12.411,21.095-21.602,35.504-26.12c36.169-11.499,74.812,8.501,86.31,44.67c0.949,2.984,1.692,6.029,2.226,9.114
	l21.328,123.456c4.845,28.025-13.946,54.671-41.971,59.516c-6.631,1.146-13.422,0.982-19.989-0.484
	c-13.6-3.06-25.388-11.484-32.688-23.36c-0.627-1.027-1.477-1.899-2.488-2.552l-28.568-18.4c-44.818-28.74-102.27-28.74-147.088,0
	l-26.36,16.944c-1.074,0.69-1.965,1.629-2.6,2.736c-14.181,24.632-45.646,33.104-70.278,18.923
	c-18.701-10.767-28.699-32.056-25.042-53.323l21.336-123.432c3.38-19.567,15.061-36.715,32.032-47.024L70.124,104.967z"/>
<path d="M334.596,198.943c0,13.255,10.745,24,24,24s24-10.745,24-24c0-13.255-10.745-24-24-24S334.596,185.688,334.596,198.943z
	 M358.596,190.943c4.418,0,8,3.582,8,8s-3.582,8-8,8s-8-3.582-8-8S354.177,190.943,358.596,190.943z"/>
<path d="M278.596,222.943c13.255,0,24-10.745,24-24c0-13.255-10.745-24-24-24s-24,10.745-24,24
	C254.596,212.198,265.341,222.943,278.596,222.943z M278.596,190.943c4.418,0,8,3.582,8,8s-3.582,8-8,8s-8-3.582-8-8
	S274.177,190.943,278.596,190.943z"/>
<path d="M318.596,182.943c13.255,0,24-10.745,24-24s-10.745-24-24-24s-24,10.745-24,24S305.341,182.943,318.596,182.943z
	 M318.596,150.943c4.418,0,8,3.582,8,8s-3.582,8-8,8s-8-3.582-8-8S314.177,150.943,318.596,150.943z"/>
<path d="M318.596,214.943c-13.255,0-24,10.745-24,24s10.745,24,24,24s24-10.745,24-24S331.851,214.943,318.596,214.943z
	 M318.596,246.943c-4.418,0-8-3.582-8-8s3.582-8,8-8s8,3.582,8,8S323.014,246.943,318.596,246.943z"/>
<path d="M182.596,254.943h16c4.418,0,8-3.582,8-8s-3.582-8-8-8h-16c-4.418,0-8,3.582-8,8S178.177,254.943,182.596,254.943z"/>
<path d="M230.596,254.943h16c4.418,0,8-3.582,8-8s-3.582-8-8-8h-16c-4.418,0-8,3.582-8,8S226.177,254.943,230.596,254.943z"/>
<path d="M78.596,222.943h16v16c0,4.418,3.582,8,8,8h32c4.418,0,8-3.582,8-8v-16h16c4.418,0,8-3.582,8-8v-32c0-4.418-3.582-8-8-8h-16
	v-16c0-4.418-3.582-8-8-8h-32c-4.418,0-8,3.582-8,8v16h-16c-4.418,0-8,3.582-8,8v32C70.596,219.361,74.177,222.943,78.596,222.943z
	 M86.596,190.943h16c4.418,0,8-3.582,8-8v-16h16v16c0,4.418,3.582,8,8,8h16v16h-16c-4.418,0-8,3.582-8,8v16h-16v-16
	c0-4.418-3.582-8-8-8h-16V190.943z"/>
<g>
</g>
<g>
</g>
<g>
</g>
<g>
</g>
<g>
</g>
<g>
</g>
<g>
</g>
<g>
</g>
<g>
</g>
<g>
</g>
<g>
</g>
<g>
</g>
<g>
</g>
<g>
</g>
<g>
</g>
</svg>
