<?xml version="1.0" encoding="UTF-8" standalone="no"?>
<svg
   width="128"
   height="128"
   viewBox="0.047 1.287 10.041242 10.041579"
   version="1.1"
   id="svg57"
   sodipodi:docname="Xbox_360_Home.svg"
   inkscape:version="1.1 (c68e22c387, 2021-05-23)"
   xmlns:inkscape="http://www.inkscape.org/namespaces/inkscape"
   xmlns:sodipodi="http://sodipodi.sourceforge.net/DTD/sodipodi-0.dtd"
   xmlns="http://www.w3.org/2000/svg"
   xmlns:svg="http://www.w3.org/2000/svg">
  <defs
     id="defs61" />
  <sodipodi:namedview
     id="namedview59"
     pagecolor="#ffffff"
     bordercolor="#666666"
     borderopacity="1.0"
     inkscape:pageshadow="2"
     inkscape:pageopacity="0.0"
     inkscape:pagecheckerboard="0"
     showgrid="false"
     inkscape:zoom="4"
     inkscape:cx="156.875"
     inkscape:cy="100.75"
     inkscape:window-width="2560"
     inkscape:window-height="1366"
     inkscape:window-x="0"
     inkscape:window-y="24"
     inkscape:window-maximized="1"
     inkscape:current-layer="svg57" />
  <path
     fill="#666666"
     d="M 10.08841,6.3077897 C 10.089024,9.0492322 7.8413205,11.272206 5.068389,11.272513 2.2954062,11.272821 0.04713878,9.0506658 0.04683157,6.3092745 v -0.00143 C 0.04621715,3.5659888 2.2938702,1.3433734 5.0668529,1.3430662 7.8398356,1.3427078 10.088103,3.5648624 10.08841,6.3063048 Z"
     id="path2"
     style="stroke-width:0.0512017" />
  <radialGradient
     id="a"
     cx="-10531.98"
     cy="486.67401"
     r="3.1760001"
     gradientTransform="matrix(0,2.9298648,2.601585,0,-1261.1699,30863.047)"
     gradientUnits="userSpaceOnUse">
    <stop
       offset=".259"
       stop-color="#fff"
       id="stop4" />
    <stop
       offset="1"
       stop-color="#fff"
       stop-opacity="0"
       id="stop6" />
  </radialGradient>
  <path
     fill="url(#a)"
     d="M 10.08841,6.3077897 C 10.089024,9.0492322 7.8413205,11.272206 5.068389,11.272513 2.2954062,11.272821 0.04713878,9.0506658 0.04683157,6.3092745 v -0.00143 C 0.04621715,3.5659888 2.2938702,1.3433734 5.0668529,1.3430662 7.8398356,1.3427078 10.088103,3.5648624 10.08841,6.3063048 Z"
     id="path9"
     style="fill:url(#a);stroke-width:0.0512017" />
  <path
     fill="#00a54d"
     d="M 3.7933125,4.1334063 C 3.2392075,4.8054288 0.91674878,7.5367334 1.1227845,9.3835282 1.2660981,9.5652943 1.4241578,9.7349768 1.5911266,9.8955454 1.566857,8.4818147 3.2257415,6.9688551 4.5204794,5.8270567 L 3.7933125,4.1334575 Z"
     id="path11"
     style="stroke-width:0.0512017" />
  <g
     transform="matrix(0.05158573,0,0,0.05124473,0.10110539,-0.51130648)"
     id="g20">
    <linearGradient
       id="b"
       gradientUnits="userSpaceOnUse"
       x1="-10392.915"
       y1="484.155"
       x2="-10396.871"
       y2="488.797"
       gradientTransform="matrix(34.5549,0,0,-33.8742,359186.97,16560.232)">
      <stop
         offset="0"
         stop-color="#97ca43"
         id="stop13" />
      <stop
         offset="1"
         stop-color="#97ca43"
         stop-opacity="0"
         id="stop15" />
    </linearGradient>
    <path
       fill="url(#b)"
       d="m 71.574,90.637 c -10.742,13.114 -55.763,66.413 -51.769,102.452 2.778,3.546 5.842,6.858 9.079,9.991 -0.47,-27.588 31.687,-57.111 56.786,-79.392 z"
       id="path18"
       style="fill:url(#b)" />
  </g>
  <g
     transform="matrix(0.05158573,0,0,0.05124473,0.09398835,-0.50966803)"
     id="g31">
    <path
       fill="#02a74d"
       d="m 45.297,50.646 c -5.615,3.4 -10.829,7.394 -15.619,11.806 15.439,2.953 30.93,16.635 39.417,27.97 7.394,11.631 11.411,22.303 16.636,33.314 3.534,-3.011 7.132,-6.081 11.021,-9.226 L 96.729,66.69 C 85.226,59.494 66.212,50.024 45.483,50.635 c -0.051,0.04 -0.144,-0.018 -0.186,0.011 z"
       id="path22" />
    <linearGradient
       id="c"
       gradientUnits="userSpaceOnUse"
       x1="-10392.51"
       y1="486.04001"
       x2="-10388.887"
       y2="494.082"
       gradientTransform="matrix(34.5549,0,0,-33.8742,359172.06,16559.326)">
      <stop
         offset="0"
         stop-color="#97ca43"
         id="stop24" />
      <stop
         offset="1"
         stop-color="#97ca43"
         stop-opacity="0"
         id="stop26" />
    </linearGradient>
    <path
       fill="url(#c)"
       d="m 45.297,50.646 c -5.615,3.4 -10.829,7.394 -15.619,11.806 15.439,2.953 30.93,16.635 39.417,27.97 7.394,11.631 11.411,22.303 16.636,33.314 3.534,-3.011 7.132,-6.081 11.021,-9.226 L 96.729,66.69 C 85.226,59.494 66.212,50.024 45.483,50.635 c -0.051,0.04 -0.144,-0.018 -0.186,0.011 z"
       id="path29"
       style="fill:url(#c)" />
  </g>
  <g
     id="g55"
     transform="matrix(0.05120172,0,0,0.05120172,0.04442509,1.2771696)">
    <path
       fill="#00a54d"
       d="m 123.026,55.818 c 10.786,13.137 55.994,66.525 51.985,102.623 -2.79,3.552 -5.867,6.871 -9.116,10.01 0.473,-27.635 -31.824,-57.209 -57.024,-79.531 z"
       id="path33" />
    <g
       transform="matrix(-1.00417,0,0,1.00169,61.912,-34.932)"
       id="g42">
      <linearGradient
         id="d"
         gradientUnits="userSpaceOnUse"
         x1="918.92401"
         y1="485.819"
         x2="914.96997"
         y2="490.45801"
         gradientTransform="matrix(-34.2128,0,0,-33.9599,31356.828,16645.646)">
        <stop
           offset="0"
           stop-color="#97ca43"
           id="stop35" />
        <stop
           offset="1"
           stop-color="#97ca43"
           stop-opacity="0"
           id="stop37" />
      </linearGradient>
      <path
         fill="url(#d)"
         d="m -60.86,90.597 c -10.741,13.115 -55.762,66.413 -51.769,102.45 2.778,3.546 5.842,6.86 9.078,9.993 -0.471,-27.588 31.692,-57.112 56.787,-79.397 z"
         id="path40"
         style="fill:url(#d)" />
    </g>
    <g
       transform="matrix(-1.00417,0,0,1.00169,62.051,-34.9)"
       id="g53">
      <path
         fill="#02a74d"
         d="m -87.134,50.606 c -5.618,3.401 -10.83,7.394 -15.625,11.804 15.438,2.953 30.931,16.636 39.417,27.977 7.398,11.632 11.415,22.304 16.636,33.313 3.534,-3.012 7.132,-6.08 11.021,-9.225 l -0.023,-47.823 c -11.504,-7.196 -30.519,-16.663 -51.247,-16.054 -0.047,0.037 -0.138,-0.021 -0.179,0.008 z"
         id="path44" />
      <linearGradient
         id="e"
         gradientUnits="userSpaceOnUse"
         x1="918.51398"
         y1="487.76999"
         x2="921.61102"
         y2="492.815"
         gradientTransform="matrix(-34.2128,0,0,-33.9599,31360.857,16644.709)">
        <stop
           offset="0"
           stop-color="#97ca43"
           id="stop46" />
        <stop
           offset="1"
           stop-color="#97ca43"
           stop-opacity="0"
           id="stop48" />
      </linearGradient>
      <path
         fill="url(#e)"
         d="m -87.134,50.606 c -5.618,3.401 -10.83,7.394 -15.625,11.804 15.438,2.953 30.931,16.636 39.417,27.977 7.398,11.632 11.415,22.304 16.636,33.313 3.534,-3.012 7.132,-6.08 11.021,-9.225 l -0.023,-47.823 c -11.504,-7.196 -30.519,-16.663 -51.247,-16.054 -0.047,0.037 -0.138,-0.021 -0.179,0.008 z"
         id="path51"
         style="fill:url(#e)" />
    </g>
  </g>
</svg>
