<?xml version="1.0" encoding="iso-8859-1"?>
<!-- Generator: Adobe Illustrator 19.0.0, SVG Export Plug-In . SVG Version: 6.00 Build 0)  -->
<svg version="1.1" id="Layer_1" xmlns="http://www.w3.org/2000/svg" xmlns:xlink="http://www.w3.org/1999/xlink" x="0px" y="0px"
	 viewBox="0 0 512 512" style="enable-background:new 0 0 512 512;" xml:space="preserve">
<g>
	<path style="fill:#FFCA12;" d="M255.281,187.068v-57.149h-26.393c-1.995-6.724-4.669-13.155-7.956-19.208l18.662-18.662
		l-40.41-40.41l-18.662,18.662c-6.052-3.286-12.484-5.961-19.208-7.956V35.952h-57.149v26.392
		c-6.724,1.995-13.155,4.669-19.208,7.956L66.296,51.639l-40.41,40.41l18.662,18.662c-3.286,6.052-5.961,12.484-7.956,19.208H10.2
		v57.149h26.393c1.995,6.724,4.669,13.155,7.956,19.208l-18.662,18.662l40.41,40.41l18.662-18.662
		c6.052,3.286,12.484,5.961,19.208,7.956v26.392h57.149v-26.392c6.724-1.995,13.155-4.669,19.208-7.956l18.662,18.662l40.41-40.41
		l-18.662-18.662c3.286-6.052,5.961-12.484,7.956-19.208H255.281z M132.74,204.378c-25.341,0-45.885-20.543-45.885-45.885
		s20.543-45.885,45.885-45.885c25.341,0,45.885,20.543,45.885,45.885S158.081,204.378,132.74,204.378z"/>
	<path style="fill:#FFCA12;" d="M129.527,461.083L129.527,461.083c-19.951-19.951-19.951-52.3,0-72.251l171.087-171.087
		l72.251,72.251L201.778,461.083C181.827,481.034,149.478,481.034,129.527,461.083z"/>
</g>
<path style="fill:#6ED3FF;" d="M489.356,142.021l-76.829,76.829l-40.767-40.767l76.829-76.829
	c-38.776-21.177-88.375-15.36-121.199,17.464c-39.904,39.904-39.904,104.6,0,144.503s104.6,39.904,144.503,0
	C504.717,230.395,510.533,180.797,489.356,142.021z"/>
<path d="M132.74,102.41c-30.925,0-56.084,25.159-56.084,56.084c0,30.924,25.159,56.083,56.084,56.083s56.084-25.159,56.084-56.083
	C188.825,127.569,163.665,102.41,132.74,102.41z M132.74,194.178c-19.677,0-35.685-16.008-35.685-35.684
	c0-19.677,16.008-35.685,35.685-35.685c19.677,0,35.685,16.008,35.685,35.685C168.426,178.17,152.417,194.178,132.74,194.178z"/>
<path d="M171.515,281.034v-19.061c2.36-0.884,4.69-1.849,6.981-2.891l13.478,13.478c3.983,3.983,10.441,3.983,14.425,0l40.41-40.41
	c3.983-3.983,3.983-10.441,0-14.425l-13.478-13.478c1.041-2.291,2.006-4.62,2.891-6.981h19.061c5.632,0,10.2-4.566,10.2-10.2
	v-57.149c0-5.633-4.567-10.2-10.2-10.2h-19.062c-0.884-2.36-1.849-4.69-2.891-6.981l13.478-13.477
	c1.912-1.912,2.987-4.507,2.987-7.212s-1.075-5.3-2.987-7.212l-40.41-40.41c-3.983-3.983-10.441-3.983-14.425,0l-13.478,13.478
	c-2.291-1.041-4.62-2.006-6.981-2.891V35.953c0-5.633-4.566-10.2-10.2-10.2h-57.149c-5.633,0-10.2,4.566-10.2,10.2v19.061
	c-2.36,0.884-4.69,1.849-6.981,2.891L73.509,44.427c-3.983-3.983-10.441-3.983-14.425,0l-40.41,40.41
	c-1.912,1.912-2.987,4.507-2.987,7.212s1.075,5.3,2.987,7.212l13.477,13.477c-1.041,2.291-2.006,4.62-2.891,6.981H10.2
	c-5.633,0-10.2,4.566-10.2,10.2v57.149c0,5.633,4.566,10.2,10.2,10.2H29.26c0.884,2.36,1.849,4.69,2.891,6.981l-13.478,13.478
	c-3.983,3.983-3.983,10.441,0,14.425l40.41,40.41c3.983,3.983,10.441,3.983,14.425,0l13.478-13.478
	c2.291,1.041,4.62,2.006,6.981,2.891v19.061c0,5.633,4.566,10.2,10.2,10.2h57.149C166.949,291.233,171.515,286.667,171.515,281.034z
	 M151.116,254.642v16.193h-36.75v-16.193c0-4.515-2.969-8.494-7.298-9.778c-5.985-1.776-11.786-4.179-17.242-7.141
	c-3.968-2.155-8.883-1.443-12.079,1.751l-11.45,11.45L40.31,224.938l11.451-11.45c3.194-3.194,3.906-8.11,1.751-12.079
	c-2.963-5.456-5.365-11.257-7.141-17.241c-1.285-4.329-5.263-7.298-9.778-7.298H20.399v-36.75h16.193
	c4.515,0,8.494-2.969,9.778-7.298c1.776-5.985,4.179-11.786,7.141-17.242c2.155-3.971,1.443-8.885-1.751-12.079l-11.45-11.451
	l25.987-25.986l11.45,11.451c3.194,3.194,8.111,3.908,12.079,1.75c5.456-2.962,11.256-5.365,17.241-7.141
	c4.329-1.284,7.298-5.263,7.298-9.778V46.153h36.75v16.193c0,4.515,2.969,8.493,7.298,9.778c5.985,1.776,11.786,4.179,17.241,7.141
	c3.969,2.154,8.885,1.443,12.079-1.751l11.45-11.451l25.986,25.986l-11.45,11.45c-3.194,3.194-3.907,8.109-1.752,12.079
	c2.963,5.457,5.366,11.258,7.141,17.242c1.284,4.329,5.263,7.298,9.778,7.298h16.194v36.75h-16.194
	c-4.515,0-8.493,2.969-9.778,7.298c-1.776,5.984-4.179,11.786-7.141,17.242c-2.155,3.971-1.442,8.885,1.751,12.079l11.451,11.45
	l-25.986,25.986l-11.45-11.451c-3.196-3.194-8.11-3.906-12.079-1.751c-5.457,2.963-11.258,5.366-17.242,7.141
	C154.085,246.149,151.116,250.125,151.116,254.642z"/>
<path d="M304.856,296.967l-4.771,4.771c-3.983,3.983-3.983,10.441,0,14.425c1.992,1.992,4.602,2.987,7.212,2.987
	s5.22-0.995,7.212-2.987l4.771-4.771c3.983-3.983,3.983-10.441,0-14.425C315.296,292.983,308.84,292.983,304.856,296.967z"/>
<path d="M498.308,137.132c-1.54-2.82-4.319-4.75-7.501-5.207c-3.181-0.457-6.392,0.612-8.663,2.883l-69.617,69.617l-26.343-26.343
	l69.617-69.617c2.272-2.272,3.34-5.482,2.883-8.663s-2.387-5.96-5.207-7.501C432.602,80.9,408.066,76.399,384.38,79.628
	c-24.485,3.337-46.685,14.36-64.202,31.876c-21.226,21.226-32.915,49.446-32.915,79.463c0,7.922,0.822,15.715,2.41,23.292
	l-167.36,167.36c-11.575,11.576-17.951,26.967-17.951,43.338c0,16.371,6.376,31.762,17.951,43.339
	c11.576,11.575,26.967,17.951,43.339,17.951c16.37,0,31.762-6.376,43.338-17.952l167.416-167.416
	c7.654,1.605,15.443,2.415,23.236,2.415c28.774,0,57.558-10.956,79.463-32.862c17.517-17.517,28.538-39.717,31.877-64.202
	C514.208,182.547,509.708,158.008,498.308,137.132z M194.566,453.871c-15.943,15.945-41.884,15.944-57.827,0
	c-15.943-15.943-15.943-41.884,0-57.827l159.929-159.929c1.767,4.026,3.776,7.947,6.016,11.749L148.215,402.331
	c-5.351,5.351-8.297,12.465-8.297,20.032c0,7.567,2.947,14.681,8.297,20.031c5.351,5.351,12.464,8.297,20.031,8.297
	c7.567,0,14.681-2.947,20.032-8.297L289.971,340.7c3.983-3.983,3.983-10.441,0-14.425c-3.984-3.983-10.44-3.983-14.425,0
	L173.853,427.968c-1.497,1.498-3.488,2.322-5.607,2.322c-2.117,0-4.108-0.825-5.607-2.322c-1.497-1.497-2.322-3.488-2.322-5.607
	s0.825-4.109,2.322-5.607l152.128-152.126c1.729,1.986,3.53,3.923,5.41,5.803c10.197,10.196,21.881,18.017,34.359,23.468
	L194.566,453.871z M464.68,256.007c-35.861,35.863-94.217,35.865-130.078,0c-17.373-17.373-26.94-40.471-26.94-65.039
	s9.567-47.666,26.94-65.039c17.619-17.619,41.343-26.853,65.269-26.853c10.484,0,21.013,1.775,31.076,5.395l-66.4,66.4
	c-1.912,1.912-2.987,4.507-2.987,7.212c0,2.705,1.075,5.3,2.987,7.212l40.768,40.767c3.984,3.983,10.44,3.983,14.425,0l66.4-66.4
	C498.017,192.69,490.02,230.668,464.68,256.007z"/>
<g>
</g>
<g>
</g>
<g>
</g>
<g>
</g>
<g>
</g>
<g>
</g>
<g>
</g>
<g>
</g>
<g>
</g>
<g>
</g>
<g>
</g>
<g>
</g>
<g>
</g>
<g>
</g>
<g>
</g>
</svg>
