<?xml version="1.0" encoding="iso-8859-1"?>
<!-- Generator: Adobe Illustrator 19.0.0, SVG Export Plug-In . SVG Version: 6.00 Build 0)  -->
<svg version="1.1" id="Capa_1" xmlns="http://www.w3.org/2000/svg" xmlns:xlink="http://www.w3.org/1999/xlink" x="0px" y="0px"
	 viewBox="0 0 512 512" style="enable-background:new 0 0 512 512;" xml:space="preserve">
<g>
	<path style="fill:#AAC4DA;" d="M74.667,234.667v42.667C74.667,283.224,69.891,288,64,288H21.333
		c-5.891,0-10.667-4.776-10.667-10.667v-42.667c0-5.891,4.776-10.667,10.667-10.667H64C69.891,224,74.667,228.776,74.667,234.667z"
		/>
	<path style="fill:#AAC4DA;" d="M288,469.333v21.333c0,5.891-4.776,10.667-10.667,10.667h-42.667
		c-5.891,0-10.667-4.776-10.667-10.667V448c0-5.891,4.776-10.667,10.667-10.667h42.667c5.891,0,10.667,4.776,10.667,10.667V469.333z
		"/>
	<path style="fill:#AAC4DA;" d="M501.333,234.667v42.667c0,5.891-4.776,10.667-10.667,10.667H448
		c-5.891,0-10.667-4.776-10.667-10.667v-42.667c0-5.891,4.776-10.667,10.667-10.667h42.667
		C496.558,224,501.333,228.776,501.333,234.667z"/>
	<path style="fill:#AAC4DA;" d="M288,42.667V64c0,5.891-4.776,10.667-10.667,10.667h-42.667C228.776,74.667,224,69.891,224,64
		V21.333c0-5.891,4.776-10.667,10.667-10.667h42.667c5.891,0,10.667,4.776,10.667,10.667V42.667z"/>
</g>
<g>
	<path style="fill:#D9EEF7;" d="M74.667,469.333v21.333c0,5.891-4.776,10.667-10.667,10.667H21.333
		c-5.891,0-10.667-4.776-10.667-10.667V448c0-5.891,4.776-10.667,10.667-10.667H64c5.891,0,10.667,4.776,10.667,10.667V469.333z"/>
	<path style="fill:#D9EEF7;" d="M501.333,448v42.667c0,5.891-4.776,10.667-10.667,10.667H448c-5.891,0-10.667-4.776-10.667-10.667
		V448c0-5.891,4.776-10.667,10.667-10.667h42.667C496.558,437.333,501.333,442.109,501.333,448z"/>
	<path style="fill:#D9EEF7;" d="M501.333,21.333V64c0,5.891-4.776,10.667-10.667,10.667H448c-5.891,0-10.667-4.776-10.667-10.667
		V21.333c0-5.891,4.776-10.667,10.667-10.667h42.667C496.558,10.667,501.333,15.442,501.333,21.333z"/>
	<path style="fill:#D9EEF7;" d="M74.667,42.667V64c0,5.891-4.776,10.667-10.667,10.667H21.333c-5.891,0-10.667-4.776-10.667-10.667
		V21.333c0-5.891,4.776-10.667,10.667-10.667H64c5.891,0,10.667,4.776,10.667,10.667V42.667z"/>
</g>
<path style="fill:#FFE451;" d="M229.76,149.333c11.814-20.348,37.887-27.265,58.234-15.451
	c20.348,11.814,27.265,37.887,15.451,58.234s-37.887,27.265-58.234,15.451c-13.148-7.634-21.232-21.697-21.211-36.901
	C224.003,163.172,225.991,155.811,229.76,149.333z"/>
<path style="fill:#D9EEF7;" d="M362.667,149.333c5.891,0,10.667,4.776,10.667,10.667v149.333h-0.107l-53.44-53.472l-53.333,53.333
	l-53.547-53.579l-74.24,74.208V160c0-5.891,4.776-10.667,10.667-10.667h80.427c-5.94,10.247-7.369,22.496-3.947,33.835
	c4.285,14.516,16.022,25.621,30.752,29.099c22.888,5.605,45.986-8.405,51.591-31.293c2.631-10.742,0.988-22.086-4.583-31.641
	L362.667,149.333z"/>
<g>
	<path style="fill:#31E8BB;" d="M373.333,309.333V352c0,5.891-4.776,10.667-10.667,10.667h-42.56l-53.44-53.44L319.893,256
		l53.333,53.333H373.333z"/>
	<path style="fill:#31E8BB;" d="M320,362.667H149.333c-5.891,0-10.667-4.776-10.667-10.667v-22.293l74.24-74.133l53.547,53.547
		L320,362.667z"/>
</g>
<g>
	<path style="fill:#4C5B66;" d="M192,53.333V32H85.333V21.333C85.333,9.551,75.782,0,64,0H21.333C9.551,0,0,9.551,0,21.333V64
		c0,11.782,9.551,21.333,21.333,21.333H32V192h21.333V85.333H64c11.782,0,21.333-9.551,21.333-21.333V53.333H192z M64,64H21.333
		V21.333H64V64z"/>
	<path style="fill:#4C5B66;" d="M64,213.333H21.333C9.551,213.333,0,222.885,0,234.667v42.667c0,11.782,9.551,21.333,21.333,21.333
		H64c11.782,0,21.333-9.551,21.333-21.333v-42.667C85.333,222.885,75.782,213.333,64,213.333z M64,277.333H21.333v-42.667H64
		V277.333z"/>
	<path style="fill:#4C5B66;" d="M490.667,213.333H480V106.667h-21.333v106.667H448c-11.782,0-21.333,9.551-21.333,21.333v42.667
		c0,11.782,9.551,21.333,21.333,21.333h10.667v106.667H480V298.667h10.667c11.782,0,21.333-9.551,21.333-21.333v-42.667
		C512,222.885,502.449,213.333,490.667,213.333z M490.667,277.333H448v-42.667h42.667V277.333z"/>
	<path style="fill:#4C5B66;" d="M490.667,0H448c-11.782,0-21.333,9.551-21.333,21.333V64c0,11.782,9.551,21.333,21.333,21.333
		h42.667C502.449,85.333,512,75.782,512,64V21.333C512,9.551,502.449,0,490.667,0z M490.667,64H448V21.333h42.667V64z"/>
	<path style="fill:#4C5B66;" d="M234.667,85.333h42.667c11.782,0,21.333-9.551,21.333-21.333V53.333h106.667V32H298.667V21.333
		C298.667,9.551,289.115,0,277.333,0h-42.667c-11.782,0-21.333,9.551-21.333,21.333V64
		C213.333,75.782,222.885,85.333,234.667,85.333z M234.667,21.333h42.667V64h-42.667V21.333z"/>
	<path style="fill:#4C5B66;" d="M64,426.667H53.333V320H32v106.667H21.333C9.551,426.667,0,436.218,0,448v42.667
		C0,502.449,9.551,512,21.333,512H64c11.782,0,21.333-9.551,21.333-21.333V448C85.333,436.218,75.782,426.667,64,426.667z
		 M64,490.667H21.333V448H64V490.667z"/>
	<path style="fill:#4C5B66;" d="M490.667,426.667H448c-11.782,0-21.333,9.551-21.333,21.333v10.667H320V480h106.667v10.667
		c0,11.782,9.551,21.333,21.333,21.333h42.667c11.782,0,21.333-9.551,21.333-21.333V448
		C512,436.218,502.449,426.667,490.667,426.667z M490.667,490.667H448V448h42.667V490.667z"/>
	<path style="fill:#4C5B66;" d="M277.333,426.667h-42.667c-11.782,0-21.333,9.551-21.333,21.333v10.667H106.667V480h106.667v10.667
		c0,11.782,9.551,21.333,21.333,21.333h42.667c11.782,0,21.333-9.551,21.333-21.333V448
		C298.667,436.218,289.115,426.667,277.333,426.667z M277.333,490.667h-42.667V448h42.667V490.667z"/>
	<path style="fill:#4C5B66;" d="M149.333,160H192v-21.333h-42.667C137.551,138.667,128,148.218,128,160v192
		c0,11.782,9.551,21.333,21.333,21.333h213.333c11.782,0,21.333-9.551,21.333-21.333V160c0-11.782-9.551-21.333-21.333-21.333
		h-21.333V160h21.333v123.584l-35.339-35.339c-4.231-4.001-10.851-4.001-15.083,0l-45.792,45.792l-46.005-46.005
		c-4.165-4.164-10.917-4.164-15.083,0L149.333,304V160z M319.787,270.933l42.88,42.816V352h-38.251l-42.88-42.88L319.787,270.933z
		 M212.896,270.709L294.251,352H149.333v-17.867L212.896,270.709z"/>
	<path style="fill:#4C5B66;" d="M266.667,224c29.426-0.029,53.256-23.908,53.227-53.333c-0.029-29.426-23.908-53.256-53.333-53.227
		c-29.384,0.029-53.197,23.843-53.227,53.227C213.369,200.107,237.226,223.965,266.667,224z M239.008,154.667
		c8.794-15.275,28.306-20.53,43.582-11.736c4.878,2.808,8.927,6.857,11.736,11.736c2.842,4.853,4.34,10.376,4.341,16
		c0,17.673-14.327,32-32,32s-32-14.327-32-32C234.668,165.043,236.166,159.52,239.008,154.667L239.008,154.667z"/>
</g>
<g>
</g>
<g>
</g>
<g>
</g>
<g>
</g>
<g>
</g>
<g>
</g>
<g>
</g>
<g>
</g>
<g>
</g>
<g>
</g>
<g>
</g>
<g>
</g>
<g>
</g>
<g>
</g>
<g>
</g>
</svg>
