<?xml version="1.0" encoding="iso-8859-1"?>
<!-- Generator: Adobe Illustrator 19.0.0, SVG Export Plug-In . SVG Version: 6.00 Build 0)  -->
<svg version="1.1" id="Layer_1" xmlns="http://www.w3.org/2000/svg" xmlns:xlink="http://www.w3.org/1999/xlink" x="0px" y="0px"
	 viewBox="0 0 512 512" style="enable-background:new 0 0 512 512;" xml:space="preserve">
<rect x="23.657" y="10.894" style="fill:#EFEFEF;" width="354.043" height="490.213"/>
<rect x="67.228" y="57.191" style="fill:#F4AD47;" width="266.894" height="57.191"/>
<rect x="297.861" y="99.212" transform="matrix(0.7071 0.7071 -0.7071 0.7071 273.2801 -161.7614)" style="fill:#E8594F;" width="68.084" height="299.572"/>
<path style="fill:#61C7D2;" d="M462.061,99.916l21.177,21.177c6.825,6.825,6.825,17.889,0,24.714l-21.343,21.343l-48.143-48.143
	l21.343-21.343C441.921,90.839,455.237,93.091,462.061,99.916z"/>
<polygon style="fill:#F4AD47;" points="250.065,378.982 174.806,405.787 201.921,330.838 "/>
<g>
	<path style="fill:#231F20;" d="M345.019,114.383V57.191c0-6.016-4.878-10.894-10.894-10.894H67.232
		c-6.016,0-10.894,4.878-10.894,10.894v57.191c0,6.016,4.878,10.894,10.894,10.894h266.894
		C340.141,125.277,345.019,120.399,345.019,114.383z M323.232,103.489H78.125V68.085h245.106V103.489z"/>
	<path style="fill:#231F20;" d="M490.942,113.39l-21.177-21.177c-5.994-5.994-14.819-9.573-23.608-9.573
		c-7.38,0-14.043,2.599-18.764,7.319l-38.8,38.8V10.894C388.592,4.878,383.715,0,377.699,0H23.656
		C17.64,0,12.762,4.878,12.762,10.894v490.213c0,6.016,4.878,10.894,10.894,10.894h354.043c6.016,0,10.894-4.878,10.894-10.894
		V255.858l102.35-102.35C502.003,142.449,502.003,124.451,490.942,113.39z M366.806,490.213H34.551V21.787h332.255v128.761
		L194.217,323.136c-1.142,1.142-1.969,2.48-2.497,3.901c-0.014,0.033-0.031,0.059-0.044,0.095l-27.116,74.949
		c-1.434,3.965-0.452,8.4,2.522,11.389c2.081,2.092,4.874,3.21,7.724,3.21c1.224,0,2.459-0.206,3.653-0.632l75.259-26.805
		c1.499-0.534,2.823-1.394,3.928-2.47c0.04-0.029,0.08-0.05,0.118-0.089l109.038-109.038v212.566H366.806z M206.335,350.659
		l23.842,23.843l-37.271,13.275L206.335,350.659z M250.065,363.576l-32.738-32.738l196.426-196.426l32.738,32.738L250.065,363.576z
		 M475.537,138.104l-13.642,13.642l-32.738-32.738l13.642-13.642c0.588-0.587,1.844-0.938,3.358-0.938
		c2.951,0,6.324,1.311,8.202,3.19l21.177,21.177C478.102,131.363,478.102,135.538,475.537,138.104z"/>
	<path style="fill:#231F20;" d="M70.636,448c0,6.016,4.878,10.894,10.894,10.894h238.298c6.016,0,10.894-4.878,10.894-10.894
		c0-6.016-4.878-10.894-10.894-10.894H81.53C75.512,437.106,70.636,441.984,70.636,448z"/>
	<path style="fill:#231F20;" d="M259.232,198.809H81.53c-6.016,0-10.894,4.878-10.894,10.894c0,6.016,4.878,10.894,10.894,10.894
		h177.702c6.016,0,10.894-4.878,10.894-10.894C270.125,203.686,265.248,198.809,259.232,198.809z"/>
	<path style="fill:#231F20;" d="M304.168,151.149H200.679c-6.016,0-10.894,4.878-10.894,10.894c0,6.016,4.878,10.894,10.894,10.894
		h103.489c6.016,0,10.894-4.878,10.894-10.894C315.062,156.027,310.184,151.149,304.168,151.149z"/>
	<path style="fill:#231F20;" d="M81.53,172.936h72.851c6.016,0,10.894-4.878,10.894-10.894c0-6.016-4.878-10.894-10.894-10.894
		H81.53c-6.016,0-10.894,4.878-10.894,10.894C70.636,168.059,75.512,172.936,81.53,172.936z"/>
	<path style="fill:#231F20;" d="M212.934,246.468H81.53c-6.016,0-10.894,4.878-10.894,10.894c0,6.016,4.878,10.894,10.894,10.894
		h131.404c6.016,0,10.894-4.878,10.894-10.894C223.828,251.346,218.95,246.468,212.934,246.468z"/>
	<path style="fill:#231F20;" d="M172.083,294.128H81.53c-6.016,0-10.894,4.878-10.894,10.894s4.878,10.894,10.894,10.894h90.553
		c6.016,0,10.894-4.878,10.894-10.894S178.099,294.128,172.083,294.128z"/>
	<path style="fill:#231F20;" d="M158.466,352.681c0-6.016-4.878-10.894-10.894-10.894H81.53c-6.016,0-10.894,4.878-10.894,10.894
		s4.878,10.894,10.894,10.894h66.043C153.588,363.574,158.466,358.697,158.466,352.681z"/>
	<path style="fill:#231F20;" d="M81.53,389.447c-6.016,0-10.894,4.878-10.894,10.894c0,6.016,4.878,10.894,10.894,10.894h44.936
		c6.016,0,10.894-4.878,10.894-10.894c0-6.016-4.878-10.894-10.894-10.894H81.53z"/>
</g>
<g>
</g>
<g>
</g>
<g>
</g>
<g>
</g>
<g>
</g>
<g>
</g>
<g>
</g>
<g>
</g>
<g>
</g>
<g>
</g>
<g>
</g>
<g>
</g>
<g>
</g>
<g>
</g>
<g>
</g>
</svg>
