<?xml version="1.0" encoding="iso-8859-1"?>
<!-- Generator: Adobe Illustrator 19.0.0, SVG Export Plug-In . SVG Version: 6.00 Build 0)  -->
<svg version="1.1" id="Layer_1" xmlns="http://www.w3.org/2000/svg" xmlns:xlink="http://www.w3.org/1999/xlink" x="0px" y="0px"
	 viewBox="0 0 512.003 512.003" style="enable-background:new 0 0 512.003 512.003;" xml:space="preserve">
<polygon style="fill:#919CB0;" points="102.4,38.402 153.6,38.402 153.6,109.902 102.4,161.102 "/>
<path style="fill:#9A8984;" d="M307.2,499.202v-192c0-7.057-5.743-12.8-12.8-12.8h-76.8c-7.057,0-12.8,5.743-12.8,12.8v192H64
	v-230.4H8.533L256,7.502l247.467,261.299H448v230.4H307.2z M256,128.002c-28.237,0-51.2,22.963-51.2,51.2s22.963,51.2,51.2,51.2
	s51.2-22.963,51.2-51.2S284.237,128.002,256,128.002z"/>
<path style="fill:#FEDEA1;" d="M256,230.402c-28.237,0-51.2-22.963-51.2-51.2s22.963-51.2,51.2-51.2s51.2,22.963,51.2,51.2
	S284.237,230.402,256,230.402z"/>
<rect x="204.8" y="294.402" style="fill:#FF877F;" width="102.4" height="204.8"/>
<g>
	<path style="fill:#573A32;" d="M256,115.202c-35.285,0-64,28.706-64,64c0,35.285,28.715,64,64,64c35.294,0,64-28.715,64-64
		C320,143.908,291.294,115.202,256,115.202z M256,217.602c-21.205,0-38.4-17.195-38.4-38.4s17.195-38.4,38.4-38.4
		c21.205,0,38.4,17.195,38.4,38.4S277.205,217.602,256,217.602z"/>
	<path style="fill:#573A32;" d="M499.2,486.402h-38.4v-204.8h25.6c10.351,0,19.686-6.238,23.654-15.804
		c3.96-9.566,1.775-20.574-5.547-27.904l-230.4-230.4C269.107,2.502,262.554,0.002,256,0.002c-6.554,0-13.107,2.5-18.099,7.501
		L166.4,78.995V51.202c0-14.14-11.46-25.6-25.6-25.6h-25.6c-14.14,0-25.6,11.46-25.6,25.6v104.593L7.501,237.894
		c-7.322,7.322-9.515,18.33-5.547,27.904c3.959,9.566,13.295,15.804,23.646,15.804h25.6v204.8H12.8c-7.074,0-12.8,5.726-12.8,12.8
		c0,7.074,5.726,12.8,12.8,12.8h486.4c7.074,0,12.8-5.726,12.8-12.8C512,492.128,506.274,486.402,499.2,486.402z M115.2,51.202h25.6
		v53.393l-25.6,25.6V51.202z M294.4,486.402h-76.8v-179.2h76.8V486.402z M435.2,486.402H320v-179.2c0-14.14-11.46-25.6-25.6-25.6
		h-76.8c-14.14,0-25.6,11.46-25.6,25.6v179.2H76.8v-230.4H25.6L256,25.602l230.4,230.4h-51.2V486.402z"/>
</g>
<g>
</g>
<g>
</g>
<g>
</g>
<g>
</g>
<g>
</g>
<g>
</g>
<g>
</g>
<g>
</g>
<g>
</g>
<g>
</g>
<g>
</g>
<g>
</g>
<g>
</g>
<g>
</g>
<g>
</g>
</svg>
