<?xml version="1.0" encoding="UTF-8" standalone="no"?>
<svg
   xmlns:dc="http://purl.org/dc/elements/1.1/"
   xmlns:cc="http://creativecommons.org/ns#"
   xmlns:rdf="http://www.w3.org/1999/02/22-rdf-syntax-ns#"
   xmlns:svg="http://www.w3.org/2000/svg"
   xmlns="http://www.w3.org/2000/svg"
   xmlns:xlink="http://www.w3.org/1999/xlink"
   xmlns:sodipodi="http://sodipodi.sourceforge.net/DTD/sodipodi-0.dtd"
   xmlns:inkscape="http://www.inkscape.org/namespaces/inkscape"
   width="256"
   height="256"
   version="1.1"
   id="svg115"
   sodipodi:docname="input_config_2.svg"
   inkscape:version="0.92.2 2405546, 2018-03-11">
  <metadata
     id="metadata119">
    <rdf:RDF>
      <cc:Work
         rdf:about="">
        <dc:format>image/svg+xml</dc:format>
        <dc:type
           rdf:resource="http://purl.org/dc/dcmitype/StillImage" />
        <dc:title></dc:title>
      </cc:Work>
    </rdf:RDF>
  </metadata>
  <sodipodi:namedview
     pagecolor="#ffffff"
     bordercolor="#666666"
     borderopacity="1"
     objecttolerance="10"
     gridtolerance="10"
     guidetolerance="10"
     inkscape:pageopacity="0"
     inkscape:pageshadow="2"
     inkscape:window-width="1920"
     inkscape:window-height="1004"
     id="namedview117"
     showgrid="false"
     inkscape:zoom="2.4583333"
     inkscape:cx="26.922003"
     inkscape:cy="103.86929"
     inkscape:window-x="0"
     inkscape:window-y="24"
     inkscape:window-maximized="1"
     inkscape:current-layer="svg115" />
  <defs
     id="defs68">
    <radialGradient
       id="m"
       cx="605.71399"
       cy="486.64801"
       r="117.143"
       fx="605.71399"
       fy="486.64801"
       gradientTransform="matrix(-2.77439,0,0,1.9697,112.762,-872.885)"
       gradientUnits="userSpaceOnUse"
       xlink:href="#a" />
    <linearGradient
       id="a">
      <stop
         offset="0"
         id="stop3" />
      <stop
         offset="1"
         stop-opacity="0"
         id="stop5" />
    </linearGradient>
    <radialGradient
       id="l"
       cx="605.71399"
       cy="486.64801"
       r="117.143"
       fx="605.71399"
       fy="486.64801"
       gradientTransform="matrix(2.77439,0,0,1.9697,-1891.633,-872.885)"
       gradientUnits="userSpaceOnUse"
       xlink:href="#a" />
    <linearGradient
       id="b">
      <stop
         offset="0"
         stop-opacity="0"
         id="stop9" />
      <stop
         offset=".5"
         id="stop11" />
      <stop
         offset="1"
         stop-opacity="0"
         id="stop13" />
    </linearGradient>
    <linearGradient
       id="k"
       x1="302.85699"
       x2="302.85699"
       y1="366.64801"
       y2="609.505"
       gradientTransform="matrix(2.77439,0,0,1.9697,-1892.179,-872.885)"
       gradientUnits="userSpaceOnUse"
       xlink:href="#b" />
    <linearGradient
       id="f">
      <stop
         offset="0"
         stop-color="#fff"
         id="stop17" />
      <stop
         offset="1"
         stop-color="#fff"
         stop-opacity="0"
         id="stop19" />
    </linearGradient>
    <linearGradient
       id="d">
      <stop
         offset="0"
         stop-color="#fff"
         id="stop22" />
      <stop
         offset="1"
         stop-color="#fff"
         stop-opacity="0"
         id="stop24" />
    </linearGradient>
    <linearGradient
       id="c">
      <stop
         offset="0"
         id="stop27" />
      <stop
         offset="1"
         stop-opacity="0"
         id="stop29" />
    </linearGradient>
    <linearGradient
       id="g">
      <stop
         offset="0"
         stop-color="#aaa"
         id="stop32" />
      <stop
         offset="1"
         stop-color="#cdcdcd"
         id="stop34" />
    </linearGradient>
    <linearGradient
       id="e">
      <stop
         offset="0"
         stop-color="#ff8a2b"
         id="stop37" />
      <stop
         offset="1"
         stop-color="#833a00"
         id="stop39" />
    </linearGradient>
    <linearGradient
       id="h">
      <stop
         offset="0"
         stop-color="#fff"
         id="stop42" />
      <stop
         offset="1"
         stop-color="#fff"
         stop-opacity="0"
         id="stop44" />
    </linearGradient>
    <linearGradient
       id="i">
      <stop
         offset="0"
         stop-color="#e4e4e4"
         id="stop47" />
      <stop
         offset="1"
         stop-color="#d3d3d3"
         id="stop49" />
    </linearGradient>
    <linearGradient
       id="j">
      <stop
         offset="0"
         stop-color="#bbb"
         id="stop52" />
      <stop
         offset="1"
         stop-color="#9f9f9f"
         id="stop54" />
    </linearGradient>
    <radialGradient
       id="p"
       cx="10.364"
       cy="32.709"
       r="3.823"
       fx="10.364"
       fy="32.709"
       gradientTransform="matrix(5.3351283,0,0,3.3306139,-1.247328,70.840495)"
       gradientUnits="userSpaceOnUse"
       xlink:href="#c" />
    <linearGradient
       id="s"
       x1="24.237"
       x2="24.237"
       y1="31.712"
       y2="28.358999"
       gradientUnits="userSpaceOnUse"
       xlink:href="#d"
       gradientTransform="matrix(3.3804973,0,0,3.3804973,46.603438,26.025417)" />
    <linearGradient
       id="w"
       x1="23.599001"
       x2="26.033001"
       y1="3.493"
       y2="13.095"
       gradientUnits="userSpaceOnUse"
       xlink:href="#e" />
    <linearGradient
       id="x"
       x1="24.395"
       x2="17.766001"
       y1="11.51"
       y2="-6.461"
       gradientUnits="userSpaceOnUse"
       xlink:href="#e" />
    <linearGradient
       id="y"
       x1="21.058001"
       x2="26.285999"
       y1="2.437"
       y2="29.562"
       gradientUnits="userSpaceOnUse"
       xlink:href="#f"
       gradientTransform="matrix(5.3351283,0,0,5.3351283,-2.0742729,3.7405864)" />
    <linearGradient
       id="u"
       x1="26.313"
       x2="23.063"
       y1="17.5"
       y2="17.5"
       gradientTransform="matrix(5.3351283,0,0,5.3351283,-2.0742729,0.40613121)"
       gradientUnits="userSpaceOnUse"
       xlink:href="#g" />
    <linearGradient
       id="r"
       x1="28.469"
       x2="20"
       y1="28.125"
       y2="26.375"
       gradientTransform="matrix(5.3351283,0,0,5.3351283,-2.0742729,0.40613121)"
       gradientUnits="userSpaceOnUse"
       xlink:href="#g" />
    <linearGradient
       id="q"
       x1="12.378"
       x2="44.096001"
       y1="4.4330001"
       y2="47.620998"
       gradientTransform="matrix(5.3351283,0,0,5.3351283,-2.0742729,46.715045)"
       gradientUnits="userSpaceOnUse"
       xlink:href="#h" />
    <radialGradient
       id="o"
       cx="15.571"
       cy="2.9590001"
       r="20.936001"
       fx="15.571"
       fy="2.9590001"
       gradientTransform="matrix(6.8622554,4.1704698,-3.7921025,6.2396993,-14.633165,20.700959)"
       gradientUnits="userSpaceOnUse"
       xlink:href="#i" />
    <linearGradient
       id="n"
       x1="7.605"
       x2="36.182999"
       y1="28.481001"
       y2="40.944"
       gradientTransform="matrix(5.3351283,0,0,5.3351283,-2.0742729,46.715045)"
       gradientUnits="userSpaceOnUse"
       xlink:href="#j" />
    <radialGradient
       id="v"
       cx="22.694"
       cy="4.9369998"
       r="6.6290002"
       fx="22.694"
       fy="4.9369998"
       gradientTransform="matrix(12.31465,0,0,12.31465,-156.13164,-28.598614)"
       gradientUnits="userSpaceOnUse"
       xlink:href="#e" />
  </defs>
  <g
     id="g76"
     style="color:#000000"
     transform="matrix(5.3351283,0,0,5.3351283,-2.0742729,3.7406131)">
    <path
       d="M -1559.252,-150.697 H -219.619 V 327.66 h -1339.633 z"
       style="opacity:0.40200004;fill:url(#k);marker:none"
       transform="matrix(0.02354,0,0,0.02087,45.314,40.279)"
       id="path70"
       inkscape:connector-curvature="0" />
    <path
       d="m -219.61876,-150.68038 c 0,0 0,478.33079 0,478.33079 142.874166,0.90045 345.40022,-107.16966 345.40014,-239.196175 0,-132.026537 -159.436816,-239.134595 -345.40014,-239.134615 z"
       style="opacity:0.40200004;fill:url(#l);marker:none"
       transform="matrix(0.02354,0,0,0.02087,45.314,40.279)"
       id="path72"
       inkscape:connector-curvature="0" />
    <path
       d="m -1559.2523,-150.68038 c 0,0 0,478.33079 0,478.33079 -142.8742,0.90045 -345.4002,-107.16966 -345.4002,-239.196175 0,-132.026537 159.4368,-239.134595 345.4002,-239.134615 z"
       style="opacity:0.40200004;fill:url(#m);marker:none"
       transform="matrix(0.02354,0,0,0.02087,45.314,40.279)"
       id="path74"
       inkscape:connector-curvature="0" />
  </g>
  <path
     d="m 47.466075,121.2099 c -3.334455,0 -5.501846,1.54814 -6.835623,4.50156 -5e-6,0 -23.841357,59.23892 -23.841357,59.23892 0,0 -1.333782,3.58286 -1.333782,9.5032 0,0 0,30.14331 0,30.14331 0,5.77587 3.50937,8.66959 8.836306,8.66959 H 230.0275 c 5.25431,0 8.50286,-3.83159 8.50286,-9.83665 v -30.14331 c 0,0 0.56532,-4.11029 -0.50017,-7.00236 l -25.17514,-59.73908 c -0.98446,-2.73111 -3.39797,-5.27164 -6.00202,-5.33518 z"
     id="path78"
     inkscape:connector-curvature="0"
     style="fill:none;stroke:#535353;stroke-width:10.67025661;stroke-linecap:round;stroke-linejoin:round" />
  <path
     d="m 15.390758,190.74903 4.07925,-3.69309 200.652522,0.33345 18.47238,1.69283 v 34.35039 c 0,6.00506 -3.23852,9.8344 -8.49283,9.8344 H 24.256887 c -5.326937,0 -8.866129,-2.89191 -8.866129,-8.66777 z"
     id="path80"
     inkscape:connector-curvature="0"
     style="fill:url(#n);fill-rule:evenodd;stroke-width:5.33512831" />
  <path
     d="m 128.96982,109.1094 c -14.00287,0 -25.12713,5.61207 -26.00875,12.67093 h -0.33345 c 0,0 -6.835633,27.67598 -6.835633,27.67598 -1.167059,5.83529 11.090373,16.1721 33.177833,16.1721 22.25491,0 35.01178,-10.50353 32.84438,-18.3395 0,0 -6.33546,-25.50858 -6.33546,-25.50858 h -0.33345 C 154.27225,114.71726 142.9786,109.1094 128.96982,109.1094 Z"
     style="color:#000000;fill:none;stroke:#666666;stroke-width:10.67025661;marker:none"
     id="path82"
     inkscape:connector-curvature="0" />
  <path
     d="m 16.860547,184.97423 c -3.810806,7.81212 -0.0033,12.76616 5.525669,12.76616 0,0 208.069994,0 208.069994,0 5.97026,-0.12698 9.84458,-5.39862 7.62161,-11.43238 L 212.9265,126.49743 c -0.98446,-2.7311 -3.49324,-5.27164 -6.09729,-5.33512 H 47.537528 c -3.334455,0 -5.525667,1.61958 -6.859444,4.57295 0,0 -23.817537,59.23897 -23.817537,59.23897 z"
     id="path84"
     inkscape:connector-curvature="0"
     style="fill:url(#o);fill-rule:evenodd;stroke-width:5.33512831" />
  <path
     d="m 74.438563,179.77755 a 20.395108,12.732205 0 1 1 -40.790215,0 20.395108,12.732205 0 1 1 40.790215,0 z"
     style="color:#000000;fill:url(#p);fill-rule:evenodd;stroke-width:5.33512831;marker:none"
     id="path86"
     inkscape:connector-curvature="0" />
  <path
     d="m 236.919,183.44988 c 0.33889,6.6688 -2.20876,12.3553 -7.05366,12.5042 0,0 -203.368242,0 -203.368242,0 -6.878217,0 -9.964611,-1.73365 -11.118678,-4.63116 0.489557,5.03813 4.405842,8.79923 11.118678,8.79923 0,0 203.368242,0 203.368242,0 5.74064,-0.17659 9.35144,-7.59733 7.21397,-15.97759 z"
     id="path88"
     inkscape:connector-curvature="0"
     style="fill:#ffffff;fill-rule:evenodd;stroke-width:5.33512831" />
  <path
     d="m 49.369782,123.62724 c -3.210104,0 -5.296667,1.49042 -6.580699,4.33367 -6e-6,0 -23.554671,56.50291 -23.554671,56.50291 0,0 -1.284042,3.44921 -1.284042,9.14878 0,0 0,28.22336 0,28.22336 0,7.22766 2.369096,8.67967 8.506777,8.67967 H 227.52162 c 7.05905,0 8.18577,-1.68798 8.18577,-9.80324 v -28.22331 c 0,0 0.54424,-3.95707 -0.48149,-6.74126 l -24.50529,-57.65129 c -0.94775,-2.62926 -2.9378,-4.40815 -5.44474,-4.46929 z"
     id="path90"
     inkscape:connector-curvature="0"
     style="fill:none;stroke:url(#q);stroke-width:5.33512831;stroke-linecap:round;stroke-linejoin:round" />
  <path
     d="m 190.16458,154.63826 a 61.145997,31.31868 0 1 1 -122.291986,0 61.145997,31.31868 0 1 1 122.291986,0 z"
     style="color:#000000;fill:#ffffff;fill-opacity:0.47999998;fill-rule:evenodd;stroke-width:8.43643856;marker:none"
     id="path92"
     inkscape:connector-curvature="0" />
  <path
     d="m 162.03051,148.63192 a 33.00948,16.907294 0 1 1 -66.018955,0 33.00948,16.907294 0 1 1 66.018955,0 z"
     style="color:#000000;fill:#c9c9c9;fill-rule:evenodd;stroke-width:4.55438566;marker:none"
     id="path94"
     inkscape:connector-curvature="0" />
  <path
     d="m 128.96982,10.909692 c -19.52272,0 -35.345228,15.822497 -35.345228,35.345225 0,13.911667 8.317858,25.569936 20.006728,31.343879 v 45.181864 c 0,0 0,0.18993 0,0.33345 0,4.34263 6.86005,7.83597 15.3385,7.83597 8.47844,0 15.33849,-3.49334 15.33849,-7.83597 v -0.33345 -45.015141 c 11.79299,-5.73633 20.00673,-17.522696 20.00673,-31.510602 0,-19.522728 -15.82251,-35.345225 -35.34522,-35.345225 z"
     style="color:#000000;fill:none;stroke:#666666;stroke-width:10.67025661;marker:none"
     id="path96"
     inkscape:connector-curvature="0" />
  <path
     d="m 155.47874,121.78033 c 0,0 6.33546,25.50858 6.33546,25.50858 2.1674,7.83597 -10.58947,18.3395 -32.84438,18.3395 -22.08746,0 -34.344892,-10.33681 -33.177833,-16.1721 0,0 6.835633,-27.67598 6.835633,-27.67598 z"
     style="color:#000000;fill:url(#r);fill-rule:evenodd;stroke-width:5.33512831;marker:none"
     id="path98"
     inkscape:connector-curvature="0" />
  <path
     id="t"
     d="m 155.42778,122.62349 a 26.407661,13.525875 0 1 1 -52.81532,0 26.407661,13.525875 0 1 1 52.81532,0 z"
     style="color:#000000;fill:#e4e4e4;fill-rule:evenodd;stroke-width:3.64351916;marker:none"
     inkscape:connector-curvature="0" />
  <path
     d="m 129.63691,109.37583 c -13.52473,0 -24.50861,5.64393 -24.50861,12.57122 0,6.92729 10.98388,12.57122 24.50861,12.57122 13.52472,0 24.5086,-5.64393 24.5086,-12.57122 0,-6.92729 -10.98388,-12.57122 -24.5086,-12.57122 z"
     style="color:#000000;fill:none;stroke:url(#s);stroke-width:3.64417624;marker:none"
     id="path101"
     inkscape:connector-curvature="0" />
  <path
     d="m 128.96982,37.251888 c -8.47845,0 -15.33849,3.493335 -15.3385,7.83597 0,0.143515 0.31867,0.192064 0.33345,0.333445 h -0.33345 v 74.024907 h 0.33345 c -0.0149,0.14138 -0.33345,0.18993 -0.33345,0.33344 0,4.34264 6.86005,7.83597 15.3385,7.83597 8.47844,0 15.33849,-3.49333 15.33849,-7.83597 0,-0.14351 -0.31867,-0.19206 -0.33344,-0.33344 h 0.33344 V 45.421303 h -0.33344 c 0.0149,-0.141381 0.33344,-0.18993 0.33344,-0.333445 0,-4.342635 -6.86005,-7.83597 -15.33849,-7.83597 z"
     style="color:#000000;fill:url(#u);fill-rule:evenodd;stroke-width:5.33512831;marker:none"
     id="path103"
     inkscape:connector-curvature="0" />
  <path
     d="m 163.24269,46.211596 a 34.220636,34.220636 0 1 1 -68.44127,0 34.220636,34.220636 0 1 1 68.44127,0 z"
     style="color:#000000;fill:url(#v);fill-rule:evenodd;stroke-width:5.16216373;marker:none"
     id="path105"
     inkscape:connector-curvature="0" />
  <g
     id="g111"
     style="color:#000000;fill-rule:evenodd"
     transform="matrix(5.3351283,0,0,5.3351283,-2.0742729,3.7406131)">
    <path
       d="m 31.02431,8.4020205 a 6.6291265,6.6291265 0 1 1 -13.258253,0 6.6291265,6.6291265 0 1 1 13.258253,0 z"
       style="fill:url(#w);marker:none"
       transform="matrix(0.51033,0,0,0.30142,-2.067,30.219)"
       id="path107"
       inkscape:connector-curvature="0" />
    <path
       d="m 31.02431,8.4020205 a 6.6291265,6.6291265 0 1 1 -13.258253,0 6.6291265,6.6291265 0 1 1 13.258253,0 z"
       style="fill:url(#x);marker:none"
       transform="matrix(0.4302,0,0,0.25409,-0.112,30.377)"
       id="path109"
       inkscape:connector-curvature="0" />
  </g>
  <path
     d="m 128.97581,14.794359 c -17.52524,0 -31.70931,14.338744 -31.70931,31.864 0,12.338925 8.85645,22.743332 19.14601,27.996993 v 37.996568 c -4.62681,2.10951 -11.48722,5.56561 -11.56671,8.97145 0,0 -6.651223,27.45051 -6.651223,27.45051 -1.082753,5.41383 10.289263,15.00393 30.781233,15.00393 20.64733,0 32.4827,-9.74482 30.47187,-17.01474 l -6.49654,-25.90375 c -0.0851,-3.64806 -6.5392,-5.93208 -11.74549,-8.04335 V 74.655352 c 10.28957,-5.253661 19.63414,-15.658068 19.63414,-27.996993 0,-17.525256 -14.33876,-31.864 -31.86398,-31.864 z"
     style="color:#000000;opacity:0.52600002;fill:none;stroke:url(#y);stroke-width:5.33512831;marker:none"
     id="path113"
     inkscape:connector-curvature="0" />
</svg>
