<?xml version="1.0" encoding="iso-8859-1"?>
<!-- Generator: Adobe Illustrator 19.0.0, SVG Export Plug-In . SVG Version: 6.00 Build 0)  -->
<svg version="1.1" id="Layer_1" xmlns="http://www.w3.org/2000/svg" xmlns:xlink="http://www.w3.org/1999/xlink" x="0px" y="0px"
	 viewBox="0 0 512 512" style="enable-background:new 0 0 512 512;" xml:space="preserve">
<rect x="240.326" y="446.694" style="fill:#79CAE8;" width="31.347" height="57.469"/>
<polygon style="fill:#4B92B9;" points="282.122,446.694 229.877,446.694 208.979,373.551 303.02,373.551 "/>
<rect x="177.632" y="7.837" style="fill:#CAF9F4;" width="156.735" height="146.286"/>
<path style="fill:#4B92B9;" d="M151.51,154.122h208.98v148.142c0,4-1.148,7.916-3.307,11.283l-32.321,50.388
	c-3.843,5.991-10.472,9.615-17.591,9.615H204.728c-7.118,0-13.747-3.624-17.591-9.615l-32.321-50.388
	c-2.16-3.367-3.307-7.283-3.307-11.283L151.51,154.122L151.51,154.122z"/>
<g>
	<rect x="205.322" y="67.691" style="fill:#79CAE8;" width="36.571" height="36.571"/>
	<rect x="270.106" y="67.691" style="fill:#79CAE8;" width="36.571" height="36.571"/>
</g>
<polygon points="185.469,15.673 326.53,15.673 326.53,133.224 342.204,133.224 342.204,0 169.795,0 169.795,133.224 
	185.469,133.224 "/>
<path d="M143.673,146.286v155.979c0,5.51,1.573,10.874,4.547,15.514l32.321,50.389c5.007,7.805,13.332,12.64,22.511,13.168
	l20.914,73.195h8.523V512h47.02v-57.469h8.523l20.914-73.195c9.178-0.528,17.504-5.362,22.51-13.168l32.323-50.389
	c2.975-4.638,4.547-10.003,4.547-15.514V146.286H143.673z M263.836,496.327h-15.673v-41.796h15.673V496.327z M276.211,438.857
	h-40.423l-16.42-57.469h73.261L276.211,438.857z M352.653,302.265c0,2.505-0.716,4.943-2.067,7.052l-32.323,50.389
	c-2.414,3.763-6.522,6.009-10.993,6.009H204.726c-4.47,0-8.58-2.247-10.993-6.009l-32.321-50.388
	c-1.352-2.109-2.068-4.547-2.068-7.052V161.959H352.65v140.306H352.653z"/>
<path d="M249.73,112.099V59.854h-52.245v52.245H249.73z M213.159,75.527h20.898v20.898h-20.898V75.527z"/>
<path d="M314.514,112.099V59.854h-52.245v52.245H314.514z M277.942,75.527h20.898v20.898h-20.898V75.527z"/>
<rect x="177.632" y="263.607" width="156.735" height="15.673"/>
<rect x="190.693" y="294.954" width="130.612" height="15.673"/>
<rect x="203.755" y="326.301" width="104.49" height="15.673"/>
<g>
</g>
<g>
</g>
<g>
</g>
<g>
</g>
<g>
</g>
<g>
</g>
<g>
</g>
<g>
</g>
<g>
</g>
<g>
</g>
<g>
</g>
<g>
</g>
<g>
</g>
<g>
</g>
<g>
</g>
</svg>
