<?xml version="1.0" encoding="UTF-8" standalone="no"?>
<svg
   xmlns:dc="http://purl.org/dc/elements/1.1/"
   xmlns:cc="http://creativecommons.org/ns#"
   xmlns:rdf="http://www.w3.org/1999/02/22-rdf-syntax-ns#"
   xmlns:svg="http://www.w3.org/2000/svg"
   xmlns="http://www.w3.org/2000/svg"
   height="256"
   width="256"
   xml:space="preserve"
   viewBox="0 0 58.007 58.007"
   y="0px"
   x="0px"
   id="Capa_1"
   version="1.1"><metadata
   id="metadata77"><rdf:RDF><cc:Work
       rdf:about=""><dc:format>image/svg+xml</dc:format><dc:type
         rdf:resource="http://purl.org/dc/dcmitype/StillImage" /><dc:title></dc:title></cc:Work></rdf:RDF></metadata><defs
   id="defs75" />
<g
   id="XMLID_22_">
	<path
   d="m 52.003,29.211 v 1.238 C 52.003,37.381 40.362,43 26.003,43 18.077,43 10.984,41.286 6.215,38.586 7.823,44.831 18.751,50 32.003,50 c 14.359,0 26,-6.068 26,-13 0,-3.048 -2.256,-5.734 -6,-7.789"
   style="fill:#fcc62d"
   id="XMLID_143_" />
	<path
   d="m 32.003,50 c -14.359,0 -26,-6.068 -26,-13 v 8.448 c 0,6.932 11.641,12.552 26,12.552 14.359,0 26,-5.62 26,-12.552 V 37 c 0,6.932 -11.641,13 -26,13"
   style="fill:#e4af18"
   id="XMLID_142_" />
	<path
   d="m 9.003,51.349 c 0.59,0.539 1.259,1.055 2,1.545 v -8.291 c -0.741,-0.51 -1.41,-1.045 -2,-1.603 z"
   style="fill:#ce9912"
   id="XMLID_141_" />
	<path
   d="m 53.003,44.603 v 8.291 c 0.741,-0.489 1.41,-1.006 2,-1.545 V 43 c -0.589,0.558 -1.258,1.093 -2,1.603"
   style="fill:#ce9912"
   id="XMLID_140_" />
	<path
   d="m 13.003,54.06 c 0.632,0.327 1.3,0.636 2,0.929 v -8.193 c -0.7,-0.308 -1.368,-0.633 -2,-0.975 z"
   style="fill:#ce9912"
   id="XMLID_139_" />
	<path
   d="m 49.003,54.988 c 0.7,-0.292 1.368,-0.602 2,-0.929 V 45.82 c -0.632,0.342 -1.3,0.668 -2,0.975 z"
   style="fill:#ce9912"
   id="XMLID_138_" />
	<path
   d="m 17.003,55.745 c 0.646,0.221 1.313,0.427 2,0.619 V 48.25 c -0.687,-0.204 -1.354,-0.423 -2,-0.656 z"
   style="fill:#ce9912"
   id="XMLID_137_" />
	<path
   d="m 45.003,56.364 c 0.687,-0.192 1.354,-0.398 2,-0.619 v -8.151 c -0.646,0.233 -1.313,0.452 -2,0.656 z"
   style="fill:#ce9912"
   id="XMLID_136_" />
	<path
   d="m 22.003,57.084 c 0.653,0.132 1.321,0.25 2,0.355 v -8.044 c -0.679,-0.113 -1.347,-0.239 -2,-0.379 z"
   style="fill:#ce9912"
   id="XMLID_135_" />
	<path
   d="m 40.003,57.439 c 0.679,-0.106 1.347,-0.224 2,-0.355 v -8.069 c -0.653,0.14 -1.321,0.266 -2,0.38 z"
   style="fill:#ce9912"
   id="XMLID_134_" />
	<path
   d="m 28.003,57.899 c 0.658,0.049 1.326,0.083 2,0.107 v -8.003 c -0.674,-0.026 -1.342,-0.062 -2,-0.115 z"
   style="fill:#ce9912"
   id="XMLID_133_" />
	<path
   d="m 34.003,58.007 c 0.674,-0.025 1.342,-0.058 2,-0.107 v -8.012 c -0.658,0.053 -1.326,0.089 -2,0.116 z"
   style="fill:#ce9912"
   id="XMLID_132_" />
	<path
   d="m 26.003,34.993 c -14.359,0 -26,-6.068 -26,-13 v 8.448 c 0,6.932 11.641,12.552 26,12.552 14.359,0 26,-5.62 26,-12.552 v -8.448 c 0,6.932 -11.641,13 -26,13"
   style="fill:#e4af18"
   id="XMLID_131_" />
	<path
   d="m 3.003,36.342 c 0.59,0.539 1.259,1.055 2,1.545 v -8.291 c -0.741,-0.51 -1.41,-1.045 -2,-1.602 z"
   style="fill:#ce9912"
   id="XMLID_130_" />
	<path
   d="m 47.003,29.596 v 8.291 c 0.741,-0.489 1.41,-1.006 2,-1.545 v -8.349 c -0.589,0.558 -1.258,1.093 -2,1.603"
   style="fill:#ce9912"
   id="XMLID_129_" />
	<path
   d="m 7.003,39.053 c 0.632,0.327 1.3,0.636 2,0.929 v -8.193 c -0.7,-0.308 -1.368,-0.633 -2,-0.975 z"
   style="fill:#ce9912"
   id="XMLID_128_" />
	<path
   d="m 43.003,39.981 c 0.7,-0.292 1.368,-0.601 2,-0.929 v -8.239 c -0.632,0.342 -1.3,0.668 -2,0.975 z"
   style="fill:#ce9912"
   id="XMLID_127_" />
	<path
   d="m 11.003,40.738 c 0.646,0.221 1.313,0.427 2,0.619 v -8.114 c -0.687,-0.204 -1.354,-0.423 -2,-0.656 z"
   style="fill:#ce9912"
   id="XMLID_126_" />
	<path
   d="m 39.003,41.357 c 0.687,-0.192 1.354,-0.398 2,-0.619 v -8.151 c -0.646,0.233 -1.313,0.452 -2,0.656 z"
   style="fill:#ce9912"
   id="XMLID_125_" />
	<path
   d="m 16.003,42.077 c 0.653,0.132 1.321,0.25 2,0.355 v -8.044 c -0.679,-0.113 -1.347,-0.239 -2,-0.379 z"
   style="fill:#ce9912"
   id="XMLID_124_" />
	<path
   d="m 34.003,42.433 c 0.679,-0.106 1.347,-0.224 2,-0.355 v -8.069 c -0.653,0.14 -1.321,0.266 -2,0.38 z"
   style="fill:#ce9912"
   id="XMLID_123_" />
	<path
   d="m 22.003,42.893 c 0.658,0.049 1.326,0.083 2,0.107 v -8.003 c -0.674,-0.026 -1.342,-0.062 -2,-0.115 z"
   style="fill:#ce9912"
   id="XMLID_122_" />
	<path
   d="m 28.003,43 c 0.674,-0.025 1.342,-0.058 2,-0.107 v -8.012 c -0.658,0.053 -1.326,0.089 -2,0.116 z"
   style="fill:#ce9912"
   id="XMLID_121_" />
	<path
   d="M 51.32,33.302 C 48.643,38.858 38.329,43 26.003,43 c -4.604,0 -8.926,-0.58 -12.677,-1.593 3.628,2.463 10.085,4.559 18.677,4.559 13.682,0 22,-5.311 22,-8.966 0,-1.22 -0.939,-2.514 -2.683,-3.698"
   style="fill:#ffd949"
   id="XMLID_120_" />
	<path
   d="m 31.003,33 c -14.359,0 -26,-5.62 -26,-12.552 v -5.652 c -3.141,1.969 -5,4.438 -5,7.204 0,6.932 11.641,13 26,13 6.914,0 13.192,-1.409 17.849,-3.642 C 40.061,32.401 35.678,33 31.003,33"
   style="fill:#ffd949"
   id="XMLID_119_" />
	<path
   d="m 31.003,24.993 c -14.359,0 -26,-6.068 -26,-13 v 8.448 c 0,6.932 11.641,12.552 26,12.552 14.359,0 26,-5.62 26,-12.552 v -8.448 c 0,6.932 -11.641,13 -26,13"
   style="fill:#e4af18"
   id="XMLID_118_" />
	<path
   d="m 8.003,26.342 c 0.59,0.539 1.259,1.055 2,1.545 v -8.291 c -0.741,-0.51 -1.41,-1.045 -2,-1.602 z"
   style="fill:#ce9912"
   id="XMLID_117_" />
	<path
   d="m 52.003,19.596 v 8.291 c 0.741,-0.489 1.41,-1.006 2,-1.545 v -8.349 c -0.589,0.558 -1.258,1.093 -2,1.603"
   style="fill:#ce9912"
   id="XMLID_116_" />
	<path
   d="m 12.003,29.053 c 0.632,0.327 1.3,0.636 2,0.929 v -8.193 c -0.7,-0.308 -1.368,-0.633 -2,-0.975 z"
   style="fill:#ce9912"
   id="XMLID_115_" />
	<path
   d="m 48.003,29.981 c 0.7,-0.292 1.368,-0.601 2,-0.929 v -8.239 c -0.632,0.342 -1.3,0.668 -2,0.975 z"
   style="fill:#ce9912"
   id="XMLID_114_" />
	<path
   d="m 16.003,30.738 c 0.646,0.221 1.313,0.427 2,0.619 v -8.114 c -0.687,-0.204 -1.354,-0.423 -2,-0.656 z"
   style="fill:#ce9912"
   id="XMLID_113_" />
	<path
   d="m 44.003,31.357 c 0.687,-0.192 1.354,-0.398 2,-0.619 v -8.151 c -0.646,0.233 -1.313,0.452 -2,0.656 z"
   style="fill:#ce9912"
   id="XMLID_112_" />
	<path
   d="m 21.003,32.077 c 0.653,0.132 1.321,0.25 2,0.355 v -8.044 c -0.679,-0.113 -1.347,-0.239 -2,-0.379 z"
   style="fill:#ce9912"
   id="XMLID_111_" />
	<path
   d="m 39.003,32.433 c 0.679,-0.106 1.347,-0.224 2,-0.355 v -8.069 c -0.653,0.14 -1.321,0.266 -2,0.38 z"
   style="fill:#ce9912"
   id="XMLID_110_" />
	<path
   d="m 27.003,32.893 c 0.658,0.049 1.326,0.083 2,0.107 v -8.003 c -0.674,-0.026 -1.342,-0.062 -2,-0.115 z"
   style="fill:#ce9912"
   id="XMLID_109_" />
	<path
   d="m 33.003,33 c 0.674,-0.025 1.342,-0.058 2,-0.107 v -8.012 c -0.658,0.053 -1.326,0.089 -2,0.116 z"
   style="fill:#ce9912"
   id="XMLID_108_" />
	<path
   d="m 57.003,12 c 0,6.932 -11.641,13 -26,13 -14.359,0 -26,-6.068 -26,-13 0,-6.932 11.641,-12 26,-12 14.359,0 26,5.068 26,12"
   style="fill:#fcc62d"
   id="XMLID_107_" />
	<path
   d="m 31.003,20.966 c -13.682,0 -22,-5.31 -22,-8.966 0,-3.655 8.318,-9 22,-9 13.682,0 22,5.345 22,9 0,3.656 -8.318,8.966 -22,8.966"
   style="fill:#ffd949"
   id="XMLID_106_" />
	<path
   d="m 37.784,13.359 c 0.82,-0.174 1.301,-0.68 1.124,-1.257 l -0.19,-0.616 C 38.579,11.033 38.038,10.655 37.375,10.467 36.473,8.54 34.173,7.842 30.757,7.842 c -0.162,0 -0.32,0.004 -0.476,0.01 C 29.115,7.9 27.952,7.788 27.045,7.456 26.675,7.321 26.374,7.18 26.175,7.033 c -0.09,-0.066 -0.308,-0.024 -0.308,0.06 0,0.146 0.011,0.319 0.043,0.511 0.124,0.747 -0.024,0.635 -0.762,1.38 -0.428,0.434 -0.769,0.934 -1.016,1.486 -0.659,0.189 -1.197,0.566 -1.336,1.017 l -0.19,0.616 c -0.177,0.577 0.304,1.083 1.124,1.257 0.234,1.476 1.237,2.772 3.424,3.486 l -0.12,1.037 c -0.032,0.277 -0.271,0.533 -0.619,0.659 l -4.411,1.592 c 2.576,0.54 5.512,0.866 8.753,0.866 3.196,0 6.095,-0.317 8.645,-0.842 L 35.087,18.545 C 34.746,18.417 34.512,18.163 34.481,17.891 L 34.36,16.846 c 2.187,-0.714 3.19,-2.011 3.424,-3.487"
   style="fill:#f0c41b"
   id="XMLID_105_" />
</g>
<g
   id="g42">
</g>
<g
   id="g44">
</g>
<g
   id="g46">
</g>
<g
   id="g48">
</g>
<g
   id="g50">
</g>
<g
   id="g52">
</g>
<g
   id="g54">
</g>
<g
   id="g56">
</g>
<g
   id="g58">
</g>
<g
   id="g60">
</g>
<g
   id="g62">
</g>
<g
   id="g64">
</g>
<g
   id="g66">
</g>
<g
   id="g68">
</g>
<g
   id="g70">
</g>
</svg>