<?xml version="1.0" encoding="iso-8859-1"?>
<!-- Generator: Adobe Illustrator 21.0.0, SVG Export Plug-In . SVG Version: 6.00 Build 0)  -->
<svg version="1.1" id="Capa_1" xmlns="http://www.w3.org/2000/svg" xmlns:xlink="http://www.w3.org/1999/xlink" x="0px" y="0px"
	 viewBox="0 0 512 512" style="enable-background:new 0 0 512 512;" xml:space="preserve">
<path style="fill:#4D4D4D;" d="M72.413,219.774c-4.143,0-7.5-3.358-7.5-7.5v-2c0-18.277,14.869-33.146,33.146-33.146H407.53
	c10.006,0,18.146-8.141,18.146-18.147s-8.141-18.147-18.146-18.147H92.93c-18.277,0-33.146-14.869-33.146-33.146V83.751
	c0-4.142,3.357-7.5,7.5-7.5s7.5,3.358,7.5,7.5v23.937c0,10.006,8.141,18.146,18.146,18.146h314.6
	c18.277,0,33.146,14.87,33.146,33.147s-14.869,33.147-33.146,33.147H98.06c-10.006,0-18.146,8.14-18.146,18.146v2
	C79.913,216.417,76.556,219.774,72.413,219.774z"/>
<path style="fill:#CCCCCC;" d="M492.692,435.749H19.308C8.645,435.749,0,427.104,0,416.441V231.938
	c0-10.664,8.645-19.308,19.308-19.308h473.384c10.664,0,19.308,8.645,19.308,19.308v184.503
	C512,427.104,503.355,435.749,492.692,435.749z"/>
<path style="fill:#ADADAD;" d="M504.549,218.535c0.312,1.5,0.48,3.052,0.48,4.644v177.772c0,12.522-10.151,22.674-22.674,22.674
	H15.703c-5.868,0-11.197-2.248-15.223-5.905c2.143,10.294,11.264,18.03,22.194,18.03h466.652c12.523,0,22.674-10.151,22.674-22.674
	V235.302C512,228.648,509.115,222.682,504.549,218.535z"/>
<g>
	<path style="fill:#4D4D4D;" d="M470.373,303.247h-25.304c-2.885,0-5.224,2.339-5.224,5.223v31.437c0,2.885,2.339,5.224,5.224,5.224
		h25.304c2.885,0,5.223-2.339,5.223-5.224V308.47C475.596,305.586,473.258,303.247,470.373,303.247z"/>
	<path style="fill:#4D4D4D;" d="M470.373,249.033h-25.304c-2.885,0-5.224,2.339-5.224,5.224v35.547c0,2.885,2.339,5.224,5.224,5.224
		h25.304c2.885,0,5.223-2.339,5.223-5.224v-35.547C475.596,251.371,473.258,249.033,470.373,249.033z"/>
	<path style="fill:#4D4D4D;" d="M426.402,303.247h-24.193c-2.885,0-5.223,2.339-5.223,5.223v31.437c0,2.885,2.339,5.224,5.223,5.224
		h24.193c2.885,0,5.223-2.339,5.223-5.224V308.47C431.625,305.586,429.287,303.247,426.402,303.247z"/>
	<path style="fill:#4D4D4D;" d="M426.402,353.351h-24.193c-2.885,0-5.223,2.339-5.223,5.223v35.547c0,2.885,2.339,5.223,5.224,5.223
		h24.193c2.885,0,5.223-2.339,5.223-5.223v-35.547C431.625,355.69,429.287,353.351,426.402,353.351z"/>
	<path style="fill:#4D4D4D;" d="M426.402,249.033h-24.193c-2.885,0-5.224,2.339-5.224,5.224v35.547c0,2.885,2.339,5.223,5.223,5.223
		h24.193c2.885,0,5.223-2.339,5.223-5.224v-35.547C431.625,251.371,429.287,249.033,426.402,249.033z"/>
	<path style="fill:#4D4D4D;" d="M470.373,353.351h-25.304c-2.885,0-5.224,2.339-5.224,5.223v35.547c0,2.885,2.339,5.223,5.224,5.223
		h25.304c2.885,0,5.223-2.339,5.223-5.223v-35.547C475.596,355.69,473.258,353.351,470.373,353.351z"/>
	<path style="fill:#4D4D4D;" d="M134.218,353.351H97.872c-2.771,0-5.018,2.247-5.018,5.018v35.957c0,2.771,2.247,5.018,5.018,5.018
		h36.346c2.771,0,5.018-2.247,5.018-5.018v-35.957C139.236,355.598,136.99,353.351,134.218,353.351z"/>
	<path style="fill:#4D4D4D;" d="M127.815,303.247c-2.771,0-5.018,2.247-5.018,5.018v31.847c0,2.772,2.247,5.018,5.018,5.018h36.346
		c2.771,0,5.018-2.247,5.018-5.018v-31.847c0-2.772-2.247-5.018-5.018-5.018H127.815z"/>
	<path style="fill:#4D4D4D;" d="M243.423,353.351h-90.948c-2.771,0-5.018,2.247-5.018,5.018v35.957c0,2.771,2.247,5.018,5.018,5.018
		h90.948c2.771,0,5.018-2.247,5.018-5.018v-35.957C248.442,355.598,246.195,353.351,243.423,353.351z"/>
	<path style="fill:#4D4D4D;" d="M76.735,303.247c-2.771,0-5.018,2.247-5.018,5.018v31.847c0,2.772,2.247,5.018,5.018,5.018h32.823
		c2.771,0,5.018-2.247,5.018-5.018v-31.847c0-2.772-2.247-5.018-5.018-5.018H76.735z"/>
	<path style="fill:#4D4D4D;" d="M182.419,303.247c-2.771,0-5.018,2.247-5.018,5.018v31.847c0,2.772,2.247,5.018,5.018,5.018h36.345
		c2.771,0,5.018-2.247,5.018-5.018v-31.847c0-2.772-2.247-5.018-5.018-5.018H182.419z"/>
	<path style="fill:#4D4D4D;" d="M350.205,249.033h-33.922c-2.771,0-5.018,2.247-5.018,5.018v35.957c0,2.772,2.247,5.018,5.018,5.018
		h33.922c2.772,0,5.018-2.247,5.018-5.018V254.05C355.223,251.279,352.977,249.033,350.205,249.033z"/>
	<path style="fill:#4D4D4D;" d="M298.027,353.351H261.68c-2.772,0-5.018,2.247-5.018,5.018v35.957c0,2.771,2.247,5.018,5.018,5.018
		h36.346c2.771,0,5.018-2.247,5.018-5.018v-35.957C303.045,355.598,300.798,353.351,298.027,353.351z"/>
	<path style="fill:#4D4D4D;" d="M97.872,295.027h36.346c2.771,0,5.018-2.247,5.018-5.018v-35.957c0-2.772-2.247-5.018-5.018-5.018
		H97.872c-2.771,0-5.018,2.247-5.018,5.018v35.957C92.853,292.78,95.1,295.027,97.872,295.027z"/>
	<path style="fill:#4D4D4D;" d="M41.422,303.247c-2.771,0-5.018,2.247-5.018,5.018v31.847c0,2.772,2.247,5.018,5.018,5.018h17.056
		c2.771,0,5.018-2.247,5.018-5.018v-31.847c0-2.772-2.247-5.018-5.018-5.018H41.422z"/>
	<path style="fill:#4D4D4D;" d="M79.615,353.351H41.422c-2.771,0-5.018,2.247-5.018,5.018v35.957c0,2.771,2.247,5.018,5.018,5.018
		h38.193c2.772,0,5.018-2.247,5.018-5.018v-35.957C84.633,355.598,82.386,353.351,79.615,353.351z"/>
	<path style="fill:#4D4D4D;" d="M41.422,295.027h38.193c2.772,0,5.018-2.247,5.018-5.018v-35.957c0-2.772-2.247-5.018-5.018-5.018
		H41.422c-2.771,0-5.018,2.247-5.018,5.018v35.957C36.404,292.78,38.651,295.027,41.422,295.027z"/>
	<path style="fill:#4D4D4D;" d="M152.475,295.027h36.346c2.771,0,5.018-2.247,5.018-5.018v-35.957c0-2.772-2.247-5.018-5.018-5.018
		h-36.346c-2.771,0-5.018,2.247-5.018,5.018v35.957C147.457,292.78,149.703,295.027,152.475,295.027z"/>
	<path style="fill:#4D4D4D;" d="M350.205,353.351h-33.922c-2.771,0-5.018,2.247-5.018,5.018v35.957c0,2.771,2.247,5.018,5.018,5.018
		h33.922c2.772,0,5.018-2.247,5.018-5.018v-35.957C355.223,355.598,352.977,353.351,350.205,353.351z"/>
	<path style="fill:#4D4D4D;" d="M237.021,303.247c-2.771,0-5.018,2.247-5.018,5.018v31.847c0,2.772,2.247,5.018,5.018,5.018h36.346
		c2.771,0,5.018-2.247,5.018-5.018v-31.847c0-2.772-2.247-5.018-5.018-5.018H237.021z"/>
	<path style="fill:#4D4D4D;" d="M207.078,295.027h36.345c2.771,0,5.018-2.247,5.018-5.018v-35.957c0-2.772-2.247-5.018-5.018-5.018
		h-36.345c-2.771,0-5.018,2.247-5.018,5.018v35.957C202.06,292.78,204.307,295.027,207.078,295.027z"/>
	<path style="fill:#4D4D4D;" d="M350.205,303.247h-58.581c-2.771,0-5.018,2.247-5.018,5.018v31.847c0,2.772,2.247,5.018,5.018,5.018
		h58.581c2.772,0,5.018-2.247,5.018-5.018v-31.847C355.223,305.493,352.977,303.247,350.205,303.247z"/>
	<path style="fill:#4D4D4D;" d="M261.68,295.027h36.346c2.771,0,5.018-2.247,5.018-5.018v-35.957c0-2.772-2.247-5.018-5.018-5.018
		H261.68c-2.772,0-5.018,2.247-5.018,5.018v35.957C256.662,292.78,258.909,295.027,261.68,295.027z"/>
</g>
<g>
</g>
<g>
</g>
<g>
</g>
<g>
</g>
<g>
</g>
<g>
</g>
<g>
</g>
<g>
</g>
<g>
</g>
<g>
</g>
<g>
</g>
<g>
</g>
<g>
</g>
<g>
</g>
<g>
</g>
</svg>
