<svg id="Layer_1" height="512" viewBox="0 0 512 512" width="512" xmlns="http://www.w3.org/2000/svg" data-name="Layer 1"><g id="_Path_" data-name=" Path "><path d="m386.61 333.84-262.46-.54-87.89 35.62 219.74 95.96 219.74-95.96z" fill="#bad79d"/></g><path d="m385.76 259.51-.07-.15-260.49-.48-88.94 36.04 87.89 38.38 131.85 57.58 130.61-57.04 89.13-38.92z" fill="#eb7288"/><path d="m383.83 183.21-256.32-.28-91.25 37.11 88.94 38.84 130.8 57.11 129.69-56.63 90.05-39.32z" fill="#74b4e8"/><path d="m256 47.12-219.74 95.96 219.74 95.95 219.74-95.95z" fill="#f3ce7d"/><path d="m163.948 333.382-39.798-.082-87.89 35.62 219.74 95.96 20-8.734-199.74-87.226z" fill="#9cb77e"/><path d="m76.26 294.92 88.759-35.967-39.819-.073-88.94 36.04 87.89 38.38 131.85 57.58 20-8.734-111.85-48.846z" fill="#d3627a"/><path d="m76.26 220.04 91.143-37.066-39.893-.044-91.25 37.11 88.94 38.84 130.8 57.11 19.999-8.733-110.799-48.377z" fill="#63a5d3"/><path d="m276 230.297-199.74-87.217 199.74-87.226-20-8.734-219.74 95.96 219.74 95.95z" fill="#ddbd8a"/><g fill="#284268"><path d="m111.451 135.472h12.001v13.721h-12.001z" transform="matrix(.4 -.916 .916 .4 -59.99 193.008)"/><path d="m181.453 116.453h12v112.464h-12z" transform="matrix(.403 -.915 .915 .403 -46.178 274.544)"/><path d="m481.741 143.078a6 6 0 0 0 -3.6-5.5l-219.741-95.955a6 6 0 0 0 -4.8 0l-219.742 95.956a6 6 0 0 0 0 11l78.21 34.153-78.068 31.747a6 6 0 0 0 -.141 11.057l75.88 33.136-75.733 30.689a6 6 0 0 0 -.148 11.06l74.83 32.676-74.682 30.264a6 6 0 0 0 -.148 11.06l219.742 95.956a6 6 0 0 0 4.8 0l219.741-95.956a6 6 0 0 0 -.2-11.082l-75.677-29.783 75.881-33.135a6 6 0 0 0 -.2-11.082l-76.742-30.2 76.946-33.6a6 6 0 0 0 -.17-11.068l-78.6-31.492 78.774-34.4a6 6 0 0 0 3.588-5.501zm-21.653 226.132-204.088 89.121-204.275-89.2 72.341-29.315 129.534 56.561a6 6 0 0 0 4.8 0l128.328-56.038zm0-74-204.088 89.121-204.275-89.2 73.391-29.741 128.484 56.103a6 6 0 0 0 4.8 0l127.263-55.573zm.114-74.935-204.202 89.172-204.3-89.214 75.725-30.8 126.171 55.1a6 6 0 0 0 4.8 0l125.534-54.815zm-204.202 12.213-204.748-89.41 204.748-89.409 204.748 89.409z"/></g></svg>