<?xml version="1.0" encoding="iso-8859-1"?>
<!-- Generator: Adobe Illustrator 19.0.0, SVG Export Plug-In . SVG Version: 6.00 Build 0)  -->
<svg version="1.1" id="Layer_1" xmlns="http://www.w3.org/2000/svg" xmlns:xlink="http://www.w3.org/1999/xlink" x="0px" y="0px"
	 viewBox="0 0 508 508" style="enable-background:new 0 0 508 508;" xml:space="preserve">
<path style="fill:#AEB1B4;" d="M12,388.15h492v-62.8c0-4.4-1.6-7.6-4-10l-65.2-65.2c-6.4-6-14.8-10.4-22.8-10.4H104.8
	c-8,0-16.4,4-22.8,10.4c0,0-65.2,65.2-65.2,64.8c-2.8,2-4,6.4-4,10v63.2H12z"/>
<path style="fill:#E8E3E3;" d="M352,336.15h152v-10.8c0-4.4-1.6-8.4-4-10.4c-2-1.6-4.8-2.8-8-2.8H326c0,0,0,1.6,0,2.4
	c-2.4,36-33.6,65.6-69.6,65.6l0,0c-36.4,0-67.2-29.6-69.6-65.6c0-0.8,0-2.4,0-2.4h-162c-3.2,0-10,1.2-12,2.8c-2.8,2-4,6-4,10.4v10.8
	h152c1.2,0,2,0.8,2,2s-0.8,2-2,2H8.8v77.2c0,7.6,8.8,14.8,16.4,14.8h467.6c7.6,0,12-6.8,12-14.8v-77.2h-152c-1.2,0-2-0.8-2-2
	S350.8,336.15,352,336.15z"/>
<polygon style="fill:#EF934A;" points="308,180.15 308,276.15 204,276.15 204,180.15 168.4,180.15 256.4,72.15 344.4,180.15 "/>
<path d="M498.8,317.75c-1.2,0-2-0.4-2.8-1.2l-63.2-63.6c-5.6-5.2-13.6-8.4-21.6-8.4h-79.6c-2.4,0-4-1.6-4-4s1.6-4,4-4h79.6
	c10,0,20,4,27.2,10.8l63.2,64c1.6,1.6,1.6,4,0,5.6C500.8,317.35,500,317.75,498.8,317.75z"/>
<path d="M13.2,318.15c-1.2,0-2-0.4-2.8-1.2c-1.6-1.6-1.6-4,0-5.6l66.8-64.4c7.2-6.8,17.2-10.8,27.2-10.8H180c2.4,0,4,1.6,4,4
	s-1.6,4-4,4h-75.6c-8,0-16,3.2-21.6,8.4L16,316.95C15.2,317.75,14.4,318.15,13.2,318.15z"/>
<path d="M492,440.15H24c-11.2,0-24-12.4-24-23.2v-92c0-11.2,12.4-17.2,24-17.2h164c2.4,0,4,1.6,4,4c0,34.4,29.6,63.6,64,63.6
	s64-29.2,64-63.6c0-2,1.6-4,4-4h168c10.8,0,16,5.6,16,17.2v92C508,428.55,503.2,440.15,492,440.15z M24,316.15c-6.4,0-16,2.8-16,9.2
	v92c0,6.4,9.2,15.2,16,15.2h468c6.4,0,8-9.6,8-15.2v-92c0-7.6-2.4-9.2-8-9.2H328c-2.4,37.2-34.4,67.6-72,67.6s-69.6-30.8-72-67.6H24
	z"/>
<path d="M160,344.15H8c-2.4,0-4-1.6-4-4s1.6-4,4-4h152c2.4,0,4,1.6,4,4S162.4,344.15,160,344.15z"/>
<path d="M504,344.15H352c-2.4,0-4-1.6-4-4s1.6-4,4-4h152c2.4,0,4,1.6,4,4S506.4,344.15,504,344.15z"/>
<path d="M308,280.15H204c-2.4,0-4-1.6-4-4v-92h-31.6c-1.6,0-2.8-0.8-3.6-2.4c-0.8-1.2-0.4-3.2,0.4-4.4l88-108c1.6-2,4.8-2,6,0
	l88,108c0.8,1.2,1.2,2.8,0.4,4.4c-0.8,1.2-2,2.4-3.6,2.4h-32.4v92C312,278.55,310.4,280.15,308,280.15z M208,272.15h96v-92
	c0-2.4,1.6-4,4-4h28l-79.6-97.6l-79.6,97.6H204c2.4,0,4,1.6,4,4L208,272.15L208,272.15z"/>
<g>
</g>
<g>
</g>
<g>
</g>
<g>
</g>
<g>
</g>
<g>
</g>
<g>
</g>
<g>
</g>
<g>
</g>
<g>
</g>
<g>
</g>
<g>
</g>
<g>
</g>
<g>
</g>
<g>
</g>
</svg>
