<svg id="Capa_1" enable-background="new 0 0 512 512" height="512" viewBox="0 0 512 512" width="512" xmlns="http://www.w3.org/2000/svg"><g><path d="m462.293 134.906h42.207v-127.406h-497v127.406h40c11.046 0 20 8.954 20 20 0 11.046-8.954 20-20 20h-40v161.344h40c11.046 0 20 8.954 20 20s-8.954 20-20 20h-40v128.25h497v-128.25h-42.207c-11.046 0-20-8.954-20-20s8.954-20 20-20h42.207v-161.344h-42.207c-11.046 0-20-8.954-20-20 0-11.046 8.955-20 20-20z" fill="#b3e59f"/><g><g fill="#95d6a4"><path d="m7.5 7.5h30v127.41h-30z"/><path d="m7.5 174.91h30v161.34h-30z"/><path d="m7.5 376.25h30v128.25h-30z"/><path d="m97.5 356.25c0 11.05-8.95 20-20 20h-30c11.05 0 20-8.95 20-20s-8.95-20-20-20h30c11.05 0 20 8.95 20 20z"/><path d="m61.64 169.05c3.62-3.62 5.86-8.62 5.86-14.14 0-11.05-8.95-20-20-20h30c11.05 0 20 8.95 20 20 0 5.52-2.24 10.52-5.86 14.14s-8.62 5.86-14.14 5.86h-30c5.52 0 10.52-2.24 14.14-5.86z"/></g></g><path d="m121 121h270v270h-270z" fill="#eefaff" transform="matrix(0 1 -1 0 512 0)"/><path d="m121 121h30v270h-30z" fill="#dff1f7"/><path d="m161 161h190v190h-190z" fill="#548eb5" transform="matrix(0 1 -1 0 512 0)"/><path d="m161 161h30v190h-30z" fill="#447d99"/><g fill="#eefaff"><g><circle cx="73.67" cy="69.015" r="20"/><circle cx="438.33" cy="69.015" r="20"/></g><g><circle cx="73.67" cy="442.985" r="20"/><circle cx="438.33" cy="442.985" r="20"/></g></g><g fill="#fdf172"><path d="m257 67.5c-11.046 0-20-8.954-20-20v-40h40v40c0 11.046-8.954 20-20 20z"/><path d="m180.76 67.5c-11.046 0-20-8.954-20-20v-40h40v40c0 11.046-8.954 20-20 20z"/><path d="m331.24 67.5c-11.046 0-20-8.954-20-20v-40h40v40c0 11.046-8.954 20-20 20z"/><path d="m257 444.5c-11.046 0-20 8.954-20 20v40h40v-40c0-11.046-8.954-20-20-20z"/><path d="m67.5 256c0 11.046-8.954 20-20 20h-40v-40h40c11.046 0 20 8.954 20 20z"/><path d="m444.5 256c0 11.046 8.954 20 20 20h40v-40h-40c-11.046 0-20 8.954-20 20z"/><path d="m180.76 444.5c-11.046 0-20 8.954-20 20v40h40v-40c0-11.046-8.954-20-20-20z"/><path d="m331.24 444.5c-11.046 0-20 8.954-20 20v40h40v-40c0-11.046-8.954-20-20-20z"/></g><g><g><path d="m351 153.5h-36.86c-4.142 0-7.5 3.358-7.5 7.5s3.358 7.5 7.5 7.5h29.36v175h-175v-175h112.95c4.142 0 7.5-3.358 7.5-7.5s-3.358-7.5-7.5-7.5h-120.45c-4.142 0-7.5 3.358-7.5 7.5v190c0 4.142 3.358 7.5 7.5 7.5h190c4.142 0 7.5-3.358 7.5-7.5v-190c0-4.142-3.358-7.5-7.5-7.5z"/><path d="m416 263.5c4.142 0 7.5-3.358 7.5-7.5s-3.358-7.5-7.5-7.5h-17.5v-60.24h17.5c4.142 0 7.5-3.358 7.5-7.5s-3.358-7.5-7.5-7.5h-17.5v-52.26c0-4.142-3.358-7.5-7.5-7.5h-52.26v-17.5c0-4.142-3.358-7.5-7.5-7.5s-7.5 3.358-7.5 7.5v17.5h-60.24v-17.5c0-4.142-3.358-7.5-7.5-7.5s-7.5 3.358-7.5 7.5v17.5h-60.24v-17.5c0-4.142-3.358-7.5-7.5-7.5s-7.5 3.358-7.5 7.5v17.5h-52.26c-4.142 0-7.5 3.358-7.5 7.5v52.26h-17.5c-4.142 0-7.5 3.358-7.5 7.5s3.358 7.5 7.5 7.5h17.5v60.24h-17.5c-4.142 0-7.5 3.358-7.5 7.5s3.358 7.5 7.5 7.5h17.5v60.24h-17.5c-4.142 0-7.5 3.358-7.5 7.5s3.358 7.5 7.5 7.5h17.5v52.26c0 4.142 3.358 7.5 7.5 7.5h52.26v17.5c0 4.142 3.358 7.5 7.5 7.5s7.5-3.358 7.5-7.5v-17.5h60.24v17.5c0 4.142 3.358 7.5 7.5 7.5s7.5-3.358 7.5-7.5v-17.5h60.24v17.5c0 4.142 3.358 7.5 7.5 7.5s7.5-3.358 7.5-7.5v-17.5h52.26c4.142 0 7.5-3.358 7.5-7.5v-52.26h17.5c4.142 0 7.5-3.358 7.5-7.5s-3.358-7.5-7.5-7.5h-17.5v-60.24zm-32.5 120h-255v-255h255z"/></g><g><path d="m504.5 451.83c-4.142 0-7.5 3.358-7.5 7.5v37.67h-138.26v-32.5c0-15.164-12.336-27.5-27.5-27.5-15.163 0-27.5 12.336-27.5 27.5v32.5h-19.24v-32.5c0-15.164-12.336-27.5-27.5-27.5s-27.5 12.336-27.5 27.5v32.5h-21.24v-32.5c0-15.164-12.336-27.5-27.5-27.5-15.164 0-27.5 12.336-27.5 27.5v32.5h-138.26v-113.25h32.5c15.164 0 27.5-12.336 27.5-27.5s-12.336-27.5-27.5-27.5h-32.5v-45.25h32.5c15.164 0 27.5-12.336 27.5-27.5s-12.336-27.5-27.5-27.5h-32.5v-46.09h32.5c16.758-1.576 25.924-10.743 27.5-27.5 0-15.164-12.336-27.5-27.5-27.5h-32.5v-112.41h43.41c4.142 0 7.5-3.358 7.5-7.5s-3.358-7.5-7.5-7.5h-50.91c-4.142 0-7.5 3.358-7.5 7.5v127.41c0 4.142 3.358 7.5 7.5 7.5h40c6.893 0 12.5 5.607 12.5 12.5-.718 7.616-4.884 11.782-12.5 12.5h-40c-4.142 0-7.5 3.358-7.5 7.5v161.34c0 4.142 3.358 7.5 7.5 7.5h40c6.893 0 12.5 5.607 12.5 12.5s-5.607 12.5-12.5 12.5h-40c-4.142 0-7.5 3.358-7.5 7.5v128.25c0 4.142 3.358 7.5 7.5 7.5h497c4.142 0 7.5-3.358 7.5-7.5v-45.17c0-4.142-3.358-7.5-7.5-7.5zm-457-208.33c6.893 0 12.5 5.607 12.5 12.5s-5.607 12.5-12.5 12.5h-32.5v-25zm120.76 253.5v-32.5c0-6.893 5.608-12.5 12.5-12.5s12.5 5.607 12.5 12.5v32.5zm76.24 0v-32.5c0-6.893 5.607-12.5 12.5-12.5s12.5 5.607 12.5 12.5v32.5zm74.24 0v-32.5c0-6.893 5.607-12.5 12.5-12.5s12.5 5.607 12.5 12.5v32.5z"/><path d="m462.29 142.41h42.21c4.142 0 7.5-3.358 7.5-7.5v-127.41c0-4.142-3.358-7.5-7.5-7.5h-413.41c-4.142 0-7.5 3.358-7.5 7.5s3.358 7.5 7.5 7.5h62.17v32.5c0 15.164 12.336 27.5 27.5 27.5 15.163 0 27.5-12.336 27.5-27.5v-32.5h21.24v32.5c0 15.164 12.336 27.5 27.5 27.5s27.5-12.336 27.5-27.5v-32.5h19.24v32.5c0 15.164 12.336 27.5 27.5 27.5s27.5-12.336 27.5-27.5v-32.5h138.26v112.41h-34.71c-16.757 1.574-25.923 10.74-27.5 27.5 0 15.164 12.336 27.5 27.5 27.5h34.71v46.09h-32.5c-15.164 0-27.5 12.336-27.5 27.5s12.336 27.5 27.5 27.5h32.5v45.25h-34.71c-15.164 0-27.5 12.336-27.5 27.5s12.336 27.5 27.5 27.5h34.71v42.89c0 4.142 3.358 7.5 7.5 7.5s7.5-3.358 7.5-7.5v-50.39c0-4.142-3.358-7.5-7.5-7.5h-42.21c-6.893 0-12.5-5.607-12.5-12.5s5.607-12.5 12.5-12.5h42.21c4.142 0 7.5-3.358 7.5-7.5v-161.34c0-4.142-3.358-7.5-7.5-7.5h-42.21c-6.893 0-12.5-5.607-12.5-12.5.717-7.616 4.884-11.782 12.5-12.5zm-269.03-94.91c0 6.893-5.607 12.5-12.5 12.5-6.893 0-12.5-5.607-12.5-12.5v-32.5h25zm76.24 0c0 6.893-5.607 12.5-12.5 12.5s-12.5-5.607-12.5-12.5v-32.5h25zm74.24 0c0 6.893-5.607 12.5-12.5 12.5-6.892 0-12.5-5.607-12.5-12.5v-32.5h25zm120.76 221c-6.893 0-12.5-5.607-12.5-12.5s5.607-12.5 12.5-12.5h32.5v25z"/><path d="m73.67 41.515c-15.164 0-27.5 12.336-27.5 27.5s12.336 27.5 27.5 27.5 27.5-12.336 27.5-27.5-12.337-27.5-27.5-27.5zm0 40c-6.893 0-12.5-5.607-12.5-12.5s5.607-12.5 12.5-12.5 12.5 5.607 12.5 12.5-5.608 12.5-12.5 12.5z"/><path d="m438.33 96.515c15.164 0 27.5-12.336 27.5-27.5s-12.336-27.5-27.5-27.5-27.5 12.336-27.5 27.5 12.337 27.5 27.5 27.5zm0-40c6.893 0 12.5 5.607 12.5 12.5s-5.607 12.5-12.5 12.5-12.5-5.607-12.5-12.5 5.608-12.5 12.5-12.5z"/><path d="m73.67 415.485c-15.164 0-27.5 12.336-27.5 27.5s12.336 27.5 27.5 27.5 27.5-12.336 27.5-27.5-12.337-27.5-27.5-27.5zm0 40c-6.893 0-12.5-5.607-12.5-12.5s5.607-12.5 12.5-12.5 12.5 5.607 12.5 12.5-5.608 12.5-12.5 12.5z"/><path d="m438.33 470.485c15.164 0 27.5-12.336 27.5-27.5s-12.336-27.5-27.5-27.5-27.5 12.336-27.5 27.5 12.337 27.5 27.5 27.5zm0-40c6.893 0 12.5 5.607 12.5 12.5s-5.607 12.5-12.5 12.5-12.5-5.607-12.5-12.5 5.608-12.5 12.5-12.5z"/></g></g></g></svg>