<?xml version="1.0" encoding="utf-8"?>
<!-- Generator: Adobe Illustrator 19.2.0, SVG Export Plug-In . SVG Version: 6.00 Build 0)  -->
<svg xmlns="http://www.w3.org/2000/svg" xmlns:xlink="http://www.w3.org/1999/xlink" version="1.1" id="filesettings" x="0px" y="0px" viewBox="0 0 222.8799 224.1775" enable-background="new 0 0 222.8799 224.1775" xml:space="preserve" width="512" height="512">
<g>
	<path fill="#5CB0FF" d="M52,164.1892c0,2.1992,1.793,3.9883,4,3.9883c2.2422,0,4-1.752,4-3.9883v-4.8125   c0-1.9023,1.3398-3.543,3.207-3.9199c4.5234-0.918,8.7773-2.6816,12.6445-5.2402c1.5781-1.0488,3.6836-0.8379,5.0352,0.5039   l3.4062,3.4043c1.5586,1.5586,4.0898,1.5488,5.6484-0.0059c0.7617-0.7637,1.1836-1.7695,1.1797-2.832   c0-1.0605-0.4141-2.0605-1.1719-2.8145l-3.4062-3.4082c-1.3438-1.3457-1.5586-3.4512-0.5078-5.0371   c2.5625-3.8672,4.3281-8.1211,5.2422-12.6445c0.3789-1.8652,2.0195-3.2051,3.9219-3.2051h4.8125c2.1992,0,3.9883-1.7949,3.9883-4   s-1.7891-4-3.9883-4h-4.8125c-1.9023,0-3.543-1.3398-3.9219-3.2051c-0.9141-4.5234-2.6797-8.7773-5.2422-12.6445   c-1.0508-1.5859-0.8359-3.6914,0.5078-5.0371l3.4062-3.4062c1.5547-1.5547,1.5508-4.0898-0.0078-5.6484   c-0.7617-0.7637-1.7656-1.1816-2.8281-1.1816c-0.0039,0-0.0039,0-0.0039,0c-1.0586,0-2.0586,0.416-2.8125,1.1719l-3.4102,3.4082   c-1.3516,1.3457-3.457,1.5527-5.0352,0.5039c-3.8672-2.5586-8.1211-4.3223-12.6445-5.2402C61.3398,84.5212,60,82.8806,60,80.9783   v-4.8125c0-2.1992-1.793-3.9883-4-3.9883c-2.2422,0-4,1.752-4,3.9883v4.8125c0,1.9023-1.3398,3.543-3.207,3.9199   c-4.5234,0.918-8.7773,2.6816-12.6445,5.2402c-1.5781,1.0488-3.6875,0.8418-5.0352-0.5039l-3.4062-3.4043   c-1.5625-1.5625-4.0938-1.5527-5.6484,0.0059c-0.7617,0.7637-1.1836,1.7695-1.1797,2.832c0,1.0605,0.4141,2.0605,1.1719,2.8145   l3.4023,3.4102c1.3438,1.3438,1.5547,3.4492,0.5078,5.0332c-2.5586,3.8691-4.3242,8.125-5.2383,12.6465   c-0.3789,1.8652-2.0195,3.2051-3.9219,3.2051h-4.8125c-2.1992,0-3.9883,1.7949-3.9883,4s1.7891,4,3.9883,4h4.8125   c1.9023,0,3.543,1.3398,3.9219,3.2051c0.9141,4.5215,2.6797,8.7773,5.2383,12.6465c1.0469,1.584,0.8359,3.6895-0.5078,5.0332   l-3.4023,3.4062c-1.5547,1.5566-1.5508,4.0918,0.0078,5.6504c0.7617,0.7637,1.7656,1.1816,2.8281,1.1816c0,0,0,0,0.0039,0   c1.0586,0,2.0586-0.418,2.8164-1.1738l3.4062-3.4062c0.7734-0.7715,1.7969-1.1699,2.8281-1.1699   c0.7656,0,1.5352,0.2188,2.207,0.666c3.8672,2.5586,8.1211,4.3223,12.6445,5.2402c1.8672,0.377,3.207,2.0176,3.207,3.9199V164.1892   z M40,120.1775c0-8.8223,7.1758-16,16-16s16,7.1777,16,16s-7.1758,16-16,16S40,128.9998,40,120.1775z"/>
	<path fill="#D0E8FF" d="M184,24.1775H64c-2.207,0-4,1.8555-4,4.1348v36.6016c4.646,1.6543,8,6.0488,8,11.252v1.668   c3.2969,0.9297,6.4609,2.2422,9.4531,3.9199l1.1836-1.1836c2.2617-2.2637,5.2695-3.5137,8.4688-3.5156c0,0,0.0039,0,0.0078,0   c3.1992,0,6.2109,1.252,8.4844,3.5254c4.6797,4.6777,4.6836,12.2871,0.0078,16.9609l-1.1836,1.1816   c1.6797,2.9961,2.9922,6.1582,3.9219,9.4551h1.668c6.6094,0,11.9883,5.3828,11.9883,12s-5.3789,12-11.9883,12h-1.668   c-0.9297,3.2969-2.2422,6.459-3.9219,9.4551l1.1836,1.1816c2.2656,2.2637,3.5156,5.2715,3.5156,8.4688   c0.0039,3.1992-1.25,6.2168-3.5234,8.4922c-4.6758,4.6758-12.2852,4.6836-16.9609,0.0078l-1.1836-1.1816   c-2.9922,1.6777-6.1562,2.9902-9.4531,3.9199v1.668c0,5.2031-3.354,9.5977-8,11.252v36.5469c0,2.3105,1.793,4.1895,4,4.1895h120   c2.207,0,4-1.8613,4-4.1504V28.3279C188,26.0388,186.207,24.1775,184,24.1775z M178.1328,204.1775H72v-8h106.1328V204.1775z    M178.1328,172.1775H104v-8h74.1328V172.1775z M178.1328,140.1775H128v-8h50.1328V140.1775z M178.1328,108.1775H128v-8h50.1328   V108.1775z M178.1328,76.1775H104v-8h74.1328V76.1775z M178.1328,44.1775H72v-8h106.1328V44.1775z"/>
	<path fill="#1C71DA" d="M72,120.1775c0-8.8223-7.1758-16-16-16s-16,7.1777-16,16s7.1758,16,16,16S72,128.9998,72,120.1775z    M48,120.1775c0-4.4121,3.5898-8,8-8s8,3.5879,8,8s-3.5898,8-8,8S48,124.5896,48,120.1775z"/>
	<path fill="#1C71DA" d="M184,16.1775H64c-6.6172,0-12,5.4434-12,12.1348v36.6016c-4.646,1.6548-8,6.0488-8,11.252v1.668   c-3.2969,0.9297-6.4609,2.2422-9.4531,3.9199l-1.1836-1.1816c-4.6758-4.6758-12.2852-4.668-16.9609,0.0078   c-2.2734,2.2754-3.5273,5.293-3.5234,8.4922c0,3.1973,1.25,6.2051,3.5156,8.4668l1.1797,1.1836   c-1.6758,2.9961-2.9883,6.1602-3.918,9.4551h-1.668c-6.6094,0-11.9883,5.3828-11.9883,12s5.3789,12,11.9883,12h1.668   c0.9297,3.2949,2.2422,6.459,3.918,9.4551l-1.1797,1.1816c-4.6758,4.6738-4.6719,12.2832,0.0078,16.9609   c2.2734,2.2734,5.2852,3.5254,8.4844,3.5254c0.0039,0,0.0039,0,0.0078,0c3.1953-0.002,6.2031-1.25,8.4688-3.5156l1.1836-1.1836   c2.9922,1.6777,6.1562,2.9902,9.4531,3.9199v1.668c0,5.2031,3.354,9.5972,8,11.252v36.5469c0,6.7207,5.3828,12.1895,12,12.1895h120   c6.6172,0,12-5.4512,12-12.1504V28.3279C196,21.6287,190.6172,16.1775,184,16.1775z M48.793,155.4568   c-4.5234-0.918-8.7773-2.6816-12.6445-5.2402c-0.6719-0.4473-1.4414-0.666-2.207-0.666c-1.0312,0-2.0547,0.3984-2.8281,1.1699   l-3.4062,3.4062c-0.7578,0.7559-1.7578,1.1738-2.8164,1.1738c-0.0039,0-0.0039,0-0.0039,0c-1.0625,0-2.0664-0.418-2.8281-1.1816   c-1.5586-1.5586-1.5625-4.0938-0.0078-5.6504l3.4023-3.4062c1.3438-1.3438,1.5547-3.4492,0.5078-5.0332   c-2.5586-3.8691-4.3242-8.125-5.2383-12.6465c-0.3789-1.8652-2.0195-3.2051-3.9219-3.2051h-4.8125   c-2.1992,0-3.9883-1.7949-3.9883-4s1.7891-4,3.9883-4h4.8125c1.9023,0,3.543-1.3398,3.9219-3.2051   c0.9141-4.5215,2.6797-8.7773,5.2383-12.6465c1.0469-1.584,0.8359-3.6895-0.5078-5.0332l-3.4023-3.4102   c-0.7578-0.7539-1.1719-1.7539-1.1719-2.8145c-0.0039-1.0625,0.418-2.0684,1.1797-2.832c1.5547-1.5586,4.0859-1.5684,5.6484-0.0059   l3.4062,3.4043c1.3477,1.3457,3.457,1.5527,5.0352,0.5039c3.8672-2.5586,8.1211-4.3223,12.6445-5.2402   C50.6602,84.5212,52,82.8806,52,80.9783v-4.8125c0-2.2363,1.7578-3.9883,4-3.9883c2.207,0,4,1.7891,4,3.9883v4.8125   c0,1.9023,1.3398,3.543,3.207,3.9199c4.5234,0.918,8.7773,2.6816,12.6445,5.2402c1.5781,1.0488,3.6836,0.8418,5.0352-0.5039   l3.4102-3.4082c0.7539-0.7559,1.7539-1.1719,2.8125-1.1719c0,0,0,0,0.0039,0c1.0625,0,2.0664,0.418,2.8281,1.1816   c1.5586,1.5586,1.5625,4.0938,0.0078,5.6484l-3.4062,3.4062c-1.3438,1.3457-1.5586,3.4512-0.5078,5.0371   c2.5625,3.8672,4.3281,8.1211,5.2422,12.6445c0.3789,1.8652,2.0195,3.2051,3.9219,3.2051h4.8125c2.1992,0,3.9883,1.7949,3.9883,4   s-1.7891,4-3.9883,4h-4.8125c-1.9023,0-3.543,1.3398-3.9219,3.2051c-0.9141,4.5234-2.6797,8.7773-5.2422,12.6445   c-1.0508,1.5859-0.8359,3.6914,0.5078,5.0371l3.4062,3.4082c0.7578,0.7539,1.1719,1.7539,1.1719,2.8145   c0.0039,1.0625-0.418,2.0684-1.1797,2.832c-1.5586,1.5547-4.0898,1.5645-5.6484,0.0059l-3.4062-3.4043   c-1.3516-1.3418-3.457-1.5527-5.0352-0.5039c-3.8672,2.5586-8.1211,4.3223-12.6445,5.2402c-1.8672,0.377-3.207,2.0176-3.207,3.9199   v4.8125c0,2.2363-1.7578,3.9883-4,3.9883c-2.207,0-4-1.7891-4-3.9883v-4.8125C52,157.4744,50.6602,155.8337,48.793,155.4568z    M188,212.0271c0,2.2891-1.793,4.1504-4,4.1504H64c-2.207,0-4-1.8789-4-4.1895v-36.5469c4.646-1.6543,8-6.0488,8-11.252v-1.668   c3.2969-0.9297,6.4609-2.2422,9.4531-3.9199l1.1836,1.1816c4.6758,4.6758,12.2852,4.668,16.9609-0.0078   c2.2734-2.2754,3.5273-5.293,3.5234-8.4922c0-3.1973-1.25-6.2051-3.5156-8.4688l-1.1836-1.1816   c1.6797-2.9961,2.9922-6.1582,3.9219-9.4551h1.668c6.6094,0,11.9883-5.3828,11.9883-12s-5.3789-12-11.9883-12h-1.668   c-0.9297-3.2969-2.2422-6.459-3.9219-9.4551l1.1836-1.1816c4.6758-4.6738,4.6719-12.2832-0.0078-16.9609   c-2.2734-2.2734-5.2852-3.5254-8.4844-3.5254c-0.0039,0-0.0078,0-0.0078,0c-3.1992,0.002-6.207,1.252-8.4688,3.5156l-1.1836,1.1836   c-2.9922-1.6777-6.1562-2.9902-9.4531-3.9199v-1.668c0-5.2031-3.354-9.5977-8-11.252V28.3123c0-2.2793,1.793-4.1348,4-4.1348h120   c2.207,0,4,1.8613,4,4.1504V212.0271z"/>
	<rect x="72" y="36.1775" fill="#1C71DA" width="106.1328" height="8"/>
	<rect x="128" y="132.1775" fill="#1C71DA" width="50.1328" height="8"/>
	<rect x="104" y="68.1775" fill="#1C71DA" width="74.1328" height="8"/>
	<rect x="104" y="164.1775" fill="#1C71DA" width="74.1328" height="8"/>
	<rect x="128" y="100.1775" fill="#1C71DA" width="50.1328" height="8"/>
	<rect x="72" y="196.1775" fill="#1C71DA" width="106.1328" height="8"/>
</g>
<path fill="#FF5D5D" d="M4.252,40.0012c-1.0234,0-2.0469-0.3906-2.8281-1.1714c-1.5625-1.5625-1.5625-4.0952,0-5.6572  l14.1426-14.1421c1.5605-1.5615,4.0938-1.5615,5.6562,0c1.5625,1.5625,1.5625,4.0952,0,5.6572L7.0801,38.8298  C6.2998,39.6106,5.2754,40.0012,4.252,40.0012z"/>
<path fill="#FF5D5D" d="M18.3945,39.9998c-1.0234,0-2.0479-0.3906-2.8281-1.1714L1.4238,24.6858  c-1.5625-1.5625-1.5625-4.0947,0-5.6572c1.5605-1.5615,4.0957-1.5615,5.6562,0l14.1426,14.1426  c1.5625,1.5625,1.5625,4.0947,0,5.6572C20.4424,39.6091,19.418,39.9998,18.3945,39.9998z"/>
<path fill="#00D40B" d="M22.252,220.0012c-7.7197,0-14-6.2803-14-14s6.2803-14,14-14s14,6.2803,14,14  S29.9717,220.0012,22.252,220.0012z M22.252,200.0012c-3.3086,0-6,2.6914-6,6s2.6914,6,6,6s6-2.6914,6-6  S25.5605,200.0012,22.252,200.0012z"/>
<path fill="#FFC504" d="M207.5664,30.6267c-1.0234,0-2.0469-0.3906-2.8281-1.1714l-11.3145-11.3135  c-0.75-0.75-1.1719-1.7676-1.1719-2.8286s0.4219-2.0786,1.1719-2.8286l11.3145-11.3135c1.5625-1.5615,4.0938-1.5615,5.6562,0  l11.3135,11.3135c1.5625,1.5625,1.5625,4.0947,0,5.6572l-11.3135,11.3135C209.6143,30.2361,208.5898,30.6267,207.5664,30.6267z   M201.9092,15.3132l5.6572,5.6567l5.6562-5.6567l-5.6562-5.6567L201.9092,15.3132z"/>
</svg>
