<?xml version="1.0" encoding="iso-8859-1"?>
<!-- Generator: Adobe Illustrator 19.0.0, SVG Export Plug-In . SVG Version: 6.00 Build 0)  -->
<svg version="1.1" id="Capa_1" xmlns="http://www.w3.org/2000/svg" xmlns:xlink="http://www.w3.org/1999/xlink" x="0px" y="0px"
	 viewBox="0 0 512 512" style="enable-background:new 0 0 512 512;" xml:space="preserve">
<polygon style="fill:#00CDCD;" points="226.462,226.462 0,226.462 0,0 147.692,0 147.692,39.385 39.385,39.385 39.385,187.077 
	187.077,187.077 187.077,147.692 226.462,147.692 "/>
<polygon style="fill:#6A7D98;" points="127.311,155.175 64.886,92.652 92.652,64.886 128.689,100.825 213.268,24.714 
	239.655,54.055 "/>
<g>
	<rect x="295.385" y="108.308" style="fill:#00CDCD;" width="216.615" height="39.385"/>
	<polygon style="fill:#00CDCD;" points="226.462,512 0,512 0,285.538 147.692,285.538 147.692,324.923 39.385,324.923 
		39.385,472.615 187.077,472.615 187.077,433.231 226.462,433.231 	"/>
</g>
<polygon style="fill:#6A7D98;" points="127.311,440.714 64.886,378.191 92.652,350.425 128.689,386.363 213.268,310.252 
	239.655,339.594 "/>
<rect x="295.385" y="393.846" style="fill:#00CDCD;" width="216.615" height="39.385"/>
<g>
</g>
<g>
</g>
<g>
</g>
<g>
</g>
<g>
</g>
<g>
</g>
<g>
</g>
<g>
</g>
<g>
</g>
<g>
</g>
<g>
</g>
<g>
</g>
<g>
</g>
<g>
</g>
<g>
</g>
</svg>
