<svg id="Capa_1" enable-background="new 0 0 483.254 483.254" height="512" viewBox="0 0 483.254 483.254" width="512" xmlns="http://www.w3.org/2000/svg"><g><g id="icon_96_"><path d="m172.398 378.235-14.545 41.654h167.548l-14.545-41.654z" fill="#414451"/><path d="m483.254 327.081v-271.247c0-12.092-9.802-21.894-21.894-21.894h-439.466c-12.092 0-21.894 9.802-21.894 21.894v271.247z" fill="#575b6d"/><path d="m25.33 59.269h432.601v267.817h-432.601z" fill="#69b0ee"/><path d="m0 316.82v42.338c0 12.095 9.805 21.9 21.9 21.9h439.461c12.092 0 21.894-9.802 21.894-21.894 0-.002 0-.004 0-.006v-42.338z" fill="#575b6d"/><path d="m339.663 416.984h-196.072c-9.429 0-17.061 9.359-17.061 32.331h230.194c0-22.973-7.638-32.331-17.061-32.331z" fill="#575b6d"/><circle cx="241.627" cy="348.933" fill="#414451" r="9.152"/><g fill="#eeefee"><path d="m337.665 59.305-116.753 257.521h-10.944l116.753-257.521z" opacity=".5"/><path d="m303.596 59.305-116.759 257.521h-47.742l116.753-257.521z" opacity=".5"/></g></g></g></svg>