<?xml version="1.0" encoding="UTF-8" standalone="no"?>
<!-- Generator: Adobe Illustrator 19.0.0, SVG Export Plug-In . SVG Version: 6.00 Build 0)  -->

<svg
   xmlns:dc="http://purl.org/dc/elements/1.1/"
   xmlns:cc="http://creativecommons.org/ns#"
   xmlns:rdf="http://www.w3.org/1999/02/22-rdf-syntax-ns#"
   xmlns:svg="http://www.w3.org/2000/svg"
   xmlns="http://www.w3.org/2000/svg"
   xmlns:sodipodi="http://sodipodi.sourceforge.net/DTD/sodipodi-0.dtd"
   xmlns:inkscape="http://www.inkscape.org/namespaces/inkscape"
   version="1.1"
   id="Layer_1"
   x="0px"
   y="0px"
   viewBox="0 0 512.002 512.002"
   style="enable-background:new 0 0 512.002 512.002;"
   xml:space="preserve"
   sodipodi:docname="nsf_file.svg"
   inkscape:version="0.92.2 2405546, 2018-03-11"><metadata
   id="metadata51"><rdf:RDF><cc:Work
       rdf:about=""><dc:format>image/svg+xml</dc:format><dc:type
         rdf:resource="http://purl.org/dc/dcmitype/StillImage" /></cc:Work></rdf:RDF></metadata><defs
   id="defs49" /><sodipodi:namedview
   pagecolor="#ffffff"
   bordercolor="#666666"
   borderopacity="1"
   objecttolerance="10"
   gridtolerance="10"
   guidetolerance="10"
   inkscape:pageopacity="0"
   inkscape:pageshadow="2"
   inkscape:window-width="1920"
   inkscape:window-height="1004"
   id="namedview47"
   showgrid="false"
   inkscape:zoom="1.303723"
   inkscape:cx="489.36177"
   inkscape:cy="207.18565"
   inkscape:window-x="0"
   inkscape:window-y="24"
   inkscape:window-maximized="1"
   inkscape:current-layer="Layer_1" />
<path
   style="fill:#00ff00"
   d="M162.283,98.603v248.19c-9.727-3.439-20.312-5.062-31.361-4.401  c-40.456,2.418-72.937,35.46-74.661,75.95c-1.924,45.157,33.806,82.435,78.392,83.043c44.556,0.607,80.679-36.138,80.679-80.698  V174.451c0-6.722,4.485-12.618,10.963-14.412l157.528-43.634c9.526-2.639,18.947,4.527,18.947,14.412v156.031  c-9.725-3.439-20.307-5.061-31.353-4.401c-40.454,2.414-72.938,35.448-74.669,75.937c-1.931,45.161,33.798,82.446,78.386,83.057  c44.558,0.61,80.683-36.135,80.683-80.698V25.581c0-9.885-9.42-17.051-18.947-14.412L173.246,84.19  C166.768,85.985,162.283,91.881,162.283,98.603z"
   id="path2" />
<g
   id="g14">
	<path
   style="fill:#231F20;"
   d="M456.339,5.233c-6.411-4.876-14.538-6.44-22.3-4.289L170.413,73.966   c-11.034,3.057-18.741,13.188-18.741,24.638v234.44c-7.009-1.256-14.162-1.674-21.384-1.242   c-22.192,1.327-43.071,10.863-58.788,26.852c-15.718,15.989-24.895,37.027-25.841,59.238c-1.048,24.619,7.672,48.012,24.555,65.871   c16.894,17.871,39.727,27.896,64.293,28.231c0.416,0.005,0.826,0.008,1.241,0.008c23.595-0.001,45.875-9.181,62.853-25.928   c17.629-17.39,27.338-40.612,27.338-65.386V174.451c0-1.946,1.31-3.668,3.185-4.188l157.528-43.633   c1.811-0.5,3.151,0.243,3.79,0.73c0.641,0.487,1.715,1.584,1.715,3.458v142.281c-7.007-1.256-14.155-1.672-21.374-1.242   c-22.191,1.325-43.07,10.857-58.788,26.842c-15.719,15.986-24.9,37.021-25.849,59.232c-1.051,24.622,7.667,48.017,24.548,65.88   c16.894,17.874,39.727,27.902,64.296,28.239c24.065,0.336,46.82-8.876,64.098-25.918c17.63-17.391,27.34-40.613,27.34-65.388   V25.582C466.426,17.527,462.75,10.111,456.339,5.233z M445.207,360.742c0,19.053-7.466,36.91-21.022,50.282   c-13.204,13.023-30.538,20.052-48.906,19.807c-18.783-0.257-36.244-7.928-49.164-21.597   c-12.908-13.658-19.574-31.556-18.767-50.397c1.489-34.821,29.909-63.723,64.701-65.799c9.303-0.557,18.454,0.728,27.183,3.813   c3.248,1.149,6.851,0.648,9.662-1.34s4.485-5.218,4.485-8.663V130.818c0-8.054-3.677-15.471-10.088-20.347   c-6.411-4.877-14.542-6.439-22.3-4.289l-157.528,43.633c-11.034,3.057-18.741,13.188-18.741,24.637v246.235   c0,19.052-7.465,36.909-21.021,50.28c-13.203,13.023-30.581,20.047-48.904,19.809c-18.782-0.256-36.243-7.923-49.162-21.591   c-12.909-13.656-19.577-31.551-18.775-50.392c1.483-34.823,29.901-63.731,64.696-65.812c1.411-0.084,2.818-0.126,4.221-0.126   c7.854,0,15.563,1.321,22.97,3.939c3.248,1.149,6.85,0.648,9.662-1.34c2.813-1.988,4.485-5.218,4.485-8.663V98.603   c0-1.946,1.31-3.669,3.185-4.188l263.626-73.021c1.798-0.502,3.148,0.241,3.789,0.729c0.641,0.487,1.715,1.584,1.715,3.459v335.16   H445.207z"
   id="path4" />
	<path
   style="fill:#231F20;"
   d="M109.238,421.464c0.003-0.286,0.011-0.574,0.022-0.862c0.251-5.854-4.289-10.804-10.145-11.055   c-5.857-0.258-10.804,4.291-11.055,10.145c-0.022,0.508-0.035,1.016-0.041,1.522c-0.069,5.859,4.625,10.665,10.484,10.734   c0.042,0,0.085,0,0.127,0C104.432,431.949,109.169,427.28,109.238,421.464z"
   id="path6" />
	<path
   style="fill:#231F20;"
   d="M172.893,410.077c-5.86,0-10.61,4.75-10.61,10.61c0,15.25-11.907,27.656-26.477,27.656l-0.43-0.002   c-6.214-0.085-11.986-2.234-16.69-6.215c-4.472-3.784-11.167-3.229-14.952,1.245c-3.786,4.472-3.227,11.167,1.245,14.952   c8.505,7.198,18.916,11.083,30.188,11.237l0.575,0.003c26.335,0,47.762-21.926,47.762-48.876   C183.502,414.827,178.752,410.077,172.893,410.077z"
   id="path8" />
	<path
   style="fill:#231F20;"
   d="M349.737,360.938l0.008-0.224c0.285-5.853-4.227-10.829-10.08-11.115   c-5.865-0.288-10.829,4.228-11.115,10.08c-0.011,0.223-0.019,0.445-0.024,0.666c-0.163,5.858,4.452,10.738,10.31,10.901   c0.101,0.002,0.201,0.004,0.3,0.004C344.858,371.252,349.576,366.694,349.737,360.938z"
   id="path10" />
	<path
   style="fill:#231F20;"
   d="M413.379,350.132c-5.859,0-10.61,4.75-10.61,10.61c0,15.25-11.907,27.657-26.467,27.658   l-0.442-0.003c-5.559-0.076-10.835-1.834-15.254-5.083c-4.72-3.47-11.362-2.459-14.832,2.263c-3.47,4.72-2.457,11.361,2.263,14.832   c8.003,5.884,17.524,9.067,27.604,9.205l0.588,0.004c26.335,0,47.762-21.926,47.762-48.877   C423.988,354.882,419.238,350.132,413.379,350.132z"
   id="path12" />
</g>
<g
   id="g16">
</g>
<g
   id="g18">
</g>
<g
   id="g20">
</g>
<g
   id="g22">
</g>
<g
   id="g24">
</g>
<g
   id="g26">
</g>
<g
   id="g28">
</g>
<g
   id="g30">
</g>
<g
   id="g32">
</g>
<g
   id="g34">
</g>
<g
   id="g36">
</g>
<g
   id="g38">
</g>
<g
   id="g40">
</g>
<g
   id="g42">
</g>
<g
   id="g44">
</g>
</svg>