<?xml version="1.0" encoding="UTF-8" standalone="no"?>
<svg
   xmlns:dc="http://purl.org/dc/elements/1.1/"
   xmlns:cc="http://creativecommons.org/ns#"
   xmlns:rdf="http://www.w3.org/1999/02/22-rdf-syntax-ns#"
   xmlns:svg="http://www.w3.org/2000/svg"
   xmlns="http://www.w3.org/2000/svg"
   xml:space="preserve"
   viewBox="0 0 256 256"
   height="256"
   width="256"
   y="0px"
   x="0px"
   id="Capa_1"
   version="1.1"><metadata
   id="metadata41"><rdf:RDF><cc:Work
       rdf:about=""><dc:format>image/svg+xml</dc:format><dc:type
         rdf:resource="http://purl.org/dc/dcmitype/StillImage" /><dc:title></dc:title></cc:Work></rdf:RDF></metadata><defs
   id="defs39" />
<g
   transform="matrix(2.7161804,0,0,2.7161804,0.02222307,-1.7550001e-6)"
   id="g4">
	<path
   id="path2"
   d="m 10.137,0 v 16.043 3.454 54.968 3.454 16.331 H 84.113 V 0 Z M 77.206,16.043 H 67.559 V 6.907 h 9.647 z M 30.721,74.465 V 19.497 h 33.384 v 54.968 z m 33.383,3.454 v 9.424 H 30.721 V 77.919 Z M 30.721,16.043 V 6.907 h 33.384 v 9.136 z m 36.837,3.454 h 9.647 V 74.465 H 67.558 Z M 17.044,6.907 h 10.223 v 9.136 H 17.044 Z m 0,12.59 H 27.267 V 74.465 H 17.044 Z m 0,58.422 h 10.223 v 9.424 H 17.044 Z m 50.514,9.424 v -9.424 h 9.647 v 9.424 z" />
</g>
<g
   transform="translate(0,161.75)"
   id="g6">
</g>
<g
   transform="translate(0,161.75)"
   id="g8">
</g>
<g
   transform="translate(0,161.75)"
   id="g10">
</g>
<g
   transform="translate(0,161.75)"
   id="g12">
</g>
<g
   transform="translate(0,161.75)"
   id="g14">
</g>
<g
   transform="translate(0,161.75)"
   id="g16">
</g>
<g
   transform="translate(0,161.75)"
   id="g18">
</g>
<g
   transform="translate(0,161.75)"
   id="g20">
</g>
<g
   transform="translate(0,161.75)"
   id="g22">
</g>
<g
   transform="translate(0,161.75)"
   id="g24">
</g>
<g
   transform="translate(0,161.75)"
   id="g26">
</g>
<g
   transform="translate(0,161.75)"
   id="g28">
</g>
<g
   transform="translate(0,161.75)"
   id="g30">
</g>
<g
   transform="translate(0,161.75)"
   id="g32">
</g>
<g
   transform="translate(0,161.75)"
   id="g34">
</g>
</svg>