<?xml version="1.0" encoding="UTF-8" standalone="no"?>
<!-- Created with Inkscape (http://www.inkscape.org/) -->

<svg
   xmlns:dc="http://purl.org/dc/elements/1.1/"
   xmlns:cc="http://creativecommons.org/ns#"
   xmlns:rdf="http://www.w3.org/1999/02/22-rdf-syntax-ns#"
   xmlns:svg="http://www.w3.org/2000/svg"
   xmlns="http://www.w3.org/2000/svg"
   xmlns:xlink="http://www.w3.org/1999/xlink"
   xmlns:sodipodi="http://sodipodi.sourceforge.net/DTD/sodipodi-0.dtd"
   xmlns:inkscape="http://www.inkscape.org/namespaces/inkscape"
   width="256"
   height="256"
   id="svg1943"
   sodipodi:version="0.32"
   inkscape:version="0.92.2 2405546, 2018-03-11"
   version="1.0"
   sodipodi:docname="overscan_set_borders.svg"
   inkscape:output_extension="org.inkscape.output.svgz.inkscape">
  <defs
     id="defs1945">
    <radialGradient
       inkscape:collect="always"
       xlink:href="#linearGradient3207"
       id="radialGradient2287"
       gradientUnits="userSpaceOnUse"
       gradientTransform="matrix(1.042253,0,0,0.126014,-152.0123,-75.76904)"
       cx="49.011971"
       cy="2.6743078"
       fx="49.011971"
       fy="2.6743078"
       r="1.7246193" />
    <radialGradient
       inkscape:collect="always"
       xlink:href="#linearGradient3207"
       id="radialGradient2285"
       gradientUnits="userSpaceOnUse"
       gradientTransform="matrix(1.042254,0,0,0.126014,21.59014,-82.61791)"
       cx="49.011971"
       cy="2.6743078"
       fx="49.011971"
       fy="2.6743078"
       r="1.7246193" />
    <linearGradient
       id="linearGradient2232">
      <stop
         style="stop-color:#b4942a;stop-opacity:1;"
         offset="0"
         id="stop2234" />
      <stop
         style="stop-color:#e4dcc9;stop-opacity:1"
         offset="1"
         id="stop2236" />
    </linearGradient>
    <linearGradient
       inkscape:collect="always"
       xlink:href="#linearGradient2232"
       id="linearGradient2283"
       gradientUnits="userSpaceOnUse"
       gradientTransform="matrix(0.789159,0,0,0.789159,21.06854,0.03497228)"
       x1="49.15303"
       y1="75.310318"
       x2="82.484642"
       y2="75.310318" />
    <linearGradient
       id="linearGradient3235"
       inkscape:collect="always">
      <stop
         id="stop3237"
         offset="0"
         style="stop-color:#ffffff;stop-opacity:1;" />
      <stop
         id="stop3239"
         offset="1"
         style="stop-color:#ffffff;stop-opacity:0;" />
    </linearGradient>
    <linearGradient
       inkscape:collect="always"
       xlink:href="#linearGradient3235"
       id="linearGradient2281"
       gradientUnits="userSpaceOnUse"
       gradientTransform="matrix(1.112439,1.035436,-1.031663,1.116507,65.57053,-49.14214)"
       x1="48.498562"
       y1="0.81150496"
       x2="48.732723"
       y2="2.3657269" />
    <linearGradient
       id="linearGradient3207">
      <stop
         style="stop-color:#ffffff;stop-opacity:1;"
         offset="0"
         id="stop3209" />
      <stop
         style="stop-color:#252525;stop-opacity:0;"
         offset="1"
         id="stop3211" />
    </linearGradient>
    <radialGradient
       inkscape:collect="always"
       xlink:href="#linearGradient3207"
       id="radialGradient2279"
       gradientUnits="userSpaceOnUse"
       gradientTransform="matrix(1.519754,0,0,0.184942,14.80903,-77.11571)"
       cx="49.011971"
       cy="2.6743078"
       fx="49.011971"
       fy="2.6743078"
       r="1.7246193" />
    <linearGradient
       id="linearGradient3225">
      <stop
         style="stop-color:#ffffff;stop-opacity:1;"
         offset="0"
         id="stop3227" />
      <stop
         style="stop-color:#aeaeae;stop-opacity:1;"
         offset="1"
         id="stop3229" />
    </linearGradient>
    <radialGradient
       inkscape:collect="always"
       xlink:href="#linearGradient3225"
       id="radialGradient2277"
       gradientUnits="userSpaceOnUse"
       gradientTransform="matrix(1.112439,1.035436,-0.388678,0.420644,60.1082,-43.23056)"
       cx="49.009884"
       cy="8.4953117"
       fx="47.370888"
       fy="6.7701697"
       r="3.9750404" />
    <linearGradient
       id="linearGradient3325">
      <stop
         id="stop3327"
         offset="0"
         style="stop-color:#ffffff;stop-opacity:1;" />
      <stop
         id="stop3329"
         offset="1"
         style="stop-color:#ffffff;stop-opacity:0;" />
    </linearGradient>
    <radialGradient
       inkscape:collect="always"
       xlink:href="#linearGradient3325"
       id="radialGradient2275"
       gradientUnits="userSpaceOnUse"
       gradientTransform="matrix(-1.5103,0.00264127,-1.167078e-4,-0.00911022,87.0522,7.438666)"
       cx="34.677639"
       cy="7.4622769"
       fx="34.677639"
       fy="7.4622769"
       r="47.595196" />
    <linearGradient
       id="linearGradient3303">
      <stop
         style="stop-color:#ffffff;stop-opacity:0.68345326;"
         offset="0"
         id="stop3305" />
      <stop
         style="stop-color:#ffffff;stop-opacity:0;"
         offset="1"
         id="stop3307" />
    </linearGradient>
    <radialGradient
       inkscape:collect="always"
       xlink:href="#linearGradient3303"
       id="radialGradient2273"
       gradientUnits="userSpaceOnUse"
       gradientTransform="matrix(0.999914,-0.00784165,5.666079e-4,0.02048306,-0.00124223,7.581357)"
       cx="34.677639"
       cy="7.4622769"
       fx="34.677639"
       fy="7.4622769"
       r="47.595196" />
    <linearGradient
       inkscape:collect="always"
       xlink:href="#linearGradient3058"
       id="linearGradient2271"
       gradientUnits="userSpaceOnUse"
       gradientTransform="matrix(0.856502,0.799536,-0.796622,0.859634,115.5123,-21.93479)"
       x1="11.326384"
       y1="57.383999"
       x2="14.493531"
       y2="57.383999" />
    <linearGradient
       id="linearGradient3058">
      <stop
         id="stop3060"
         offset="0"
         style="stop-color:#9a7600;stop-opacity:1;" />
      <stop
         style="stop-color:#e3ad00;stop-opacity:1;"
         offset="0.09292036"
         id="stop3066" />
      <stop
         id="stop3070"
         offset="0.5043171"
         style="stop-color:#ffcd2c;stop-opacity:1;" />
      <stop
         id="stop3068"
         offset="0.91571385"
         style="stop-color:#e3ad00;stop-opacity:1;" />
      <stop
         id="stop3062"
         offset="1"
         style="stop-color:#b98d00;stop-opacity:1;" />
    </linearGradient>
    <radialGradient
       inkscape:collect="always"
       xlink:href="#linearGradient3058"
       id="radialGradient2269"
       gradientUnits="userSpaceOnUse"
       gradientTransform="matrix(0.05267341,0.05051614,-1.057794,1.116234,183.7751,-66.53858)"
       cx="36.675648"
       cy="95.769279"
       fx="16.217354"
       fy="64.141281"
       r="47.746403" />
    <linearGradient
       id="linearGradient2598">
      <stop
         id="stop2600"
         offset="0"
         style="stop-color:#252525;stop-opacity:1;" />
      <stop
         style="stop-color:#252525;stop-opacity:1;"
         offset="0.5"
         id="stop2606" />
      <stop
         id="stop2608"
         offset="0.75"
         style="stop-color:#252525;stop-opacity:1;" />
      <stop
         id="stop2602"
         offset="1"
         style="stop-color:#000000;stop-opacity:1;" />
    </linearGradient>
    <radialGradient
       inkscape:collect="always"
       xlink:href="#linearGradient2598"
       id="radialGradient2267"
       gradientUnits="userSpaceOnUse"
       gradientTransform="matrix(1.54853,1.469114,-21.05168,22.68598,1272.946,-1291.402)"
       cx="15.727077"
       cy="58.089687"
       fx="15.727077"
       fy="58.089687"
       r="2.6143966" />
    <linearGradient
       id="linearGradient2257">
      <stop
         style="stop-color:#b4942a;stop-opacity:1;"
         offset="0"
         id="stop2259" />
      <stop
         style="stop-color:#e4dcc9;stop-opacity:1"
         offset="1"
         id="stop2261" />
    </linearGradient>
    <radialGradient
       inkscape:collect="always"
       xlink:href="#linearGradient2257"
       id="radialGradient2265"
       gradientUnits="userSpaceOnUse"
       gradientTransform="matrix(1.231616,1.291421,-11.70616,11.17834,1411.874,-1325.552)"
       cx="42.617531"
       cy="120.64188"
       fx="42.617531"
       fy="120.64188"
       r="3.406888" />
    <linearGradient
       id="linearGradient3291"
       inkscape:collect="always">
      <stop
         id="stop3293"
         offset="0"
         style="stop-color:#000000;stop-opacity:1;" />
      <stop
         id="stop3295"
         offset="1"
         style="stop-color:#000000;stop-opacity:0;" />
    </linearGradient>
    <linearGradient
       id="linearGradient7280">
      <stop
         style="stop-color:#72777a;stop-opacity:1;"
         offset="0"
         id="stop7282" />
      <stop
         id="stop7288"
         offset="0.5"
         style="stop-color:black;stop-opacity:0;" />
      <stop
         style="stop-color:#72757a;stop-opacity:1;"
         offset="1"
         id="stop7284" />
    </linearGradient>
    <linearGradient
       id="XMLID_18_"
       gradientUnits="userSpaceOnUse"
       x1="112"
       y1="56"
       x2="120"
       y2="56"
       gradientTransform="translate(114.7302,21.20635)">
      <stop
         offset="0"
         style="stop-color:#BBBBBB"
         id="stop72" />
      <stop
         offset="1"
         style="stop-color:#888888"
         id="stop74" />
    </linearGradient>
    <linearGradient
       id="XMLID_17_"
       gradientUnits="userSpaceOnUse"
       x1="0"
       y1="56"
       x2="8"
       y2="56"
       gradientTransform="translate(114.7302,21.20635)">
      <stop
         offset="0"
         style="stop-color:#BBBBBB"
         id="stop65" />
      <stop
         offset="1"
         style="stop-color:#888888"
         id="stop67" />
    </linearGradient>
    <linearGradient
       id="XMLID_16_"
       gradientUnits="userSpaceOnUse"
       x1="112"
       y1="108"
       x2="120"
       y2="108"
       gradientTransform="translate(114.7302,21.20635)">
      <stop
         offset="0"
         style="stop-color:#BBBBBB"
         id="stop58" />
      <stop
         offset="1"
         style="stop-color:#888888"
         id="stop60" />
    </linearGradient>
    <linearGradient
       id="XMLID_15_"
       gradientUnits="userSpaceOnUse"
       x1="112"
       y1="4"
       x2="120"
       y2="4"
       gradientTransform="translate(114.7302,21.20635)">
      <stop
         offset="0"
         style="stop-color:#BBBBBB"
         id="stop51" />
      <stop
         offset="1"
         style="stop-color:#888888"
         id="stop53" />
    </linearGradient>
    <linearGradient
       id="XMLID_14_"
       gradientUnits="userSpaceOnUse"
       x1="0"
       y1="108"
       x2="8"
       y2="108"
       gradientTransform="translate(114.7302,21.20635)">
      <stop
         offset="0"
         style="stop-color:#BBBBBB"
         id="stop44" />
      <stop
         offset="1"
         style="stop-color:#888888"
         id="stop46" />
    </linearGradient>
    <linearGradient
       id="XMLID_13_"
       gradientUnits="userSpaceOnUse"
       x1="0"
       y1="4"
       x2="8"
       y2="4"
       gradientTransform="translate(114.7302,21.20635)">
      <stop
         offset="0"
         style="stop-color:#BBBBBB"
         id="stop37" />
      <stop
         offset="1"
         style="stop-color:#888888"
         id="stop39" />
    </linearGradient>
    <linearGradient
       id="XMLID_12_"
       gradientUnits="userSpaceOnUse"
       x1="56"
       y1="108"
       x2="64"
       y2="108"
       gradientTransform="translate(114.7302,21.20635)">
      <stop
         offset="0"
         style="stop-color:#BBBBBB"
         id="stop30" />
      <stop
         offset="1"
         style="stop-color:#888888"
         id="stop32" />
    </linearGradient>
    <linearGradient
       id="XMLID_11_"
       gradientUnits="userSpaceOnUse"
       x1="56"
       y1="4"
       x2="64"
       y2="4"
       gradientTransform="translate(114.7302,21.20635)">
      <stop
         offset="0"
         style="stop-color:#BBBBBB"
         id="stop23" />
      <stop
         offset="1"
         style="stop-color:#888888"
         id="stop25" />
    </linearGradient>
    <linearGradient
       inkscape:collect="always"
       xlink:href="#XMLID_18_"
       id="linearGradient2027"
       gradientUnits="userSpaceOnUse"
       gradientTransform="matrix(2,0,0,2,16.000036,-104)"
       x1="112"
       y1="56"
       x2="120"
       y2="56" />
    <linearGradient
       inkscape:collect="always"
       xlink:href="#XMLID_17_"
       id="linearGradient2030"
       gradientUnits="userSpaceOnUse"
       gradientTransform="matrix(2,0,0,2,3.6478044e-5,-104)"
       x1="0"
       y1="56"
       x2="8"
       y2="56" />
    <linearGradient
       inkscape:collect="always"
       xlink:href="#XMLID_16_"
       id="linearGradient2033"
       gradientUnits="userSpaceOnUse"
       gradientTransform="matrix(2,0,0,2,16.000036,-104)"
       x1="112"
       y1="108"
       x2="120"
       y2="108" />
    <linearGradient
       inkscape:collect="always"
       xlink:href="#XMLID_15_"
       id="linearGradient2036"
       gradientUnits="userSpaceOnUse"
       gradientTransform="matrix(2,0,0,2,16.000036,-104)"
       x1="112"
       y1="4"
       x2="120"
       y2="4" />
    <linearGradient
       inkscape:collect="always"
       xlink:href="#XMLID_14_"
       id="linearGradient2039"
       gradientUnits="userSpaceOnUse"
       gradientTransform="matrix(2,0,0,2,3.6478044e-5,-104)"
       x1="0"
       y1="108"
       x2="8"
       y2="108" />
    <linearGradient
       inkscape:collect="always"
       xlink:href="#XMLID_13_"
       id="linearGradient2042"
       gradientUnits="userSpaceOnUse"
       gradientTransform="matrix(2,0,0,2,3.6478044e-5,-104)"
       x1="0"
       y1="4"
       x2="8"
       y2="4" />
    <linearGradient
       inkscape:collect="always"
       xlink:href="#XMLID_12_"
       id="linearGradient2045"
       gradientUnits="userSpaceOnUse"
       gradientTransform="matrix(2,0,0,2,8.0000365,-104)"
       x1="56"
       y1="108"
       x2="64"
       y2="108" />
    <linearGradient
       inkscape:collect="always"
       xlink:href="#XMLID_11_"
       id="linearGradient2048"
       gradientUnits="userSpaceOnUse"
       gradientTransform="matrix(2,0,0,2,8.0000365,-104)"
       x1="56"
       y1="4"
       x2="64"
       y2="4" />
    <linearGradient
       inkscape:collect="always"
       xlink:href="#linearGradient7280"
       id="linearGradient7286"
       x1="64"
       y1="23.786015"
       x2="64"
       y2="103.95767"
       gradientUnits="userSpaceOnUse"
       gradientTransform="matrix(2,0,0,2,3.6478044e-5,-120)" />
    <radialGradient
       inkscape:collect="always"
       xlink:href="#linearGradient3291"
       id="radialGradient9980"
       gradientUnits="userSpaceOnUse"
       gradientTransform="matrix(1.3366678,0,0,0.13380828,46.125422,71.433773)"
       cx="63.912209"
       cy="115.70919"
       fx="8.7160034"
       fy="123.91521"
       r="63.912209" />
  </defs>
  <sodipodi:namedview
     id="base"
     pagecolor="#ffffff"
     bordercolor="#666666"
     borderopacity="1.0"
     gridtolerance="10000"
     guidetolerance="10"
     objecttolerance="10"
     inkscape:pageopacity="0.0"
     inkscape:pageshadow="2"
     inkscape:zoom="1.4142136"
     inkscape:cx="-23.00837"
     inkscape:cy="43.704239"
     inkscape:document-units="px"
     inkscape:current-layer="layer1"
     width="128px"
     height="128px"
     showgrid="true"
     inkscape:window-width="1296"
     inkscape:window-height="987"
     inkscape:window-x="212"
     inkscape:window-y="36"
     inkscape:grid-points="true"
     inkscape:window-maximized="0">
    <inkscape:grid
       id="GridFromPre046Settings"
       type="xygrid"
       originx="0"
       originy="0"
       spacingx="4"
       spacingy="4"
       color="#3f3fff"
       empcolor="#3f3fff"
       opacity="0.15"
       empopacity="0.38"
       empspacing="0" />
  </sodipodi:namedview>
  <metadata
     id="metadata1948">
    <rdf:RDF>
      <cc:Work
         rdf:about="">
        <dc:format>image/svg+xml</dc:format>
        <dc:type
           rdf:resource="http://purl.org/dc/dcmitype/StillImage" />
        <dc:title></dc:title>
      </cc:Work>
    </rdf:RDF>
  </metadata>
  <g
     inkscape:label="Layer 1"
     inkscape:groupmode="layer"
     id="layer1"
     transform="translate(0,128)">
    <rect
       style="opacity:0.5;fill:#ffffff;fill-opacity:1;fill-rule:evenodd;stroke:none;stroke-width:32;stroke-linecap:round;stroke-linejoin:round;stroke-miterlimit:4;stroke-dasharray:none;stroke-opacity:1"
       id="rect7316"
       width="224"
       height="192"
       x="16.000036"
       y="-88" />
    <rect
       x="7.9999642"
       y="-88.000008"
       width="8"
       height="192"
       id="rect5"
       style="fill:#99c2dc;fill-opacity:1;stroke-width:2" />
    <rect
       x="239.99997"
       y="-88.000008"
       width="8"
       height="192"
       id="rect7"
       style="fill:#99c2dc;fill-opacity:1;stroke-width:2" />
    <rect
       x="16.000036"
       y="-96"
       width="224"
       height="8"
       id="rect9"
       style="fill:#99c2dc;fill-opacity:1;stroke-width:2" />
    <rect
       x="16.000036"
       y="104"
       width="224"
       height="8"
       id="rect11"
       style="fill:#99c2dc;fill-opacity:1;stroke-width:2" />
    <path
       style="fill:none;stroke:#bbbbbb;stroke-width:16;stroke-linejoin:round;stroke-miterlimit:4;stroke-dasharray:none;stroke-opacity:1"
       id="path2946"
       d="m 48.000037,-56.000004 c 0,13.432 0,114.568003 0,128.000003 15.2,0 144.800003,0 160.000003,0 0,-13.432 0,-114.568003 0,-128.000003 -15.2,0 -144.800003,0 -160.000003,0 z"
       inkscape:connector-curvature="0" />
    <path
       style="fill:#ffffff;fill-opacity:1;stroke-width:2"
       d="m 48.000037,-56.000004 c 0,13.432 0,114.568003 0,128.000003 15.2,0 144.800003,0 160.000003,0 0,-13.432 0,-114.568003 0,-128.000003 -15.2,0 -144.800003,0 -160.000003,0 z"
       id="path20"
       inkscape:connector-curvature="0" />
    <rect
       x="119.99996"
       width="16"
       height="16"
       id="rect27"
       style="fill:url(#linearGradient2048);stroke-width:2"
       y="-104" />
    <rect
       x="119.99996"
       y="104"
       width="16"
       height="16"
       id="rect34"
       style="fill:url(#linearGradient2045);stroke-width:2" />
    <rect
       width="16"
       height="16"
       id="rect41"
       style="fill:url(#linearGradient2042);stroke-width:2"
       x="-3.6478043e-05"
       y="-104" />
    <rect
       y="104"
       width="16"
       height="16"
       id="rect48"
       style="fill:url(#linearGradient2039);stroke-width:2"
       x="-3.6478043e-05" />
    <rect
       x="239.99997"
       width="16"
       height="16"
       id="rect55"
       style="fill:url(#linearGradient2036);stroke-width:2"
       y="-104" />
    <rect
       x="239.99997"
       y="104"
       width="16"
       height="16"
       id="rect62"
       style="fill:url(#linearGradient2033);stroke-width:2" />
    <rect
       y="6.0647726e-06"
       width="16"
       height="16"
       id="rect69"
       style="fill:url(#linearGradient2030);stroke-width:2"
       x="-3.6478043e-05" />
    <rect
       x="239.99997"
       y="6.0647726e-06"
       width="16"
       height="16"
       id="rect76"
       style="fill:url(#linearGradient2027);stroke-width:2" />
    <path
       style="opacity:0.2;fill:url(#linearGradient7286);fill-opacity:1;stroke-width:2"
       d="m 48.000037,-56.000002 c 0,13.432002 0,114.568001 0,128.000001 15.2,0 144.800003,0 160.000003,0 0,-13.432 0,-114.568001 0,-128.000001 -15.2,2e-6 -144.800003,0 -160.000003,0 z m 8,8 143.778173,0.13172 0.22183,111.868281 H 56.000037 Z"
       id="path1929"
       sodipodi:nodetypes="cccccccccc"
       inkscape:connector-curvature="0" />
    <ellipse
       style="opacity:0.2;fill:url(#radialGradient9980);fill-opacity:1;fill-rule:nonzero;stroke:none;stroke-width:0;stroke-linecap:round;stroke-linejoin:round;stroke-miterlimit:4;stroke-dasharray:none;stroke-dashoffset:4;stroke-opacity:1"
       id="path3289"
       transform="matrix(0.98318972,-0.18258688,0.1226078,0.9924552,0,0)"
       cx="131.55481"
       cy="86.916634"
       rx="85.42939"
       ry="8.5519915" />
    <g
       id="g2244"
       transform="matrix(2,0,0,2,0.31682648,-118.45437)">
      <path
         sodipodi:nodetypes="czccccc"
         id="path3180"
         d="m 112.94799,0.35536433 c 0.42178,-0.45648598 3.1413,-0.1912685 5.99723,2.46697967 2.88395,2.6843075 3.4306,5.2447375 2.90225,5.8165006 -0.34387,0.3721705 -0.68776,0.7443387 -1.03163,1.1165084 -2.96652,-2.7611614 -5.93302,-5.5223205 -8.89952,-8.2834816 0.34388,-0.3721691 0.68777,-0.74433746 1.03167,-1.11650707 0,0 0,0 0,0"
         style="fill:#000000;fill-opacity:1;fill-rule:evenodd;stroke:none;stroke-width:1px;stroke-linecap:butt;stroke-linejoin:miter;stroke-opacity:1"
         inkscape:connector-curvature="0" />
      <path
         style="fill:#000000;fill-opacity:1;fill-rule:evenodd;stroke:#000000;stroke-width:0;stroke-linecap:butt;stroke-linejoin:miter;stroke-miterlimit:4;stroke-dasharray:none;stroke-opacity:1"
         d="m 31.841596,97.227179 24.25311,-17.290245 0.137506,-0.148819 -8.753434,-8.441581 -0.186379,0.201631 z"
         id="path3299"
         sodipodi:nodetypes="cccccc"
         inkscape:connector-curvature="0" />
      <path
         sodipodi:nodetypes="cccccc"
         id="path2247"
         d="m 33.24339,95.81655 22.617071,-16.114106 0.137497,-0.148812 -8.284926,-7.972616 -0.186389,0.201638 z"
         style="fill:url(#radialGradient2265);fill-opacity:1;fill-rule:evenodd;stroke:#000000;stroke-width:0;stroke-linecap:butt;stroke-linejoin:miter;stroke-miterlimit:4;stroke-dasharray:none;stroke-opacity:1"
         inkscape:connector-curvature="0" />
      <path
         sodipodi:nodetypes="csccccsz"
         id="rect2192"
         d="m 51.062305,76.425915 c 1.097685,1.021695 2.220177,0.638674 2.612553,1.003879 0.06341,0.05902 0.105512,0.139602 0.135319,0.225737 L 119.0733,6.8873808 114.75934,2.8720371 49.372313,73.774261 c 0.196731,-0.01587 0.371209,-0.0037 0.49531,0.111827 0.358642,0.333827 0.0919,1.513377 1.194682,2.539827 z"
         style="fill:url(#radialGradient2267);fill-opacity:1;fill-rule:nonzero;stroke:none;stroke-width:0.5;stroke-linecap:round;stroke-linejoin:round;stroke-miterlimit:4;stroke-dasharray:none;stroke-dashoffset:4;stroke-opacity:1"
         inkscape:connector-curvature="0" />
      <path
         sodipodi:nodetypes="ccsccc"
         style="opacity:0.35348834;fill:#000000;fill-opacity:1;fill-rule:nonzero;stroke:none;stroke-width:0.5;stroke-linecap:round;stroke-linejoin:round;stroke-miterlimit:4;stroke-dasharray:none;stroke-dashoffset:4;stroke-opacity:1"
         d="m 56.139602,74.817489 -2.555532,2.765689 c 0.34297,0.377187 -0.127529,1.416196 0.531707,2.029791 0.710454,0.661283 1.481836,-0.08824 1.943528,0.336466 l 2.586504,-2.79924 z"
         id="path2233"
         inkscape:connector-curvature="0" />
      <path
         id="rect2190"
         d="M 118.9158,6.7407945 53.702245,77.455294 c 0.34485,0.378959 -0.0061,1.291328 0.656486,1.908056 0.714077,0.664677 1.367529,0.04321 1.831562,0.47011 L 121.43482,9.0854486 Z"
         style="fill:url(#radialGradient2269);fill-opacity:1;fill-rule:nonzero;stroke:none;stroke-width:0.5;stroke-linecap:round;stroke-linejoin:round;stroke-miterlimit:4;stroke-dasharray:none;stroke-dashoffset:4;stroke-opacity:1"
         sodipodi:nodetypes="ccsccc"
         inkscape:connector-curvature="0" />
      <path
         sodipodi:nodetypes="cccccccccc"
         style="opacity:0.38604653;fill:#252525;fill-opacity:1;fill-rule:nonzero;stroke:none;stroke-width:0.5;stroke-linecap:round;stroke-linejoin:round;stroke-miterlimit:4;stroke-dasharray:none;stroke-dashoffset:4;stroke-opacity:1"
         d="m 51.110015,72.542739 -1.310929,1.418743 -0.04965,0.05251 c 0.292939,0.29101 -0.134903,1.348117 0.805133,2.39654 l 0.05478,0.05098 0.390311,0.363292 0.05478,0.05099 c 1.122781,0.871648 2.140482,0.345191 2.532844,0.710384 l 1.38838,-1.510395 z"
         id="path2231"
         inkscape:connector-curvature="0" />
      <path
         sodipodi:nodetypes="ccsccccccc"
         style="opacity:0.35348834;fill:#131313;fill-opacity:1;fill-rule:nonzero;stroke:none;stroke-width:0.5;stroke-linecap:round;stroke-linejoin:round;stroke-miterlimit:4;stroke-dasharray:none;stroke-dashoffset:4;stroke-opacity:1"
         d="m 48.617047,70.194463 -1.32703,1.357427 c 0.01375,0.01274 -0.09456,0.13101 -0.08076,0.143863 0.281593,0.262094 -0.109051,1.318685 0.359271,1.935441 l 0.04794,0.0446 0.212268,0.197588 0.0274,0.02548 c 0.663136,0.443826 1.553306,-0.108418 1.893303,0.115127 l 1.373817,-1.486793 z"
         id="path2229"
         inkscape:connector-curvature="0" />
      <path
         sodipodi:nodetypes="cccccsz"
         id="rect1315"
         d="m 47.968759,73.509359 c 0.691159,0.628419 1.532994,0.03619 1.898864,0.376729 L 115.08119,3.1715988 112.53531,0.80196718 47.290776,71.549985 c 0.01398,0.01293 0.02771,0.02579 0.04173,0.03886 0.286051,0.26624 -0.06007,1.28726 0.636255,1.920517 z"
         style="fill:url(#linearGradient2271);fill-opacity:1;fill-rule:nonzero;stroke:none;stroke-width:0.5;stroke-linecap:round;stroke-linejoin:round;stroke-miterlimit:4;stroke-dasharray:none;stroke-dashoffset:4;stroke-opacity:1"
         inkscape:connector-curvature="0" />
      <rect
         transform="rotate(42.902596)"
         y="-76.585564"
         x="82.991852"
         height="2.8573658"
         width="12.154856"
         id="rect2069"
         style="fill:#000000;fill-opacity:1;stroke:none;stroke-width:1;stroke-linecap:round;stroke-linejoin:round;stroke-miterlimit:4;stroke-dasharray:none;stroke-dashoffset:4;stroke-opacity:1" />
      <ellipse
         transform="matrix(0.56268,-0.608612,-1.155587,-1.072069,76.43844,59.62859)"
         id="path3301"
         style="fill:url(#radialGradient2273);fill-opacity:1;fill-rule:nonzero;stroke:none;stroke-width:0.2;stroke-linecap:round;stroke-linejoin:round;stroke-miterlimit:4;stroke-dasharray:none;stroke-dashoffset:4;stroke-opacity:1"
         cx="34.677639"
         cy="7.4622769"
         rx="47.495197"
         ry="0.97142172" />
      <path
         sodipodi:open="true"
         sodipodi:end="6.2517655"
         sodipodi:start="0"
         sodipodi:type="arc"
         style="fill:url(#radialGradient2275);fill-opacity:1;fill-rule:nonzero;stroke:none;stroke-width:0.2;stroke-linecap:round;stroke-linejoin:round;stroke-miterlimit:4;stroke-dasharray:none;stroke-dashoffset:4;stroke-opacity:1"
         id="path3321"
         sodipodi:cx="34.677639"
         sodipodi:cy="7.4622769"
         sodipodi:rx="71.883232"
         sodipodi:ry="0.4230493"
         d="M 106.56087,7.4622769 A 71.883232,0.4230493 0 0 1 35.242273,7.8853132 71.883232,0.4230493 0 0 1 -37.196723,7.4689227 71.883232,0.4230493 0 0 1 32.983878,7.0393451 71.883232,0.4230493 0 0 1 106.52539,7.448987"
         transform="matrix(0.465919,-0.505717,-0.837024,-0.779688,72.02739,62.11862)" />
      <path
         style="fill:url(#radialGradient2277);fill-opacity:1;fill-rule:nonzero;stroke:none;stroke-width:0.5;stroke-linecap:round;stroke-linejoin:round;stroke-miterlimit:4;stroke-dasharray:none;stroke-dashoffset:4;stroke-opacity:1"
         d="m 108.38485,5.3016098 c -1.25769,0.789173 -2.4497,2.1647807 -3.09003,3.3441549 l 7.15446,6.5986793 3.09002,-3.344154 z m 6.40252,5.8988122 -3.09003,3.344154 2.5064,2.332897 c 1.09555,-0.65862 2.35256,-1.969144 3.09003,-3.344152 z"
         id="path2274"
         sodipodi:nodetypes="cccccccccc"
         inkscape:connector-curvature="0" />
      <path
         sodipodi:nodetypes="cccc"
         id="path2265"
         d="M 42.270532,89.826738 C 40.642899,89.666673 39.244128,87.199367 38.343975,86.444505 L 31.842881,97.22175 Z"
         style="fill:#000000;fill-opacity:1;fill-rule:evenodd;stroke:none;stroke-width:0;stroke-linecap:butt;stroke-linejoin:miter;stroke-miterlimit:4;stroke-dasharray:none;stroke-opacity:1"
         inkscape:connector-curvature="0" />
      <rect
         transform="matrix(0.731987,0.681319,-0.678649,0.734463,0,0)"
         y="-77.08168"
         x="86.674194"
         height="1.1477653"
         width="5.2419958"
         id="rect3205"
         style="fill:url(#radialGradient2279);fill-opacity:1;fill-rule:nonzero;stroke:none;stroke-width:0;stroke-linecap:round;stroke-linejoin:round;stroke-miterlimit:4;stroke-dasharray:none;stroke-dashoffset:4;stroke-opacity:1" />
      <path
         sodipodi:nodetypes="cszsss"
         id="path3233"
         d="m 118.05347,2.2273398 c 1.84784,1.4753972 3.1522,3.491506 3.22265,3.6842205 0.0704,0.1927157 -1.71219,-2.0680943 -3.24173,-3.1151253 -1.51784,-1.0390356 -3.66157,-1.0997892 -3.81798,-1.2258203 -0.15641,-0.1260302 -1.20931,-1.2769763 -0.2379,-1.21909722 1.01605,0.0605391 2.64768,0.73728012 4.07496,1.87582232 z"
         style="fill:url(#linearGradient2281);fill-opacity:1;fill-rule:evenodd;stroke:none;stroke-width:1px;stroke-linecap:butt;stroke-linejoin:miter;stroke-opacity:1"
         inkscape:connector-curvature="0" />
      <path
         id="text3284"
         d="m 60.938379,71.528265 c -0.20085,0.217143 -0.31428,0.424985 -0.340317,0.623519 -0.02603,0.198568 0.03779,0.369433 0.191479,0.512626 0.153038,0.142586 0.327234,0.193479 0.522579,0.152705 0.195351,-0.04082 0.393441,-0.169759 0.594282,-0.386893 0.201996,-0.218382 0.315992,-0.426835 0.342036,-0.625394 0.02603,-0.198557 -0.03748,-0.369111 -0.190511,-0.511705 -0.153693,-0.143199 -0.328206,-0.194389 -0.523552,-0.153598 -0.195349,0.04079 -0.394009,0.170367 -0.595996,0.38874 m -0.272531,-0.25394 c 0.410817,-0.444132 0.799688,-0.729553 1.166635,-0.856241 0.366933,-0.126686 0.668608,-0.07989 0.904995,0.140357 0.235737,0.219658 0.304284,0.517804 0.205647,0.894476 -0.09865,0.376678 -0.353376,0.787079 -0.764193,1.231227 -0.40967,0.442894 -0.79854,0.728317 -1.166633,0.856244 -0.366937,0.12668 -0.668275,0.0802 -0.904023,-0.139452 -0.236385,-0.220245 -0.305261,-0.518715 -0.206611,-0.895375 0.09978,-0.377909 0.354511,-0.788311 0.764183,-1.231236 m 3.85233,-2.674481 1.631011,-0.265084 -0.686405,0.742101 -1.095562,0.181667 -0.09408,1.104486 -0.689817,0.74578 0.142316,-1.652121 -1.566485,0.256283 0.688111,-0.743942 1.029579,-0.167362 0.08818,-1.041069 0.691535,-0.747639 -0.138382,1.5869 m 0.210274,-1.664629 0.720633,-0.779093 1.101647,-0.145011 0.06232,-1.113398 0.722344,-0.780942 -0.129996,1.83934 0.614429,0.572474 -0.659023,0.712494 -0.614418,-0.572495 -1.817938,0.266631 m 6.53648,-4.349469 c -0.118754,0.220124 -0.255164,0.436417 -0.409246,0.648878 -0.154085,0.212474 -0.325276,0.420492 -0.513561,0.624049 -0.425652,0.460183 -0.83058,0.761638 -1.214806,0.904391 -0.384868,0.142153 -0.693548,0.104899 -0.926034,-0.111707 -0.235099,-0.219045 -0.293369,-0.528313 -0.17483,-0.927787 0.118528,-0.3995 0.398046,-0.837342 0.838519,-1.313561 0.170039,-0.183826 0.341769,-0.351147 0.515197,-0.501939 0.174572,-0.152034 0.3488,-0.285984 0.522694,-0.401919 l 0.301843,0.281253 c -0.188884,0.11113 -0.36547,0.232569 -0.529765,0.364312 -0.16315,0.130502 -0.31549,0.272266 -0.456985,0.425243 -0.262463,0.283754 -0.423006,0.541873 -0.481647,0.774358 -0.05814,0.230658 -0.0094,0.418498 0.14624,0.563498 0.154335,0.143813 0.341986,0.180814 0.562933,0.111045 0.220936,-0.06978 0.457497,-0.240981 0.709699,-0.513648 0.06846,-0.07401 0.129511,-0.144604 0.183158,-0.211789 0.05413,-0.069 0.09939,-0.133654 0.135741,-0.193941 l -0.283272,-0.26395 -0.402261,0.434899 -0.252009,-0.234815 1.027029,-1.11035 0.701363,0.65348 m -0.771413,-1.883312 1.778477,-1.922763 0.284248,0.264835 -1.119465,1.210289 0.271559,0.253022 1.052709,-1.138113 0.284254,0.264847 -1.052708,1.138113 0.334079,0.311275 1.157121,-1.250995 0.284256,0.264848 -1.816139,1.963485 -1.458391,-1.358843 m 2.396409,-2.590835 0.736037,-0.795756 1.929731,-0.07289 -1.000265,-0.93198 0.624776,-0.675461 1.458395,1.358839 -0.73604,0.795759 -1.929734,0.07288 1.000271,0.931993 -0.624777,0.67546 -1.458394,-1.358841 m 4.149206,-4.48583 0.736038,-0.795745 1.929727,-0.0729 -1.000263,-0.93197 0.624775,-0.675473 1.458394,1.35884 -0.736036,0.795757 -1.929735,0.07288 1.00027,0.931995 -0.624776,0.67546 -1.458394,-1.358841 m 3.571656,-3.914515 c 0.243069,-0.262773 0.470916,-0.436374 0.683563,-0.520778 0.213792,-0.08562 0.382543,-0.0708 0.506279,0.04449 0.123725,0.115284 0.151229,0.282171 0.0825,0.50066 -0.06873,0.218502 -0.225191,0.459753 -0.469396,0.723767 -0.244205,0.264024 -0.472875,0.439153 -0.686016,0.525383 -0.211993,0.08501 -0.37986,0.06987 -0.503584,-0.04542 -0.123737,-0.115284 -0.151556,-0.282476 -0.08348,-0.501579 0.06922,-0.220329 0.225935,-0.462495 0.470134,-0.72652 m 0.219827,1.624348 1.408745,-1.523032 0.195359,0.182022 -1.408746,1.523041 -0.195358,-0.182031 m -0.05377,-1.469627 c -0.09585,0.103644 -0.14951,0.202948 -0.160982,0.297917 -0.01033,0.09375 0.02228,0.17581 0.09783,0.246194 0.07554,0.07039 0.159173,0.09663 0.250903,0.07873 0.09287,-0.01913 0.18723,-0.08051 0.28308,-0.184155 0.09472,-0.102389 0.147564,-0.200157 0.158545,-0.293299 0.01211,-0.09437 -0.0196,-0.176746 -0.09514,-0.247132 -0.07554,-0.07038 -0.160071,-0.09631 -0.253592,-0.07779 -0.09237,0.0173 -0.18592,0.07715 -0.280641,0.179536 m 4.36662,-3.649297 c 0.197708,-0.162621 0.372655,-0.262621 0.524828,-0.300002 0.152669,-0.03921 0.277519,-0.01362 0.374553,0.07679 0.144565,0.134697 0.157623,0.342103 0.03917,0.62222 -0.119108,0.279512 -0.364668,0.620367 -0.736678,1.022558 -0.131233,0.14188 -0.269216,0.278618 -0.413971,0.410197 -0.142949,0.130961 -0.290946,0.254919 -0.443984,0.371884 l -0.290126,-0.270323 c 0.158413,-0.100467 0.307213,-0.207605 0.446407,-0.32139 0.139685,-0.115627 0.268302,-0.236976 0.385839,-0.364046 0.174591,-0.18876 0.290853,-0.349188 0.348774,-0.481277 0.05905,-0.133328 0.05635,-0.230021 -0.0081,-0.290096 -0.06642,-0.06188 -0.164496,-0.05679 -0.294214,0.01529 -0.129232,0.07024 -0.286846,0.205914 -0.472852,0.407012 l -0.263605,0.284989 -0.24225,-0.225713 0.277298,-0.299795 c 0.165466,-0.178888 0.274057,-0.325779 0.325771,-0.440686 0.05107,-0.1155 0.04632,-0.20147 -0.01424,-0.257894 -0.05602,-0.05219 -0.138682,-0.04997 -0.248035,0.0066 -0.109343,0.05662 -0.235905,0.162641 -0.379697,0.318084 -0.106121,0.114746 -0.206549,0.237089 -0.301288,0.367023 -0.09473,0.129957 -0.18238,0.26535 -0.262952,0.406192 l -0.275458,-0.256656 c 0.109249,-0.160061 0.222568,-0.314029 0.339957,-0.461923 0.117389,-0.147879 0.237712,-0.288439 0.36095,-0.42169 0.332076,-0.359003 0.611525,-0.598227 0.838371,-0.717634 0.227332,-0.121244 0.403513,-0.12362 0.528547,-0.0071 0.08531,0.07949 0.115949,0.18729 0.09191,0.323382 -0.0247,0.135479 -0.102998,0.296816 -0.234906,0.483995"
         style="font-style:normal;font-variant:normal;font-weight:bold;font-stretch:normal;font-size:12px;line-height:125%;font-family:'Bitstream Vera Sans';text-align:start;writing-mode:lr-tb;text-anchor:start;fill:url(#linearGradient2283);fill-opacity:1;stroke:none;stroke-width:1px;stroke-linecap:butt;stroke-linejoin:miter;stroke-opacity:1"
         inkscape:connector-curvature="0" />
      <rect
         style="fill:url(#radialGradient2285);fill-opacity:1;fill-rule:nonzero;stroke:none;stroke-width:0;stroke-linecap:round;stroke-linejoin:round;stroke-miterlimit:4;stroke-dasharray:none;stroke-dashoffset:4;stroke-opacity:1"
         id="rect2956"
         width="3.5949802"
         height="0.78205258"
         x="70.875519"
         y="-82.594727"
         transform="matrix(0.685219,0.728337,-0.782272,0.622937,0,0)" />
      <rect
         transform="matrix(-0.743171,-0.669101,-0.605652,0.795729,0,0)"
         y="-75.74585"
         x="-102.72707"
         height="0.78204978"
         width="3.594974"
         id="rect2961"
         style="fill:url(#radialGradient2287);fill-opacity:1;fill-rule:nonzero;stroke:none;stroke-width:0;stroke-linecap:round;stroke-linejoin:round;stroke-miterlimit:4;stroke-dasharray:none;stroke-dashoffset:4;stroke-opacity:1" />
    </g>
  </g>
</svg>
