<?xml version="1.0" encoding="iso-8859-1"?>
<!-- Generator: Adobe Illustrator 19.0.0, SVG Export Plug-In . SVG Version: 6.00 Build 0)  -->
<svg version="1.1" id="Layer_1" xmlns="http://www.w3.org/2000/svg" xmlns:xlink="http://www.w3.org/1999/xlink" x="0px" y="0px"
	 viewBox="0 0 512 512" style="enable-background:new 0 0 512 512;" xml:space="preserve">
<circle style="fill:#FFEBB4;" cx="256" cy="256" r="209.665"/>
<path style="fill:#FFFFFF;" d="M337.472,256c0-45.033-36.44-81.472-81.472-81.472S174.528,210.967,174.528,256
	s36.44,81.472,81.472,81.472S337.472,301.033,337.472,256z"/>
<path style="fill:#FFB14E;" d="M418.945,256l40.736,23.167L500.416,256c0-67.548-27.329-128.652-71.547-172.87l-45.483,11.845
	l-12.14,45.778C400.725,170.232,418.945,210.967,418.945,256z"/>
<path style="fill:#FF755C;" d="M371.219,371.219l12.422,45.187l45.188,12.424c47.764-47.764,71.646-110.297,71.646-172.829h-81.491
	C418.983,297.689,403.062,339.376,371.219,371.219z"/>
<path style="fill:#FF4181;" d="M256,418.945l-23.167,40.736L256,500.416c67.548,0,128.652-27.329,172.87-71.547l-57.623-57.623
	C341.768,400.725,301.033,418.945,256,418.945z"/>
<path style="fill:#3B8BC0;" d="M140.781,371.219l-45.187,12.422l-12.424,45.188c47.764,47.764,110.297,71.646,172.829,71.646
	v-81.491C214.311,418.983,172.624,403.062,140.781,371.219z"/>
<path style="fill:#4EB9FF;" d="M93.055,256l-40.736-23.167L11.584,256c0,67.548,27.329,128.652,71.547,172.87l57.623-57.623
	C111.275,341.768,93.055,301.033,93.055,256z"/>
<path style="fill:#85C250;" d="M140.781,140.781l-12.422-45.187L83.171,83.171C35.408,130.935,11.526,193.468,11.526,256h81.491
	C93.017,214.311,108.938,172.624,140.781,140.781z"/>
<path style="fill:#C9D467;" d="M256,93.055l23.167-40.736L256,11.584c-67.548,0-128.652,27.329-172.87,71.547l57.623,57.623
	C170.232,111.275,210.967,93.055,256,93.055z"/>
<path style="fill:#FFCE47;" d="M371.219,140.781l57.61-57.61C381.065,35.408,318.532,11.526,256,11.526v81.491
	C297.689,93.017,339.376,108.938,371.219,140.781z"/>
<g>
	<path style="fill:#01121C;" d="M437.06,74.938C388.735,26.615,324.433,0,256,0S123.265,26.615,74.94,74.938
		C26.615,123.265,0,187.567,0,256s26.615,132.735,74.94,181.062C123.265,485.385,187.567,512,256,512s132.735-26.615,181.06-74.938
		C485.385,388.735,512,324.433,512,256S485.385,123.265,437.06,74.938z M428.546,412.163l-41.193-41.192
		c25.383-28.925,40.289-64.943,42.787-103.388h58.403C485.812,323.067,463.569,373.504,428.546,412.163z M23.457,267.584H81.86
		c2.497,38.445,17.405,74.464,42.787,103.388l-41.193,41.192C48.431,373.504,26.188,323.067,23.457,267.584z M83.454,99.837
		l41.193,41.192c-25.383,28.925-40.289,64.943-42.788,103.388H23.457C26.188,188.933,48.431,138.496,83.454,99.837z M256,407.361
		c-83.461,0-151.361-67.9-151.361-151.361S172.539,104.639,256,104.639S407.361,172.539,407.361,256S339.461,407.361,256,407.361z
		 M370.972,124.647c-28.925-25.383-64.943-40.29-103.388-42.788V23.457c55.484,2.731,105.921,24.976,144.581,59.998L370.972,124.647
		z M244.416,81.859c-38.445,2.497-74.464,17.405-103.388,42.788L99.835,83.455c38.659-35.023,89.097-57.266,144.581-59.998V81.859z
		 M141.028,387.353c28.925,25.383,64.943,40.289,103.388,42.788v58.402c-55.484-2.731-105.921-24.976-144.581-59.998
		L141.028,387.353z M267.584,430.141c38.445-2.497,74.464-17.405,103.388-42.788l41.193,41.192
		c-38.659,35.023-89.097,57.266-144.581,59.998V430.141z M430.141,244.416c-2.497-38.445-17.405-74.464-42.787-103.388
		l41.193-41.192c35.021,38.659,57.264,89.096,59.996,144.58H430.141z"/>
	<path style="fill:#01121C;" d="M256,162.945c-51.311,0-93.055,41.744-93.055,93.055S204.69,349.055,256,349.055
		s93.055-41.744,93.055-93.055S307.311,162.945,256,162.945z M256,325.888c-38.537,0-69.888-31.351-69.888-69.888
		s31.351-69.888,69.888-69.888s69.888,31.351,69.888,69.888S294.537,325.888,256,325.888z"/>
</g>
<g>
</g>
<g>
</g>
<g>
</g>
<g>
</g>
<g>
</g>
<g>
</g>
<g>
</g>
<g>
</g>
<g>
</g>
<g>
</g>
<g>
</g>
<g>
</g>
<g>
</g>
<g>
</g>
<g>
</g>
</svg>
