<?xml version="1.0" encoding="iso-8859-1"?>
<!-- Generator: Adobe Illustrator 19.0.0, SVG Export Plug-In . SVG Version: 6.00 Build 0)  -->
<svg version="1.1" id="Layer_1" xmlns="http://www.w3.org/2000/svg" xmlns:xlink="http://www.w3.org/1999/xlink" x="0px" y="0px"
	 viewBox="0 0 512 512" style="enable-background:new 0 0 512 512;" xml:space="preserve">
<g transform="translate(1 1)">
	<g>
		<path style="fill:#FFE100;" d="M144.067,502.467c-5.12,0-8.533-3.413-8.533-8.533v-42.667c0-5.12,3.413-8.533,8.533-8.533
			c5.12,0,8.533,3.413,8.533,8.533v42.667C152.6,499.053,149.187,502.467,144.067,502.467z"/>
		<path style="fill:#FFE100;" d="M186.733,502.467c-5.12,0-8.533-3.413-8.533-8.533v-42.667c0-5.12,3.413-8.533,8.533-8.533
			c5.12,0,8.533,3.413,8.533,8.533v42.667C195.267,499.053,191.853,502.467,186.733,502.467z"/>
		<path style="fill:#FFE100;" d="M229.4,502.467c-5.12,0-8.533-3.413-8.533-8.533v-42.667c0-5.12,3.413-8.533,8.533-8.533
			c5.12,0,8.533,3.413,8.533,8.533v42.667C237.933,499.053,234.52,502.467,229.4,502.467z"/>
		<path style="fill:#FFE100;" d="M272.067,502.467c-5.12,0-8.533-3.413-8.533-8.533v-42.667c0-5.12,3.413-8.533,8.533-8.533
			s8.533,3.413,8.533,8.533v42.667C280.6,499.053,277.187,502.467,272.067,502.467z"/>
		<path style="fill:#FFE100;" d="M314.733,502.467c-5.12,0-8.533-3.413-8.533-8.533v-42.667c0-5.12,3.413-8.533,8.533-8.533
			c5.12,0,8.533,3.413,8.533,8.533v42.667C323.267,499.053,319.853,502.467,314.733,502.467z"/>
		<path style="fill:#FFE100;" d="M357.4,502.467c-5.12,0-8.533-3.413-8.533-8.533v-42.667c0-5.12,3.413-8.533,8.533-8.533
			s8.533,3.413,8.533,8.533v42.667C365.933,499.053,362.52,502.467,357.4,502.467z"/>
		<path style="fill:#FFE100;" d="M400.067,502.467c-5.12,0-8.533-3.413-8.533-8.533v-42.667c0-5.12,3.413-8.533,8.533-8.533
			s8.533,3.413,8.533,8.533v42.667C408.6,499.053,405.187,502.467,400.067,502.467z"/>
		<path style="fill:#FFE100;" d="M442.733,502.467c-5.12,0-8.533-3.413-8.533-8.533v-42.667c0-5.12,3.413-8.533,8.533-8.533
			c5.12,0,8.533,3.413,8.533,8.533v42.667C451.267,499.053,447.853,502.467,442.733,502.467z"/>
		<path style="fill:#FFE100;" d="M502.467,442.733H459.8c-5.12,0-8.533-3.413-8.533-8.533c0-5.12,3.413-8.533,8.533-8.533h42.667
			c5.12,0,8.533,3.413,8.533,8.533C511,439.32,507.587,442.733,502.467,442.733z"/>
		<path style="fill:#FFE100;" d="M502.467,400.067H459.8c-5.12,0-8.533-3.413-8.533-8.533S454.68,383,459.8,383h42.667
			c5.12,0,8.533,3.413,8.533,8.533S507.587,400.067,502.467,400.067z"/>
		<path style="fill:#FFE100;" d="M502.467,357.4H459.8c-5.12,0-8.533-3.413-8.533-8.533c0-5.12,3.413-8.533,8.533-8.533h42.667
			c5.12,0,8.533,3.413,8.533,8.533C511,353.987,507.587,357.4,502.467,357.4z"/>
		<path style="fill:#FFE100;" d="M502.467,314.733H459.8c-5.12,0-8.533-3.413-8.533-8.533s3.413-8.533,8.533-8.533h42.667
			c5.12,0,8.533,3.413,8.533,8.533S507.587,314.733,502.467,314.733z"/>
		<path style="fill:#FFE100;" d="M502.467,272.067H459.8c-5.12,0-8.533-3.413-8.533-8.533c0-5.12,3.413-8.533,8.533-8.533h42.667
			c5.12,0,8.533,3.413,8.533,8.533C511,268.653,507.587,272.067,502.467,272.067z"/>
		<path style="fill:#FFE100;" d="M502.467,229.4H459.8c-5.12,0-8.533-3.413-8.533-8.533c0-5.12,3.413-8.533,8.533-8.533h42.667
			c5.12,0,8.533,3.413,8.533,8.533C511,225.987,507.587,229.4,502.467,229.4z"/>
		<path style="fill:#FFE100;" d="M502.467,186.733H459.8c-5.12,0-8.533-3.413-8.533-8.533c0-5.12,3.413-8.533,8.533-8.533h42.667
			c5.12,0,8.533,3.413,8.533,8.533C511,183.32,507.587,186.733,502.467,186.733z"/>
		<path style="fill:#FFE100;" d="M502.467,144.067H459.8c-5.12,0-8.533-3.413-8.533-8.533S454.68,127,459.8,127h42.667
			c5.12,0,8.533,3.413,8.533,8.533S507.587,144.067,502.467,144.067z"/>
		<path style="fill:#FFE100;" d="M412.867,101.4h-64v234.667c0,11.947-9.387,21.333-21.333,21.333h-217.6v72.533
			c0,11.947,9.387,21.333,21.333,21.333H408.6c11.947,0,25.6-9.387,25.6-21.333v-307.2C434.2,110.787,424.813,101.4,412.867,101.4"
			/>
	</g>
	<path style="fill:#FFA800;" d="M438.467,101.4h-25.6c11.947,0,21.333,9.387,21.333,21.333v307.2
		c0,11.947-13.653,21.333-25.6,21.333h25.6c11.947,0,25.6-9.387,25.6-21.333v-307.2C459.8,110.787,450.413,101.4,438.467,101.4"/>
	<path style="fill:#FFE100;" d="M327.533,357.4H54.467c-11.093,0-21.333-9.387-21.333-21.333V37.4
		c0-11.093,10.24-21.333,21.333-21.333h273.067c11.947,0,21.333,10.24,21.333,21.333v298.667
		C348.867,348.013,339.48,357.4,327.533,357.4"/>
	<path style="fill:#FFFFFF;" d="M33.133,336.067V37.4c0-11.093,9.387-21.333,21.333-21.333h-25.6
		c-11.947,0-21.333,10.24-21.333,21.333v298.667c0,11.947,9.387,21.333,21.333,21.333h25.6
		C42.52,357.4,33.133,348.013,33.133,336.067"/>
	<path d="M327.533,365.933H28.867C12.653,365.933-1,352.28-1,336.067V37.4C-1,21.187,12.653,7.533,28.867,7.533h298.667
		c16.213,0,29.867,13.653,29.867,29.867v298.667C357.4,352.28,343.747,365.933,327.533,365.933z M28.867,24.6
		c-6.827,0-12.8,5.973-12.8,12.8v298.667c0,6.827,5.973,12.8,12.8,12.8h298.667c6.827,0,12.8-5.973,12.8-12.8V37.4
		c0-6.827-5.973-12.8-12.8-12.8H28.867z"/>
	<path d="M88.6,323.267H50.2c-5.12,0-8.533-3.413-8.533-8.533v-38.4c0-5.12,3.413-8.533,8.533-8.533s8.533,3.413,8.533,8.533V306.2
		H88.6c5.12,0,8.533,3.413,8.533,8.533C97.133,319.853,93.72,323.267,88.6,323.267z"/>
	<path d="M50.2,237.933c-5.12,0-8.533-3.413-8.533-8.533v-85.333c0-5.12,3.413-8.533,8.533-8.533s8.533,3.413,8.533,8.533V229.4
		C58.733,233.667,55.32,237.933,50.2,237.933z"/>
	<path d="M50.2,105.667c-5.12,0-8.533-3.413-8.533-8.533v-38.4c0-5.12,3.413-8.533,8.533-8.533h38.4c5.12,0,8.533,3.413,8.533,8.533
		s-3.413,8.533-8.533,8.533H58.733v29.867C58.733,102.253,55.32,105.667,50.2,105.667z"/>
	<path d="M220.867,67.267h-85.333c-5.12,0-8.533-3.413-8.533-8.533s3.413-8.533,8.533-8.533h85.333c5.12,0,8.533,3.413,8.533,8.533
		S225.133,67.267,220.867,67.267z"/>
	<path d="M306.2,105.667c-5.12,0-8.533-3.413-8.533-8.533V67.267H267.8c-5.12,0-8.533-3.413-8.533-8.533S262.68,50.2,267.8,50.2
		h38.4c5.12,0,8.533,3.413,8.533,8.533v38.4C314.733,102.253,311.32,105.667,306.2,105.667z"/>
	<path d="M306.2,237.933c-5.12,0-8.533-3.413-8.533-8.533v-85.333c0-5.12,3.413-8.533,8.533-8.533s8.533,3.413,8.533,8.533V229.4
		C314.733,233.667,311.32,237.933,306.2,237.933z"/>
	<path d="M306.2,323.267h-38.4c-5.12,0-8.533-3.413-8.533-8.533c0-5.12,3.413-8.533,8.533-8.533h29.867v-29.867
		c0-5.12,3.413-8.533,8.533-8.533s8.533,3.413,8.533,8.533v38.4C314.733,319.853,311.32,323.267,306.2,323.267z"/>
	<path d="M220.867,323.267h-85.333c-5.12,0-8.533-3.413-8.533-8.533c0-5.12,3.413-8.533,8.533-8.533h85.333
		c5.12,0,8.533,3.413,8.533,8.533C229.4,319.853,225.133,323.267,220.867,323.267z"/>
	<path d="M408.6,199.533c-5.12,0-8.533-3.413-8.533-8.533v-38.4c0-5.12,3.413-8.533,8.533-8.533c5.12,0,8.533,3.413,8.533,8.533V191
		C417.133,196.12,413.72,199.533,408.6,199.533z"/>
	<path d="M408.6,331.8c-5.12,0-8.533-3.413-8.533-8.533v-85.333c0-5.12,3.413-8.533,8.533-8.533c5.12,0,8.533,3.413,8.533,8.533
		v85.333C417.133,327.533,413.72,331.8,408.6,331.8z"/>
	<path d="M408.6,417.133h-38.4c-5.12,0-8.533-3.413-8.533-8.533c0-5.12,3.413-8.533,8.533-8.533h29.867V370.2
		c0-5.12,3.413-8.533,8.533-8.533c5.12,0,8.533,3.413,8.533,8.533v38.4C417.133,413.72,413.72,417.133,408.6,417.133z"/>
	<path d="M323.267,417.133h-85.333c-5.12,0-8.533-3.413-8.533-8.533c0-5.12,3.413-8.533,8.533-8.533h85.333
		c5.12,0,8.533,3.413,8.533,8.533C331.8,413.72,327.533,417.133,323.267,417.133z"/>
	<path d="M191,417.133h-38.4c-5.12,0-8.533-3.413-8.533-8.533c0-5.12,3.413-8.533,8.533-8.533H191c5.12,0,8.533,3.413,8.533,8.533
		C199.533,413.72,196.12,417.133,191,417.133z"/>
	<path d="M434.2,459.8H131.267c-16.213,0-29.867-13.653-29.867-29.867v-81.067h226.133c6.827,0,12.8-5.973,12.8-12.8v-243.2h98.133
		c16.213,0,29.867,13.653,29.867,29.867v307.2C468.333,447,450.413,459.8,434.2,459.8z M118.467,365.933v64
		c0,6.827,5.973,12.8,12.8,12.8H434.2c8.533,0,17.067-6.827,17.067-12.8v-307.2c0-6.827-5.973-12.8-12.8-12.8H357.4v226.133
		c0,16.213-13.653,29.867-29.867,29.867H118.467z"/>
	<path d="M135.533,502.467c-5.12,0-8.533-3.413-8.533-8.533v-42.667c0-5.12,3.413-8.533,8.533-8.533s8.533,3.413,8.533,8.533v42.667
		C144.067,499.053,140.653,502.467,135.533,502.467z"/>
	<path d="M178.2,502.467c-5.12,0-8.533-3.413-8.533-8.533v-42.667c0-5.12,3.413-8.533,8.533-8.533c5.12,0,8.533,3.413,8.533,8.533
		v42.667C186.733,499.053,183.32,502.467,178.2,502.467z"/>
	<path d="M220.867,502.467c-5.12,0-8.533-3.413-8.533-8.533v-42.667c0-5.12,3.413-8.533,8.533-8.533c5.12,0,8.533,3.413,8.533,8.533
		v42.667C229.4,499.053,225.987,502.467,220.867,502.467z"/>
	<path d="M263.533,502.467c-5.12,0-8.533-3.413-8.533-8.533v-42.667c0-5.12,3.413-8.533,8.533-8.533c5.12,0,8.533,3.413,8.533,8.533
		v42.667C272.067,499.053,268.653,502.467,263.533,502.467z"/>
	<path d="M306.2,502.467c-5.12,0-8.533-3.413-8.533-8.533v-42.667c0-5.12,3.413-8.533,8.533-8.533s8.533,3.413,8.533,8.533v42.667
		C314.733,499.053,311.32,502.467,306.2,502.467z"/>
	<path d="M348.867,502.467c-5.12,0-8.533-3.413-8.533-8.533v-42.667c0-5.12,3.413-8.533,8.533-8.533c5.12,0,8.533,3.413,8.533,8.533
		v42.667C357.4,499.053,353.987,502.467,348.867,502.467z"/>
	<path d="M391.533,502.467c-5.12,0-8.533-3.413-8.533-8.533v-42.667c0-5.12,3.413-8.533,8.533-8.533s8.533,3.413,8.533,8.533v42.667
		C400.067,499.053,396.653,502.467,391.533,502.467z"/>
	<path d="M434.2,502.467c-5.12,0-8.533-3.413-8.533-8.533v-42.667c0-5.12,3.413-8.533,8.533-8.533c5.12,0,8.533,3.413,8.533,8.533
		v42.667C442.733,499.053,439.32,502.467,434.2,502.467z"/>
	<path d="M502.467,434.2H459.8c-5.12,0-8.533-3.413-8.533-8.533s3.413-8.533,8.533-8.533h42.667c5.12,0,8.533,3.413,8.533,8.533
		S507.587,434.2,502.467,434.2z"/>
	<path d="M502.467,391.533H459.8c-5.12,0-8.533-3.413-8.533-8.533c0-5.12,3.413-8.533,8.533-8.533h42.667
		c5.12,0,8.533,3.413,8.533,8.533C511,388.12,507.587,391.533,502.467,391.533z"/>
	<path d="M502.467,348.867H459.8c-5.12,0-8.533-3.413-8.533-8.533c0-5.12,3.413-8.533,8.533-8.533h42.667
		c5.12,0,8.533,3.413,8.533,8.533C511,345.453,507.587,348.867,502.467,348.867z"/>
	<path d="M502.467,306.2H459.8c-5.12,0-8.533-3.413-8.533-8.533s3.413-8.533,8.533-8.533h42.667c5.12,0,8.533,3.413,8.533,8.533
		S507.587,306.2,502.467,306.2z"/>
	<path d="M502.467,263.533H459.8c-5.12,0-8.533-3.413-8.533-8.533s3.413-8.533,8.533-8.533h42.667c5.12,0,8.533,3.413,8.533,8.533
		S507.587,263.533,502.467,263.533z"/>
	<path d="M502.467,220.867H459.8c-5.12,0-8.533-3.413-8.533-8.533c0-5.12,3.413-8.533,8.533-8.533h42.667
		c5.12,0,8.533,3.413,8.533,8.533C511,217.453,507.587,220.867,502.467,220.867z"/>
	<path d="M502.467,178.2H459.8c-5.12,0-8.533-3.413-8.533-8.533c0-5.12,3.413-8.533,8.533-8.533h42.667
		c5.12,0,8.533,3.413,8.533,8.533C511,174.787,507.587,178.2,502.467,178.2z"/>
	<path d="M502.467,135.533H459.8c-5.12,0-8.533-3.413-8.533-8.533s3.413-8.533,8.533-8.533h42.667c5.12,0,8.533,3.413,8.533,8.533
		S507.587,135.533,502.467,135.533z"/>
</g>
<g>
</g>
<g>
</g>
<g>
</g>
<g>
</g>
<g>
</g>
<g>
</g>
<g>
</g>
<g>
</g>
<g>
</g>
<g>
</g>
<g>
</g>
<g>
</g>
<g>
</g>
<g>
</g>
<g>
</g>
</svg>
