<?xml version="1.0" encoding="utf-8"?>
<!-- Generator: Adobe Illustrator 15.1.0, SVG Export Plug-In . SVG Version: 6.00 Build 0)  -->
<!DOCTYPE svg PUBLIC "-//W3C//DTD SVG 1.1//EN" "http://www.w3.org/Graphics/SVG/1.1/DTD/svg11.dtd">
<svg version="1.1" id="Layer_1" xmlns="http://www.w3.org/2000/svg" xmlns:xlink="http://www.w3.org/1999/xlink" x="0px" y="0px"
	 width="512px" height="512px" viewBox="0 0 512 512" enable-background="new 0 0 512 512" xml:space="preserve">
<g>
	<polygon fill="#EBB909" points="346.643,369.167 285.267,369.167 285.267,119.9 300.613,119.9 331.296,119.9 346.643,119.9 	"/>
	<path fill="#A5A5A5" d="M312.651,6.598H199.349c-18.777,0-33.991,15.214-33.991,33.991V97.24h181.285V40.588
		C346.643,21.812,331.429,6.598,312.651,6.598z"/>
	<polygon fill="#EDE3B8" points="346.643,369.167 286.218,459.809 256,505.13 225.782,459.809 165.358,369.167 	"/>
	<polygon fill="#3F445F" points="301.554,437.148 271.125,482.702 256,505.429 240.875,482.702 210.446,437.148 	"/>
	<polygon fill="#D7A411" points="286.683,369.167 225.307,369.167 225.307,119.9 240.653,119.9 271.336,119.9 286.683,119.9 	"/>
	<polygon fill="#D27C05" points="226.734,369.167 165.358,369.167 165.358,119.9 180.705,119.9 211.387,119.9 226.734,119.9 	"/>
	<path fill="#F67773" d="M346.643,97.24H165.358V40.588c0-18.777,15.214-33.991,33.991-33.991h113.303
		c18.777,0,33.991,15.214,33.991,33.991V97.24z"/>
</g>
</svg>
