<?xml version="1.0" encoding="iso-8859-1"?>
<!-- Generator: Adobe Illustrator 19.0.0, SVG Export Plug-In . SVG Version: 6.00 Build 0)  -->
<svg version="1.1" id="Layer_1" xmlns="http://www.w3.org/2000/svg" xmlns:xlink="http://www.w3.org/1999/xlink" x="0px" y="0px"
	 viewBox="0 0 512.001 512.001" style="enable-background:new 0 0 512.001 512.001;" xml:space="preserve">
<path style="fill:#394049;" d="M500.112,441.838H11.888C5.323,441.838,0,436.515,0,429.949V82.052
	c0-6.566,5.323-11.888,11.888-11.888h488.224c6.566,0,11.889,5.323,11.889,11.888v347.898
	C512,436.515,506.678,441.838,500.112,441.838z"/>
<rect x="33.295" y="103.458" style="fill:#8CCFDE;" width="445.407" height="305.08"/>
<g>
	<path style="opacity:0.2;fill:#25292F;enable-background:new    ;" d="M410.238,139.129l-90.804,136.852l-52.948-79.799
		c-4.08-6.148-13.108-6.148-17.188,0l-140.905,212.36h370.313V216.415c-20.098-30.289-40.246-60.655-51.285-77.293
		C423.341,132.974,414.316,132.981,410.238,139.129z"/>
	<path style="opacity:0.2;fill:#25292F;enable-background:new    ;" d="M410.238,139.129l-48.694,73.386
		c16.41,10.91,36.104,17.272,57.287,17.272c21.183,0,40.877-6.362,57.287-17.272l-48.694-73.386
		C423.345,132.981,414.316,132.981,410.238,139.129z"/>
	<path style="opacity:0.2;fill:#25292F;enable-background:new    ;" d="M249.298,196.182l-28.281,42.623
		c10.563,7.023,23.239,11.124,36.875,11.124s26.311-4.101,36.875-11.124l-28.281-42.623
		C262.406,190.034,253.378,190.034,249.298,196.182z"/>
	<circle style="opacity:0.2;fill:#25292F;enable-background:new    ;" cx="141.747" cy="162.035" r="32.296"/>
</g>
<path style="opacity:0.2;enable-background:new    ;" d="M509.684,432.266H21.461c-6.566,0-11.888-5.323-11.888-11.888V72.479
	c0-0.724,0.075-1.429,0.199-2.118C4.217,71.362,0,76.21,0,82.052v347.898c0,6.566,5.323,11.888,11.888,11.888h488.224
	c5.842,0,10.69-4.217,11.69-9.771C511.113,432.19,510.409,432.266,509.684,432.266z"/>
<path style="fill:#FFFFFF;" d="M478.706,213.476v-16.647H338.558v-93.371h-16.647v93.371H190.089v-93.371h-16.647v93.371H33.096
	v16.647h140.345v85.047H33.096v16.647h140.345v93.571h16.647v-93.571h131.822v93.571h16.647v-93.571h140.147v-16.647H338.558
	v-85.047H478.706z M321.911,298.524H190.089v-85.047h131.822V298.524z"/>
<g>
</g>
<g>
</g>
<g>
</g>
<g>
</g>
<g>
</g>
<g>
</g>
<g>
</g>
<g>
</g>
<g>
</g>
<g>
</g>
<g>
</g>
<g>
</g>
<g>
</g>
<g>
</g>
<g>
</g>
</svg>
