<svg height="512pt" viewBox="0 0 512 512" width="512pt" xmlns="http://www.w3.org/2000/svg"><path d="m421 421-36.25 15-45.75-15-15.5-33.75 15.5-48.25 39.8125-15.5 42.1875 15.5 15 46.375zm0 0" fill="#00c8c8"/><path d="m339 421-38 15-45-15-15-47.8125 15-34.1875 41.25-15.5 41.75 15.5zm0 0" fill="#bbdcff"/><path d="m256 421-42.5 15-39.5-15-15-40.3125 15-41.6875 42.625-15.5 39.375 15.5zm0 0" fill="#64e1dc"/><path d="m174 421-40.5 15-42.5-15-15-35.625 15-46.375 39.375-15.5 43.625 15.5zm0 0" fill="#e0f4ff"/><path d="m421 339h-82l-15.5-34.25 15.5-48.75 39.8125-15 42.1875 15 15 39.375zm0 0" fill="#bbdcff"/><path d="m339 339h-83l-15-48.3125 15-34.6875 41.25-15 41.75 15zm0 0" fill="#00c8c8"/><path d="m256 339h-82l-15-40.8125 15-42.1875 42.625-15 39.375 15zm0 0" fill="#e0f4ff"/><path d="m174 339h-83l-15-36.125 15-46.875 39.375-15 43.625 15zm0 0" fill="#64e1dc"/><path d="m421 256h-82l-15.5-33.75 15.5-48.25 39.8125-15.5 42.1875 15.5 15 42zm0 0" fill="#00c8c8"/><path d="m339 256h-83l-15-47.8125 15-34.1875 41.25-15.5 41.75 15.5zm0 0" fill="#bbdcff"/><path d="m256 256h-82l-15-40.3125 15-41.6875 42.625-15.5 39.375 15.5zm0 0" fill="#64e1dc"/><path d="m174 256h-83l-15-35.625 15-46.375 39.375-15.5 43.625 15.5zm0 0" fill="#e0f4ff"/><path d="m421 174h-82l-15.5-34.25 15.5-48.75 39.8125-15 42.1875 15 15 39.375zm0 0" fill="#bbdcff"/><path d="m339 174h-83l-15-48.3125 15-34.6875 41.25-15 41.75 15zm0 0" fill="#00c8c8"/><path d="m256 174h-82l-15-40.8125 15-42.1875 42.625-15 39.375 15zm0 0" fill="#e0f4ff"/><path d="m174 174h-83l-15-36.125 15-46.875 39.375-15 43.625 15zm0 0" fill="#64e1dc"/><path d="m512 91v-30h-61v-61h-30v61h-330v-61h-30v61h-61v30h61v330h-61v30h61v61h30v-61h330v61h30v-61h61v-30h-61v-330zm-91 330h-330v-330h330zm0 0" fill="#61729b"/><path d="m451 91v330h61v30h-61v61h-30v-61h-165v-30h165v-330h-165v-30h165v-61h30v61h61v30zm0 0" fill="#47568c"/></svg>