<?xml version="1.0" encoding="UTF-8" standalone="no"?>
<!-- Generator: Adobe Illustrator 16.0.0, SVG Export Plug-In . SVG Version: 6.00 Build 0)  -->

<svg
   version="1.1"
   id="Capa_1"
   x="0px"
   y="0px"
   width="128"
   height="128"
   viewBox="0 0 128.00001 128"
   enable-background="new 0 0 20.005 21.079"
   xml:space="preserve"
   sodipodi:docname="PlayStation_4_R2.svg"
   inkscape:version="1.1 (c68e22c387, 2021-05-23)"
   xmlns:inkscape="http://www.inkscape.org/namespaces/inkscape"
   xmlns:sodipodi="http://sodipodi.sourceforge.net/DTD/sodipodi-0.dtd"
   xmlns="http://www.w3.org/2000/svg"
   xmlns:svg="http://www.w3.org/2000/svg"><defs
   id="defs1587" /><sodipodi:namedview
   id="namedview1585"
   pagecolor="#ffffff"
   bordercolor="#666666"
   borderopacity="1.0"
   inkscape:pageshadow="2"
   inkscape:pageopacity="0.0"
   inkscape:pagecheckerboard="0"
   showgrid="false"
   inkscape:zoom="4.4653446"
   inkscape:cx="-96.857027"
   inkscape:cy="37.623076"
   inkscape:window-width="2560"
   inkscape:window-height="1366"
   inkscape:window-x="0"
   inkscape:window-y="24"
   inkscape:window-maximized="1"
   inkscape:current-layer="Capa_1" />
<g
   id="g1582"
   transform="matrix(6.0723943,0,0,6.0723943,3.2588299,2.7514999e-7)">
	<g
   id="g1566">
		
			<linearGradient
   id="SVGID_1_"
   gradientUnits="userSpaceOnUse"
   x1="-1193.3125"
   y1="0"
   x2="-1193.3125"
   y2="21.079599"
   gradientTransform="matrix(-1,0,0,1,-1183.3096,0)">
			<stop
   offset="0"
   style="stop-color:#5B5B5F"
   id="stop1540" />
			<stop
   offset="0.2088"
   style="stop-color:#535356"
   id="stop1542" />
			<stop
   offset="0.5493"
   style="stop-color:#3C3C3E"
   id="stop1544" />
			<stop
   offset="0.9769"
   style="stop-color:#161616"
   id="stop1546" />
			<stop
   offset="1"
   style="stop-color:#141414"
   id="stop1548" />
		</linearGradient>
		<path
   fill="url(#SVGID_1_)"
   d="m 0.002,18.628 c 0,1.617 1.308,2.451 2.925,2.451 h 14.618 c 1.617,0 2.607,-1.229 2.443,-2.451 C 19.892,17.926 19.566,16.577 18.533,13.213 17.799,10.818 16.482,7.055 15.041,4.902 13.277,2.267 10.712,0 7.528,0 5.241,0 2.887,1.411 1.706,3.928 -0.002,7.563 0,12.724 0,12.724 Z"
   id="path1551"
   style="fill:url(#SVGID_1_)" />
		<linearGradient
   id="SVGID_2_"
   gradientUnits="userSpaceOnUse"
   x1="10.0024"
   y1="0"
   x2="10.0024"
   y2="21.079599">
			<stop
   offset="0"
   style="stop-color:#5B5B5F"
   id="stop1553" />
			<stop
   offset="0.0231"
   style="stop-color:#59595D"
   id="stop1555" />
			<stop
   offset="0.4507"
   style="stop-color:#333335"
   id="stop1557" />
			<stop
   offset="0.7912"
   style="stop-color:#1C1C1D"
   id="stop1559" />
			<stop
   offset="1"
   style="stop-color:#141414"
   id="stop1561" />
		</linearGradient>
		<path
   fill="url(#SVGID_2_)"
   d="m 7.528,1.763 c 2.864,0 5.018,2.581 6.047,4.12 1.438,2.149 2.768,6.203 3.273,7.847 0.838,2.729 1.293,4.408 1.391,5.135 0.016,0.104 -0.047,0.192 -0.084,0.236 -0.123,0.139 -0.34,0.217 -0.611,0.217 H 2.927 c -0.418,0 -0.788,-0.094 -0.988,-0.249 -0.084,-0.065 -0.175,-0.16 -0.175,-0.44 v -5.903 c 0,-0.048 0.023,-4.822 1.537,-8.048 0.83,-1.771 2.49,-2.915 4.227,-2.915 M 7.528,0 C 5.241,0 2.887,1.411 1.706,3.928 -0.002,7.563 0,12.724 0,12.724 l 0.002,5.904 c 0,1.617 1.308,2.451 2.925,2.451 h 14.618 c 1.617,0 2.607,-1.229 2.443,-2.451 C 19.892,17.926 19.566,16.577 18.533,13.213 17.799,10.818 16.482,7.055 15.041,4.902 13.277,2.267 10.712,0 7.528,0 Z"
   id="path1564"
   style="fill:url(#SVGID_2_)" />
	</g>
	<g
   id="g1580">
		<g
   id="g1572">
			<path
   fill="#ffffff"
   d="M 7.71,15.923 V 14.019 C 7.71,13.662 7.628,13.408 7.464,13.255 7.302,13.103 6.997,13.026 6.552,13.026 h -1.65 v 2.896 H 3.397 V 8.524 h 3.756 c 0.341,0 0.65,0.055 0.93,0.162 0.278,0.107 0.519,0.256 0.719,0.445 0.201,0.189 0.355,0.416 0.463,0.68 0.108,0.264 0.161,0.549 0.161,0.854 0,0.4 -0.095,0.756 -0.284,1.063 -0.189,0.309 -0.463,0.525 -0.818,0.652 0.326,0.104 0.559,0.264 0.695,0.479 0.139,0.217 0.207,0.539 0.207,0.971 v 2.094 H 7.71 Z M 4.901,9.805 v 1.973 H 6.84 c 0.416,0 0.709,-0.092 0.881,-0.278 0.17,-0.186 0.256,-0.421 0.256,-0.703 0,-0.289 -0.084,-0.527 -0.251,-0.713 C 7.559,9.898 7.282,9.805 6.896,9.805 Z"
   id="path1568" />
			<path
   fill="#ffffff"
   d="M 9.29,15.989 H 7.646 V 14.018 C 7.646,13.682 7.57,13.44 7.421,13.301 7.271,13.162 6.978,13.09 6.552,13.09 H 4.966 v 2.898 H 3.333 v -7.53 h 3.82 c 0.347,0 0.668,0.057 0.953,0.166 0.285,0.11 0.534,0.266 0.74,0.459 0.207,0.197 0.368,0.433 0.478,0.704 0.11,0.271 0.167,0.565 0.167,0.878 0,0.41 -0.1,0.781 -0.294,1.098 -0.167,0.271 -0.401,0.479 -0.694,0.615 0.258,0.107 0.449,0.256 0.57,0.447 0.145,0.225 0.217,0.563 0.217,1.004 z M 7.774,15.858 H 9.16 v -2.029 c 0,-0.416 -0.065,-0.73 -0.196,-0.936 -0.127,-0.201 -0.35,-0.352 -0.66,-0.451 L 8.119,12.383 8.301,12.319 C 8.642,12.198 8.906,11.989 9.087,11.694 9.269,11.397 9.361,11.051 9.361,10.664 9.361,10.369 9.308,10.09 9.204,9.836 9.101,9.583 8.95,9.361 8.757,9.178 8.563,8.997 8.329,8.851 8.06,8.747 7.791,8.643 7.484,8.588 7.153,8.588 H 3.462 v 7.27 h 1.375 v -2.896 h 1.715 c 0.467,0 0.779,0.08 0.957,0.246 0.176,0.164 0.266,0.438 0.266,0.811 v 1.839 z M 6.841,11.843 H 4.837 V 9.741 h 2.06 c 0.403,0 0.699,0.102 0.878,0.301 0.178,0.197 0.268,0.451 0.268,0.756 0,0.298 -0.092,0.549 -0.273,0.746 -0.185,0.199 -0.497,0.299 -0.929,0.299 z M 4.966,11.714 h 1.875 c 0.395,0 0.676,-0.088 0.832,-0.258 0.159,-0.172 0.239,-0.394 0.239,-0.658 0,-0.271 -0.078,-0.497 -0.233,-0.67 C 7.525,9.958 7.262,9.871 6.897,9.871 H 4.966 Z"
   id="path1570" />
		</g>
		<g
   id="g1578">
			<path
   fill="#ffffff"
   d="m 9.571,15.923 c 0,-0.34 0.027,-0.66 0.083,-0.957 0.056,-0.297 0.163,-0.59 0.323,-0.881 0.16,-0.289 0.385,-0.584 0.674,-0.881 0.29,-0.297 0.672,-0.615 1.149,-0.957 0.268,-0.186 0.488,-0.354 0.662,-0.502 0.174,-0.149 0.314,-0.29 0.418,-0.424 0.104,-0.133 0.178,-0.268 0.223,-0.4 0.045,-0.134 0.066,-0.279 0.066,-0.436 0,-0.186 -0.025,-0.342 -0.078,-0.467 C 13.04,9.891 12.968,9.791 12.874,9.717 12.782,9.643 12.671,9.59 12.546,9.561 c -0.127,-0.029 -0.26,-0.045 -0.4,-0.045 -0.336,0 -0.6,0.095 -0.793,0.284 -0.193,0.189 -0.289,0.533 -0.289,1.03 H 9.671 c 0,-0.803 0.21,-1.428 0.629,-1.877 0.42,-0.449 1.012,-0.674 1.778,-0.674 0.373,0 0.713,0.045 1.02,0.133 0.309,0.09 0.572,0.223 0.791,0.401 0.221,0.179 0.391,0.403 0.514,0.675 0.123,0.271 0.184,0.588 0.184,0.952 0,0.282 -0.037,0.539 -0.111,0.769 -0.074,0.23 -0.195,0.458 -0.361,0.68 -0.168,0.223 -0.389,0.449 -0.664,0.68 -0.275,0.231 -0.609,0.486 -1.004,0.77 -0.281,0.207 -0.52,0.432 -0.711,0.674 -0.195,0.242 -0.299,0.459 -0.313,0.652 h 3.188 v 1.258 z"
   id="path1574" />
			<path
   fill="#ffffff"
   d="M 14.673,15.989 H 9.506 v -0.066 c 0,-0.344 0.028,-0.67 0.085,-0.969 0.057,-0.303 0.168,-0.605 0.33,-0.9 0.162,-0.293 0.393,-0.594 0.685,-0.895 0.291,-0.299 0.679,-0.623 1.156,-0.965 0.266,-0.186 0.488,-0.352 0.658,-0.498 0.172,-0.145 0.309,-0.286 0.41,-0.415 0.098,-0.127 0.17,-0.256 0.213,-0.383 0.041,-0.126 0.063,-0.266 0.063,-0.414 0,-0.176 -0.023,-0.324 -0.072,-0.443 C 12.985,9.926 12.919,9.834 12.835,9.767 12.751,9.7 12.649,9.651 12.532,9.623 12.411,9.595 12.282,9.58 12.147,9.58 c -0.316,0 -0.566,0.09 -0.746,0.266 -0.18,0.176 -0.271,0.508 -0.271,0.984 v 0.064 H 9.606 V 10.83 c 0,-0.814 0.217,-1.461 0.646,-1.922 0.431,-0.461 1.045,-0.693 1.825,-0.693 0.377,0 0.725,0.045 1.039,0.135 0.314,0.092 0.588,0.23 0.813,0.414 0.227,0.184 0.406,0.418 0.531,0.697 0.127,0.278 0.189,0.607 0.189,0.979 0,0.288 -0.037,0.554 -0.113,0.788 -0.078,0.237 -0.203,0.473 -0.373,0.7 -0.168,0.225 -0.395,0.457 -0.672,0.689 -0.277,0.232 -0.615,0.492 -1.008,0.773 -0.275,0.203 -0.512,0.426 -0.701,0.662 -0.16,0.199 -0.258,0.383 -0.289,0.547 h 3.18 z M 9.636,15.858 h 4.907 v -1.129 h -3.191 l 0.004,-0.07 c 0.018,-0.205 0.127,-0.436 0.328,-0.688 0.195,-0.244 0.439,-0.475 0.725,-0.686 0.391,-0.279 0.727,-0.537 1,-0.766 0.27,-0.227 0.488,-0.451 0.652,-0.67 0.162,-0.215 0.281,-0.438 0.352,-0.661 0.072,-0.223 0.109,-0.475 0.109,-0.749 0,-0.353 -0.061,-0.665 -0.178,-0.927 C 14.225,9.252 14.059,9.033 13.848,8.862 13.637,8.691 13.379,8.559 13.08,8.473 12.779,8.386 12.441,8.342 12.078,8.342 c -0.742,0 -1.324,0.22 -1.73,0.653 -0.395,0.423 -0.601,1.019 -0.612,1.769 H 11 c 0.008,-0.485 0.109,-0.816 0.309,-1.012 0.205,-0.201 0.486,-0.303 0.838,-0.303 0.145,0 0.283,0.016 0.414,0.046 0.137,0.032 0.256,0.089 0.355,0.169 0.099,0.08 0.18,0.19 0.236,0.326 0.055,0.134 0.082,0.3 0.082,0.492 0,0.162 -0.021,0.315 -0.068,0.455 -0.047,0.141 -0.125,0.283 -0.234,0.422 -0.105,0.137 -0.25,0.282 -0.426,0.432 -0.176,0.15 -0.4,0.32 -0.668,0.506 -0.471,0.338 -0.854,0.656 -1.139,0.951 -0.286,0.291 -0.508,0.582 -0.665,0.865 -0.157,0.283 -0.262,0.572 -0.316,0.861 -0.051,0.277 -0.078,0.572 -0.082,0.884 z"
   id="path1576" />
		</g>
	</g>
</g>
</svg>
