<?xml version="1.0" encoding="UTF-8" standalone="no"?>
<!-- Generator: Adobe Illustrator 16.0.0, SVG Export Plug-In . SVG Version: 6.00 Build 0)  -->

<svg
   version="1.1"
   id="Capa_1"
   x="0px"
   y="0px"
   width="128"
   height="128"
   viewBox="0 0 128 128"
   enable-background="new 0 0 20 24.188"
   xml:space="preserve"
   sodipodi:docname="PlayStation_4_Options.svg"
   inkscape:version="1.1 (c68e22c387, 2021-05-23)"
   xmlns:inkscape="http://www.inkscape.org/namespaces/inkscape"
   xmlns:sodipodi="http://sodipodi.sourceforge.net/DTD/sodipodi-0.dtd"
   xmlns="http://www.w3.org/2000/svg"
   xmlns:svg="http://www.w3.org/2000/svg"><defs
   id="defs1250" /><sodipodi:namedview
   id="namedview1248"
   pagecolor="#ffffff"
   bordercolor="#666666"
   borderopacity="1.0"
   inkscape:pageshadow="2"
   inkscape:pageopacity="0.0"
   inkscape:pagecheckerboard="0"
   showgrid="false"
   inkscape:zoom="1.9456962"
   inkscape:cx="-204.29705"
   inkscape:cy="3.083729"
   inkscape:window-width="2560"
   inkscape:window-height="1366"
   inkscape:window-x="0"
   inkscape:window-y="24"
   inkscape:window-maximized="1"
   inkscape:current-layer="Capa_1" />
<g
   id="g1245"
   transform="matrix(5.2918803,0,0,5.2918803,11.081197,-3.482e-7)">
	<g
   id="g1221">
		<path
   d="M 1.715,3.815 C 1.164,3.815 0.738,3.653 0.444,3.331 0.146,3.008 0,2.543 0,1.937 0,1.635 0.037,1.365 0.111,1.124 0.187,0.884 0.299,0.68 0.445,0.514 0.591,0.347 0.771,0.219 0.984,0.132 1.195,0.043 1.439,0 1.715,0 1.988,0 2.233,0.043 2.445,0.132 2.658,0.219 2.836,0.348 2.98,0.517 3.123,0.685 3.232,0.89 3.309,1.133 3.385,1.375 3.422,1.648 3.422,1.953 3.422,2.569 3.276,3.035 2.983,3.347 2.69,3.659 2.268,3.815 1.715,3.815 Z m 0,-0.641 C 1.848,3.174 1.975,3.15 2.092,3.101 2.211,3.053 2.315,2.979 2.403,2.881 2.491,2.782 2.559,2.655 2.61,2.501 2.66,2.347 2.684,2.165 2.684,1.953 2.684,1.529 2.602,1.208 2.438,0.99 2.271,0.771 2.031,0.662 1.715,0.662 1.4,0.662 1.158,0.771 0.99,0.99 0.82,1.209 0.736,1.53 0.736,1.953 c 0,0.423 0.086,0.732 0.256,0.928 0.17,0.196 0.412,0.293 0.723,0.293 z"
   id="path1207" />
		<path
   d="M 3.625,3.691 V 0.118 h 1.578 c 0.176,0 0.332,0.029 0.473,0.088 0.141,0.059 0.26,0.142 0.361,0.248 0.1,0.106 0.178,0.229 0.23,0.369 C 6.32,0.963 6.35,1.114 6.35,1.275 6.35,1.437 6.321,1.586 6.268,1.725 6.215,1.862 6.137,1.98 6.037,2.079 5.936,2.178 5.816,2.255 5.676,2.311 5.536,2.367 5.379,2.395 5.203,2.395 H 4.373 V 3.691 Z M 5.084,1.787 c 0.215,0 0.371,-0.05 0.465,-0.148 C 5.645,1.54 5.691,1.411 5.691,1.253 5.691,1.102 5.644,0.979 5.548,0.881 5.454,0.785 5.298,0.736 5.083,0.736 h -0.71 v 1.05 h 0.711 z"
   id="path1209" />
		<path
   d="M 7.445,3.691 V 0.742 H 6.369 V 0.118 H 9.275 V 0.742 H 8.193 v 2.949 z"
   id="path1211" />
		<path
   d="M 9.426,3.691 V 0.118 h 0.748 v 3.573 z"
   id="path1213" />
		<path
   d="m 12.088,3.815 c -0.551,0 -0.975,-0.162 -1.271,-0.484 -0.295,-0.323 -0.443,-0.788 -0.443,-1.394 0,-0.302 0.037,-0.572 0.113,-0.813 0.074,-0.24 0.186,-0.444 0.332,-0.61 C 10.967,0.347 11.147,0.219 11.358,0.132 11.57,0.043 11.813,0 12.088,0 c 0.273,0 0.518,0.043 0.73,0.132 0.213,0.087 0.391,0.216 0.535,0.385 0.143,0.168 0.254,0.373 0.328,0.616 0.076,0.242 0.113,0.515 0.113,0.82 0,0.616 -0.146,1.082 -0.439,1.394 -0.291,0.312 -0.712,0.468 -1.267,0.468 z m 0,-0.641 c 0.135,0 0.26,-0.024 0.377,-0.073 0.119,-0.048 0.223,-0.122 0.311,-0.22 0.088,-0.099 0.156,-0.226 0.207,-0.38 0.051,-0.155 0.076,-0.337 0.076,-0.548 0,-0.424 -0.084,-0.745 -0.248,-0.963 -0.166,-0.219 -0.406,-0.328 -0.723,-0.328 -0.314,0 -0.557,0.109 -0.725,0.328 -0.168,0.219 -0.252,0.54 -0.252,0.963 0,0.423 0.084,0.732 0.254,0.928 0.17,0.196 0.412,0.293 0.723,0.293 z"
   id="path1215" />
		<path
   d="m 16.223,3.691 -1.529,-2.4 v 2.4 H 14 V 0.118 h 0.791 l 1.42,2.297 V 0.118 h 0.699 v 3.573 z"
   id="path1217" />
		<path
   d="M 19.176,1.173 C 19.156,0.99 19.092,0.853 18.977,0.764 18.862,0.674 18.69,0.629 18.461,0.629 c -0.424,0 -0.635,0.146 -0.635,0.436 0,0.104 0.043,0.191 0.131,0.261 0.088,0.071 0.229,0.129 0.422,0.175 0.23,0.054 0.428,0.104 0.598,0.151 0.168,0.046 0.322,0.1 0.463,0.161 0.078,0.033 0.154,0.073 0.223,0.122 0.07,0.048 0.129,0.108 0.178,0.18 0.049,0.072 0.088,0.158 0.115,0.258 C 19.984,2.473 20,2.595 20,2.738 20,2.91 19.963,3.063 19.891,3.196 19.82,3.328 19.723,3.44 19.6,3.532 19.479,3.623 19.334,3.693 19.17,3.742 19.006,3.79 18.832,3.815 18.649,3.815 18.129,3.815 17.737,3.714 17.475,3.513 17.213,3.313 17.077,3.015 17.061,2.62 h 0.723 c 0.002,0.183 0.076,0.327 0.223,0.433 0.145,0.105 0.326,0.159 0.545,0.159 0.238,0 0.416,-0.043 0.539,-0.129 0.121,-0.085 0.184,-0.203 0.184,-0.35 0,-0.058 -0.008,-0.11 -0.023,-0.159 C 19.238,2.526 19.211,2.482 19.17,2.442 19.127,2.402 19.072,2.368 19,2.337 18.928,2.306 18.834,2.279 18.721,2.254 18.448,2.197 18.211,2.138 18.012,2.079 17.815,2.02 17.651,1.947 17.522,1.859 17.391,1.771 17.295,1.664 17.235,1.539 17.174,1.413 17.143,1.254 17.143,1.06 17.143,0.913 17.172,0.775 17.225,0.646 17.278,0.517 17.362,0.405 17.473,0.31 17.584,0.215 17.721,0.14 17.883,0.084 18.045,0.027 18.238,0 18.461,0 c 0.215,0 0.408,0.027 0.58,0.083 0.172,0.055 0.32,0.134 0.443,0.236 0.125,0.103 0.221,0.226 0.289,0.372 0.066,0.146 0.105,0.306 0.113,0.482 z"
   id="path1219" />
	</g>
	<g
   id="g1243">
		<linearGradient
   id="SVGID_1_"
   gradientUnits="userSpaceOnUse"
   x1="9.9989996"
   y1="4.2104001"
   x2="9.9989996"
   y2="24.188">
			<stop
   offset="0"
   style="stop-color:#5B5B5F"
   id="stop1223" />
			<stop
   offset="1"
   style="stop-color:#141414"
   id="stop1225" />
		</linearGradient>
		<path
   fill="url(#SVGID_1_)"
   d="m 16.318,18.638 c 0,3.066 -2.828,5.55 -6.318,5.55 v 0 c -3.49,0 -6.32,-2.483 -6.32,-5.55 V 9.759 C 3.68,6.695 6.51,4.21 10,4.21 v 0 c 3.49,0 6.318,2.484 6.318,5.549 z"
   id="path1228"
   style="fill:url(#SVGID_1_)" />
		<linearGradient
   id="SVGID_2_"
   gradientUnits="userSpaceOnUse"
   x1="9.9989996"
   y1="4.2104001"
   x2="9.9989996"
   y2="24.188">
			<stop
   offset="0"
   style="stop-color:#5B5B5F"
   id="stop1230" />
			<stop
   offset="0.0231"
   style="stop-color:#59595D"
   id="stop1232" />
			<stop
   offset="0.4507"
   style="stop-color:#333335"
   id="stop1234" />
			<stop
   offset="0.7912"
   style="stop-color:#1C1C1D"
   id="stop1236" />
			<stop
   offset="1"
   style="stop-color:#141414"
   id="stop1238" />
		</linearGradient>
		<path
   fill="url(#SVGID_2_)"
   d="m 10,5.647 c 2.691,0 4.881,1.845 4.881,4.112 v 8.878 c 0,2.268 -2.189,4.112 -4.881,4.112 -2.692,0 -4.883,-1.845 -4.883,-4.112 V 9.759 C 5.117,7.492 7.309,5.647 10,5.647 M 10,4.21 c -3.49,0 -6.32,2.484 -6.32,5.549 v 8.878 c 0,3.066 2.83,5.55 6.32,5.55 3.49,0 6.318,-2.483 6.318,-5.55 V 9.759 C 16.318,6.695 13.49,4.21 10,4.21 Z"
   id="path1241"
   style="fill:url(#SVGID_2_)" />
	</g>
</g>
</svg>
