<?xml version="1.0" encoding="UTF-8" standalone="no"?>
<!-- Generator: Adobe Illustrator 16.0.0, SVG Export Plug-In . SVG Version: 6.00 Build 0)  -->

<svg
   version="1.1"
   id="Capa_1"
   x="0px"
   y="0px"
   width="128"
   height="128"
   viewBox="0 0 128.00001 128"
   enable-background="new 0 0 19.998 12.594"
   xml:space="preserve"
   sodipodi:docname="PlayStation_4_R1.svg"
   inkscape:version="1.1 (c68e22c387, 2021-05-23)"
   xmlns:inkscape="http://www.inkscape.org/namespaces/inkscape"
   xmlns:sodipodi="http://sodipodi.sourceforge.net/DTD/sodipodi-0.dtd"
   xmlns="http://www.w3.org/2000/svg"
   xmlns:svg="http://www.w3.org/2000/svg"><defs
   id="defs1419" /><sodipodi:namedview
   id="namedview1417"
   pagecolor="#ffffff"
   bordercolor="#666666"
   borderopacity="1.0"
   inkscape:pageshadow="2"
   inkscape:pageopacity="0.0"
   inkscape:pagecheckerboard="0"
   showgrid="false"
   inkscape:zoom="3.7368986"
   inkscape:cx="-34.119203"
   inkscape:cy="5.887235"
   inkscape:window-width="2560"
   inkscape:window-height="1366"
   inkscape:window-x="0"
   inkscape:window-y="24"
   inkscape:window-maximized="1"
   inkscape:current-layer="Capa_1" />
<g
   id="g1414"
   transform="matrix(6.4004595,0,0,6.4004595,-0.00261137,23.696307)">
	<g
   id="g1398">
		
			<linearGradient
   id="SVGID_1_"
   gradientUnits="userSpaceOnUse"
   x1="-1195.2749"
   y1="0"
   x2="-1195.2749"
   y2="12.5947"
   gradientTransform="matrix(-1,0,0,1,-1185.2754,0)">
			<stop
   offset="0"
   style="stop-color:#5B5B5F"
   id="stop1370" />
			<stop
   offset="0.0231"
   style="stop-color:#59595D"
   id="stop1372" />
			<stop
   offset="0.4507"
   style="stop-color:#333335"
   id="stop1374" />
			<stop
   offset="0.7912"
   style="stop-color:#1C1C1D"
   id="stop1376" />
			<stop
   offset="1"
   style="stop-color:#141414"
   id="stop1378" />
		</linearGradient>
		<path
   fill="url(#SVGID_1_)"
   d="M 19.981,2.427 C 19.981,0.964 19.017,0 17.555,0 H 2.445 C 0.982,0 0.019,0.964 0.019,2.427 c 0,0 -0.908,10.167 9.967,10.167 10.873,0 9.995,-10.167 9.995,-10.167 z"
   id="path1381"
   style="fill:url(#SVGID_1_)" />
		<linearGradient
   id="SVGID_2_"
   gradientUnits="userSpaceOnUse"
   x1="9.9989996"
   y1="0"
   x2="9.9989996"
   y2="12.5947">
			<stop
   offset="0"
   style="stop-color:#5B5B5F"
   id="stop1383" />
			<stop
   offset="0.0626"
   style="stop-color:#535356"
   id="stop1385" />
			<stop
   offset="0.3018"
   style="stop-color:#373739"
   id="stop1387" />
			<stop
   offset="0.5397"
   style="stop-color:#242425"
   id="stop1389" />
			<stop
   offset="0.7739"
   style="stop-color:#181818"
   id="stop1391" />
			<stop
   offset="1"
   style="stop-color:#141414"
   id="stop1393" />
		</linearGradient>
		<path
   fill="url(#SVGID_2_)"
   d="m 17.555,1.464 c 0.657,0 0.963,0.307 0.963,0.963 l 10e-4,0.063 0.004,0.058 c 0.004,0.037 0.27,3.761 -2.021,6.242 -1.436,1.553 -3.628,2.34 -6.517,2.34 C 7.096,11.13 4.908,10.343 3.478,8.792 1.196,6.313 1.474,2.589 1.476,2.558 L 1.482,2.492 V 2.427 c 0,-0.656 0.307,-0.963 0.964,-0.963 H 17.555 M 17.555,0 H 2.445 C 0.982,0 0.019,0.964 0.019,2.427 c 0,0 -0.908,10.167 9.967,10.167 10.874,0 9.996,-10.167 9.996,-10.167 C 19.981,0.964 19.017,0 17.555,0 Z"
   id="path1396"
   style="fill:url(#SVGID_2_)" />
	</g>
	<g
   id="g1412">
		<g
   id="g1404">
			<path
   fill="#ffffff"
   d="M 9.621,9.529 V 7.627 C 9.621,7.272 9.539,7.018 9.377,6.865 9.213,6.715 8.91,6.637 8.465,6.637 H 6.82 v 2.892 h -1.5 v -7.38 h 3.744 c 0.342,0 0.651,0.054 0.93,0.161 0.277,0.107 0.516,0.256 0.716,0.445 0.2,0.188 0.354,0.414 0.462,0.678 0.107,0.263 0.16,0.546 0.16,0.85 0,0.4 -0.094,0.754 -0.283,1.062 -0.188,0.307 -0.461,0.524 -0.816,0.649 0.326,0.105 0.558,0.264 0.694,0.479 0.138,0.215 0.206,0.537 0.206,0.967 V 9.531 H 9.621 Z M 6.82,3.427 V 5.394 H 8.754 C 9.17,5.394 9.461,5.302 9.633,5.117 9.803,4.931 9.888,4.698 9.888,4.416 9.888,4.128 9.805,3.891 9.638,3.705 9.471,3.519 9.195,3.427 8.811,3.427 Z"
   id="path1400" />
			<path
   fill="#ffffff"
   d="M 11.197,9.593 H 9.557 V 7.627 C 9.557,7.291 9.481,7.051 9.332,6.912 9.182,6.773 8.891,6.703 8.465,6.703 h -1.58 v 2.89 H 5.256 v -7.51 h 3.809 c 0.348,0 0.668,0.057 0.952,0.166 0.284,0.11 0.533,0.264 0.738,0.458 0.206,0.194 0.366,0.43 0.477,0.7 0.11,0.27 0.166,0.564 0.166,0.875 0,0.41 -0.099,0.779 -0.293,1.096 -0.167,0.271 -0.399,0.476 -0.692,0.613 0.258,0.107 0.449,0.256 0.569,0.445 0.144,0.225 0.216,0.563 0.216,1.002 V 9.593 Z M 9.686,9.464 h 1.382 V 7.438 C 11.068,7.024 11.003,6.709 10.874,6.506 10.745,6.305 10.522,6.154 10.214,6.055 L 10.03,5.996 10.212,5.932 c 0.34,-0.119 0.604,-0.33 0.783,-0.623 0.182,-0.295 0.273,-0.641 0.273,-1.027 0,-0.293 -0.053,-0.571 -0.156,-0.826 C 11.008,3.203 10.858,2.983 10.667,2.802 10.473,2.619 10.238,2.474 9.97,2.37 9.702,2.266 9.396,2.214 9.064,2.214 h -3.68 v 7.25 H 6.755 V 6.573 h 1.709 c 0.466,0 0.778,0.082 0.956,0.246 0.176,0.164 0.265,0.436 0.265,0.809 V 9.464 Z M 8.754,5.458 H 6.756 V 3.362 h 2.055 c 0.402,0 0.697,0.101 0.875,0.299 0.178,0.197 0.268,0.451 0.268,0.754 0,0.298 -0.092,0.548 -0.273,0.744 C 9.498,5.358 9.186,5.458 8.754,5.458 Z M 6.885,5.329 h 1.869 c 0.395,0 0.674,-0.086 0.83,-0.258 C 9.742,4.899 9.822,4.678 9.822,4.415 9.822,4.144 9.744,3.92 9.59,3.748 9.437,3.577 9.174,3.491 8.811,3.491 H 6.885 Z"
   id="path1402" />
		</g>
		<g
   id="g1410">
			<path
   fill="#ffffff"
   d="M 13.232,9.529 V 4.427 h -1.511 v -1 c 0.317,0 0.585,-0.025 0.8,-0.078 0.215,-0.051 0.391,-0.131 0.527,-0.238 0.139,-0.107 0.241,-0.241 0.313,-0.4 0.07,-0.16 0.116,-0.347 0.139,-0.562 h 1.178 v 7.38 z"
   id="path1406" />
			<path
   fill="#ffffff"
   d="M 14.742,9.593 H 13.168 V 4.491 H 11.656 V 3.362 h 0.065 c 0.312,0 0.576,-0.025 0.784,-0.076 C 12.711,3.237 12.88,3.16 13.01,3.06 13.138,2.958 13.237,2.833 13.302,2.684 13.369,2.531 13.414,2.349 13.436,2.142 l 0.006,-0.059 h 1.301 v 7.51 z M 13.298,9.464 h 1.315 v -7.25 h -1.056 c -0.024,0.195 -0.071,0.371 -0.138,0.521 -0.074,0.17 -0.186,0.313 -0.33,0.426 -0.144,0.113 -0.33,0.197 -0.553,0.25 -0.204,0.05 -0.456,0.076 -0.75,0.08 v 0.871 h 1.511 v 5.102 z"
   id="path1408" />
		</g>
	</g>
</g>
</svg>
