<?xml version="1.0" encoding="UTF-8" standalone="no"?>
<!-- Generator: Adobe Illustrator 16.0.0, SVG Export Plug-In . SVG Version: 6.00 Build 0)  -->

<svg
   version="1.1"
   id="Capa_1"
   x="0px"
   y="0px"
   width="128"
   height="128"
   viewBox="0 0 128 128"
   enable-background="new 0 0 19.999 25.428"
   xml:space="preserve"
   sodipodi:docname="PlayStation_4_Share.svg"
   inkscape:version="1.1 (c68e22c387, 2021-05-23)"
   xmlns:inkscape="http://www.inkscape.org/namespaces/inkscape"
   xmlns:sodipodi="http://sodipodi.sourceforge.net/DTD/sodipodi-0.dtd"
   xmlns="http://www.w3.org/2000/svg"
   xmlns:svg="http://www.w3.org/2000/svg"><defs
   id="defs1738" /><sodipodi:namedview
   id="namedview1736"
   pagecolor="#ffffff"
   bordercolor="#666666"
   borderopacity="1.0"
   inkscape:pageshadow="2"
   inkscape:pageopacity="0.0"
   inkscape:pagecheckerboard="0"
   showgrid="false"
   inkscape:zoom="5.2348928"
   inkscape:cx="-57.976354"
   inkscape:cy="33.620555"
   inkscape:window-width="2560"
   inkscape:window-height="1366"
   inkscape:window-x="0"
   inkscape:window-y="24"
   inkscape:window-maximized="1"
   inkscape:current-layer="Capa_1" />
<g
   id="g1733"
   transform="matrix(5.033623,0,0,5.033623,13.666287,3.665e-7)">
	<g
   id="g1719">
		<linearGradient
   id="SVGID_1_"
   gradientUnits="userSpaceOnUse"
   x1="9.9785004"
   y1="5.4506998"
   x2="9.9785004"
   y2="25.428699">
			<stop
   offset="0"
   style="stop-color:#5B5B5F"
   id="stop1699" />
			<stop
   offset="1"
   style="stop-color:#141414"
   id="stop1701" />
		</linearGradient>
		<path
   fill="url(#SVGID_1_)"
   d="m 16.298,19.878 c 0,3.065 -2.829,5.55 -6.319,5.55 v 0 c -3.49,0 -6.319,-2.484 -6.319,-5.55 V 11 c 0,-3.064 2.829,-5.549 6.319,-5.549 v 0 c 3.49,0 6.319,2.484 6.319,5.549 z"
   id="path1704"
   style="fill:url(#SVGID_1_)" />
		<linearGradient
   id="SVGID_2_"
   gradientUnits="userSpaceOnUse"
   x1="9.9785004"
   y1="5.4506998"
   x2="9.9785004"
   y2="25.428699">
			<stop
   offset="0"
   style="stop-color:#5B5B5F"
   id="stop1706" />
			<stop
   offset="0.0231"
   style="stop-color:#59595D"
   id="stop1708" />
			<stop
   offset="0.4507"
   style="stop-color:#333335"
   id="stop1710" />
			<stop
   offset="0.7912"
   style="stop-color:#1C1C1D"
   id="stop1712" />
			<stop
   offset="1"
   style="stop-color:#141414"
   id="stop1714" />
		</linearGradient>
		<path
   fill="url(#SVGID_2_)"
   d="m 9.979,6.888 c 2.692,0 4.882,1.845 4.882,4.112 v 8.879 c 0,2.267 -2.189,4.112 -4.882,4.112 -2.691,0 -4.882,-1.846 -4.882,-4.112 V 11 c 0,-2.268 2.19,-4.112 4.882,-4.112 m 0,-1.437 C 6.489,5.451 3.66,7.935 3.66,11 v 8.879 c 0,3.065 2.829,5.55 6.319,5.55 3.49,0 6.319,-2.484 6.319,-5.55 V 11 c 0,-3.065 -2.829,-5.549 -6.319,-5.549 z"
   id="path1717"
   style="fill:url(#SVGID_2_)" />
	</g>
	<g
   id="g1731">
		<path
   d="M 2.737,1.518 C 2.714,1.282 2.627,1.105 2.479,0.989 2.331,0.873 2.108,0.815 1.811,0.815 1.263,0.815 0.99,1.003 0.99,1.378 c 0,0.135 0.057,0.248 0.17,0.337 0.113,0.09 0.296,0.166 0.547,0.227 0.297,0.069 0.555,0.135 0.773,0.195 0.218,0.06 0.417,0.13 0.599,0.209 0.102,0.043 0.197,0.094 0.287,0.158 0.092,0.063 0.168,0.14 0.23,0.233 0.063,0.092 0.114,0.204 0.15,0.334 0.038,0.13 0.056,0.288 0.056,0.474 0,0.223 -0.046,0.42 -0.139,0.592 C 3.569,4.308 3.444,4.453 3.287,4.572 3.129,4.69 2.943,4.781 2.729,4.843 2.517,4.906 2.291,4.937 2.054,4.937 1.381,4.937 0.876,4.807 0.536,4.547 0.198,4.288 0.019,3.902 0,3.391 H 0.933 C 0.939,3.628 1.035,3.815 1.222,3.952 1.41,4.089 1.646,4.157 1.929,4.157 2.236,4.157 2.468,4.102 2.626,3.991 2.783,3.879 2.862,3.728 2.862,3.538 2.862,3.464 2.852,3.395 2.834,3.332 2.816,3.269 2.78,3.213 2.727,3.161 2.673,3.111 2.599,3.066 2.507,3.026 2.415,2.986 2.294,2.95 2.145,2.918 1.792,2.844 1.486,2.769 1.229,2.691 0.972,2.615 0.759,2.52 0.593,2.406 0.425,2.292 0.302,2.154 0.224,1.991 0.144,1.829 0.105,1.622 0.105,1.372 0.105,1.182 0.14,1.003 0.209,0.835 0.278,0.668 0.386,0.523 0.528,0.4 0.673,0.277 0.85,0.18 1.061,0.108 1.272,0.036 1.522,0 1.811,0 2.089,0 2.34,0.036 2.563,0.108 2.786,0.18 2.978,0.282 3.138,0.414 3.297,0.547 3.421,0.707 3.51,0.894 3.598,1.082 3.647,1.29 3.656,1.518 Z"
   id="path1721" />
		<path
   d="M 6.776,4.777 V 2.702 H 4.972 V 4.777 H 4.005 V 0.153 h 0.967 v 1.74 h 1.805 v -1.74 h 0.975 v 4.624 z"
   id="path1723" />
		<path
   d="M 11.267,4.777 10.976,3.823 H 9.269 L 8.941,4.777 H 7.918 l 1.65,-4.624 h 1.121 l 1.63,4.624 z M 10.118,1.191 H 10.11 L 9.52,3.029 h 1.177 z"
   id="path1725" />
		<path
   d="M 15.194,4.777 V 3.586 C 15.194,3.364 15.143,3.205 15.042,3.109 14.939,3.014 14.749,2.966 14.471,2.966 h -1.03 V 4.777 H 12.5 V 0.153 h 2.348 c 0.213,0 0.406,0.033 0.582,0.101 0.174,0.067 0.323,0.16 0.448,0.279 0.126,0.118 0.222,0.259 0.288,0.425 0.068,0.165 0.103,0.342 0.103,0.532 0,0.251 -0.06,0.472 -0.179,0.665 -0.118,0.192 -0.289,0.328 -0.512,0.408 0.205,0.065 0.35,0.165 0.436,0.299 0.086,0.135 0.129,0.336 0.129,0.606 V 4.777 Z M 13.44,0.954 v 1.232 h 1.211 c 0.26,0 0.443,-0.058 0.551,-0.174 0.106,-0.116 0.16,-0.262 0.16,-0.438 0,-0.181 -0.053,-0.33 -0.158,-0.446 C 15.1,1.012 14.928,0.954 14.686,0.954 Z"
   id="path1727" />
		<path
   d="M 16.489,4.777 V 0.153 h 3.398 V 0.961 H 17.43 V 1.95 h 2.265 V 2.765 H 17.43 v 1.19 h 2.569 v 0.822 z"
   id="path1729" />
	</g>
</g>
</svg>
