<?xml version="1.0" encoding="iso-8859-1"?>
<!-- Generator: Adobe Illustrator 19.0.0, SVG Export Plug-In . SVG Version: 6.00 Build 0)  -->
<svg version="1.1" id="Layer_1" xmlns="http://www.w3.org/2000/svg" xmlns:xlink="http://www.w3.org/1999/xlink" x="0px" y="0px"
	 viewBox="0 0 512 512" style="enable-background:new 0 0 512 512;" xml:space="preserve">
<g>
	<rect x="342.232" y="460.8" style="fill:#AFB6BB;" width="43.116" height="37.726"/>
	<rect x="234.442" y="460.8" style="fill:#AFB6BB;" width="43.116" height="37.726"/>
	<rect x="126.653" y="460.8" style="fill:#AFB6BB;" width="43.116" height="37.726"/>
	<rect x="8.084" y="234.442" style="fill:#AFB6BB;" width="43.116" height="43.116"/>
	<rect x="8.084" y="342.232" style="fill:#AFB6BB;" width="43.116" height="43.116"/>
	<rect x="460.8" y="342.232" style="fill:#AFB6BB;" width="43.116" height="43.116"/>
	<rect x="460.8" y="234.442" style="fill:#AFB6BB;" width="43.116" height="43.116"/>
	<rect x="460.8" y="126.653" style="fill:#AFB6BB;" width="43.116" height="43.116"/>
	<rect x="342.232" y="13.474" style="fill:#AFB6BB;" width="43.116" height="37.726"/>
	<rect x="234.442" y="13.474" style="fill:#AFB6BB;" width="43.116" height="37.726"/>
	<rect x="126.653" y="13.474" style="fill:#AFB6BB;" width="43.116" height="37.726"/>
	<rect x="8.084" y="126.653" style="fill:#AFB6BB;" width="43.116" height="43.116"/>
</g>
<g>
	<rect x="51.2" y="126.653" style="fill:#E7ECED;" width="32.337" height="43.116"/>
	<rect x="51.2" y="234.442" style="fill:#E7ECED;" width="32.337" height="43.116"/>
	<rect x="51.2" y="342.232" style="fill:#E7ECED;" width="32.337" height="43.116"/>
	<rect x="126.653" y="428.463" style="fill:#E7ECED;" width="43.116" height="32.337"/>
	<rect x="234.442" y="428.463" style="fill:#E7ECED;" width="43.116" height="32.337"/>
	<rect x="342.232" y="428.463" style="fill:#E7ECED;" width="43.116" height="32.337"/>
	<rect x="428.463" y="342.232" style="fill:#E7ECED;" width="32.337" height="43.116"/>
	<rect x="428.463" y="234.442" style="fill:#E7ECED;" width="32.337" height="43.116"/>
	<rect x="428.463" y="126.653" style="fill:#E7ECED;" width="32.337" height="43.116"/>
	<rect x="342.232" y="51.2" style="fill:#E7ECED;" width="43.116" height="32.337"/>
	<rect x="234.442" y="51.2" style="fill:#E7ECED;" width="43.116" height="32.337"/>
	<rect x="126.653" y="51.2" style="fill:#E7ECED;" width="43.116" height="32.337"/>
</g>
<path style="fill:#595E62;" d="M428.463,385.347v32.337c0,5.928-4.851,10.779-10.779,10.779h-32.337h-43.116h-64.674h-43.116
	h-64.674h-43.116H94.316c-5.928,0-10.779-4.851-10.779-10.779v-32.337v-43.116v-64.674v-43.116v-64.674v-43.116V94.316
	c0-5.928,4.851-10.779,10.779-10.779h32.337h43.116h64.674h43.116h64.674h43.116h32.337c5.928,0,10.779,4.851,10.779,10.779v32.337
	v43.116v64.674v43.116v64.674V385.347z M385.347,385.347V126.653H126.653v258.695H385.347z"/>
<rect x="126.653" y="126.653" style="fill:#36C63F;" width="258.695" height="258.695"/>
<path style="fill:#00AB4E;" d="M173.785,126.653h-47.132v258.695h258.695v-47.132C284.709,306.659,205.341,227.291,173.785,126.653z
	"/>
<path style="fill:#44494C;" d="M126.653,385.347V126.653H256V83.537h-21.558h-64.674h-43.116H94.316
	c-5.928,0-10.779,4.851-10.779,10.779v32.337v43.116v64.674v43.116v64.674v43.116v32.337c0,5.928,4.851,10.779,10.779,10.779h32.337
	h43.116h64.674H256v-43.116H126.653z"/>
<g>
	<rect x="180.547" y="161.684" style="fill:#FFFFFF;" width="150.905" height="16.168"/>
	<rect x="180.547" y="237.137" style="fill:#FFFFFF;" width="150.905" height="16.168"/>
	<rect x="180.547" y="199.411" style="fill:#FFFFFF;" width="26.947" height="16.168"/>
	<rect x="180.547" y="334.147" style="fill:#FFFFFF;" width="26.947" height="16.168"/>
	<rect x="223.663" y="334.147" style="fill:#FFFFFF;" width="26.947" height="16.168"/>
	<rect x="299.116" y="334.147" style="fill:#FFFFFF;" width="26.947" height="16.168"/>
	<rect x="239.832" y="199.411" style="fill:#FFFFFF;" width="91.621" height="16.168"/>
</g>
<path d="M118.568,393.432h274.863V118.568H118.568V393.432z M134.737,134.737h242.526v242.526H134.737V134.737z"/>
<path d="M512,177.853v-59.284h-75.453V94.316c0-10.401-8.463-18.863-18.863-18.863h-24.253V5.389h-59.284v70.063h-48.505V5.389
	h-59.284v70.063h-48.505V5.389h-59.284v70.063H94.316c-10.401,0-18.863,8.463-18.863,18.863v24.253H0v59.284h75.453v48.505H0v59.284
	h75.453v48.505H0v59.284h75.453v24.253c0,10.401,8.463,18.863,18.863,18.863h24.253v70.063h59.284v-70.063h48.505v70.063h59.284
	v-70.063h48.505v70.063h59.284v-70.063h24.253c10.401,0,18.863-8.463,18.863-18.863v-24.253H512v-59.284h-75.453v-48.505H512
	v-59.284h-75.453v-48.505H512z M436.547,134.737h16.168v26.947h-16.168V134.737z M495.832,161.684h-26.947v-26.947h26.947V161.684z
	 M350.316,59.284h26.947v16.168h-26.947V59.284z M377.263,21.558v21.558h-26.947V21.558H377.263z M242.526,59.284h26.947v16.168
	h-26.947V59.284z M269.474,21.558v21.558h-26.947V21.558H269.474z M134.737,59.284h26.947v16.168h-26.947V59.284z M161.684,21.558
	v21.558h-26.947V21.558H161.684z M75.453,161.684H59.284v-26.947h16.168V161.684z M16.168,134.737h26.947v26.947H16.168V134.737z
	 M75.453,269.474H59.284v-26.947h16.168V269.474z M16.168,242.526h26.947v26.947H16.168V242.526z M75.453,377.263H59.284v-26.947
	h16.168V377.263z M16.168,350.316h26.947v26.947H16.168V350.316z M161.684,452.716h-26.947v-16.168h26.947V452.716z
	 M134.737,490.442v-21.558h26.947v21.558H134.737z M269.474,452.716h-26.947v-16.168h26.947V452.716z M242.526,490.442v-21.558
	h26.947v21.558H242.526z M377.263,452.716h-26.947v-16.168h26.947V452.716z M350.316,490.442v-21.558h26.947v21.558H350.316z
	 M436.547,350.316h16.168v26.947h-16.168V350.316z M495.832,377.263h-26.947v-26.947h26.947V377.263z M436.547,242.526h16.168
	v26.947h-16.168V242.526z M495.832,269.474h-26.947v-26.947h26.947V269.474z M420.379,417.684c0,1.461-1.234,2.695-2.695,2.695
	H94.316c-1.461,0-2.695-1.234-2.695-2.695V94.316c0-1.461,1.234-2.695,2.695-2.695h323.368c1.461,0,2.695,1.234,2.695,2.695V417.684
	z"/>
<g>
</g>
<g>
</g>
<g>
</g>
<g>
</g>
<g>
</g>
<g>
</g>
<g>
</g>
<g>
</g>
<g>
</g>
<g>
</g>
<g>
</g>
<g>
</g>
<g>
</g>
<g>
</g>
<g>
</g>
</svg>
