<?xml version="1.0" ?><svg id="Слой_1" style="enable-background:new 0 0 512 512;" version="1.1" viewBox="0 0 512 512" xml:space="preserve" xmlns="http://www.w3.org/2000/svg" xmlns:xlink="http://www.w3.org/1999/xlink"><style type="text/css">
	.st0{fill:#FFF7C3;}
	.st1{fill:none;stroke:#000000;stroke-width:12;stroke-miterlimit:10;}
</style><g><circle class="st0" cx="302.3" cy="276.3" r="174.1"/><circle class="st1" cx="272.7" cy="276.3" r="174.1"/><g><g><path d="M161.8,198.4c7.7,0,7.7-12,0-12C154,186.4,154,198.4,161.8,198.4L161.8,198.4z"/></g></g><g><g><path d="M175.9,387.6c7.7,0,7.7-12,0-12C168.1,375.6,168.1,387.6,175.9,387.6L175.9,387.6z"/></g></g><g><g><path d="M381.5,204.3c7.7,0,7.7-12,0-12C373.8,192.3,373.8,204.3,381.5,204.3L381.5,204.3z"/></g></g><g><g><path d="M354.5,387.6c7.7,0,7.7-12,0-12C346.7,375.6,346.7,387.6,354.5,387.6L354.5,387.6z"/></g></g><polyline class="st1" points="273.3,203.4 273.3,276.3 229.2,276.3  "/><line class="st1" x1="98.6" x2="73.2" y1="276.3" y2="276.3"/><g><line class="st1" x1="104.5" x2="53.3" y1="226.2" y2="226.2"/><line class="st1" x1="35.9" x2="22.2" y1="226.2" y2="226.2"/></g><line class="st1" x1="272.7" x2="272.7" y1="102.2" y2="83.5"/><line class="st1" x1="272.7" x2="272.7" y1="129" y2="143.4"/><line class="st1" x1="272.7" x2="272.7" y1="408" y2="422.4"/><line class="st1" x1="128.2" x2="128.2" y1="269.1" y2="283.5"/><line class="st1" x1="411.8" x2="411.8" y1="269.1" y2="283.5"/></g></svg>