<?xml version="1.0" encoding="utf-8"?>
<!-- Generator: Adobe Illustrator 20.0.0, SVG Export Plug-In . SVG Version: 6.00 Build 0)  -->
<svg version="1.1" id="quality-award" xmlns="http://www.w3.org/2000/svg" xmlns:xlink="http://www.w3.org/1999/xlink" x="0px"
	 y="0px" viewBox="0 0 870.9449 1010" enable-background="new 0 0 870.9449 1010" xml:space="preserve">
<g id="quality-award-quality-award">
	<g>
		<g>
			<g>
				<polyline fill="#ED7161" points="692.3472,760.7012 743.899,882.2168 615.0103,877.6777 528.7476,973.5234 468.1939,830.918 
									"/>
				<polygon fill="#656872" points="522.6558,1010 449.898,838.6787 486.4903,823.1563 534.8404,937.0479 606.4546,857.499 
					713.437,861.2627 674.0513,768.4629 710.6441,752.9404 774.3609,903.1719 623.566,897.8555 522.6558,1010 				"/>
			</g>
		</g>
		<g>
			<g>
				<polyline fill="#ED7161" points="403.4297,825.8145 343.7676,973.5234 255.8369,879.1904 127.0454,885.9814 183.6221,745.8594 
									"/>
				<polygon fill="#656872" points="350.5005,1009.8838 247.6299,899.5234 96.9527,907.459 165.19,738.4277 202.0542,753.2891 
					157.1382,864.5029 264.0445,858.8574 337.0352,937.1641 385.0166,818.3652 421.8423,833.2656 350.5005,1009.8838 				"/>
			</g>
		</g>
	</g>
	<g>
		<path fill="#FFCA70" d="M851.0767,435.4624c0,21.1685-38.417,39.0376-41.6377,59.2739
			c-3.2588,20.7793,27.7461,49.6114,21.3818,69.2071c-6.4609,19.9453-48.5634,25.0293-57.9345,43.4218
			c-9.4883,18.627,11,55.6856-1.1836,72.4102c-12.2627,16.8594-53.8614,8.7305-68.5293,23.3984
			c-14.7071,14.668-6.5957,56.2656-23.418,68.5674c-16.7637,12.1455-53.8027-8.3818-72.4092,1.126
			c-18.3935,9.4092-23.4951,51.4541-43.4414,57.9531c-19.5576,6.3457-48.3887-24.6601-69.1684-21.3808
			c-20.2754,3.2011-38.1451,41.6367-59.274,41.6367c-21.1484,0-39.0371-38.4355-59.2544-41.6367
			c-20.7793-3.2793-49.6303,27.7265-69.2075,21.3808c-19.9258-6.499-25.0093-48.5439-43.3833-57.9531
			c-18.626-9.5078-55.6841,11.0195-72.4282-1.1651c-16.8218-12.2626-8.731-53.8603-23.4185-68.5283
			c-14.6875-14.707-56.2661-6.5587-68.5283-23.3984c-12.2236-16.7637,8.3233-53.8223-1.164-72.4102
			c-9.4102-18.3925-51.4937-23.5146-57.9546-43.4218c-6.3833-19.5957,24.6215-48.4278,21.3813-69.2071
			c-3.2207-20.2363-41.6372-38.1445-41.6372-59.2739c0-21.1289,38.4165-39.0176,41.6372-59.2539
			c3.2402-20.7798-27.7842-49.6118-21.3813-69.1689c6.4414-19.9263,48.5053-25.0679,57.935-43.461
			c9.4683-18.5874-11.04-55.6455,1.1446-72.3896c12.2622-16.8218,53.8608-8.7115,68.5478-23.4185
			c14.6875-14.6875,6.5776-56.2856,23.4185-68.5283c16.7441-12.2041,53.8022,8.3042,72.4091-1.1641
			c18.3741-9.4101,23.4961-51.4936,43.4029-57.9546c19.5962-6.3637,48.4082,24.6216,69.2265,21.3814
			c20.2173-3.2012,38.106-41.6372,59.2544-41.6372c21.1485,0,39.0371,38.436,59.274,41.6372
			c20.7797,3.2402,49.6108-27.7451,69.2075-21.3618c19.9258,6.4804,25.0283,48.5249,43.4023,57.935
			c18.6455,9.5069,55.6846-11.04,72.4287,1.1641c16.8223,12.2622,8.7305,53.8408,23.418,68.5283
			c14.6875,14.707,56.2861,6.5967,68.5098,23.4185c12.2226,16.7441-8.3047,53.8022,1.1836,72.4091
			c9.4101,18.3736,51.4736,23.4961,57.9345,43.4219c6.3643,19.5767-24.6406,48.4087-21.3818,69.1885
			C812.6597,396.4448,851.0767,414.3335,851.0767,435.4624z"/>
		<path fill="#656872" d="M435.4624,870.9443c-19.5962,0-33.5268-14.4931-45.8276-27.2988
			c-4.9092-5.1221-13.1548-13.6982-16.6279-14.6103c-4.2881,0.0195-13.9698,5.2197-21.0513,9.0039
			c-12.4175,6.6347-25.2422,13.5039-39.2505,13.5039c-4.1133,0-8.0908-0.6016-11.8354-1.8242
			c-18.5293-6.0342-27.2212-24.0586-34.9048-39.9493c-3.1431-6.4803-8.3623-17.3066-11.4663-19.2469l0,0
			c-0.0972,0-12.2432,0.1943-22.6035,2.0185c-8.3433,1.4932-16.9576,3.0254-25.4751,3.0254
			c-10.9043,0-19.7129-2.5605-26.9302-7.7988c-15.6192-11.3887-18.3355-31.1211-20.7412-48.5449
			c-1.0088-7.1973-2.6582-19.2461-5.064-22.0411c-2.7163-2.3281-14.7651-3.9765-21.9634-4.9668
			c-17.4228-2.4052-37.1553-5.1211-48.5439-20.7402c-11.3506-15.5801-7.8579-35.1758-4.7925-52.4834
			c1.2808-7.1982,3.4341-19.2471,1.979-22.6416c-1.8628-2.9687-12.728-8.2266-19.208-11.3701
			c-15.9102-7.6826-33.9346-16.415-39.9297-34.9053c-5.937-18.2373,3.4341-35.7187,11.6802-51.1435
			c3.4922-6.5381,9.3515-17.462,8.9634-21.167c-0.8731-3.2989-9.4683-11.5645-14.5904-16.4922
			C14.4932,468.9707,0,455.0391,0,435.4624s14.4932-33.5073,27.2793-45.7891c5.1416-4.9472,13.7173-13.1933,14.6294-16.686
			c0.3491-3.5117-5.5102-14.4351-9.0024-20.9541c-8.2656-15.4443-17.6367-32.9253-11.6612-51.1831
			c5.9566-18.4321,23.9815-27.1821,39.8912-34.8848c6.4995-3.1435,17.3457-8.4013,19.2661-11.5058
			c1.3969-3.2593-0.7564-15.3277-2.0371-22.5259c-3.0655-17.2871-6.5577-36.8643,4.7729-52.4439
			c11.3892-15.6191,31.1211-18.3354,48.5444-20.7412c7.1983-0.9892,19.2662-2.6582,22.0601-5.0639
			c2.3091-2.6968,3.9775-14.7652,4.9673-21.9634c2.4058-17.4229,5.1416-37.1743,20.7798-48.544
			c7.1978-5.2583,16.0063-7.7998,26.9492-7.7998c8.5176,0,17.1519,1.5328,25.4751,3.0074
			c10.6323,1.8818,22.6426,2.018,22.7007,1.9594c2.9297-1.8432,8.1875-12.6889,11.331-19.1884
			c7.6831-15.8907,16.3946-33.9346,34.9043-39.9297c3.7447-1.2227,7.7417-1.8433,11.855-1.8433
			c14.0083,0,26.8525,6.8877,39.27,13.5234c7.062,3.7833,16.7632,8.9639,21.0513,8.9639
			c3.4536-0.8735,11.6992-9.4492,16.6084-14.5713C401.9356,14.4937,415.8662,0,435.4624,0s33.5269,14.4937,45.8086,27.2793
			c4.9283,5.1416,13.1743,13.7173,16.666,14.6294c4.25-0.0386,13.9317-5.2192,20.9942-8.9834
			c12.417-6.6548,25.2617-13.523,39.2695-13.523c4.1328,0,8.1289,0.6206,11.8936,1.8433
			c18.4902,6.0147,27.2021,24.0391,34.9043,39.9297c3.124,6.48,8.3623,17.3066,11.4668,19.2466l0,0
			c0.0966,0,12.2236-0.1743,22.6035-2.0176c8.3232-1.4941,16.9385-3.0269,25.4756-3.0269c10.9043,0,19.7314,2.5611,26.9297,7.7998
			c15.6191,11.3892,18.3359,31.1211,20.7412,48.544c1.0088,7.1982,2.6582,19.2666,5.0634,22.041
			c2.7168,2.3281,14.7852,3.9971,21.9825,4.9863c17.4238,2.4058,37.1562,5.1416,48.5058,20.7603
			c11.3506,15.5415,7.877,35.1377,4.793,52.4248c-1.2812,7.2178-3.415,19.2856-1.96,22.6811
			c1.8623,2.9493,12.708,8.2071,19.1885,11.3506c15.9102,7.6831,33.9346,16.4141,39.9297,34.9239
			c5.918,18.2187-3.4336,35.6806-11.6797,51.1049c-3.4922,6.5196-9.3516,17.4624-8.9639,21.168
			c0.873,3.3179,9.4483,11.564,14.5909,16.5112c12.7851,12.2818,27.2793,26.2124,27.2793,45.7891
			c0,19.5962-14.4942,33.5464-27.2989,45.8286c-5.123,4.9277-13.6982,13.1738-14.6103,16.666
			c-0.3487,3.5313,5.4911,14.4551,9.0029,20.9932c8.2461,15.4248,17.5977,32.8867,11.6797,51.124
			c-5.9951,18.5098-24.0391,27.2412-39.9492,34.9248c-6.461,3.124-17.2871,8.3623-19.2266,11.4473
			c-1.417,3.2978,0.7363,15.4053,2.0176,22.6221c3.0645,17.288,6.5381,36.8457-4.793,52.4062
			c-11.3886,15.6377-31.1601,18.3535-48.6015,20.7598c-7.1797,0.9902-19.209,2.6386-21.9834,5.0255
			c-2.3282,2.7168-3.9971,14.7851-4.9864,21.9824c-2.4052,17.4043-5.122,37.1367-20.7216,48.5449
			c-7.2559,5.2578-16.045,7.7793-26.9102,7.7793c-8.537,0-17.1523-1.5322-25.5137-3.0068
			c-10.6328-1.9209-22.6426-1.9795-22.7011-1.9795c-2.9883,1.8633-8.2461,12.709-11.3692,19.1894
			c-7.7031,15.8907-16.415,33.9151-34.9238,39.9493c-3.7647,1.2226-7.7422,1.8242-11.8555,1.8242
			c-13.9883,0-26.8144-6.8692-39.2305-13.5039c-7.0625-3.7842-16.7441-8.9844-21.0332-8.9844
			c-3.5112,0.8926-11.7768,9.4883-16.7045,14.6299C468.9507,856.4512,455.0391,870.9443,435.4624,870.9443L435.4624,870.9443z
			 M373.0069,789.3193c2.1342,0,4.2295,0.1748,6.3056,0.5049c16.1817,2.5606,28.2886,15.1719,38.979,26.2891
			c5.0254,5.2392,13.3487,13.8926,17.1709,15.0371c3.8028-1.1445,12.107-9.7783,17.1128-14.9981
			c10.71-11.1562,22.856-23.7871,39.0567-26.3281c15.9096-2.5615,31.6645,5.4512,46.1001,13.1738
			c6.5576,3.5118,16.4531,8.8086,20.4687,8.8086c2.4258-1.6103,7.7998-12.7089,11.001-19.3437
			c6.752-13.9502,14.416-29.7637,29.1035-37.291c12.5537-6.4414,30.9463-4.7539,47.7295-1.7461
			c10.9238,1.9395,22.3896,1.9785,22.4482,1.998c1.669-2.25,3.337-14.377,4.3457-21.6133
			c2.1338-15.4453,4.5401-32.9648,16.3174-44.7031c11.6992-11.6992,29.1807-14.1054,44.6055-16.2402
			c7.2373-0.9893,19.3633-2.6582,22.1387-5.083c0.9306-2.6963-1.1836-14.6289-2.4649-21.7686
			c-2.7168-15.3867-5.8008-32.8095,1.7657-47.6719c7.4892-14.707,23.3222-22.371,37.291-29.123
			c6.6162-3.2012,17.6953-8.5557,19.5771-11.7383c0.0186-2.832-5.665-13.4453-9.0615-19.7705
			c-7.3916-13.833-15.793-29.4912-13.1934-46.0605c2.5811-16.2002,15.1924-28.3272,26.3096-38.9991
			c5.0255-4.83,14.377-13.8139,15.1143-17.4809c-0.7559-3.0654-9.7403-11.6992-15.0948-16.8604
			c-11.1367-10.6904-23.748-22.7973-26.3095-38.979c-2.6192-16.6084,5.7822-32.2656,13.1738-46.0996
			c3.3965-6.3252,9.0801-16.938,8.8087-20.5664c-1.6289-2.3667-12.708-7.7412-19.3242-10.9429
			c-13.9502-6.7519-29.7627-14.3964-37.2715-29.0644c-7.586-14.8814-4.502-32.3047-1.7656-47.6709
			c1.2617-7.1401,3.3955-19.0918,1.9785-22.4678c-2.3086-1.7461-14.377-3.415-21.5938-4.4043
			c-15.4443-2.1343-32.9453-4.54-44.7031-16.2978c-11.7188-11.7383-14.1445-29.2198-16.2588-44.6641
			c-0.9892-7.043-2.6006-18.7422-4.9287-21.8852c-0.0771,0-1.2217-0.1553-3.3945-0.1553c-5.0254,0-11.584,1.164-18.5293,2.4057
			c-16.7246,2.9878-35.1182,4.6954-47.6914-1.7461c-14.7061-7.5283-22.3506-23.3408-29.1026-37.291
			c-3.2021-6.6162-8.5566-17.6948-11.7578-19.5771c-3.3174,0.2329-12.8447,5.3359-19.79,9.0415
			c-14.3965,7.7026-30.0928,15.6577-46.003,13.1938c-16.2202-2.5805-28.3461-15.1919-39.0371-26.3095
			c-5.1606-5.3745-13.7949-14.3575-17.4619-15.1143c-3.0849,0.7568-11.7187,9.7398-16.8799,15.1143
			c-10.6904,11.1176-22.7973,23.729-38.979,26.29c-16.2202,2.561-31.664-5.4717-46.0996-13.1743
			c-6.9458-3.7251-16.4531-8.8276-20.5078-8.8276c-2.4253,1.6489-7.7998,12.7275-11.0015,19.3437
			c-6.7519,13.9697-14.396,29.7822-29.0644,37.291c-12.6499,6.4414-30.9463,4.7149-47.6709,1.7656
			c-10.9624-1.9594-22.4292-1.9985-22.4873-1.9985c-1.7266,2.3091-3.4146,14.416-4.4043,21.6333
			c-2.1343,15.4443-4.5401,32.9258-16.2783,44.6641c-11.7383,11.7578-29.2393,14.1635-44.6831,16.2978
			c-7.2373,0.9893-19.3443,2.6773-22.1187,5.0835c-0.9116,2.6773,1.2227,14.6289,2.4834,21.7691
			c2.7359,15.3667,5.8403,32.7895-1.7266,47.6323c-7.5283,14.707-23.3408,22.3706-37.291,29.1225
			c-6.6162,3.2017-17.6948,8.5762-19.5766,11.7774c-0.0196,2.852,5.665,13.4263,9.041,19.7515
			c7.4116,13.8144,15.7934,29.4716,13.2129,46.0219c-2.5801,16.2398-15.1919,28.3467-26.3286,39.0371
			c-5.355,5.1612-14.3384,13.795-15.0948,17.4424c0.7564,3.0659,9.7398,11.7193,15.0948,16.8794
			c11.1367,10.6914,23.7485,22.8184,26.3095,38.9795c2.5996,16.6084-5.7822,32.2666-13.1743,46.0615
			c-3.3955,6.3438-9.0801,16.9571-8.8281,20.6045c1.6494,2.3672,12.728,7.7412,19.3442,10.9424
			c13.9502,6.752,29.7823,14.416,37.3106,29.1035c7.5664,14.8428,4.4819,32.2656,1.7265,47.6328
			c-1.2612,7.1592-3.3955,19.1115-1.979,22.4865c2.2896,1.7461,14.3965,3.416,21.6143,4.4043
			c15.4438,2.1152,32.9448,4.5214,44.7026,16.2793c11.7188,11.7187,14.1441,29.2187,16.2588,44.664
			c0.9898,7.043,2.6001,18.7227,4.9087,21.8848c0.2525,0.0391,1.2612,0.1562,3.4151,0.1562l0,0
			c5.0053,0,11.583-1.1836,18.5288-2.4062c16.7246-2.9883,35.0986-4.6953,47.7099,1.7461
			c14.6875,7.5273,22.3321,23.3408,29.084,37.3105c3.2012,6.6153,8.5562,17.7139,11.7578,19.5957
			c3.2403-0.2715,12.7471-5.3554,19.7124-9.0801C345.7661,796.2852,358.7461,789.3193,373.0069,789.3193L373.0069,789.3193z"/>
	</g>
	<g>
		<path fill="#BDBF6D" d="M694.773,435.4624c0,143.2271-116.1035,259.311-259.3106,259.311
			c-143.2075,0-259.31-116.0839-259.31-259.311c0-143.2075,116.1025-259.3101,259.31-259.3101
			C578.6695,176.1523,694.773,292.2549,694.773,435.4624z"/>
	</g>
	<g>
		<g>
			<path fill="#656872" d="M435.4624,612.2559c-89.4248,0-162.1826-78.3077-162.1826-174.5621s72.7578-174.5615,162.1826-174.5615
				c89.4444,0,162.2022,78.3072,162.2022,174.5615S524.9068,612.2559,435.4624,612.2559L435.4624,612.2559z M435.4624,302.8682
				c-67.5195,0-122.4472,60.4765-122.4472,134.8256c0,74.3492,54.9277,134.8257,122.4472,134.8257
				c67.5196,0,122.4668-60.4765,122.4668-134.8257C557.9292,363.3447,502.982,302.8682,435.4624,302.8682L435.4624,302.8682z"/>
		</g>
		<g>
			<path fill="#656872" d="M558.8999,614.04c-5.0839,0-10.1679-1.9404-14.0478-5.8203l-90.4336-90.4336
				c-7.7608-7.7607-7.7608-20.333,0-28.0947c7.7607-7.7607,20.3335-7.7607,28.0942,0l90.4341,90.4336
				c7.7598,7.7617,7.7598,20.334,0,28.0947C569.066,612.0996,563.982,614.04,558.8999,614.04L558.8999,614.04z"/>
		</g>
	</g>
</g>
</svg>
