<?xml version="1.0" encoding="iso-8859-1"?>
<!-- Generator: Adobe Illustrator 18.1.1, SVG Export Plug-In . SVG Version: 6.00 Build 0)  -->
<svg version="1.1" id="Capa_1" xmlns="http://www.w3.org/2000/svg" xmlns:xlink="http://www.w3.org/1999/xlink" x="0px" y="0px"
	 viewBox="0 0 76 76" style="enable-background:new 0 0 76 76;" xml:space="preserve">
<g id="_x37_7_Essential_Icons_73_">
	<path id="Video" d="M74,12H2c-1.1,0-2,0.9-2,2v48c0,1.1,0.9,2,2,2h72c1.1,0,2-0.9,2-2V14C76,12.9,75.1,12,74,12z M14,60H4v-8h10V60
		z M14,48H4v-8h10V48z M14,36H4v-8h10V36z M14,24H4v-8h10V24z M58,60H18V16h40V60z M72,60H62v-8h10V60z M72,48H62v-8h10V48z M72,36
		H62v-8h10V36z M72,24H62v-8h10V24z"/>
</g>
<g>
</g>
<g>
</g>
<g>
</g>
<g>
</g>
<g>
</g>
<g>
</g>
<g>
</g>
<g>
</g>
<g>
</g>
<g>
</g>
<g>
</g>
<g>
</g>
<g>
</g>
<g>
</g>
<g>
</g>
</svg>
