<?xml version="1.0" encoding="iso-8859-1"?>
<!-- Generator: Adobe Illustrator 19.0.0, SVG Export Plug-In . SVG Version: 6.00 Build 0)  -->
<svg version="1.1" id="Capa_1" xmlns="http://www.w3.org/2000/svg" xmlns:xlink="http://www.w3.org/1999/xlink" x="0px" y="0px"
	 viewBox="0 0 479.958 479.958" style="enable-background:new 0 0 479.958 479.958;" xml:space="preserve">
<path style="fill:#DEDEDE;" d="M439.977,471.958h-400c-8.837,0-16-7.163-16-16v-200h432v200
	C455.977,464.794,448.814,471.958,439.977,471.958z"/>
<path style="fill:#666666;" d="M135.977,207.958v48h320v-64h-332.8L135.977,207.958z"/>
<g>
	<path style="fill:#DEDEDE;" d="M279.977,255.958h-64l48-64h64L279.977,255.958z"/>
	<path style="fill:#DEDEDE;" d="M407.977,255.958h-64l48-64h64L407.977,255.958z"/>
	<path style="fill:#DEDEDE;" d="M135.977,191.958l-6.192,8.256l6.192,7.744v48h16l48-64H135.977z"/>
</g>
<path style="fill:#666666;" d="M129.785,200.214l-6.608-8.256l-11.808-14.76l-4.008-5.008l-35.384-44.232H54.545H23.977v64v64h64h48
	v-48L129.785,200.214z"/>
<g>
	<path style="fill:#DEDEDE;" d="M47.977,215.958h16v16h-16V215.958z"/>
	<path style="fill:#DEDEDE;" d="M47.977,151.958h16v16h-16V151.958z"/>
	<path style="fill:#DEDEDE;" d="M95.977,215.958h16v16h-16V215.958z"/>
</g>
<g>
	<path style="fill:#C7C7C7;" d="M63.977,311.958h352v16h-352V311.958z"/>
	<path style="fill:#C7C7C7;" d="M415.977,375.958h-352v16h104v48h16v-48h112v48h16v-48h104V375.958z"/>
</g>
<path style="fill:#DEDEDE;" d="M111.369,177.198L455.977,69.022L436.809,7.958l-382.264,120h17.432L111.369,177.198z"/>
<g>
	<path style="fill:#666666;" d="M288.057,121.734l-61.064,19.168l26.632-75.44l61.056-19.168L288.057,121.734z"/>
	<path style="fill:#666666;" d="M410.177,83.398l-61.056,19.168l26.624-75.44l61.064-19.168L410.177,83.398z"/>
	<path style="fill:#666666;" d="M111.369,177.198l54.56-17.128l26.632-75.44l-61.064,19.168l-24.136,68.392L111.369,177.198z"/>
</g>
<path style="fill:#C7C7C7;" d="M23.977,255.958h432v24h-432V255.958z"/>
<path d="M228.137,148.926l1.256-0.392l1.848-0.576l99.2-31.152l21.048-6.608l31.152-9.776l75.736-23.768
	c4.215-1.325,6.557-5.816,5.232-10.031c0,0,0-0.001,0-0.001L444.441,5.558c-0.048-0.144-0.16-0.24-0.216-0.384
	c-0.264-0.704-0.628-1.367-1.08-1.968c-0.144-0.192-0.256-0.4-0.416-0.576c-0.051-0.078-0.108-0.153-0.168-0.224
	c-0.561-0.577-1.209-1.063-1.92-1.44c-0.184-0.104-0.392-0.152-0.584-0.24c-0.653-0.294-1.341-0.501-2.048-0.616
	c-0.272-0.04-0.52-0.072-0.8-0.088c-0.947-0.071-1.898,0.032-2.808,0.304L210.849,70.502l-20.688,6.496l-35.52,11.152
	l-101.32,31.808H23.977c-4.418,0-8,3.582-8,8v328c0,13.255,10.745,24,24,24h400c13.255,0,24-10.745,24-24v-264
	c0-0.152-0.08-0.28-0.088-0.432c-0.042-0.762-0.193-1.513-0.448-2.232c-0.061-0.214-0.133-0.425-0.216-0.632
	c0-0.088-0.048-0.192-0.088-0.28c-0.372-0.722-0.852-1.383-1.424-1.96c-0.128-0.136-0.288-0.232-0.424-0.36
	c-0.553-0.491-1.169-0.905-1.832-1.232c-0.24-0.112-0.464-0.224-0.712-0.312c-0.882-0.351-1.819-0.541-2.768-0.56H127.025
	l-2.104-2.624L228.137,148.926z M423.977,20.39l-20,56.568l-26.632,8.36l-15.352,4.8l20-56.576l12.8-4L423.977,20.39z
	 M117.785,166.79l20-56.576l41.976-13.176l-20,56.568l-25.856,8.128L117.785,166.79z M362.873,39.558l-20,56.576l-41.976,13.176
	l20-56.584l5.16-1.6L362.873,39.558z M281.841,115.294l-41.968,13.176l20-56.568l41.968-13.176L281.841,115.294z M220.778,134.494
	l-41.976,13.176l20-56.576l41.976-13.2L220.778,134.494z M104.61,155.958l-22.576-28.24l36.592-11.488L104.61,155.958z
	 M423.049,70.998l13.312-37.72l9.6,30.536L423.049,70.998z M31.978,135.958h36.16l36.984,46.24l11.792,14.728l5.6,7.024l0.968,1.208
	l4.448,5.552v37.248H31.978L31.978,135.958z M447.978,455.958c0,4.418-3.582,8-8,8h-400c-4.418,0-8-3.582-8-8v-192h416V455.958z
	 M447.978,247.958h-24l24-32V247.958z M403.978,247.958h-44l36-48h44L403.978,247.958z M339.978,247.958h-44l36-48h44
	L339.978,247.958z M275.978,247.958h-44l36-48h44L275.978,247.958z M211.978,247.958h-44l36-48h44L211.978,247.958z
	 M147.978,247.958h-4v-40c0.001-1.817-0.617-3.581-1.752-5l-2.32-2.896l44.072-0.104L147.978,247.958z"/>
<path d="M47.977,215.958h16v16h-16V215.958z"/>
<path d="M47.977,151.958h16v16h-16V151.958z"/>
<path d="M95.977,215.958h16v16h-16V215.958z"/>
<path d="M63.977,311.958h352v16h-352V311.958z"/>
<path d="M63.977,391.958h104v48h16v-48h112v48h16v-48h104v-16h-352V391.958z"/>
<g>
</g>
<g>
</g>
<g>
</g>
<g>
</g>
<g>
</g>
<g>
</g>
<g>
</g>
<g>
</g>
<g>
</g>
<g>
</g>
<g>
</g>
<g>
</g>
<g>
</g>
<g>
</g>
<g>
</g>
</svg>
