<svg height="511pt" viewBox="1 -16 511.999 511" width="511pt" xmlns="http://www.w3.org/2000/svg"><path d="m480.683594 472.882812h-449.367188c-13.152344 0-23.816406-10.664062-23.816406-23.816406v-417.25c0-13.15625 10.664062-23.816406 23.816406-23.816406h449.367188c13.15625 0 23.816406 10.660156 23.816406 23.816406v417.25c0 13.152344-10.664062 23.816406-23.816406 23.816406zm0 0" fill="#f6d867"/><path d="m480.683594 8h-35c13.152344 0 23.816406 10.660156 23.816406 23.816406v417.25c0 13.152344-10.664062 23.816406-23.816406 23.816406h35c13.152344 0 23.816406-10.664062 23.816406-23.816406v-417.25c0-13.15625-10.664062-23.816406-23.816406-23.816406zm0 0" fill="#e0c55e"/><path d="m7.5 97.460938h497v-65.644532c0-13.15625-10.664062-23.816406-23.816406-23.816406h-449.367188c-13.152344 0-23.816406 10.660156-23.816406 23.816406zm0 0" fill="#2cab72"/><path d="m480.683594 8h-35c13.152344 0 23.816406 10.660156 23.816406 23.816406v65.644532h35v-65.644532c0-13.15625-10.664062-23.816406-23.816406-23.816406zm0 0" fill="#279463"/><path d="m84.808594 52.730469c0 9.75-7.902344 17.652343-17.652344 17.652343s-17.65625-7.902343-17.65625-17.652343 7.90625-17.652344 17.65625-17.652344 17.652344 7.902344 17.652344 17.652344zm0 0" fill="#fa5d72"/><path d="m144.570312 52.730469c0 9.75-7.90625 17.652343-17.65625 17.652343s-17.652343-7.902343-17.652343-17.652343 7.902343-17.652344 17.652343-17.652344 17.65625 7.902344 17.65625 17.652344zm0 0" fill="#f6d867"/><path d="m204.328125 52.730469c0 9.75-7.902344 17.652343-17.652344 17.652343s-17.65625-7.902343-17.65625-17.652343 7.90625-17.652344 17.65625-17.652344 17.652344 7.902344 17.652344 17.652344zm0 0" fill="#5994ce"/><path d="m7.5 449.066406c0 13.152344 10.664062 23.816406 23.816406 23.816406h289.808594v-183.570312c0-16.636719-13.488281-30.125-30.125-30.125h-283.5zm0 0" fill="#fba826"/><path d="m291 259.1875h-37.398438c16.636719 0 30.125 13.488281 30.125 30.125v183.570312h37.398438v-183.570312c0-16.636719-13.488281-30.125-30.125-30.125zm0 0" fill="#e09721"/><path d="m92.308594 52.730469c0-13.871094-11.28125-25.152344-25.152344-25.152344s-25.15625 11.28125-25.15625 25.152344c0 13.871093 11.285156 25.152343 25.15625 25.152343 13.867188 0 25.152344-11.28125 25.152344-25.152343zm-25.152344 10.152343c-5.601562 0-10.15625-4.554687-10.15625-10.152343 0-5.597657 4.558594-10.152344 10.15625-10.152344s10.152344 4.554687 10.152344 10.152344c0 5.597656-4.554688 10.152343-10.152344 10.152343zm0 0"/><path d="m126.914062 77.882812c13.871094 0 25.15625-11.28125 25.15625-25.152343 0-13.871094-11.285156-25.152344-25.15625-25.152344-13.871093 0-25.152343 11.28125-25.152343 25.152344 0 13.871093 11.28125 25.152343 25.152343 25.152343zm0-35.304687c5.601563 0 10.15625 4.554687 10.15625 10.152344 0 5.597656-4.558593 10.152343-10.15625 10.152343-5.597656 0-10.152343-4.554687-10.152343-10.152343 0-5.597657 4.554687-10.152344 10.152343-10.152344zm0 0"/><path d="m186.675781 77.882812c13.867188 0 25.152344-11.28125 25.152344-25.152343 0-13.871094-11.285156-25.152344-25.152344-25.152344-13.871093 0-25.15625 11.28125-25.15625 25.152344 0 13.871093 11.285157 25.152343 25.15625 25.152343zm0-35.304687c5.597657 0 10.152344 4.554687 10.152344 10.152344 0 5.597656-4.554687 10.152343-10.152344 10.152343-5.601562 0-10.15625-4.554687-10.15625-10.152343 0-5.597657 4.554688-10.152344 10.15625-10.152344zm0 0"/><path d="m269.667969 60.230469h182.664062c4.144531 0 7.5-3.355469 7.5-7.5s-3.355469-7.5-7.5-7.5h-182.664062c-4.144531 0-7.5 3.355469-7.5 7.5s3.355469 7.5 7.5 7.5zm0 0"/><path d="m480.683594.5h-449.367188c-17.265625 0-31.316406 14.046875-31.316406 31.316406v417.25c0 17.265625 14.050781 31.316406 31.316406 31.316406h449.367188c17.265625 0 31.316406-14.050781 31.316406-31.316406v-417.25c0-17.269531-14.050781-31.316406-31.316406-31.316406zm0 464.882812h-152.058594v-70.074218c0-4.140625-3.359375-7.5-7.5-7.5-4.144531 0-7.5 3.359375-7.5 7.5v70.074218h-282.308594c-8.996094 0-16.316406-7.320312-16.316406-16.316406v-182.378906h276c12.476562 0 22.625 10.148438 22.625 22.625v77.996094c0 4.144531 3.355469 7.5 7.5 7.5 4.140625 0 7.5-3.355469 7.5-7.5v-77.996094c0-20.746094-16.878906-37.625-37.625-37.625h-276v-146.726562h41.808594c4.144531 0 7.5-3.355469 7.5-7.5 0-4.140626-3.355469-7.5-7.5-7.5h-41.808594v-58.144532c0-8.996094 7.320312-16.316406 16.316406-16.316406h449.367188c8.996094 0 16.316406 7.320312 16.316406 16.316406v58.144532h-412.191406c-4.140625 0-7.5 3.359374-7.5 7.5 0 4.144531 3.359375 7.5 7.5 7.5h412.191406v344.105468c0 8.996094-7.320312 16.316406-16.316406 16.316406zm0 0"/><path d="m443.050781 137.257812-43.445312 3.667969c-4.128907.347657-7.191407 3.976563-6.84375 8.105469.347656 4.125 3.992187 7.183594 8.101562 6.839844l23.011719-1.941406-75.652344 75.652343c-2.929687 2.929688-2.929687 7.679688 0 10.609375 2.929688 2.929688 7.675782 2.925782 10.605469 0l75.65625-75.65625-1.945313 23.011719c-.347656 4.128906 2.714844 7.757813 6.84375 8.105469 4.199219.34375 7.761719-2.777344 8.105469-6.84375.007813-.101563 3.675781-43.574219 3.667969-43.472656.367188-4.597657-3.433594-8.449219-8.105469-8.078126zm0 0"/></svg>