<?xml version="1.0" encoding="iso-8859-1"?>
<!-- Generator: Adobe Illustrator 19.0.0, SVG Export Plug-In . SVG Version: 6.00 Build 0)  -->
<svg version="1.1" id="Layer_1" xmlns="http://www.w3.org/2000/svg" xmlns:xlink="http://www.w3.org/1999/xlink" x="0px" y="0px"
	 viewBox="0 0 512 512" style="enable-background:new 0 0 512 512;" xml:space="preserve">
<polygon style="fill:#9E9E9E;" points="11.506,11.506 11.506,500.494 500.494,500.494 500.494,109.795 402.205,11.506 "/>
<g>
	<rect x="123.685" y="11.506" style="fill:#ECF0F1;" width="264.629" height="184.09"/>
	<rect x="83.416" y="310.652" style="fill:#ECF0F1;" width="345.169" height="189.843"/>
</g>
<rect x="83.416" y="310.652" style="fill:#2196F3;" width="345.169" height="51.775"/>
<rect x="255.919" y="11.506" style="fill:#9E9E9E;" width="78.238" height="132.315"/>
<g>
	<path style="fill:#231F20;" d="M508.63,101.659L410.342,3.37C408.184,1.213,405.258,0,402.205,0h-390.7C5.152,0,0,5.152,0,11.506
		v488.989C0,506.848,5.152,512,11.506,512h488.989c6.353,0,11.506-5.152,11.506-11.506V109.796
		C512,106.743,510.787,103.817,508.63,101.659z M322.656,23.011v109.303h-55.227V23.011H322.656z M244.417,23.011V143.82
		c0,6.353,5.152,11.506,11.506,11.506h78.238c6.353,0,11.506-5.152,11.506-11.506V23.011h31.142V184.09H135.191V23.011H244.417z
		 M94.921,488.989V373.933h322.157v28.043H235.213c-6.353,0-11.506,5.152-11.506,11.506s5.152,11.506,11.506,11.506h181.866v64.002
		H94.921z M417.079,350.921H94.921v-28.764h322.157V350.921z M488.989,488.989H440.09V310.652c0-6.353-5.152-11.506-11.506-11.506
		H83.416c-6.353,0-11.506,5.152-11.506,11.506v178.337H23.011V23.011h89.169v172.584c0,6.353,5.152,11.506,11.506,11.506h264.629
		c6.353,0,11.506-5.152,11.506-11.506V25.392l89.169,89.169V488.989z"/>
	<path style="fill:#231F20;" d="M183.438,401.975h-9.608c-6.353,0-11.506,5.152-11.506,11.506s5.152,11.506,11.506,11.506h9.608
		c6.353,0,11.506-5.152,11.506-11.506S189.791,401.975,183.438,401.975z"/>
</g>
<g>
</g>
<g>
</g>
<g>
</g>
<g>
</g>
<g>
</g>
<g>
</g>
<g>
</g>
<g>
</g>
<g>
</g>
<g>
</g>
<g>
</g>
<g>
</g>
<g>
</g>
<g>
</g>
<g>
</g>
</svg>
