<?xml version="1.0" encoding="iso-8859-1"?>
<!-- Generator: Adobe Illustrator 19.0.0, SVG Export Plug-In . SVG Version: 6.00 Build 0)  -->
<svg version="1.1" id="Layer_1" xmlns="http://www.w3.org/2000/svg" xmlns:xlink="http://www.w3.org/1999/xlink" x="0px" y="0px"
	 viewBox="0 0 512 512" style="enable-background:new 0 0 512 512;" xml:space="preserve">
<polygon style="fill:#8ECAC1;" points="356.972,219.082 10.199,219.082 10.199,387.624 104.128,293.695 157.423,346.99 
	177.061,327.352 286.236,436.526 356.972,436.526 "/>
<g>
	<polygon style="fill:#F2D59F;" points="67.887,436.526 157.423,346.99 104.128,293.695 10.199,387.624 10.199,436.526 	"/>
	<polygon style="fill:#F2D59F;" points="286.236,436.526 177.061,327.352 67.887,436.526 	"/>
</g>
<circle style="fill:#FF7124;" cx="287.475" cy="288.78" r="34.82"/>
<g>
	<path style="fill:#4D3D36;" d="M287.476,243.761c-24.824,0-45.019,20.195-45.019,45.018c0,24.824,20.195,45.019,45.019,45.019
		c24.823,0,45.018-20.195,45.018-45.019C332.494,263.956,312.299,243.761,287.476,243.761z M287.476,313.4
		c-13.576,0-24.621-11.045-24.621-24.621s11.045-24.62,24.621-24.62s24.62,11.045,24.62,24.62S301.051,313.4,287.476,313.4z"/>
	<path style="fill:#4D3D36;" d="M141.769,240.701H43.857c-5.633,0-10.199,4.566-10.199,10.199S38.224,261.1,43.857,261.1h97.912
		c5.633,0,10.199-4.566,10.199-10.199S147.402,240.701,141.769,240.701z"/>
	<path style="fill:#4D3D36;" d="M176.319,240.701h-2.932c-5.633,0-10.199,4.566-10.199,10.199s4.566,10.199,10.199,10.199h2.932
		c5.633,0,10.199-4.566,10.199-10.199S181.952,240.701,176.319,240.701z"/>
	<path style="fill:#4D3D36;" d="M284.762,85.673h31.006c5.633,0,10.199-4.566,10.199-10.199s-4.566-10.199-10.199-10.199h-31.006
		c-5.633,0-10.199,4.566-10.199,10.199S279.129,85.673,284.762,85.673z"/>
	<path style="fill:#4D3D36;" d="M10.199,183.178c5.633,0,10.199-4.566,10.199-10.199v-31.006c0-5.633-4.566-10.199-10.199-10.199
		S0,136.34,0,141.973v31.006C0,178.612,4.566,183.178,10.199,183.178z"/>
	<path style="fill:#4D3D36;" d="M222.751,85.673h31.006c5.633,0,10.199-4.566,10.199-10.199s-4.566-10.199-10.199-10.199h-31.006
		c-5.633,0-10.199,4.566-10.199,10.199S217.118,85.673,222.751,85.673z"/>
	<path style="fill:#4D3D36;" d="M346.773,85.673h31.006c5.633,0,10.199-4.566,10.199-10.199s-4.566-10.199-10.199-10.199h-31.006
		c-5.633,0-10.199,4.566-10.199,10.199S341.14,85.673,346.773,85.673z"/>
	<path style="fill:#4D3D36;" d="M160.739,85.673h31.006c5.633,0,10.199-4.566,10.199-10.199s-4.566-10.199-10.199-10.199h-31.006
		c-5.633,0-10.199,4.566-10.199,10.199S155.106,85.673,160.739,85.673z"/>
	<path style="fill:#4D3D36;" d="M10.199,121.167c5.633,0,10.199-4.566,10.199-10.199V79.962c0-5.633-4.566-10.199-10.199-10.199
		S0,74.329,0,79.962v31.006C0,116.6,4.566,121.167,10.199,121.167z"/>
	<path style="fill:#4D3D36;" d="M36.717,85.673h31.006c5.633,0,10.199-4.566,10.199-10.199s-4.566-10.199-10.199-10.199H36.717
		c-5.633,0-10.199,4.566-10.199,10.199S31.084,85.673,36.717,85.673z"/>
	<path style="fill:#4D3D36;" d="M98.728,85.673h31.006c5.633,0,10.199-4.566,10.199-10.199s-4.566-10.199-10.199-10.199H98.728
		c-5.633,0-10.199,4.566-10.199,10.199S93.095,85.673,98.728,85.673z"/>
	<path style="fill:#4D3D36;" d="M408.784,85.673h31.006c5.633,0,10.199-4.566,10.199-10.199s-4.566-10.199-10.199-10.199h-31.006
		c-5.633,0-10.199,4.566-10.199,10.199S403.151,85.673,408.784,85.673z"/>
	<path style="fill:#4D3D36;" d="M501.801,189.297c-5.633,0-10.199,4.566-10.199,10.199v31.006c0,5.633,4.566,10.199,10.199,10.199
		S512,236.135,512,230.502v-31.006C512,193.863,507.434,189.297,501.801,189.297z"/>
	<path style="fill:#4D3D36;" d="M501.801,127.286c-5.633,0-10.199,4.566-10.199,10.199v31.006c0,5.633,4.566,10.199,10.199,10.199
		S512,174.124,512,168.491v-31.006C512,131.852,507.434,127.286,501.801,127.286z"/>
	<path style="fill:#4D3D36;" d="M501.801,251.308c-5.633,0-10.199,4.566-10.199,10.199v31.006c0,5.633,4.566,10.199,10.199,10.199
		S512,298.146,512,292.513v-31.006C512,255.875,507.434,251.308,501.801,251.308z"/>
	<path style="fill:#4D3D36;" d="M501.801,65.275h-31.006c-5.633,0-10.199,4.566-10.199,10.199s4.566,10.199,10.199,10.199h20.806
		v20.806c0,5.633,4.566,10.199,10.199,10.199S512,112.113,512,106.48V75.474C512,69.841,507.434,65.275,501.801,65.275z"/>
	<path style="fill:#4D3D36;" d="M428.775,426.327h-31.006c-5.633,0-10.199,4.566-10.199,10.199s4.566,10.199,10.199,10.199h31.006
		c5.633,0,10.199-4.566,10.199-10.199S434.408,426.327,428.775,426.327z"/>
	<path style="fill:#4D3D36;" d="M501.801,313.32c-5.633,0-10.199,4.566-10.199,10.199v31.006c0,5.633,4.566,10.199,10.199,10.199
		S512,360.157,512,354.524v-31.006C512,317.886,507.434,313.32,501.801,313.32z"/>
	<path style="fill:#4D3D36;" d="M490.786,426.327H459.78c-5.633,0-10.199,4.566-10.199,10.199s4.566,10.199,10.199,10.199h31.006
		c5.633,0,10.199-4.566,10.199-10.199S496.419,426.327,490.786,426.327z"/>
	<path style="fill:#4D3D36;" d="M501.801,375.331c-5.633,0-10.199,4.566-10.199,10.199v31.006c0,5.633,4.566,10.199,10.199,10.199
		S512,422.168,512,416.535V385.53C512,379.897,507.434,375.331,501.801,375.331z"/>
	<path style="fill:#4D3D36;" d="M0,436.526c0,5.633,4.566,10.199,10.199,10.199h356.564c5.633,0,10.199-4.566,10.199-10.199
		c0-5.495-4.349-9.963-9.791-10.179v-201.31l67.824-67.824v27.698c0,5.633,4.566,10.199,10.199,10.199s10.199-4.566,10.199-10.199
		V132.59c0-5.633-4.566-10.199-10.199-10.199h-52.321c-5.633,0-10.199,4.566-10.199,10.199s4.566,10.199,10.199,10.199h27.698
		l-66.094,66.094H20.398v-4.899c0-5.633-4.566-10.199-10.199-10.199S0,198.351,0,203.984V436.526z M20.398,391.848l83.729-83.729
		l38.871,38.871l-79.338,79.337H20.398V391.848z M177.061,341.775l84.55,84.551H92.51L177.061,341.775z M20.398,229.281h326.375
		v197.046h-56.312L184.273,320.14c-0.936-0.935-2.011-1.643-3.156-2.139c-1.897-0.822-3.991-1.048-5.994-0.663
		c-0.232,0.045-0.459,0.106-0.687,0.167c-0.093,0.024-0.187,0.041-0.278,0.068c-1.577,0.467-3.064,1.322-4.308,2.566l-12.427,12.427
		l-46.083-46.083c-3.983-3.983-10.441-3.983-14.425,0L20.398,363V229.281z"/>
</g>
<g>
</g>
<g>
</g>
<g>
</g>
<g>
</g>
<g>
</g>
<g>
</g>
<g>
</g>
<g>
</g>
<g>
</g>
<g>
</g>
<g>
</g>
<g>
</g>
<g>
</g>
<g>
</g>
<g>
</g>
</svg>
