<?xml version="1.0" ?><svg data-name="Layer 1" id="Layer_1" viewBox="0 0 48 48" xmlns="http://www.w3.org/2000/svg"><defs><style>.cls-1{fill:#55aae1;}.cls-2{opacity:0.35;}</style></defs><title/><path class="cls-1" d="M26,39H22a1,1,0,0,1,0-2h4a1,1,0,0,1,0,2Z"/><path class="cls-1" d="M26,11H22a1,1,0,0,1,0-2h4a1,1,0,0,1,0,2Z"/><path class="cls-1" d="M38,27a1,1,0,0,1-1-1V22a1,1,0,0,1,2,0v4A1,1,0,0,1,38,27Z"/><path class="cls-1" d="M10,27a1,1,0,0,1-1-1V22a1,1,0,0,1,2,0v4A1,1,0,0,1,10,27Z"/><path class="cls-1" d="M38,39H30a1,1,0,1,1,0-2h7V30a1,1,0,0,1,2,0v8A1,1,0,0,1,38,39Z"/><path class="cls-1" d="M38,18.92a1,1,0,0,1-1-1V11H29.76a1,1,0,0,1,0-2H38a1,1,0,0,1,1,1v7.92A1,1,0,0,1,38,18.92Z"/><path class="cls-1" d="M10,18.92a1,1,0,0,1-1-1V10a1,1,0,0,1,1-1h8.1a1,1,0,0,1,0,2H11v6.92A1,1,0,0,1,10,18.92Z"/><path class="cls-1" d="M18.07,39H10a1,1,0,0,1-1-1V30a1,1,0,1,1,2,0v7h7.07a1,1,0,0,1,0,2Z"/><path class="cls-1" d="M38,44a1,1,0,0,1-1-1V38a1,1,0,0,1,2,0v5A1,1,0,0,1,38,44Z"/><path class="cls-1" d="M43,39H38a1,1,0,0,1,0-2h5a1,1,0,0,1,0,2Z"/><g class="cls-2"><path class="cls-1" d="M35,11.5v22A1.5,1.5,0,0,1,33.5,35h-22A1.5,1.5,0,0,0,10,36.5h0A1.5,1.5,0,0,0,11.5,38h25A1.5,1.5,0,0,0,38,36.5v-25A1.5,1.5,0,0,0,36.5,10h0A1.5,1.5,0,0,0,35,11.5Z"/></g></svg>