<?xml version="1.0" encoding="iso-8859-1"?>
<!-- Generator: Adobe Illustrator 19.0.0, SVG Export Plug-In . SVG Version: 6.00 Build 0)  -->
<svg version="1.1" id="Layer_1" xmlns="http://www.w3.org/2000/svg" xmlns:xlink="http://www.w3.org/1999/xlink" x="0px" y="0px"
	 viewBox="0 0 512 512" style="enable-background:new 0 0 512 512;" xml:space="preserve">
<rect x="10.199" y="132.59" style="fill:#999999;" width="491.602" height="291.697"/>
<circle style="fill:#4D4D4D;" cx="256" cy="278.438" r="110.151"/>
<circle style="fill:#50A5DC;" cx="256" cy="278.438" r="78.534"/>
<rect x="390.629" y="169.307" style="fill:#CCCCCC;" width="76.494" height="39.777"/>
<rect x="48.956" y="87.713" style="fill:#4D4D4D;" width="87.713" height="44.876"/>
<path d="M501.801,122.39H146.869V87.713c0-5.633-4.567-10.199-10.199-10.199H48.956c-5.632,0-10.199,4.566-10.199,10.199v34.677
	H10.199C4.567,122.39,0,126.957,0,132.59v291.697c0,5.633,4.567,10.199,10.199,10.199h491.602c5.632,0,10.199-4.566,10.199-10.199
	V132.59C512,126.957,507.433,122.39,501.801,122.39z M59.155,97.912h67.315v24.478H59.155V97.912z M491.602,142.789v271.299H20.398
	V142.789H491.602z"/>
<path d="M256,398.789c66.361,0,120.351-53.989,120.351-120.351S322.361,158.088,256,158.088s-120.351,53.989-120.351,120.351
	S189.639,398.789,256,398.789z M256,178.486c55.113,0,99.952,44.838,99.952,99.952S311.113,378.39,256,378.39
	s-99.952-44.838-99.952-99.952S200.887,178.486,256,178.486z"/>
<path d="M256,367.171c48.928,0,88.733-39.805,88.733-88.733S304.928,189.705,256,189.705s-88.733,39.805-88.733,88.733
	S207.072,367.171,256,367.171z M256,210.104c37.68,0,68.335,30.655,68.335,68.335S293.68,346.773,256,346.773
	s-68.335-30.655-68.335-68.335S218.32,210.104,256,210.104z"/>
<path d="M390.629,219.283h76.494c5.632,0,10.199-4.566,10.199-10.199v-39.777c0-5.633-4.567-10.199-10.199-10.199h-76.494
	c-5.632,0-10.199,4.566-10.199,10.199v39.777C380.43,214.717,384.997,219.283,390.629,219.283z M400.829,179.506h56.096v19.378
	h-56.096V179.506z"/>
<path d="M49.976,166.247c-5.632,0-10.199,4.566-10.199,10.199v146.869c0,5.633,4.567,10.199,10.199,10.199
	s10.199-4.566,10.199-10.199V176.446C60.175,170.813,55.608,166.247,49.976,166.247z"/>
<path d="M49.976,351.873c-5.632,0-10.199,4.566-10.199,10.199v12.239c0,5.633,4.567,10.199,10.199,10.199
	s10.199-4.566,10.199-10.199v-12.239C60.175,356.439,55.608,351.873,49.976,351.873z"/>
<g>
</g>
<g>
</g>
<g>
</g>
<g>
</g>
<g>
</g>
<g>
</g>
<g>
</g>
<g>
</g>
<g>
</g>
<g>
</g>
<g>
</g>
<g>
</g>
<g>
</g>
<g>
</g>
<g>
</g>
</svg>
