<?xml version="1.0" ?><!DOCTYPE svg  PUBLIC '-//W3C//DTD SVG 1.1//EN'  'http://www.w3.org/Graphics/SVG/1.1/DTD/svg11.dtd'><svg enable-background="new 0 0 128 128" id="Слой_1" version="1.1" viewBox="0 0 128 128" xml:space="preserve" xmlns="http://www.w3.org/2000/svg" xmlns:xlink="http://www.w3.org/1999/xlink"><g><g><path d="M93,107v9.5c0,4.1,3.4,7.5,7.5,7.5s7.5-3.4,7.5-7.5V107c-2.2,1.3-4.8,2-7.5,2S95.2,108.3,93,107z" fill="#938993"/><path d="M100.5,125c-4.7,0-8.5-3.8-8.5-8.5v-11.3l1.5,0.9c4.3,2.5,9.7,2.5,14,0l1.5-0.9v11.3    C109,121.2,105.2,125,100.5,125z M94,108.6v7.9c0,3.6,2.9,6.5,6.5,6.5s6.5-2.9,6.5-6.5v-7.9C102.9,110.4,98.1,110.4,94,108.6z" fill="#62355C"/></g><g><path d="M55.5,45.5v71c0,4.1,3.4,7.5,7.5,7.5c4.1,0,7.5-3.4,7.5-7.5v-71c-2.2,1.3-4.8,2-7.5,2    C60.3,47.5,57.7,46.8,55.5,45.5z" fill="#938993"/><path d="M63,125c-4.7,0-8.5-3.8-8.5-8.5V43.7l1.5,0.9c4.3,2.5,9.7,2.5,14,0l1.5-0.9v72.8    C71.5,121.2,67.7,125,63,125z M56.5,47.1v69.4c0,3.6,2.9,6.5,6.5,6.5s6.5-2.9,6.5-6.5V47.1C65.4,48.9,60.6,48.9,56.5,47.1z" fill="#62355C"/></g><g><path d="M18,81.5v35c0,4.1,3.4,7.5,7.5,7.5s7.5-3.4,7.5-7.5v-35c-2.2,1.3-4.8,2-7.5,2S20.2,82.8,18,81.5z" fill="#938993"/><path d="M25.5,125c-4.7,0-8.5-3.8-8.5-8.5V79.7l1.5,0.9c4.3,2.5,9.7,2.5,14,0l1.5-0.9v36.8    C34,121.2,30.2,125,25.5,125z M19,83.1v33.4c0,3.6,2.9,6.5,6.5,6.5s6.5-2.9,6.5-6.5V83.1C27.9,84.9,23.1,84.9,19,83.1z" fill="#62355C"/></g><g><path d="M70.5,19.5v-8C70.5,7.4,67.1,4,63,4c-4.1,0-7.5,3.4-7.5,7.5v8c2.2-1.3,4.8-2,7.5-2    C65.7,17.5,68.3,18.2,70.5,19.5z" fill="#FFFFFF"/></g><g><path d="M108,81V11.5c0-4.1-3.4-7.5-7.5-7.5S93,7.4,93,11.5V81c2.2-1.3,4.8-2,7.5-2S105.8,79.7,108,81z" fill="#FFFFFF"/></g><g opacity="0.1"><path d="M37.5,59.5c1.9,2.5,3,5.6,3,9c0,8.3-6.7,15-15,15c-3.4,0-6.5-1.1-9-3c2.7,3.6,7.1,6,12,6    c8.3,0,15-6.7,15-15C43.5,66.6,41.1,62.2,37.5,59.5z" fill="#0E1015"/></g><g><path d="M33,55.5v-44C33,7.4,29.6,4,25.5,4S18,7.4,18,11.5v44c2.2-1.3,4.8-2,7.5-2S30.8,54.2,33,55.5z" fill="#FFFFFF"/></g><g><path d="M100.5,125c-4.7,0-8.5-3.8-8.5-8.5V107c0-0.4,0.2-0.7,0.5-0.9s0.7-0.2,1,0c4.3,2.5,9.7,2.5,14,0    c0.3-0.2,0.7-0.2,1,0c0.3,0.2,0.5,0.5,0.5,0.9v9.5C109,121.2,105.2,125,100.5,125z M94,108.6v7.9c0,3.6,2.9,6.5,6.5,6.5    s6.5-2.9,6.5-6.5v-7.9C102.9,110.4,98.1,110.4,94,108.6z" fill="#62355C"/></g><g><path d="M63,125c-4.7,0-8.5-3.8-8.5-8.5v-71c0-0.4,0.2-0.7,0.5-0.9c0.3-0.2,0.7-0.2,1,0c4.3,2.5,9.7,2.5,14,0    c0.3-0.2,0.7-0.2,1,0c0.3,0.2,0.5,0.5,0.5,0.9v71C71.5,121.2,67.7,125,63,125z M56.5,47.1v69.4c0,3.6,2.9,6.5,6.5,6.5    s6.5-2.9,6.5-6.5V47.1C65.4,48.9,60.6,48.9,56.5,47.1z" fill="#62355C"/></g><g><path d="M25.5,125c-4.7,0-8.5-3.8-8.5-8.5v-35c0-0.4,0.2-0.7,0.5-0.9c0.3-0.2,0.7-0.2,1,0c4.3,2.5,9.7,2.5,14,0    c0.3-0.2,0.7-0.2,1,0c0.3,0.2,0.5,0.5,0.5,0.9v35C34,121.2,30.2,125,25.5,125z M19,83.1v33.4c0,3.6,2.9,6.5,6.5,6.5    s6.5-2.9,6.5-6.5V83.1C27.9,84.9,23.1,84.9,19,83.1z" fill="#62355C"/></g><g><path d="M70.5,20.5c-0.2,0-0.3,0-0.5-0.1c-4.3-2.5-9.7-2.5-14,0c-0.3,0.2-0.7,0.2-1,0c-0.3-0.2-0.5-0.5-0.5-0.9v-8    C54.5,6.8,58.3,3,63,3s8.5,3.8,8.5,8.5v8c0,0.4-0.2,0.7-0.5,0.9C70.8,20.5,70.7,20.5,70.5,20.5z M63,16.5c2.2,0,4.5,0.5,6.5,1.4    v-6.4C69.5,7.9,66.6,5,63,5s-6.5,2.9-6.5,6.5v6.4C58.5,17,60.8,16.5,63,16.5z" fill="#62355C"/></g><g><path d="M108,82c-0.2,0-0.3,0-0.5-0.1c-4.3-2.5-9.7-2.5-14,0c-0.3,0.2-0.7,0.2-1,0C92.2,81.7,92,81.4,92,81V11.5    c0-4.7,3.8-8.5,8.5-8.5s8.5,3.8,8.5,8.5V81c0,0.4-0.2,0.7-0.5,0.9C108.3,82,108.2,82,108,82z M100.5,78c2.2,0,4.5,0.5,6.5,1.4    V11.5c0-3.6-2.9-6.5-6.5-6.5S94,7.9,94,11.5v67.9C96,78.5,98.3,78,100.5,78z" fill="#62355C"/></g><g><path d="M33,56.5c-0.2,0-0.3,0-0.5-0.1c-4.3-2.5-9.7-2.5-14,0c-0.3,0.2-0.7,0.2-1,0c-0.3-0.2-0.5-0.5-0.5-0.9v-44    C17,6.8,20.8,3,25.5,3S34,6.8,34,11.5v44c0,0.4-0.2,0.7-0.5,0.9C33.3,56.5,33.2,56.5,33,56.5z M25.5,52.5c2.2,0,4.5,0.5,6.5,1.4    V11.5C32,7.9,29.1,5,25.5,5S19,7.9,19,11.5v42.4C21,53,23.3,52.5,25.5,52.5z" fill="#62355C"/></g><g opacity="0.1"><path d="M75,23.5c1.9,2.5,3,5.6,3,9c0,8.3-6.7,15-15,15c-3.4,0-6.5-1.1-9-3c2.7,3.6,7.1,6,12,6c8.3,0,15-6.7,15-15    C81,30.6,78.6,26.2,75,23.5z" fill="#0E1015"/></g><g opacity="0.1"><path d="M112.5,85c1.9,2.5,3,5.6,3,9c0,8.3-6.7,15-15,15c-3.4,0-6.5-1.1-9-3c2.7,3.6,7.1,6,12,6    c8.3,0,15-6.7,15-15C118.5,92.1,116.1,87.7,112.5,85z" fill="#0E1015"/></g><g opacity="0.1"><path d="M21,116.5v-105c0-3.6,2.6-6.7,6-7.3C26.5,4.1,26,4,25.5,4C21.4,4,18,7.4,18,11.5v105    c0,4.1,3.4,7.5,7.5,7.5c0.5,0,1-0.1,1.5-0.2C23.6,123.2,21,120.1,21,116.5z" fill="#0E1015"/></g><g opacity="0.1"><path d="M96,116.5v-105c0-3.6,2.6-6.7,6-7.3c-0.5-0.1-1-0.2-1.5-0.2C96.4,4,93,7.4,93,11.5v105    c0,4.1,3.4,7.5,7.5,7.5c0.5,0,1-0.1,1.5-0.2C98.6,123.2,96,120.1,96,116.5z" fill="#0E1015"/></g><g opacity="0.1"><path d="M58.5,116.5v-105c0-3.6,2.6-6.7,6-7.3C64,4.1,63.5,4,63,4c-4.1,0-7.5,3.4-7.5,7.5v105    c0,4.1,3.4,7.5,7.5,7.5c0.5,0,1-0.1,1.5-0.2C61.1,123.2,58.5,120.1,58.5,116.5z" fill="#0E1015"/></g><g><circle cx="63" cy="32.5" fill="#F1ED7B" r="15"/></g><g><circle cx="25.5" cy="68.5" fill="#EC7BB0" r="15"/></g><g><circle cx="100.5" cy="94" fill="#99D9E6" r="15"/></g><g><path d="M63,48.5c-8.8,0-16-7.2-16-16s7.2-16,16-16s16,7.2,16,16S71.8,48.5,63,48.5z M63,18.5c-7.7,0-14,6.3-14,14    s6.3,14,14,14s14-6.3,14-14S70.7,18.5,63,18.5z" fill="#62355C"/></g><g><path d="M25.5,84.5c-8.8,0-16-7.2-16-16s7.2-16,16-16s16,7.2,16,16S34.3,84.5,25.5,84.5z M25.5,54.5    c-7.7,0-14,6.3-14,14s6.3,14,14,14s14-6.3,14-14S33.2,54.5,25.5,54.5z" fill="#62355C"/></g><g><path d="M100.5,110c-8.8,0-16-7.2-16-16s7.2-16,16-16s16,7.2,16,16S109.3,110,100.5,110z M100.5,80    c-7.7,0-14,6.3-14,14s6.3,14,14,14s14-6.3,14-14S108.2,80,100.5,80z" fill="#62355C"/></g></g></svg>