<svg id="Layer_1" enable-background="new 0 0 512 512" height="512" viewBox="0 0 512 512" width="512" xmlns="http://www.w3.org/2000/svg"><g><g><g><g fill="#b5e8e0"><path d="m80.262 504.5h-.078c-12.819 0-23.21-10.392-23.21-23.21v-450.58c0-12.819 10.391-23.21 23.21-23.21h.078c12.819 0 23.21 10.392 23.21 23.21v450.58c0 12.818-10.392 23.21-23.21 23.21z"/><path d="m256.602 504.5h-.078c-12.819 0-23.21-10.392-23.21-23.21v-450.58c0-12.819 10.392-23.21 23.21-23.21h.078c12.819 0 23.21 10.392 23.21 23.21v450.58c0 12.818-10.392 23.21-23.21 23.21z"/><path d="m432.941 504.5h-.078c-12.819 0-23.21-10.392-23.21-23.21v-450.58c0-12.819 10.392-23.21 23.21-23.21h.078c12.819 0 23.21 10.392 23.21 23.21v450.58c.001 12.818-10.391 23.21-23.21 23.21z"/></g><g><path d="m113.147 247.811h-68.099c-17.635 0-31.931-14.296-31.931-31.931v-123.283c0-17.635 14.296-31.931 31.931-31.931h68.099c17.635 0 31.931 14.296 31.931 31.931v123.283c0 17.635-14.296 31.931-31.931 31.931z" fill="#ffd88f"/></g><path d="m113.147 60.666h-40c17.635 0 31.931 14.296 31.931 31.931v123.283c0 17.635-14.296 31.931-31.931 31.931h40c17.635 0 31.931-14.296 31.931-31.931v-123.283c0-17.635-14.296-31.931-31.931-31.931z" fill="#ffc963"/><g><path d="m290.612 449.739h-68.099c-17.635 0-31.931-14.296-31.931-31.931v-123.283c0-17.635 14.296-31.931 31.931-31.931h68.099c17.635 0 31.931 14.296 31.931 31.931v123.283c0 17.635-14.296 31.931-31.931 31.931z" fill="#ff7893"/></g><path d="m290.612 262.594h-40c17.635 0 31.931 14.296 31.931 31.931v123.283c0 17.635-14.296 31.931-31.931 31.931h40c17.635 0 31.931-14.296 31.931-31.931v-123.283c0-17.635-14.296-31.931-31.931-31.931z" fill="#ff5e7f"/><g><path d="m466.952 333.837h-68.099c-17.635 0-31.931-14.296-31.931-31.931v-123.283c0-17.635 14.296-31.931 31.931-31.931h68.099c17.635 0 31.931 14.296 31.931 31.931v123.283c0 17.635-14.296 31.931-31.931 31.931z" fill="#ff9e5e"/></g><path d="m466.952 146.692h-40c17.635 0 31.931 14.296 31.931 31.931v123.283c0 17.635-14.296 31.931-31.931 31.931h40c17.635 0 31.931-14.296 31.931-31.931v-123.283c0-17.635-14.296-31.931-31.931-31.931z" fill="#fa8d46"/></g></g><g><path d="m113.147 53.166h-2.175v-22.456c0-16.934-13.777-30.71-30.788-30.71-16.934 0-30.71 13.776-30.71 30.71v22.456c-22.985-1.145-43.857 15.46-43.857 39.432v123.282c0 24.002 20.867 40.512 43.856 39.431v225.979c0 16.934 13.776 30.71 30.788 30.71 16.934 0 30.71-13.776 30.71-30.71v-225.979c22.21.781 41.606-16.895 41.606-39.431v-42.882c0-9.434-15.078-9.883-15.078.002 0 14.287.078 28.588.078 42.88 0 13.471-10.959 24.431-24.431 24.431h-68.098c-13.471 0-24.431-10.96-24.431-24.431v-123.282c0-13.472 10.959-24.432 24.431-24.432h68.099c13.471 0 24.431 10.96 24.431 24.432 0 13.466-.078 26.941-.078 40.402 0 9.459 15.078 9.869 15.078.004v-40.406c0-21.743-17.689-39.432-39.431-39.432zm-17.175 428.124c0 8.662-7.047 15.71-15.788 15.71-8.663 0-15.71-7.048-15.71-15.71v-225.979h31.498zm-31.498-450.58c0-8.662 7.047-15.71 15.788-15.71 8.663 0 15.71 7.048 15.71 15.71v22.456h-31.498z"/><path d="m290.612 255.094h-3.3v-224.384c0-16.934-13.776-30.71-30.788-30.71-16.934 0-30.71 13.776-30.71 30.71v224.384c-22.604-.988-42.731 16.189-42.731 39.431v123.283c0 23.349 20.118 40.263 42.731 39.432v24.051c0 16.934 13.777 30.71 30.788 30.71 16.934 0 30.71-13.776 30.71-30.71v-24.051c22.604.988 42.731-16.189 42.731-39.432v-123.284c0-21.742-17.689-39.43-39.431-39.43zm-49.799-224.384c0-8.662 7.048-15.71 15.788-15.71 8.663 0 15.71 7.048 15.71 15.71v224.384h-31.498zm31.499 450.58c0 8.662-7.047 15.71-15.788 15.71-8.663 0-15.71-7.048-15.71-15.71v-24.051h31.498zm42.731-63.482c0 13.472-10.96 24.432-24.431 24.432h-68.099c-13.471 0-24.431-10.96-24.431-24.432v-123.284c0-13.471 10.959-24.431 24.431-24.431h68.099c13.471 0 24.431 10.96 24.431 24.431z"/><path d="m466.952 139.191h-3.3v-108.481c0-16.934-13.776-30.71-30.788-30.71-16.934 0-30.71 13.776-30.71 30.71v108.481c-22.604-.988-42.731 16.19-42.731 39.432v123.282c0 23.349 20.118 40.263 42.731 39.432v139.953c0 16.934 13.777 30.71 30.788 30.71 16.934 0 30.71-13.776 30.71-30.71v-44.29c0-9.697-15-9.697-15 0v44.29c0 8.662-7.047 15.71-15.788 15.71-8.663 0-15.71-7.048-15.71-15.71v-139.953h31.498v52.663c0 9.697 15 9.697 15 0v-52.663c22.604.988 42.731-16.189 42.731-39.432v-123.282c0-21.742-17.689-39.432-39.431-39.432zm-49.799-108.481c0-8.662 7.048-15.71 15.788-15.71 8.663 0 15.71 7.048 15.71 15.71v108.481h-31.498zm74.23 271.195c0 13.472-10.96 24.432-24.431 24.432h-68.099c-13.471 0-24.431-10.96-24.431-24.432v-123.282c0-13.472 10.959-24.432 24.431-24.432h68.099c13.471 0 24.431 10.96 24.431 24.432z"/><path d="m102.347 100.484h-46.498c-4.142 0-7.5 3.357-7.5 7.5s3.358 7.5 7.5 7.5h46.498c4.142 0 7.5-3.357 7.5-7.5s-3.358-7.5-7.5-7.5z"/><path d="m102.347 146.738h-46.498c-4.142 0-7.5 3.357-7.5 7.5s3.358 7.5 7.5 7.5h46.498c4.142 0 7.5-3.357 7.5-7.5s-3.358-7.5-7.5-7.5z"/><path d="m102.347 192.993h-46.498c-4.142 0-7.5 3.357-7.5 7.5s3.358 7.5 7.5 7.5h46.498c4.142 0 7.5-3.357 7.5-7.5s-3.358-7.5-7.5-7.5z"/><path d="m279.812 302.412h-46.498c-4.142 0-7.5 3.357-7.5 7.5s3.358 7.5 7.5 7.5h46.498c4.142 0 7.5-3.357 7.5-7.5s-3.358-7.5-7.5-7.5z"/><path d="m279.812 348.666h-46.498c-4.142 0-7.5 3.357-7.5 7.5s3.358 7.5 7.5 7.5h46.498c4.142 0 7.5-3.357 7.5-7.5s-3.358-7.5-7.5-7.5z"/><path d="m279.812 394.921h-46.498c-4.142 0-7.5 3.357-7.5 7.5s3.358 7.5 7.5 7.5h46.498c4.142 0 7.5-3.357 7.5-7.5s-3.358-7.5-7.5-7.5z"/><path d="m456.151 186.51h-46.498c-4.142 0-7.5 3.357-7.5 7.5s3.358 7.5 7.5 7.5h46.498c4.142 0 7.5-3.357 7.5-7.5s-3.358-7.5-7.5-7.5z"/><path d="m456.151 232.764h-46.498c-4.142 0-7.5 3.357-7.5 7.5s3.358 7.5 7.5 7.5h46.498c4.142 0 7.5-3.357 7.5-7.5s-3.358-7.5-7.5-7.5z"/><path d="m456.151 279.019h-46.498c-4.142 0-7.5 3.357-7.5 7.5s3.358 7.5 7.5 7.5h46.498c4.142 0 7.5-3.357 7.5-7.5s-3.358-7.5-7.5-7.5z"/></g></g></svg>