<?xml version="1.0" encoding="iso-8859-1"?>
<!-- Generator: Adobe Illustrator 19.0.0, SVG Export Plug-In . SVG Version: 6.00 Build 0)  -->
<svg version="1.1" id="Layer_1" xmlns="http://www.w3.org/2000/svg" xmlns:xlink="http://www.w3.org/1999/xlink" x="0px" y="0px"
	 viewBox="0 0 512.001 512.001" style="enable-background:new 0 0 512.001 512.001;" xml:space="preserve">
<path style="fill:#EFEFEF;" d="M452.76,210.823l28.385-28.385c24.376-24.376,24.376-63.898,0-88.275l-0.446-0.446l-68.657,68.657
	l-62.415-62.415l68.657-68.657l-0.446-0.446c-24.376-24.376-63.898-24.376-88.275,0L301.177,59.24
	c-21.538,21.538-22.217,56.1-3.161,78.061L137.301,298.017c-21.96-19.056-56.522-18.378-78.061,3.161l-28.385,28.385
	c-24.376,24.376-24.376,63.898,0,88.275l0.446,0.446l68.657-68.657l62.415,62.415L93.718,480.7l0.446,0.446
	c24.376,24.376,63.898,24.376,88.275,0l28.385-28.385c21.538-21.538,22.217-56.1,2.27-78.952l160.715-160.715
	C396.659,233.04,431.221,232.361,452.76,210.823z"/>
<path d="M490.049,85.235l-0.446-0.445c-4.928-4.914-12.902-4.908-17.822,0.013l-59.74,59.741l-44.582-44.582L427.2,40.22
	c4.924-4.924,4.924-12.909,0-17.834l-0.446-0.446C397.5-7.313,349.9-7.314,320.646,21.94l-28.385,28.384
	c-23.075,23.075-26.937,58.718-10.744,85.643l-145.55,145.551c-26.925-16.196-62.568-12.333-85.643,10.744l-28.385,28.385
	C-7.312,349.9-7.312,397.499,21.952,426.766l0.446,0.445c4.928,4.914,12.902,4.908,17.822-0.013l59.74-59.741l44.582,44.582
	l-59.74,59.741c-4.924,4.924-4.924,12.909,0,17.834l0.446,0.446c14.628,14.626,33.841,21.94,53.054,21.94s38.428-7.314,53.054-21.94
	l28.384-28.384c23.161-23.161,26.675-59.233,9.899-86.582l145.457-145.457c27.348,16.776,63.42,13.264,86.582-9.899l28.385-28.385
	C519.313,162.101,519.313,114.502,490.049,85.235z M472.227,173.521l-28.385,28.385c-16.643,16.643-43.764,17.382-61.743,1.686
	c-4.996-4.361-12.52-4.107-17.209,0.583L204.176,364.89c-4.69,4.691-4.944,12.213-0.583,17.209
	c15.696,17.98,14.954,45.102-1.687,61.743l-28.384,28.384c-16.5,16.501-41.797,18.98-60.94,7.441l58.712-58.712
	c2.364-2.364,3.693-5.571,3.693-8.917c0-3.345-1.329-6.552-3.693-8.917l-62.417-62.417c-2.366-2.364-5.572-3.693-8.916-3.693
	c-3.344,0-6.551,1.329-8.916,3.693l-58.711,58.712c-11.539-19.144-9.06-44.44,7.44-60.941l28.385-28.385
	c16.35-16.35,43.659-17.496,60.88-2.553c4.999,4.338,12.501,4.072,17.181-0.607l160.715-160.716
	c4.68-4.68,4.946-12.182,0.607-17.181c-14.943-17.219-13.797-44.529,2.553-60.88l28.384-28.384
	c16.501-16.501,41.796-18.98,60.94-7.441l-58.712,58.712c-2.364,2.364-3.693,5.571-3.693,8.916s1.329,6.552,3.693,8.916
	l62.417,62.417c2.366,2.364,5.572,3.693,8.917,3.693c3.344,0,6.551-1.329,8.917-3.693l58.711-58.712
	C491.208,131.726,488.728,157.02,472.227,173.521z"/>
<path d="M317.525,176.642L176.643,317.524c-4.924,4.924-4.924,12.909,0,17.834c2.463,2.463,5.69,3.693,8.916,3.693
	c3.227,0,6.454-1.231,8.916-3.693l140.882-140.882c4.924-4.924,4.924-12.909,0-17.834
	C330.432,171.718,322.45,171.718,317.525,176.642z"/>
<g>
</g>
<g>
</g>
<g>
</g>
<g>
</g>
<g>
</g>
<g>
</g>
<g>
</g>
<g>
</g>
<g>
</g>
<g>
</g>
<g>
</g>
<g>
</g>
<g>
</g>
<g>
</g>
<g>
</g>
</svg>
