<svg id="_x31__x2C_5" enable-background="new 0 0 24 24" height="512" viewBox="0 0 24 24" width="512" xmlns="http://www.w3.org/2000/svg"><path d="m19.25 3-7.25 2.25-7.25-2.25 7.25-2.25z" fill="#2196f3"/><path d="m19.25 3v10l-7.25 2.25v-10z" fill="#42a5f5"/><path d="m12 5.25v10l-7.25-2.25v-10z" fill="#64b5f6"/><path d="m6.25 23.25h-5.5c-.414 0-.75-.336-.75-.75s.336-.75.75-.75h5.5c.414 0 .75.336.75.75s-.336.75-.75.75z"/><path d="m10.25 23.25h-1.5c-.414 0-.75-.336-.75-.75s.336-.75.75-.75h1.5c.414 0 .75.336.75.75s-.336.75-.75.75z"/><path d="m6.25 24c-.414 0-.75-.336-.75-.75v-1.5c0-.414.336-.75.75-.75s.75.336.75.75v1.5c0 .414-.336.75-.75.75z"/><path d="m2.25 19.25h-1.5c-.414 0-.75-.336-.75-.75s.336-.75.75-.75h1.5c.414 0 .75.336.75.75s-.336.75-.75.75z"/><path d="m10.25 19.25h-5.5c-.414 0-.75-.336-.75-.75s.336-.75.75-.75h5.5c.414 0 .75.336.75.75s-.336.75-.75.75z"/><path d="m2.25 20c-.414 0-.75-.336-.75-.75v-1.5c0-.414.336-.75.75-.75s.75.336.75.75v1.5c0 .414-.336.75-.75.75z"/><path d="m15.25 23.25h-1.5c-.414 0-.75-.336-.75-.75s.336-.75.75-.75h1.5c.414 0 .75.336.75.75s-.336.75-.75.75z"/><path d="m23.25 23.25h-5.5c-.414 0-.75-.336-.75-.75s.336-.75.75-.75h5.5c.414 0 .75.336.75.75s-.336.75-.75.75z"/><path d="m15.25 24c-.414 0-.75-.336-.75-.75v-1.5c0-.414.336-.75.75-.75s.75.336.75.75v1.5c0 .414-.336.75-.75.75z"/><path d="m18.25 19.25h-4.5c-.414 0-.75-.336-.75-.75s.336-.75.75-.75h4.5c.414 0 .75.336.75.75s-.336.75-.75.75z"/><path d="m23.25 19.25h-2.5c-.414 0-.75-.336-.75-.75s.336-.75.75-.75h2.5c.414 0 .75.336.75.75s-.336.75-.75.75z"/><path d="m18.25 20c-.414 0-.75-.336-.75-.75v-1.5c0-.414.336-.75.75-.75s.75.336.75.75v1.5c0 .414-.336.75-.75.75z"/><path d="m12 6c-.075 0-.15-.011-.222-.034l-7.25-2.25c-.314-.097-.528-.387-.528-.716s.214-.619.528-.716l7.25-2.25c.145-.045.3-.045.444 0l7.25 2.25c.314.097.528.387.528.716s-.214.619-.528.716l-7.25 2.25c-.072.023-.147.034-.222.034zm-4.72-3 4.72 1.465 4.72-1.465-4.72-1.465z"/><path d="m12 16c-.075 0-.15-.011-.222-.034l-7.25-2.25c-.314-.097-.528-.387-.528-.716v-10c0-.414.336-.75.75-.75s.75.336.75.75v9.447l6.5 2.018 6.5-2.018v-9.447c0-.414.336-.75.75-.75s.75.336.75.75v10c0 .329-.214.619-.528.716l-7.25 2.25c-.072.023-.147.034-.222.034z"/><path d="m12 16c-.414 0-.75-.336-.75-.75v-10c0-.414.336-.75.75-.75s.75.336.75.75v10c0 .414-.336.75-.75.75z"/></svg>