<?xml version="1.0" encoding="iso-8859-1"?>
<!-- Generator: Adobe Illustrator 19.0.0, SVG Export Plug-In . SVG Version: 6.00 Build 0)  -->
<svg version="1.1" id="Capa_1" xmlns="http://www.w3.org/2000/svg" xmlns:xlink="http://www.w3.org/1999/xlink" x="0px" y="0px"
	 viewBox="0 0 512 512" style="enable-background:new 0 0 512 512;" xml:space="preserve">
<path style="fill:#9E0A48;" d="M353.442,320.319L256,376l-30-53.125V278.5l30-22.5l19.183-40.962l40.673-10.385L361,196v111.295
	C361,312.678,358.116,317.648,353.442,320.319z"/>
<path style="fill:#DD025B;" d="M256,376l-97.442-55.681c-4.674-2.671-7.558-7.641-7.558-13.024V196l48.443,10.539l45.654,13.231
	L256,256V376z"/>
<path style="fill:#FF0B69;" d="M248.558,137.976L151,196l105,60l105-60l-97.558-58.024
	C258.831,135.341,253.169,135.341,248.558,137.976z"/>
<path style="fill:#C5C9F7;" d="M500.6,211.601L475,205.3c-5.4-24.3-15-47.401-28.2-68.399l12.9-21.601c3.6-6,2.701-13.5-2.1-18.3
	L415,54.401c-4.799-4.801-12.299-5.7-18.3-2.1l-21.601,12.9C354.101,52,331,42.4,306.7,37l-6.301-25.6C298.9,4.799,292.899,0,286,0
	h-60c-6.899,0-12.9,4.799-14.399,11.4L205.3,37c-24.3,5.4-47.401,15-68.399,28.2L115.3,52.3c-6-3.6-13.5-2.701-18.3,2.1L54.401,97
	c-4.801,4.799-5.7,12.299-2.1,18.3l12.9,21.601C52,157.899,42.4,181,37,205.3l-25.6,6.301C4.799,213.1,0,219.101,0,226v60
	c0,6.899,4.799,12.9,11.4,14.399L37,306.7c5.4,24.3,15,47.401,28.2,68.399L52.3,396.7c-3.6,6-2.701,13.5,2.1,18.3L97,457.599
	c4.799,4.801,12.299,5.7,18.3,2.1l21.601-12.9C157.899,460,181,469.6,205.3,475l6.301,25.6c1.5,6.601,7.5,11.4,14.399,11.4h60
	c6.899,0,12.9-4.799,14.399-11.4L306.7,475c24.3-5.4,47.401-15,68.399-28.2l21.601,12.9c6,3.6,13.5,2.701,18.3-2.1l42.599-42.6
	c4.801-4.799,5.7-12.299,2.1-18.3l-12.9-21.601C460,354.101,469.6,331,475,306.7l25.6-6.301c6.601-1.5,11.4-7.5,11.4-14.399v-60
	C512,219.101,507.201,213.1,500.6,211.601z M256,421c-90.901,0-165-74.099-165-165S165.099,91,256,91s165,74.099,165,165
	S346.901,421,256,421z"/>
<path style="fill:#A8AFF1;" d="M512,226v60c0,6.899-4.799,12.9-11.4,14.399L475,306.7c-5.4,24.3-15,47.401-28.2,68.399l12.9,21.601
	c3.6,6,2.701,13.5-2.1,18.3L415,457.599c-4.799,4.801-12.299,5.7-18.3,2.1l-21.601-12.9C354.101,460,331,469.6,306.7,475
	l-6.301,25.6c-1.5,6.601-7.5,11.4-14.399,11.4h-30v-91c90.901,0,165-74.099,165-165S346.901,91,256,91V0h30
	c6.899,0,12.9,4.799,14.399,11.4L306.7,37c24.3,5.4,47.401,15,68.399,28.2L396.7,52.3c6-3.6,13.5-2.701,18.3,2.1L457.599,97
	c4.801,4.799,5.7,12.299,2.1,18.3l-12.9,21.601C460,157.899,469.6,181,475,205.3l25.6,6.301C507.201,213.1,512,219.101,512,226z"/>
<g>
</g>
<g>
</g>
<g>
</g>
<g>
</g>
<g>
</g>
<g>
</g>
<g>
</g>
<g>
</g>
<g>
</g>
<g>
</g>
<g>
</g>
<g>
</g>
<g>
</g>
<g>
</g>
<g>
</g>
</svg>
