<?xml version="1.0" encoding="iso-8859-1"?>
<!-- Generator: Adobe Illustrator 19.0.0, SVG Export Plug-In . SVG Version: 6.00 Build 0)  -->
<svg version="1.1" id="Capa_1" xmlns="http://www.w3.org/2000/svg" xmlns:xlink="http://www.w3.org/1999/xlink" x="0px" y="0px"
	 viewBox="0 0 512 512" style="enable-background:new 0 0 512 512;" xml:space="preserve">
<path style="fill:#4DCFE0;" d="M493.758,121.311v269.378c0,6.689-5.473,12.162-12.161,12.162H30.404
	c-6.689,0-12.162-5.473-12.162-12.162V121.311c0-7.297,5.473-12.162,12.162-12.162h451.192
	C488.285,109.15,493.758,114.622,493.758,121.311z"/>
<g>
	<path style="fill:#3A2C51;" d="M481.596,421.093H30.404C13.378,421.093,0,407.715,0,390.689V121.311
		c0-17.026,13.378-30.404,30.404-30.404h451.192c17.026,0,30.404,13.378,30.404,30.404v269.378
		C512,407.715,498.622,421.093,481.596,421.093z M36.485,384.608h439.031V127.392H36.485V384.608z"/>
	<rect x="161.14" y="310.423" style="fill:#3A2C51;" width="189.72" height="36.485"/>
	<rect x="73.577" y="163.876" style="fill:#3A2C51;" width="71.145" height="36.485"/>
	<rect x="171.477" y="163.876" style="fill:#3A2C51;" width="71.145" height="36.485"/>
	<rect x="269.378" y="163.876" style="fill:#3A2C51;" width="71.145" height="36.485"/>
	<rect x="367.278" y="163.876" style="fill:#3A2C51;" width="71.145" height="36.485"/>
	<rect x="73.577" y="240.494" style="fill:#3A2C51;" width="71.145" height="36.485"/>
	<rect x="171.477" y="240.494" style="fill:#3A2C51;" width="71.145" height="36.485"/>
	<rect x="269.378" y="240.494" style="fill:#3A2C51;" width="71.145" height="36.485"/>
	<rect x="367.278" y="240.494" style="fill:#3A2C51;" width="71.145" height="36.485"/>
</g>
<g>
</g>
<g>
</g>
<g>
</g>
<g>
</g>
<g>
</g>
<g>
</g>
<g>
</g>
<g>
</g>
<g>
</g>
<g>
</g>
<g>
</g>
<g>
</g>
<g>
</g>
<g>
</g>
<g>
</g>
</svg>
