<?xml version="1.0" encoding="windows-1252"?>
<!-- Generator: Adobe Illustrator 19.1.0, SVG Export Plug-In . SVG Version: 6.00 Build 0)  -->
<!DOCTYPE svg PUBLIC "-//W3C//DTD SVG 1.1//EN" "http://www.w3.org/Graphics/SVG/1.1/DTD/svg11.dtd">
<svg version="1.1" xmlns="http://www.w3.org/2000/svg" xmlns:xlink="http://www.w3.org/1999/xlink" x="0px" y="0px" viewBox="0 0 512 512" enable-background="new 0 0 512 512" xml:space="preserve">
<g id="Layer_2">
	<path fill="#FFD469" d="M391.765,115.993l75.102-74.385c3.189-3.158,8.463-2.639,10.975,1.08l17.325,25.649   c2.386,3.533,1.177,8.355-2.594,10.344l-92.427,48.736c-3.233,1.704-7.23,0.702-9.275-2.326v0   C388.942,122.237,389.318,118.416,391.765,115.993z M404.185,179.872L404.185,179.872c0.583,2.849,3.217,4.802,6.113,4.531   l82.782-7.728c3.378-0.315,5.734-3.493,5.053-6.817l-4.939-24.129c-0.716-3.498-4.436-5.484-7.741-4.131l-77.843,31.856   C405.074,174.493,403.635,177.188,404.185,179.872z M342.376,92.028L342.376,92.028c2.427,1.602,5.67,1.12,7.526-1.118l53.071-64   c2.165-2.611,1.584-6.525-1.247-8.394L381.173,4.947c-2.98-1.967-7.015-0.741-8.395,2.553L340.26,85.069   C339.201,87.596,340.089,90.519,342.376,92.028z"/>
</g>
<g id="Layer_3">
	<path fill="#00B1FF" d="M218.4,479.836l-15.988,9.35c-12.996,7.6-29.692,3.226-37.292-9.77l-42.39-72.487   c-7.6-12.996-3.226-29.692,9.77-37.292l15.988-9.35c12.996-7.6,29.692-3.226,37.292,9.77l42.39,72.487   C235.771,455.54,231.396,472.236,218.4,479.836z"/>
</g>
<g id="Layer_4">
	<path fill="#0096D1" d="M120.402,408.701l154.911-84.34L169.415,158.553L29.384,262.586c-0.903,0.577-38.751,35.207,2.814,100.288   S120.402,408.701,120.402,408.701z"/>
</g>
<g id="Layer_5">
	<path fill="#727272" d="M362.532,152.23c46.335,72.548,74.407,151.142,55.022,163.522c-19.385,12.38-78.885-46.14-125.22-118.689   S217.928,45.922,237.312,33.541S316.197,79.681,362.532,152.23z"/>
</g>
<g id="Layer_6">
	
		<ellipse transform="matrix(0.8428 -0.5383 0.5383 0.8428 -55.5887 192.2876)" fill="#B2B2B2" cx="301.36" cy="191.299" rx="34.502" ry="73.109"/>
</g>
<g id="Layer_7">
	<path fill="#D1D1D1" d="M416.708,316.293c-16.932,10.814-74.444-48.976-120.779-121.525S219.534,44.896,236.466,34.082   c0.975-0.623,2.069-1.034,3.264-1.261c-7.988-0.183-15.814,3.983-20.445,12.839c-20.408,39.028-72.491,125.618-72.491,125.618   s-25.845,34.8,19.588,105.935s89.296,62.233,89.296,62.233s99.643-10.179,143.424-12.27c10.365-0.495,17.584-6.25,20.583-14.014   C418.889,314.472,417.904,315.529,416.708,316.293z"/>
</g>
<g id="Layer_8">
	<path fill="#00B1FF" d="M52.892,308.174c-4.647,0-9.196-2.298-11.883-6.505c-4.187-6.556-2.267-15.264,4.289-19.451l57.911-36.986   c6.555-4.186,15.264-2.267,19.451,4.289s2.267,15.264-4.289,19.451L60.46,305.958C58.112,307.458,55.486,308.174,52.892,308.174z"/>
</g>
</svg>