<?xml version="1.0" encoding="utf-8"?>
<!-- Generator: Adobe Illustrator 15.1.0, SVG Export Plug-In . SVG Version: 6.00 Build 0)  -->
<!DOCTYPE svg PUBLIC "-//W3C//DTD SVG 1.1//EN" "http://www.w3.org/Graphics/SVG/1.1/DTD/svg11.dtd">
<svg version="1.1" id="Layer_1" xmlns="http://www.w3.org/2000/svg" xmlns:xlink="http://www.w3.org/1999/xlink" x="0px" y="0px"
	 width="512px" height="512px" viewBox="0 0 512 512" enable-background="new 0 0 512 512" xml:space="preserve">
<g>
	<path fill="#FFFFFF" d="M338.054,216.162l-47.364,29.568l-31.638,19.726v0.01c-1.123-0.079-2.187-0.338-3.33-0.338
		c-28.107,0-50.905,22.787-50.905,50.904c0,1.144,0.269,2.217,0.338,3.351l0,0c1.76,26.526,23.603,47.554,50.566,47.554
		c28.107,0,50.904-22.787,50.904-50.904c0-1.144-0.269-2.207-0.338-3.331h0.01l19.726-31.616l29.568-47.395
		c3.162-5.031,2.427-11.553-1.81-15.729C349.587,213.766,342.995,213.03,338.054,216.162z"/>
	<path fill="#FBB040" d="M156.895,103.585c-4.265-9.406-16.961-13.213-27.48-6.99c-10.359,6.493-13.729,18.613-7.357,27.292
		l16.514,23.245c6.045,8.232,17.191,11.523,24.518,6.82c7.477-4.444,10.479-14.933,6.045-24.627L156.895,103.585z"/>
	<path fill="#3A9E85" d="M45.771,216.191l25.909,11.881c4.772,2.188,9.903,2.407,14.237,1.213c4.196-1.292,7.994-3.788,10.32-7.536
		c2.257-3.808,2.406-8.391,1.074-12.845c-1.113-4.286-3.887-8.561-8.192-11.554l-23.444-16.225
		c-4.315-2.993-9.565-3.828-14.705-2.565c-4.882,1.412-9.465,5.04-12.517,10.26c-3.152,5.18-3.877,10.997-2.268,16.087
		C37.637,209.938,40.998,214.014,45.771,216.191z"/>
	<path fill="#FBB040" d="M379.771,95.035c-5.17-3.142-10.996-3.867-16.087-2.267c-5.03,1.461-9.107,4.822-11.294,9.594
		l-11.871,25.91c-2.188,4.772-2.406,9.902-1.214,14.228c1.294,4.195,3.779,7.993,7.537,10.339c3.808,2.247,8.391,2.396,12.846,1.054
		c4.295-1.104,8.56-3.877,11.552-8.183l16.227-23.444c2.992-4.314,3.827-9.564,2.565-14.704
		C388.62,102.671,384.981,98.098,379.771,95.035z"/>
	<path fill="#3A9E85" d="M72.733,399.458l-25.75,12.238c-9.406,4.276-13.203,16.962-6.98,27.481
		c6.493,10.359,18.612,13.729,27.302,7.356l23.235-16.514c8.222-6.055,11.522-17.19,6.83-24.518
		C92.917,398.036,82.438,395.033,72.733,399.458z"/>
	<path fill="#3A9E85" d="M72.157,313.815c0.318-8.719-8.023-16.604-18.473-17.617L25.27,293.9
		c-10.439-1.014-19.308,8.054-19.626,20.273c0.1,12.208,9.784,21.187,20.074,20.043l28.385-2.635
		C64.681,330.438,72.216,322.505,72.157,313.815z"/>
	<path fill="#DF413D" d="M439.843,311.37c-0.318,8.719,8.023,16.603,18.474,17.617l28.414,2.297
		c10.439,1.014,19.309-8.063,19.627-20.272c-0.1-12.209-9.784-21.187-20.074-20.044l-28.385,2.635
		C447.319,294.746,439.783,302.68,439.843,311.37z"/>
	<path fill="#DF413D" d="M466.229,408.992l-25.909-11.891c-4.772-2.178-9.902-2.396-14.237-1.203
		c-4.195,1.293-7.994,3.789-10.32,7.537c-2.257,3.808-2.406,8.391-1.074,12.845c1.114,4.285,3.888,8.561,8.193,11.553l23.443,16.227
		c4.315,2.992,9.565,3.827,14.705,2.564c4.882-1.411,9.465-5.041,12.517-10.26c3.151-5.181,3.878-10.997,2.268-16.087
		C474.362,415.246,471.002,411.17,466.229,408.992z"/>
	<path fill="#DF413D" d="M439.267,225.716l25.75-12.229c9.406-4.275,13.203-16.961,6.979-27.48
		c-6.492-10.36-18.612-13.731-27.302-7.358l-23.235,16.514c-8.222,6.055-11.522,17.191-6.83,24.518
		C419.084,227.148,429.563,230.15,439.267,225.716z"/>
	<path fill="#FBB040" d="M254.777,128.75c8.709,0.328,16.604-8.023,17.617-18.473l2.307-28.415
		c1.005-10.44-8.072-19.309-20.282-19.626c-12.209,0.1-21.177,9.793-20.043,20.074l2.635,28.385
		C238.154,121.273,246.088,128.809,254.777,128.75z"/>
	<path fill="#FBB040" d="M254.419,62.235c12.21,0.318,21.287,9.187,20.282,19.626l-2.307,28.415
		c-1.014,10.45-8.908,18.801-17.617,18.473c-8.689,0.059-16.624-7.477-17.767-18.056l-2.635-28.385
		C233.242,72.029,242.21,62.335,254.419,62.235z"/>
	<path fill="#C6DD3E" d="M38.453,188.821c3.052-5.22,7.635-8.849,12.517-10.26c5.14-1.263,10.39-0.428,14.705,2.565l23.444,16.225
		c4.305,2.993,7.079,7.268,8.192,11.554c1.333,4.454,1.183,9.038-1.074,12.845c-2.326,3.748-6.125,6.244-10.32,7.536
		c-4.334,1.194-9.465,0.976-14.237-1.213l-25.909-11.881c-4.772-2.177-8.133-6.253-9.585-11.284
		C34.576,199.817,35.301,194.001,38.453,188.821z"/>
	<path fill="#C6DD3E" d="M5.643,314.174c0.319-12.22,9.187-21.287,19.626-20.273l28.415,2.298
		c10.45,1.014,18.791,8.898,18.473,17.617c0.059,8.689-7.477,16.623-18.056,17.767l-28.385,2.635
		C15.427,335.36,5.743,326.382,5.643,314.174z"/>
	<path fill="#C6DD3E" d="M90.541,430.021l-23.235,16.514c-8.69,6.373-20.81,3.003-27.302-7.356
		c-6.223-10.52-2.426-23.205,6.98-27.481l25.75-12.238c9.705-4.425,20.183-1.422,24.638,6.045
		C102.063,412.83,98.763,423.966,90.541,430.021z"/>
	<path fill="#FBB040" d="M163.089,153.953c-7.327,4.703-18.472,1.412-24.518-6.82l-16.514-23.245
		c-6.373-8.679-3.002-20.799,7.357-27.292c10.52-6.223,23.215-2.416,27.48,6.99l12.239,25.74
		C173.568,139.02,170.566,149.509,163.089,153.953z"/>
	<path fill="#606060" d="M355.592,233.69l-29.568,47.395l-19.726,31.616h-0.01c0.069,1.124,0.338,2.188,0.338,3.331
		c0,28.117-22.797,50.904-50.904,50.904c-26.964,0-48.807-21.027-50.566-47.554l0,0c-0.07-1.134-0.338-2.207-0.338-3.351
		c0-28.117,22.797-50.904,50.905-50.904c1.144,0,2.207,0.259,3.33,0.338v-0.01l31.638-19.726l47.364-29.568
		c4.941-3.131,11.533-2.396,15.729,1.799C358.019,222.137,358.754,228.659,355.592,233.69z"/>
	<path fill="#FBB040" d="M387.467,122.267L371.24,145.71c-2.992,4.306-7.257,7.08-11.552,8.183
		c-4.455,1.342-9.038,1.193-12.846-1.054c-3.758-2.347-6.243-6.144-7.537-10.339c-1.192-4.325-0.974-9.455,1.214-14.228
		l11.871-25.91c2.187-4.772,6.264-8.133,11.294-9.594c5.091-1.601,10.917-0.875,16.087,2.267c5.21,3.063,8.849,7.636,10.261,12.527
		C391.294,112.702,390.459,117.952,387.467,122.267z"/>
	<path fill="#DF413D" d="M421.459,195.164l23.235-16.514c8.689-6.373,20.81-3.002,27.302,7.358
		c6.224,10.519,2.427,23.205-6.979,27.48l-25.75,12.229c-9.704,4.434-20.183,1.432-24.638-6.035
		C409.937,212.354,413.237,201.219,421.459,195.164z"/>
	<path fill="#DF413D" d="M473.547,436.364c-3.052,5.219-7.635,8.849-12.517,10.26c-5.14,1.263-10.39,0.428-14.705-2.564
		l-23.443-16.227c-4.306-2.992-7.079-7.268-8.193-11.553c-1.332-4.454-1.183-9.037,1.074-12.845
		c2.326-3.748,6.125-6.244,10.32-7.537c4.335-1.192,9.465-0.975,14.237,1.203l25.909,11.891c4.772,2.178,8.133,6.254,9.585,11.285
		C477.425,425.367,476.698,431.184,473.547,436.364z"/>
	<path fill="#DF413D" d="M506.357,311.012c-0.318,12.209-9.188,21.286-19.627,20.272l-28.414-2.297
		c-10.45-1.015-18.792-8.898-18.474-17.617c-0.06-8.69,7.477-16.624,18.056-17.768l28.385-2.635
		C496.573,289.825,506.258,298.803,506.357,311.012z"/>
</g>
</svg>
