<svg xmlns="http://www.w3.org/2000/svg" viewBox="0 0 22 22"><g fill="#4d4d4d"><path d="m527.5 43c-.822 0-1.5.678-1.5 1.5 0 .822.678 1.5 1.5 1.5.822 0 1.5-.678 1.5-1.5 0-.822-.678-1.5-1.5-1.5m0 4c-.822 0-1.5.678-1.5 1.5 0 .822.678 1.5 1.5 1.5.822 0 1.5-.678 1.5-1.5 0-.822-.678-1.5-1.5-1.5m0 4c-.822 0-1.5.678-1.5 1.5 0 .822.678 1.5 1.5 1.5.822 0 1.5-.678 1.5-1.5 0-.822-.678-1.5-1.5-1.5" color="#000" transform="matrix(1.38738 0 0 1.38738-728.88-56.29)" enable-background="new"/><path d="m-1337.11 413.87c5.702 0 10.31 4.633 10.31 10.334v109.35l42.583-42.583c4.04-4.03 10.568-4.01 14.618.026 4.04 4.03 4.04 10.554 0 14.593l-58.42 58.45c-2.479 2.468-5.887 3.232-9.09 2.664-3.213.568-6.61-.186-9.09-2.665l-58.42-58.45c-4.04-4.03-4.04-10.554 0-14.593 4.03-4.04 10.554-4.04 14.593 0l42.583 42.558v-109.35c0-5.702 4.633-10.334 10.334-10.334z" stroke-width="7.414" transform="matrix(.09974 0 0 .09974 147.09-37.908)" stroke="#4d4d4d" stroke-linejoin="round" stroke-linecap="round"/></g></svg>