<?xml version="1.0" encoding="iso-8859-1"?>
<!-- Generator: Adobe Illustrator 19.0.0, SVG Export Plug-In . SVG Version: 6.00 Build 0)  -->
<svg version="1.1" id="Capa_1" xmlns="http://www.w3.org/2000/svg" xmlns:xlink="http://www.w3.org/1999/xlink" x="0px" y="0px"
	 viewBox="0 0 490.667 490.667" style="enable-background:new 0 0 490.667 490.667;" xml:space="preserve">
<path style="fill:#FFC107;" d="M245.333,0C109.839,0,0,109.839,0,245.333s109.839,245.333,245.333,245.333
	s245.333-109.839,245.333-245.333C490.514,109.903,380.764,0.153,245.333,0z"/>
<path style="fill:#FAFAFA;" d="M404.523,262.592c-1.649-3.989-5.54-6.591-9.856-6.592H320V96.171
	c0-5.891-4.776-10.667-10.667-10.667h-128c-5.891,0-10.667,4.776-10.667,10.667V256H96c-5.891-0.011-10.675,4.757-10.686,10.648
	c-0.005,2.84,1.123,5.565,3.134,7.571l149.333,149.504c4.165,4.164,10.917,4.164,15.083,0l149.333-149.504
	C405.253,271.171,406.171,266.581,404.523,262.592z"/>
<path d="M245.333,426.837c-2.831,0.005-5.548-1.115-7.552-3.115L88.448,274.219c-4.171-4.16-4.179-10.914-0.019-15.085
	c2.006-2.011,4.731-3.139,7.571-3.134h74.667V96.171c0-5.891,4.776-10.667,10.667-10.667h128c5.891,0,10.667,4.776,10.667,10.667
	V256h74.667c5.891-0.011,10.675,4.757,10.686,10.648c0.005,2.84-1.123,5.565-3.134,7.571L252.885,423.723
	C250.881,425.722,248.164,426.842,245.333,426.837z M121.728,277.333l123.605,123.733l123.605-123.733h-59.605
	c-5.891,0-10.667-4.776-10.667-10.667V106.837H192v159.829c0,5.891-4.776,10.667-10.667,10.667H121.728z"/>
<path d="M245.333,490.667C109.839,490.667,0,380.827,0,245.333S109.839,0,245.333,0s245.333,109.839,245.333,245.333
	C490.514,380.764,380.764,490.514,245.333,490.667z M245.333,21.333c-123.712,0-224,100.288-224,224s100.288,224,224,224
	s224-100.288,224-224C469.192,121.68,368.987,21.474,245.333,21.333z"/>
<g>
</g>
<g>
</g>
<g>
</g>
<g>
</g>
<g>
</g>
<g>
</g>
<g>
</g>
<g>
</g>
<g>
</g>
<g>
</g>
<g>
</g>
<g>
</g>
<g>
</g>
<g>
</g>
<g>
</g>
</svg>
