<?xml version="1.0" encoding="iso-8859-1"?>
<!-- Generator: Adobe Illustrator 19.0.0, SVG Export Plug-In . SVG Version: 6.00 Build 0)  -->
<svg version="1.1" id="Capa_1" xmlns="http://www.w3.org/2000/svg" xmlns:xlink="http://www.w3.org/1999/xlink" x="0px" y="0px"
	 viewBox="0 0 490.667 490.667" style="enable-background:new 0 0 490.667 490.667;" xml:space="preserve">
<path style="fill:#FFC107;" d="M245.333,0C109.839,0,0,109.839,0,245.333s109.839,245.333,245.333,245.333
	s245.333-109.839,245.333-245.333C490.514,109.903,380.764,0.153,245.333,0z"/>
<path style="fill:#FAFAFA;" d="M252.885,66.944c-4.234-3.996-10.849-3.996-15.083,0L88.469,216.448
	c-4.171,4.16-4.179,10.914-0.019,15.085c2.001,2.006,4.717,3.133,7.55,3.134h74.667v159.829c0,5.891,4.776,10.667,10.667,10.667h128
	c5.891,0,10.667-4.776,10.667-10.667V234.667h74.667c5.891,0.011,10.675-4.757,10.686-10.648c0.005-2.84-1.123-5.565-3.134-7.571
	L252.885,66.944z"/>
<path d="M309.333,405.163h-128c-5.891,0-10.667-4.776-10.667-10.667V234.667H96c-5.891,0.011-10.675-4.757-10.686-10.648
	c-0.005-2.84,1.123-5.565,3.134-7.571L237.781,66.944c4.234-3.996,10.849-3.996,15.083,0l149.333,149.504
	c4.171,4.16,4.179,10.914,0.019,15.085c-2.001,2.006-4.717,3.133-7.55,3.134H320v159.829
	C320,400.387,315.224,405.163,309.333,405.163z M192,383.829h106.667V224c0-5.891,4.776-10.667,10.667-10.667h59.605L245.333,89.6
	L121.728,213.333h59.605c5.891,0,10.667,4.776,10.667,10.667V383.829z"/>
<path d="M245.333,490.667C109.839,490.667,0,380.827,0,245.333S109.839,0,245.333,0s245.333,109.839,245.333,245.333
	C490.514,380.764,380.764,490.514,245.333,490.667z M245.333,21.333c-123.712,0-224,100.288-224,224s100.288,224,224,224
	s224-100.288,224-224C469.192,121.68,368.987,21.474,245.333,21.333z"/>
<g>
</g>
<g>
</g>
<g>
</g>
<g>
</g>
<g>
</g>
<g>
</g>
<g>
</g>
<g>
</g>
<g>
</g>
<g>
</g>
<g>
</g>
<g>
</g>
<g>
</g>
<g>
</g>
<g>
</g>
</svg>
