<?xml version="1.0" encoding="iso-8859-1"?>
<!-- Generator: Adobe Illustrator 19.0.0, SVG Export Plug-In . SVG Version: 6.00 Build 0)  -->
<svg version="1.1" id="Layer_1" xmlns="http://www.w3.org/2000/svg" xmlns:xlink="http://www.w3.org/1999/xlink" x="0px" y="0px"
	 viewBox="0 0 512 512" style="enable-background:new 0 0 512 512;" xml:space="preserve">
<path style="fill:#FEDC3D;" d="M503.83,233.668v44.664c0,35.491-9.979,68.641-27.288,96.812h-81.648V233.668L275.064,48.477h43.574
	C420.919,48.477,503.83,131.388,503.83,233.668z"/>
<path style="fill:#FFE777;" d="M460.255,233.668v44.664c0,25.556-5.174,49.904-14.543,72.061l-58.7,13.92l-16.084-73.998v-56.647
	c0-28.835-23.454-52.289-52.289-52.289H141.072v40.306L35.459,136.857L8.17,114.928L141.072,8.17v40.306h133.992
	C377.344,48.477,460.255,131.388,460.255,233.668z"/>
<polygon style="fill:#FE834D;" points="503.83,397.073 370.928,503.83 419.949,397.073 370.928,290.315 "/>
<path style="fill:#FEA680;" d="M370.928,290.315l89.328,106.757L370.928,503.83v-40.306H193.362
	c-102.28,0-185.191-82.911-185.191-185.191v-44.664c0-35.491,9.979-68.641,27.289-96.812l105.614,84.829v56.647
	c0,28.835,23.454,52.289,52.289,52.289h177.566V290.315z"/>
<circle cx="324.543" cy="93.413" r="8.17"/>
<circle cx="357.224" cy="115.2" r="8.17"/>
<circle cx="154.777" cy="418.587" r="8.17"/>
<path d="M483.782,342.22c-1.63,4.208,0.462,8.94,4.67,10.569c0.97,0.376,1.966,0.553,2.948,0.553c3.276,0,6.367-1.984,7.621-5.222
	C507.633,325.874,512,302.393,512,278.332v-44.664c0-106.62-86.742-193.362-193.362-193.362H149.243V8.17
	c0-3.144-1.804-6.009-4.638-7.367c-2.835-1.36-6.196-0.971-8.648,0.997L3.054,108.557C1.123,110.109,0,112.451,0,114.928
	s1.123,4.819,3.053,6.369l21.791,17.504C8.574,167.658,0,200.299,0,233.668v44.664c0,106.62,86.742,193.362,193.362,193.362h169.396
	v32.136c0,3.144,1.804,6.009,4.638,7.367c1.124,0.539,2.33,0.803,3.531,0.803c1.827,0,3.638-0.613,5.118-1.801l132.902-106.757
	c1.93-1.55,3.053-3.892,3.053-6.369c0-2.477-1.123-4.819-3.053-6.369L376.044,283.946c-2.451-1.969-5.814-2.357-8.648-0.998
	c-2.835,1.358-4.638,4.223-4.638,7.367v32.136H193.362c-24.328,0-44.119-19.792-44.119-44.119v-14.729c0-4.513-3.658-8.17-8.17-8.17
	c-4.512,0-8.17,3.657-8.17,8.17v14.729c0,33.338,27.122,60.46,60.46,60.46h177.566c4.512,0,8.17-3.657,8.17-8.17v-23.263
	l111.686,89.714l-111.686,89.714v-23.263c0-4.513-3.658-8.17-8.17-8.17H193.362c-97.61,0-177.021-79.412-177.021-177.021v-44.664
	c0-29.645,7.404-58.648,21.446-84.471l98.17,78.858c2.452,1.971,5.814,2.36,8.648,0.998c2.835-1.358,4.638-4.223,4.638-7.367
	v-32.136h169.396c24.328,0,44.119,19.792,44.119,44.119v14.729c0,4.513,3.658,8.17,8.17,8.17c4.512,0,8.17-3.657,8.17-8.17v-14.729
	c0-33.338-27.122-60.46-60.46-60.46H141.074c-4.512,0-8.17,3.657-8.17,8.17v23.263L21.217,114.928l111.686-89.715v23.264
	c0,4.513,3.658,8.17,8.17,8.17h177.566c97.61,0,177.021,79.411,177.021,177.021v44.664
	C495.66,300.367,491.664,321.863,483.782,342.22z"/>
<g>
</g>
<g>
</g>
<g>
</g>
<g>
</g>
<g>
</g>
<g>
</g>
<g>
</g>
<g>
</g>
<g>
</g>
<g>
</g>
<g>
</g>
<g>
</g>
<g>
</g>
<g>
</g>
<g>
</g>
</svg>
