<?xml version="1.0" encoding="iso-8859-1"?>
<!-- Generator: Adobe Illustrator 19.0.0, SVG Export Plug-In . SVG Version: 6.00 Build 0)  -->
<svg version="1.1" id="Layer_1" xmlns="http://www.w3.org/2000/svg" xmlns:xlink="http://www.w3.org/1999/xlink" x="0px" y="0px"
	 viewBox="0 0 512 512" style="enable-background:new 0 0 512 512;" xml:space="preserve">
<rect x="102.4" y="140.8" style="fill:#919CB0;" width="307.2" height="358.4"/>
<rect x="76.8" y="64" style="fill:#BDC4D0;" width="358.4" height="76.8"/>
<g>
	<rect x="166.4" y="230.4" style="fill:#573A32;" width="25.6" height="204.8"/>
	<rect x="243.2" y="230.4" style="fill:#573A32;" width="25.6" height="204.8"/>
	<rect x="320" y="230.4" style="fill:#573A32;" width="25.6" height="204.8"/>
	<path style="fill:#573A32;" d="M89.6,153.6v332.8c0,14.14,11.46,25.6,25.6,25.6h281.6c14.14,0,25.6-11.46,25.6-25.6V153.6
		c14.14,0,25.6-11.46,25.6-25.6V76.8c0-14.14-11.46-25.6-25.6-25.6H320V25.6C320,11.46,308.54,0,294.4,0h-76.8
		C203.46,0,192,11.46,192,25.6v25.6H89.6C75.46,51.2,64,62.66,64,76.8V128C64,142.14,75.46,153.6,89.6,153.6z M396.8,486.4H115.2
		V153.6h281.6V486.4z M217.6,25.6h76.8v25.6h-76.8V25.6z M89.6,76.8h332.8V128H89.6V76.8z"/>
</g>
<g>
</g>
<g>
</g>
<g>
</g>
<g>
</g>
<g>
</g>
<g>
</g>
<g>
</g>
<g>
</g>
<g>
</g>
<g>
</g>
<g>
</g>
<g>
</g>
<g>
</g>
<g>
</g>
<g>
</g>
</svg>
