<?xml version="1.0" encoding="UTF-8" standalone="no"?>
<svg
   xmlns:dc="http://purl.org/dc/elements/1.1/"
   xmlns:cc="http://creativecommons.org/ns#"
   xmlns:rdf="http://www.w3.org/1999/02/22-rdf-syntax-ns#"
   xmlns:svg="http://www.w3.org/2000/svg"
   xmlns="http://www.w3.org/2000/svg"
   xmlns:xlink="http://www.w3.org/1999/xlink"
   id="SVGRoot"
   version="1.1"
   viewBox="0 0 256 256"
   height="256px"
   width="256px">
  <defs
     id="defs3962">
    <linearGradient
       gradientUnits="userSpaceOnUse"
       y2="36.903545"
       x2="24.001583"
       y1="9.90625"
       x1="24.001583"
       id="linearGradient3651"
       xlink:href="#linearGradient3635"
       gradientTransform="matrix(5.2252958,0,0,5.2252958,2.593062,2.0365319)" />
    <linearGradient
       id="linearGradient3635">
      <stop
         id="stop3637"
         offset="0"
         style="stop-color:#ffffff;stop-opacity:1;" />
      <stop
         id="stop3639"
         offset="1"
         style="stop-color:#dcdcdc;stop-opacity:1;" />
    </linearGradient>
    <linearGradient
       y2="47.494923"
       x2="-57.452427"
       y1="16.937809"
       x1="-57.452427"
       gradientUnits="userSpaceOnUse"
       id="linearGradient3672"
       xlink:href="#linearGradient3628"
       gradientTransform="matrix(6.9814692,0,0,6.9814692,529.10283,-103.15086)" />
    <linearGradient
       id="linearGradient3628">
      <stop
         id="stop3630"
         offset="0"
         style="stop-color:#de220c;stop-opacity:1;" />
      <stop
         id="stop3632"
         offset="1"
         style="stop-color:#700000;stop-opacity:1;" />
    </linearGradient>
    <filter
       id="filter3641">
      <feGaussianBlur
         id="feGaussianBlur3643"
         stdDeviation="0.30557114" />
    </filter>
  </defs>
  <metadata
     id="metadata3965">
    <rdf:RDF>
      <cc:Work
         rdf:about="">
        <dc:format>image/svg+xml</dc:format>
        <dc:type
           rdf:resource="http://purl.org/dc/dcmitype/StillImage" />
        <dc:title></dc:title>
      </cc:Work>
    </rdf:RDF>
  </metadata>
  <g
     id="layer1">
    <circle
       style="fill:#333333;fill-opacity:0.78431373;stroke:none;filter:url(#filter3641)"
       id="path3636"
       transform="matrix(6.981462,0,0,6.981462,529.10198,-96.917483)"
       cx="-57.452427"
       cy="32.216366"
       r="15.278557" />
    <circle
       id="path3622"
       style="fill:url(#linearGradient3672);fill-opacity:1;stroke:none;stroke-width:6.98146105"
       cx="128.00006"
       cy="121.76669"
       r="106.66666" />
    <path
       style="fill:#de4016;fill-opacity:1;stroke:none;stroke-width:5.22529411"
       d="m 111.01787,56.599067 v 73.153593 h 33.96448 V 56.599067 Z M 71.991541,77.499663 c -22.819804,27.195777 -22.819797,66.858987 0,94.055287 25.969798,30.94981 72.086529,34.95156 103.036079,8.98127 30.94986,-25.97011 34.95095,-72.08628 8.98112,-103.036557 l -25.96322,21.879863 c 13.9124,16.581734 11.68146,41.281394 -4.89864,55.193254 -16.58024,13.91237 -41.2798,11.84496 -55.192247,-4.73578 -12.224834,-14.56711 -12.224835,-35.88737 0,-50.457474 z"
       id="path3657" />
    <path
       style="fill:#640000;fill-opacity:1;stroke:none;stroke-width:5.22529411"
       d="m 111.01787,50.999755 v 73.154425 h 33.96448 V 50.999755 Z M 71.991541,71.90119 c -22.819804,27.196069 -22.819797,66.85927 0,94.05506 25.969798,30.94972 72.086529,34.95209 103.036079,8.98065 30.94986,-25.97034 34.95095,-72.08639 8.98112,-103.03571 l -25.96322,21.880532 c 13.9124,16.579838 11.68146,41.280278 -4.89864,55.192168 -16.58024,13.91286 -41.2798,11.84514 -55.192247,-4.7356 -12.224834,-14.56885 -12.224835,-35.88751 0,-50.456568 z"
       id="path3653" />
    <path
       id="path2862"
       d="m 111.01787,53.799699 v 73.153431 h 33.96448 V 53.799699 Z M 71.991541,74.700637 c -22.819804,27.195243 -22.819797,66.859743 0,94.054633 25.969798,30.95023 72.086529,34.95115 103.036079,8.98173 30.94986,-25.97013 34.95095,-72.08615 8.98112,-103.036363 l -25.96322,21.880872 c 13.9124,16.579831 11.68146,41.279491 -4.89864,55.192251 -16.58024,13.91189 -41.2798,11.8443 -55.192247,-4.73562 -12.224834,-14.56886 -12.224835,-35.88752 0,-50.456631 z"
       style="fill:url(#linearGradient3651);fill-opacity:1;stroke:none;stroke-width:5.22529411" />
  </g>
</svg>
