<?xml version="1.0" encoding="UTF-8" standalone="no"?>
<svg
   xmlns:a="http://ns.adobe.com/AdobeSVGViewerExtensions/3.0/"
   xmlns:dc="http://purl.org/dc/elements/1.1/"
   xmlns:cc="http://creativecommons.org/ns#"
   xmlns:rdf="http://www.w3.org/1999/02/22-rdf-syntax-ns#"
   xmlns:svg="http://www.w3.org/2000/svg"
   xmlns="http://www.w3.org/2000/svg"
   xmlns:sodipodi="http://sodipodi.sourceforge.net/DTD/sodipodi-0.dtd"
   xmlns:inkscape="http://www.inkscape.org/namespaces/inkscape"
   width="512pt"
   height="512pt"
   viewBox="0 0 256 256"
   overflow="visible"
   enable-background="new 0 0 256 256"
   xml:space="preserve"
   id="svg548"
   sodipodi:version="0.32"
   sodipodi:docname="Gtk-undo-ltr.svg"
   version="1.1"
   inkscape:version="1.0.2 (e86c870879, 2021-01-15)"><metadata
   id="metadata22"><rdf:RDF><cc:Work
       rdf:about=""><dc:format>image/svg+xml</dc:format><dc:type
         rdf:resource="http://purl.org/dc/dcmitype/StillImage" /></cc:Work></rdf:RDF></metadata>
  <defs
   id="defs573" />
  <sodipodi:namedview
   id="base"
   inkscape:document-rotation="0"
   showgrid="false"
   inkscape:zoom="0.7757669"
   inkscape:cx="-335.33674"
   inkscape:cy="168.69669"
   inkscape:window-width="2560"
   inkscape:window-height="1366"
   inkscape:window-x="0"
   inkscape:window-y="24"
   inkscape:window-maximized="1"
   inkscape:current-layer="svg548" />
  <g
   id="Layer_2"
   stroke="#000000">
    <path
   fill="none"
   stroke="none"
   d="M256,256H0V0h256V256z"
   id="path550" />
  </g>
  <g
   id="Layer_1"
   stroke="#000000">
    <path
   opacity="0.2"
   stroke="none"
   d="M113.267,8.431L17.536,81.568C15.322,83.26,14,85.933,14,88.72s1.322,5.46,3.536,7.152    l95.73,73.136c2.741,2.094,6.363,2.445,9.453,0.918c3.091-1.531,5.011-4.623,5.011-8.068c0,0,0-25.311,0-28.936    c10.569,0.412,25.836,3.029,42.1,12.674c30.174,17.893,50.965,52.332,61.795,102.359c0.978,4.506,5.17,7.535,9.754,7.045    c4.585-0.49,8.043-4.336,8.043-8.949c0-75.662-19.52-131.947-58.018-167.292c-24.267-22.28-49.692-30.025-63.674-32.712    c0-2.98,0-30.464,0-30.464c0-3.448-1.92-6.54-5.011-8.068C119.629,5.987,116.007,6.338,113.267,8.431z"
   id="path552" />
    <path
   fill="#3A3333"
   stroke="none"
   d="M108.267,3.44L12.536,76.577C10.322,78.269,9,80.942,9,83.729s1.322,5.46,3.536,7.152    l95.73,73.137c2.741,2.094,6.363,2.444,9.453,0.917c3.091-1.53,5.011-4.622,5.011-8.068c0,0,0-25.311,0-28.935    c10.569,0.412,25.836,3.028,42.1,12.674c30.174,17.893,50.965,52.332,61.795,102.358c0.978,4.507,5.17,7.535,9.754,7.045    c4.585-0.489,8.043-4.336,8.043-8.948c0-75.663-19.52-131.948-58.018-167.292c-24.267-22.28-49.692-30.025-63.674-32.712    c0-2.98,0-30.464,0-30.464c0-3.448-1.92-6.54-5.011-8.068C114.629,0.997,111.007,1.347,108.267,3.44z"
   id="path553" />
    <path
   fill="#3A3333"
   stroke="none"
   d="M109.481,5.03L13.75,78.167C12.028,79.482,11,81.562,11,83.729s1.028,4.247,2.75,5.563    l95.73,73.137c2.132,1.628,4.949,1.901,7.353,0.713c2.404-1.19,3.897-3.595,3.897-6.275c0,0,0-27.446,0-31.017    c9.68,0.142,26.836,2.192,45.12,13.036c30.671,18.188,51.776,53.063,62.729,103.656c0.76,3.505,4.021,5.86,7.586,5.479    c3.566-0.381,6.256-3.373,6.256-6.96c0-75.079-19.302-130.869-57.37-165.819c-24.58-22.568-50.222-30.046-64.321-32.529    c0-3.04,0-32.121,0-32.121c0-2.682-1.493-5.086-3.897-6.275C114.43,3.129,111.612,3.402,109.481,5.03z"
   id="path554" />
    <path
   fill="#660000"
   stroke="none"
   d="M110.695,6.619l-95.73,73.137C13.727,80.702,13,82.171,13,83.729s0.727,3.027,1.964,3.973    l95.73,73.138c1.512,1.154,3.547,1.352,5.252,0.509c1.705-0.844,2.784-2.58,2.784-4.482c0,0,0-25.732,0-33.043    c9.402-0.101,28.145,1.482,48.141,13.341c31.168,18.483,52.588,53.795,63.664,104.954c0.541,2.498,2.877,4.186,5.418,3.914    s4.469-2.416,4.469-4.972c0-74.495-19.084-129.79-56.723-164.346c-25.586-23.491-52.577-30.344-64.969-32.319    c0-6.861,0-33.804,0-33.804c0-1.902-1.079-3.639-2.784-4.482C114.242,5.267,112.207,5.464,110.695,6.619z"
   id="path555" />
    <linearGradient
   id="XMLID_1_"
   gradientUnits="userSpaceOnUse"
   x1="18"
   y1="125.8262"
   x2="235.4219"
   y2="125.8262">
      <stop
   offset="0"
   style="stop-color:#FF9999"
   id="stop557" />
      <stop
   offset="1"
   style="stop-color:#FF3333"
   id="stop558" />
      <a:midPointStop
   offset="0"
   style="stop-color:#FF9999"
   id="midPointStop559" />
      <a:midPointStop
   offset="0.5"
   style="stop-color:#FF9999"
   id="midPointStop560" />
      <a:midPointStop
   offset="1"
   style="stop-color:#FF3333"
   id="midPointStop561" />
    </linearGradient>
    <path
   fill="url(#XMLID_1_)"
   stroke="none"
   d="M113.73,48.773V10.592L18,83.729l95.73,73.137V119.03    c13.256-1.108,94.691-2.68,121.691,122.03C235.422,67.446,129.039,50.337,113.73,48.773z"
   id="path562" />
    <path
   fill="#FFCCCC"
   stroke="none"
   d="M18,83.729l95.73,73.137v-8.568L20.889,81.522L18,83.729z M113.73,112.678v6.352    c13.256-1.108,94.691-2.68,121.691,122.03c0-4.995-0.092-9.854-0.264-14.594C207.902,110.179,126.945,111.638,113.73,112.678z"
   id="path563" />
    <g
   id="g564">
      <linearGradient
   id="XMLID_2_"
   gradientUnits="userSpaceOnUse"
   x1="108.9756"
   y1="26.1167"
   x2="108.9756"
   y2="118.1203">
        <stop
   offset="0"
   style="stop-color:#FFFFFF"
   id="stop566" />
        <stop
   offset="1"
   style="stop-color:#FF6666"
   id="stop567" />
        <a:midPointStop
   offset="0"
   style="stop-color:#FFFFFF"
   id="midPointStop568" />
        <a:midPointStop
   offset="0.5"
   style="stop-color:#FFFFFF"
   id="midPointStop569" />
        <a:midPointStop
   offset="1"
   style="stop-color:#FF6666"
   id="midPointStop570" />
      </linearGradient>
      <path
   fill="url(#XMLID_2_)"
   stroke="none"
   adobe-blending-mode="screen"
   d="M191.716,95.107     c-4.531-5.794-9.458-11.14-14.78-16.026c-27.094-24.875-55.617-29.507-63.713-30.334l-4.492-0.459c0,0,0-21.653,0-32.583     c-12.687,9.692-74.019,56.549-82.495,63.024c0.354,0.271,0.808,0.618,1.339,1.023c21.664,13.777,58.774,22.863,100.925,22.863     C151.671,102.615,173.318,99.868,191.716,95.107z"
   id="path571" />
    </g>
  </g>
</svg>
