<?xml version="1.0" encoding="UTF-8" standalone="no"?>
<!-- Created with Inkscape (http://www.inkscape.org/) -->
<svg xmlns:inkscape="http://www.inkscape.org/namespaces/inkscape" xmlns:rdf="http://www.w3.org/1999/02/22-rdf-syntax-ns#" xmlns="http://www.w3.org/2000/svg" xmlns:sodipodi="http://sodipodi.sourceforge.net/DTD/sodipodi-0.dtd" xmlns:cc="http://creativecommons.org/ns#" xmlns:xlink="http://www.w3.org/1999/xlink" xmlns:dc="http://purl.org/dc/elements/1.1/" xmlns:svg="http://www.w3.org/2000/svg" xmlns:ns1="http://sozi.baierouge.fr" id="svg6481" sodipodi:docname="television.svg" viewBox="0 0 432.22 466.04" sodipodi:version="0.32" version="1.0" inkscape:output_extension="org.inkscape.output.svg.inkscape" inkscape:version="0.46">
  <defs id="defs6483">
    <linearGradient id="linearGradient10689" inkscape:collect="always">
      <stop id="stop10691" style="stop-color:#cdcdcc" offset="0"/>
      <stop id="stop10693" style="stop-color:#cdcdcc;stop-opacity:0" offset="1"/>
    </linearGradient>
    <linearGradient id="linearGradient10672" inkscape:collect="always">
      <stop id="stop10674" style="stop-color:#eeeeec" offset="0"/>
      <stop id="stop10676" style="stop-color:#eeeeec;stop-opacity:0" offset="1"/>
    </linearGradient>
    <linearGradient id="linearGradient7655" y2="859.71" gradientUnits="userSpaceOnUse" x2="307.24" gradientTransform="matrix(2.2245 0 0 2.2245 -495.82 -1278)" y1="859.21" x1="285.5" inkscape:collect="always">
      <stop id="stop7651" style="stop-color:#2e3436" offset="0"/>
      <stop id="stop7653" style="stop-color:#2e3436;stop-opacity:0" offset="1"/>
    </linearGradient>
    <linearGradient id="linearGradient7663" y2="824.21" gradientUnits="userSpaceOnUse" x2="340.49" gradientTransform="matrix(2.2245 0 0 2.2245 -439.35 -1279.2)" y1="805.71" x1="339.99" inkscape:collect="always">
      <stop id="stop7659" style="stop-color:#2e3436" offset="0"/>
      <stop id="stop7661" style="stop-color:#2e3436;stop-opacity:0" offset="1"/>
    </linearGradient>
    <linearGradient id="linearGradient7671" y2="855.21" gradientUnits="userSpaceOnUse" x2="389.5" gradientTransform="matrix(2.2245 0 0 2.2245 -437.12 -1278)" y1="855.71" x1="402.98" inkscape:collect="always">
      <stop id="stop7667" style="stop-color:#2e3436" offset="0"/>
      <stop id="stop7669" style="stop-color:#2e3436;stop-opacity:0" offset="1"/>
    </linearGradient>
    <linearGradient id="linearGradient7679" y2="903.21" gradientUnits="userSpaceOnUse" x2="336.99" gradientTransform="matrix(2.2245 0 0 2.2245 -437.12 -1278)" y1="930.71" x1="335.99" inkscape:collect="always">
      <stop id="stop7675" style="stop-color:#2e3436" offset="0"/>
      <stop id="stop7677" style="stop-color:#2e3436;stop-opacity:0" offset="1"/>
    </linearGradient>
    <linearGradient id="linearGradient10649" y2="531.65" gradientUnits="userSpaceOnUse" x2="745.93" gradientTransform="matrix(.91773 0 0 .91773 -381.31 192.08)" y1="389.65" x1="735.93" inkscape:collect="always">
      <stop id="stop10645" style="stop-color:#eeeeec" offset="0"/>
      <stop id="stop10647" style="stop-color:#eeeeec;stop-opacity:0" offset="1"/>
    </linearGradient>
    <linearGradient id="linearGradient10667" y2="480.83" gradientUnits="userSpaceOnUse" x2="643" gradientTransform="translate(-267,20)" y1="442.83" x1="636.19" inkscape:collect="always">
      <stop id="stop10663" style="stop-color:#eeeeec" offset="0"/>
      <stop id="stop10665" style="stop-color:#eeeeec;stop-opacity:0" offset="1"/>
    </linearGradient>
    <linearGradient id="linearGradient10678" y2="390.76" xlink:href="#linearGradient10672" gradientUnits="userSpaceOnUse" x2="208.27" y1="379.26" x1="203.47" inkscape:collect="always"/>
    <linearGradient id="linearGradient10682" y2="390.76" xlink:href="#linearGradient10672" gradientUnits="userSpaceOnUse" x2="208.27" gradientTransform="translate(275.42 -43.487)" y1="379.26" x1="203.47" inkscape:collect="always"/>
    <linearGradient id="linearGradient10695" y2="546.63" xlink:href="#linearGradient10689" gradientUnits="userSpaceOnUse" x2="609.46" y1="522.61" x1="602.55" inkscape:collect="always"/>
    <linearGradient id="linearGradient10716" y2="546.63" xlink:href="#linearGradient10689" gradientUnits="userSpaceOnUse" x2="609.46" gradientTransform="translate(-99.702 24.749)" y1="522.61" x1="602.55" inkscape:collect="always"/>
    <linearGradient id="linearGradient10737" y2="816.05" gradientUnits="userSpaceOnUse" x2="640.36" gradientTransform="translate(-115,-87)" y1="767.05" x1="613.34" inkscape:collect="always">
      <stop id="stop10733" style="stop-color:#cececc" offset="0"/>
      <stop id="stop10735" style="stop-color:#cececc;stop-opacity:0" offset="1"/>
    </linearGradient>
    <linearGradient id="linearGradient10749" y2="-849.05" gradientUnits="userSpaceOnUse" x2="-646.34" gradientTransform="translate(126,117)" y1="-879.05" x1="-670.36" inkscape:collect="always">
      <stop id="stop10745" style="stop-color:#2e2e2c" offset="0"/>
      <stop id="stop10747" style="stop-color:#888a85;stop-opacity:0" offset="1"/>
    </linearGradient>
  </defs>
  <sodipodi:namedview id="base" bordercolor="#666666" inkscape:pageshadow="2" inkscape:window-y="0" pagecolor="#ffffff" inkscape:window-height="944" inkscape:zoom="0.5" inkscape:window-x="0" showgrid="false" borderopacity="1.0" inkscape:current-layer="layer1" inkscape:cx="492.68097" inkscape:cy="382.68848" showguides="true" inkscape:guide-bbox="true" inkscape:window-width="1272" inkscape:pageopacity="0.0" inkscape:document-units="px"/>
  <g id="layer1" inkscape:label="Capa 1" inkscape:groupmode="layer" transform="translate(-132.82 -333.32)">
    <flowRoot id="flowRoot9258" xml:space="preserve" style="font-size:40px;font-family:Bitstream Vera Sans;fill:#000000">
      <flowRegion id="flowRegion9260">
        <rect id="rect9262" y="974.36" width="100" x="391" height="70"/>
      </flowRegion>
      <flowPara id="flowPara9264">thomp</flowPara>
    </flowRoot>
    <g id="g10751">
      <rect id="rect7074" style="fill:#000000" ry="20.182" height="283.65" width="432.22" y="501.81" x="132.82"/>
      <rect id="rect7076" style="fill:#8d8d8d" ry="20.458" height="221.34" width="284.01" y="530.72" x="162.93"/>
      <rect id="rect7078" style="fill:#8d8d8d" ry="8.2241" height="84.263" width="70.021" y="672.71" x="474.84"/>
      <path id="path7084" style="fill:#000000" d="m480.49 333.32c-5.79 0-10.5 4.71-10.5 10.5 0 1.53 0.29 2.95 0.88 4.26l-105.3 111.25c-2.22-0.11-4.48-0.22-6.75-0.22-11.9 0-23.19 1.54-33.49 4.26l-109.99-73.29c0.22-0.84 0.36-1.72 0.36-2.64 0-5.79-4.71-10.5-10.5-10.5s-10.5 4.71-10.5 10.5 4.71 10.5 10.5 10.5c2.31 0 4.44-0.79 6.17-2.05l105.23 70.12c-20.17 7.1-35.22 19.1-40.83 33.41h166.1c-7.86-20.04-34.22-35.54-67.26-39.36l101.18-106.91c1.41 0.71 3.02 1.1 4.7 1.1 5.79 0 10.43-4.64 10.43-10.43s-4.64-10.5-10.43-10.5z"/>
      <path id="rect7624" sodipodi:nodetypes="ccccccccc" style="fill:url(#linearGradient7655)" d="m185.28 532.61h4.71c11.33 0 20.46 9.13 20.46 20.46v180.42c0 11.34-9.13 20.46-20.46 20.46h-4.71c-11.33 0-20.46-9.12-20.46-20.46v-180.42c0-11.33 9.13-20.46 20.46-20.46z"/>
      <path id="path7637" sodipodi:nodetypes="ccccccccc" style="fill:url(#linearGradient7671)" d="m425.53 531.5h-4.71c-11.33 0-20.45 9.12-20.45 20.46v180.42c0 11.33 9.12 20.46 20.45 20.46h4.71c11.34 0 20.46-9.13 20.46-20.46v-180.42c0-11.34-9.12-20.46-20.46-20.46z"/>
      <path id="path7641" sodipodi:nodetypes="ccccccccc" style="fill:url(#linearGradient7663)" d="m445.98 551.95v4.71c0 11.33-9.12 20.45-20.46 20.45h-237.22c-11.34 0-20.46-9.12-20.46-20.45v-4.71c0-11.34 9.12-20.46 20.46-20.46h237.22c11.34 0 20.46 9.12 20.46 20.46z"/>
      <path id="path7645" sodipodi:nodetypes="ccccccccc" style="fill:url(#linearGradient7679)" d="m447.09 733.5v-4.71c0-11.33-9.12-20.45-20.46-20.45h-241.01c-11.33 0-20.45 9.12-20.45 20.45v4.71c0 11.34 9.12 20.46 20.45 20.46h241.01c11.34 0 20.46-9.12 20.46-20.46z"/>
      <rect id="rect7683" ry="4.1121" style="fill:#000000" transform="rotate(42.281)" height="32.897" width="8.2241" y="106.43" x="794.38"/>
      <path id="path9192" style="stroke:#000000;stroke-width:2.3498px;fill:none" d="m474.96 677.34h69.37"/>
      <path id="path9194" style="stroke:#000000;stroke-width:2.3498px;fill:none" d="m474.96 752.52h69.37"/>
      <path id="path9198" style="stroke:#000000;stroke-width:2.3498px;fill:none" d="m474.96 683.6h69.37"/>
      <path id="path9200" style="stroke:#000000;stroke-width:2.3498px;fill:none" d="m474.96 689.87h69.37"/>
      <path id="path9202" style="stroke:#000000;stroke-width:2.3498px;fill:none" d="m474.96 696.13h69.37"/>
      <path id="path9204" style="stroke:#000000;stroke-width:2.3498px;fill:none" d="m474.96 702.4h69.37"/>
      <path id="path9206" style="stroke:#000000;stroke-width:2.3498px;fill:none" d="m474.96 721.19h69.37"/>
      <path id="path9208" style="stroke:#000000;stroke-width:2.3498px;fill:none" d="m474.96 733.72h69.37"/>
      <path id="path9210" style="stroke:#000000;stroke-width:2.3498px;fill:none" d="m474.96 739.99h69.37"/>
      <path id="path9212" style="stroke:#000000;stroke-width:2.3498px;fill:none" d="m474.96 708.66h69.37"/>
      <path id="path9216" style="stroke:#000000;stroke-width:2.3498px;fill:none" d="m474.96 746.26h69.37"/>
      <path id="path9218" style="stroke:#000000;stroke-width:2.3498px;fill:none" d="m474.96 714.93h69.37"/>
      <path id="path9220" style="stroke:#000000;stroke-width:2.3498px;fill:none" d="m474.96 727.46h69.37"/>
      <path id="flowRoot9266" style="fill:#eeeeec" d="m509.18 769.77h-2.53v-1.76h-1.29v6.54c0 1.4 0.76 2.28 2.09 2.28h1.73v-1.24h-1.56c-0.66 0-0.97-0.22-0.97-0.88v-3.7h2.53v-1.24m0.65 3.53c0 2.17 1.7 3.67 3.65 3.67 1.96 0 3.66-1.5 3.66-3.67s-1.7-3.67-3.66-3.67c-1.95 0-3.65 1.5-3.65 3.67m1.35 0c0-1.44 0.97-2.44 2.3-2.44 1.34 0 2.31 1 2.31 2.44s-0.97 2.44-2.31 2.44c-1.33 0-2.3-1-2.3-2.44m8.46 3.53v-3.21h1.47c0.67 0 1.14 0.4 1.14 1.28v1.93h1.29v-2.07c0-1.25-0.57-1.87-1.61-2.08v-0.03c0.39-0.1 0.82-0.8 1.1-1.29l0.93-1.59h-1.47l-1.22 2.09c-0.19 0.32-0.55 0.53-1.09 0.53h-0.54v-5.85h-1.3v10.29h1.3m4.88-3.53c0 2.17 1.7 3.67 3.66 3.67 1.95 0 3.66-1.5 3.66-3.67s-1.71-3.67-3.66-3.67c-1.96 0-3.66 1.5-3.66 3.67m1.35 0c0-1.44 0.97-2.44 2.31-2.44 1.33 0 2.3 1 2.3 2.44s-0.97 2.44-2.3 2.44c-1.34 0-2.31-1-2.31-2.44m8.36 3.53v-4.12c0-1.08 0.79-1.85 1.72-1.85 0.92 0 1.71 0.77 1.71 1.85v4.12h1.3v-4.12c0-1.85-1.3-3.08-3.01-3.08-1.72 0-3.02 1.23-3.02 3.08v4.12h1.3"/>
      <path id="flowRoot9275" style="fill:#eeeeec" d="m505.44 531.22v8.4h1.06v-3.37c0-0.89 0.64-1.5 1.41-1.5 0.75 0 1.4 0.32 1.4 1.5v3.37h1.07v-3.37c-0.01-1.94-1.08-2.5-2.41-2.5-0.61 0-1.15 0.27-1.47 0.63v-3.16h-1.06zm8.12 0c-1.19 0-2.03 0.78-2.03 2.09v6.31h1.06v-4.74h1.72v-1.04h-1.72v-0.56c0-0.73 0.43-1.06 1.13-1.06h0.75v-1h-0.91zm-14.12 2.62l2 5.32c0.19 0.51 0.44 0.59 0.81 0.59s0.62-0.08 0.81-0.59l2.03-5.32h-1.15l-1.69 4.47-1.66-4.47h-1.15z"/>
      <path id="path9449" style="fill:#eeeeec" d="m505.88 594.25l-0.32 1.03h1.53v7.34h1.16v-8.37h-2.37z"/>
      <path id="path9470" style="fill:#eeeeec" d="m481.81 604.9l-2.06 2.9c-0.6 0.86-1.09 1.51-1.09 2.63 0 1.69 1.34 3 3 3 1.77 0 3.09-1.44 3.09-3 0-1.69-0.98-2.99-2.84-3.03l-0.66 0.97c1.35-0.03 2.35 0.67 2.35 2.09 0 1.06-0.88 1.91-1.91 1.91-1.01 0-1.88-0.85-1.88-1.85 0-0.8 0.31-1.28 0.79-1.97l2.59-3.65h-1.38z"/>
      <path id="path9468" style="fill:#eeeeec" d="m480.08 640.61v4.28h2.09c1.33 0 1.84 0.56 1.84 1.56 0 0.86-0.51 1.5-1.56 1.5h-2.75v1.03h3.06c1.53 0 2.5-1.24 2.5-2.5 0-1.75-1.22-2.66-3.03-2.66h-1v-2.18h3.22v-1.03h-4.37z"/>
      <path id="path9466" style="fill:#eeeeec" d="m504.79 653.33v1.03h3.59l-2.62 2.44v0.85h1.31c1.26 0 1.97 0.61 1.97 1.43 0 0.88-0.59 1.6-1.69 1.6h-2.78v1.03h3.09c1.42 0 2.5-1.05 2.5-2.66 0-1.51-1.13-2.44-2.69-2.47l1.13-0.97c0.54-0.48 1-0.77 1-1.37 0-0.61-0.4-0.91-1.19-0.91h-3.62z"/>
      <path id="path9464" style="fill:#eeeeec" d="m534.63 641.16c-0.02 0-0.05 0.04-0.1 0.12l-1.06 1.78v3.63h-2.53l3.03-5.38h-1.25l-2.69 4.88c-0.2 0.37-0.37 0.6-0.37 0.87 0 0.43 0.31 0.69 0.81 0.69h3v1.94h1.16v-1.94h1.25v-1.06h-1.25v-5.38c0-0.13 0.01-0.15 0-0.15z"/>
      <path id="path9451" style="fill:#eeeeec" d="m533.28 604.03c-1.56 0-2.97 1.03-2.97 2.69 0 1.21 0.61 2.08 1.75 2.5l0.97-0.78c-0.82-0.08-1.57-0.7-1.57-1.56 0-1.06 0.61-1.78 1.69-1.78 0.94 0 1.66 0.64 1.66 1.59 0 0.71-0.45 1.3-0.91 1.66l-2.97 2.31c-0.53 0.42-0.75 0.59-0.75 1.03 0 0.55 0.4 0.87 1.13 0.87h4.62v-1.03h-4.22v-0.03l2.35-1.84c1.14-0.84 1.9-1.59 1.9-2.97 0-1.49-1.2-2.66-2.68-2.66z"/>
      <path id="path9480" style="fill:#eeeeec" d="m481.69 544.72v8.4h1.06v-8.4h-1.06zm4.53 0c-1.19 0-2.03 0.78-2.03 2.09v6.31h1.06v-4.74h1.72v-1.04h-1.72v-0.56c0-0.73 0.43-1.06 1.13-1.06h0.74v-1h-0.9zm-13.41 2.62v3.94c0 1.08 0.89 1.97 2.07 1.97 0.64 0 1.3-0.26 1.68-0.81 0.39 0.55 1.01 0.81 1.66 0.81 1.17 0 2.06-0.89 2.06-1.97v-3.94h-1.03v3.69c0 0.73-0.41 1.19-1.03 1.19-0.69 0-1.16-0.36-1.16-1.34v-3.54h-1.03v3.54c0 0.98-0.44 1.34-1.12 1.34-0.63 0-1.03-0.46-1.03-1.19v-3.69h-1.07z"/>
      <path id="path9484" style="fill:#eeeeec" d="m533.59 543.72v8.4h1.07v-3.37c0-0.89 0.63-1.5 1.4-1.5 0.76 0 1.41 0.32 1.41 1.5v3.37h1.06v-3.37c0-1.94-1.07-2.5-2.41-2.5-0.61 0-1.14 0.27-1.46 0.63v-3.16h-1.07zm8.13 0c-1.19 0-2.03 0.78-2.03 2.09v6.31h1.06v-4.74h1.72v-1.04h-1.72v-0.56c0-0.73 0.43-1.06 1.13-1.06h0.74v-1h-0.9zm-14.13 2.62v3.38c0 1.51 1.07 2.53 2.47 2.53 1.41 0 2.47-1.02 2.47-2.53v-3.38h-1.06v3.38c0 0.89-0.65 1.5-1.41 1.5-0.75 0-1.4-0.61-1.4-1.5v-3.38h-1.07z"/>
      <path id="rect9823" sodipodi:nodetypes="ccccc" style="fill:#000000" d="m167 780.68h20.6l-1.37 17.68h-17.86l-1.37-17.68z"/>
      <path id="path9826" sodipodi:nodetypes="ccccc" style="fill:#000000" d="m506 781.68h20.6l-1.37 17.68h-17.86l-1.37-17.68z"/>
      <path id="rect10130" sodipodi:nodetypes="cccccssccc" style="opacity:.72887;fill:url(#linearGradient10649)" d="m191.7 538.72h223.1c10.4 0 18.77 8.37 18.77 18.77v95.83c0 10.41-8.37 18.78-18.77 18.78 0 0 5.08-66.11-114.3-32.12-59.03 16.8-108.8 32.12-108.8 32.12-9.97 2.94-18.77-8.37-18.77-18.78v-95.83c0-10.4 8.37-18.77 18.77-18.77z"/>
      <path id="path10659" sodipodi:nodetypes="ccccc" style="opacity:.72887;fill:url(#linearGradient10667)" d="m354.19 462.83c-27.95 0-52.83 11.37-68.81 29 0 0 45.69-1.41 74.47-9.19 18.17-7.07 63.15 9.19 63.15 9.19-15.98-17.63-40.86-29-68.81-29z"/>
      <path id="path10669" sodipodi:nodetypes="ccssc" style="opacity:.72887;fill:url(#linearGradient10678)" d="m213.9 387.33c0 4.88-3.82-4.19-8.95-1.56-5 0.75-8.73 6.44-8.73 1.56s3.96-8.84 8.84-8.84 8.84 3.96 8.84 8.84z"/>
      <path id="path10680" sodipodi:nodetypes="ccssc" style="opacity:.72887;fill:url(#linearGradient10682)" d="m489.32 343.84c0 4.88-3.82-4.18-8.95-1.56-5 0.75-8.73 6.44-8.73 1.56s3.96-8.84 8.84-8.84 8.84 3.96 8.84 8.84z"/>
      <g id="g10699" transform="translate(-99.702 85.206)">
        <path id="path10684" sodipodi:rx="9.5964489" sodipodi:ry="9.5964489" style="fill:#8d8d8d" sodipodi:type="arc" d="m430.32 833.16a9.5964 9.5964 0 1 1 -19.19 0 9.5964 9.5964 0 1 1 19.19 0z" transform="matrix(2.3498 0 0 2.3498 -381.9 -1415.4)" sodipodi:cy="833.15906" sodipodi:cx="420.72855"/>
        <path id="path10686" sodipodi:nodetypes="csssc" style="fill:url(#linearGradient10695)" d="m626.08 541.98c0 10.69-2.61-10.08-19.67-3.71-10.24 3.82-19.07 14.4-19.07 3.71s8.68-19.37 19.37-19.37 19.37 8.68 19.37 19.37z"/>
        <rect id="rect10697" ry="4.1121" style="fill:#000000" transform="matrix(.94007 .34097 -.34097 .94007 0 0)" height="32.897" width="8.2241" y="287.86" x="751.06"/>
      </g>
      <path id="path10706" sodipodi:rx="9.5964489" sodipodi:ry="9.5964489" style="fill:#8d8d8d" sodipodi:type="arc" d="m430.32 833.16a9.5964 9.5964 0 1 1 -19.19 0 9.5964 9.5964 0 1 1 19.19 0z" transform="matrix(2.3498 0 0 2.3498 -481.6 -1390.6)" sodipodi:cy="833.15906" sodipodi:cx="420.72855"/>
      <path id="path10708" sodipodi:nodetypes="csssc" style="fill:url(#linearGradient10716)" d="m526.38 566.73c0 10.69-2.61-10.08-19.67-3.71-10.24 3.82-19.07 14.4-19.07 3.71s8.68-19.37 19.37-19.37 19.37 8.68 19.37 19.37z"/>
      <rect id="rect10710" style="fill:#000000" ry="4.1121" height="32.897" width="8.2241" y="551.87" x="502.34"/>
      <rect id="rect10719" style="opacity:0.729;fill:url(#linearGradient10737)" ry="8.2804" height="84.839" width="67.021" y="674.63" x="477.34"/>
      <rect id="rect10739" ry="8.2804" style="opacity:.80986;fill:url(#linearGradient10749)" transform="scale(-1)" height="84.839" width="67.021" y="-755.47" x="-544.36"/>
    </g>
  </g>
  <metadata>
    <rdf:RDF>
      <cc:Work>
        <dc:format>image/svg+xml</dc:format>
        <dc:type rdf:resource="http://purl.org/dc/dcmitype/StillImage"/>
        <cc:license rdf:resource="http://creativecommons.org/licenses/publicdomain/"/>
        <dc:publisher>
          <cc:Agent rdf:about="http://openclipart.org/">
            <dc:title>Openclipart</dc:title>
          </cc:Agent>
        </dc:publisher>
        <dc:title>old television 2.0</dc:title>
        <dc:date>2008-11-02T09:36:41</dc:date>
        <dc:description>old television web 2.0 style</dc:description>
        <dc:source>https://openclipart.org/detail/19899/old-television-2.0-by-rg1024</dc:source>
        <dc:creator>
          <cc:Agent>
            <dc:title>rg1024</dc:title>
          </cc:Agent>
        </dc:creator>
        <dc:subject>
          <rdf:Bag>
            <rdf:li>television</rdf:li>
          </rdf:Bag>
        </dc:subject>
      </cc:Work>
      <cc:License rdf:about="http://creativecommons.org/licenses/publicdomain/">
        <cc:permits rdf:resource="http://creativecommons.org/ns#Reproduction"/>
        <cc:permits rdf:resource="http://creativecommons.org/ns#Distribution"/>
        <cc:permits rdf:resource="http://creativecommons.org/ns#DerivativeWorks"/>
      </cc:License>
    </rdf:RDF>
  </metadata>
</svg>