<?xml version="1.0" encoding="UTF-8" standalone="no"?>
<svg
   width="128"
   height="128"
   viewBox="0 0 128 128"
   version="1.1"
   id="svg28"
   sodipodi:docname="Xbox_One_B.svg"
   inkscape:version="1.1 (c68e22c387, 2021-05-23)"
   xmlns:inkscape="http://www.inkscape.org/namespaces/inkscape"
   xmlns:sodipodi="http://sodipodi.sourceforge.net/DTD/sodipodi-0.dtd"
   xmlns="http://www.w3.org/2000/svg"
   xmlns:svg="http://www.w3.org/2000/svg">
  <sodipodi:namedview
     id="namedview30"
     pagecolor="#ffffff"
     bordercolor="#666666"
     borderopacity="1.0"
     inkscape:pageshadow="2"
     inkscape:pageopacity="0.0"
     inkscape:pagecheckerboard="0"
     showgrid="false"
     inkscape:zoom="8.8741901"
     inkscape:cx="57.41369"
     inkscape:cy="70.541649"
     inkscape:window-width="2560"
     inkscape:window-height="1366"
     inkscape:window-x="0"
     inkscape:window-y="24"
     inkscape:window-maximized="1"
     inkscape:current-layer="Button_-_XBOX_A" />
  <defs
     id="defs4">
    <clipPath
       id="clip-path">
      <rect
         id="Rectangle_72"
         data-name="Rectangle 72"
         width="120"
         height="120"
         x="0"
         y="0" />
    </clipPath>
  </defs>
  <g
     id="button_xbox_digital_b_11"
     clip-path="url(#clip-path)"
     transform="matrix(1.28,0,0,1.28,-12.8,-12.8)">
    <g
       id="Button_-_XBOX_A"
       data-name="Button - XBOX A"
       clip-path="url(#clip-path)"
       inkscape:label="Button_-_XBOX_B">
      <g
         id="Button_-_Base"
         data-name="Button - Base"
         transform="matrix(1.0869565,0,0,1.0869565,10,10)">
        <circle
           id="Button_-_Base-2"
           data-name="Button - Base"
           cx="46"
           cy="46"
           r="46"
           fill="#2a2a2a" />
      </g>
      <g
         id="Button_-_Top"
         data-name="Button - Top"
         transform="matrix(1.0869565,0,0,1.0869565,14.347826,10)">
        <circle
           id="Button_-_Top-2"
           data-name="Button - Top"
           cx="42"
           cy="42"
           r="42"
           fill="#5b5b5b" />
      </g>
      <g
         id="Button_-_Top-3"
         data-name="Button - Top"
         transform="matrix(1.0869565,0,0,1.0869565,14.347826,19.397826)">
        <ellipse
           id="Button_-_Top-4"
           data-name="Button - Top"
           cx="42"
           cy="37.5"
           rx="42"
           ry="37.5"
           transform="translate(0,0.354)"
           fill="#404040" />
      </g>
      <path
         id="Path_131"
         data-name="Path 131"
         d="m 46.075416,39.049456 h 13.04348 q 8.91304,0 12.93478,2.53587 4.02174,2.535869 4.02174,8.067391 a 10.165217,10.165217 0 0 1 -1.75109,6.163044 7.0413043,7.0413043 0 0 1 -4.68587,2.894565 v 0.286956 a 9.2315217,9.2315217 0 0 1 5.74674,3.325 10.816304,10.816304 0 0 1 1.76305,6.477174 10.673913,10.673913 0 0 1 -4.14131,8.942393 q -4.14674,3.208695 -11.25435,3.208695 h -15.67717 z m 8.88478,16.594566 h 5.1587 a 9.4315217,9.4315217 0 0 0 5.23043,-1.117392 4.1695652,4.1695652 0 0 0 1.61957,-3.695652 3.6956522,3.6956522 0 0 0 -1.76305,-3.453261 11.329348,11.329348 0 0 0 -5.57391,-1.045652 h -4.67391 z m 0,7.05 v 10.919565 h 5.78913 a 8.5869565,8.5869565 0 0 0 5.41631,-1.404348 5.1836957,5.1836957 0 0 0 1.74565,-4.302174 q 0,-5.217391 -7.45109,-5.217391 z"
         fill="#ff3b3b"
         style="stroke-width:1.08696" />
    </g>
  </g>
</svg>
