<?xml version="1.0" encoding="UTF-8" standalone="no"?>
<!-- Generator: Adobe Illustrator 16.0.0, SVG Export Plug-In . SVG Version: 6.00 Build 0)  -->

<svg
   version="1.1"
   id="Capa_1"
   x="0px"
   y="0px"
   width="128"
   height="128"
   viewBox="0 0 128 128"
   enable-background="new 0 0 29 13.563"
   xml:space="preserve"
   sodipodi:docname="Xbox_Left_Bumper.svg"
   inkscape:version="1.1 (c68e22c387, 2021-05-23)"
   xmlns:inkscape="http://www.inkscape.org/namespaces/inkscape"
   xmlns:sodipodi="http://sodipodi.sourceforge.net/DTD/sodipodi-0.dtd"
   xmlns="http://www.w3.org/2000/svg"
   xmlns:svg="http://www.w3.org/2000/svg"><defs
   id="defs43" /><sodipodi:namedview
   id="namedview41"
   pagecolor="#ffffff"
   bordercolor="#666666"
   borderopacity="1.0"
   inkscape:pageshadow="2"
   inkscape:pageopacity="0.0"
   inkscape:pagecheckerboard="0"
   showgrid="false"
   width="128px"
   inkscape:zoom="2.2142805"
   inkscape:cx="-54.419483"
   inkscape:cy="39.290415"
   inkscape:window-width="2560"
   inkscape:window-height="1366"
   inkscape:window-x="0"
   inkscape:window-y="24"
   inkscape:window-maximized="1"
   inkscape:current-layer="Capa_1" />
<g
   id="g38"
   transform="matrix(4.4133403,0,0,4.4133403,0.00656565,34.070381)">
	<g
   id="g30">
		<linearGradient
   id="SVGID_1_"
   gradientUnits="userSpaceOnUse"
   x1="14.5"
   y1="0"
   x2="14.5"
   y2="13.5625">
			<stop
   offset="0"
   style="stop-color:#5B5B5F"
   id="stop2" />
			<stop
   offset="0.0231"
   style="stop-color:#59595D"
   id="stop4" />
			<stop
   offset="0.4507"
   style="stop-color:#333335"
   id="stop6" />
			<stop
   offset="0.7912"
   style="stop-color:#1C1C1D"
   id="stop8" />
			<stop
   offset="1"
   style="stop-color:#141414"
   id="stop10" />
		</linearGradient>
		<path
   fill="url(#SVGID_1_)"
   d="m 29,11.266 c 0,3.063 -29,3.063 -29,0 V 5.541 C 0,2.481 2.48,0 5.541,0 H 23.459 C 26.52,0 29,2.481 29,5.541 Z"
   id="path13"
   style="fill:url(#SVGID_1_)" />
		<linearGradient
   id="SVGID_2_"
   gradientUnits="userSpaceOnUse"
   x1="14.5"
   y1="0"
   x2="14.5"
   y2="13.5625">
			<stop
   offset="0"
   style="stop-color:#5B5B5F"
   id="stop15" />
			<stop
   offset="0.0626"
   style="stop-color:#535356"
   id="stop17" />
			<stop
   offset="0.3018"
   style="stop-color:#373739"
   id="stop19" />
			<stop
   offset="0.5397"
   style="stop-color:#242425"
   id="stop21" />
			<stop
   offset="0.7739"
   style="stop-color:#181818"
   id="stop23" />
			<stop
   offset="1"
   style="stop-color:#141414"
   id="stop25" />
		</linearGradient>
		<path
   fill="url(#SVGID_2_)"
   d="m 23.459,1.478 c 2.24,0 4.064,1.822 4.064,4.063 v 5.234 c -0.432,0.194 -1.559,0.566 -4.252,0.876 -2.432,0.279 -5.547,0.434 -8.771,0.434 -3.224,0 -6.34,-0.154 -8.771,-0.434 -2.691,-0.31 -3.82,-0.682 -4.25,-0.876 V 5.541 C 1.479,3.3 3.301,1.478 5.542,1.478 H 23.459 M 23.459,0 H 5.541 C 2.48,0 0,2.481 0,5.541 v 5.725 c 0,1.533 7.25,2.297 14.5,2.297 7.25,0 14.5,-0.764 14.5,-2.297 V 5.541 C 29,2.481 26.52,0 23.459,0 Z"
   id="path28"
   style="fill:url(#SVGID_2_)" />
	</g>
	<g
   id="g36">
		<polygon
   fill="#ffffff"
   points="9.605,2.623 7.572,2.623 7.572,10.94 13.543,10.94 13.543,9.123 9.605,9.123 "
   id="polygon32" />
		<path
   fill="#ffffff"
   d="M 21.326,7.583 C 21.256,7.354 21.162,7.153 21.043,6.981 20.922,6.807 20.777,6.663 20.611,6.549 20.556,6.512 20.5,6.477 20.441,6.445 c 0.168,-0.12 0.314,-0.27 0.441,-0.453 0.203,-0.297 0.307,-0.641 0.307,-1.02 0,-0.72 -0.225,-1.298 -0.668,-1.721 -0.441,-0.418 -1.084,-0.63 -1.912,-0.63 h -4.098 v 8.317 h 3.764 c 1.047,0 1.842,-0.231 2.359,-0.686 C 21.161,9.789 21.429,9.16 21.429,8.384 21.43,8.082 21.395,7.813 21.326,7.583 Z M 16.484,4.368 h 1.814 c 0.342,0 0.594,0.057 0.73,0.164 0.125,0.1 0.186,0.268 0.186,0.513 0,0.315 -0.092,0.679 -0.82,0.679 h -1.91 z m 2.69,4.582 C 18.992,9.131 18.742,9.219 18.408,9.219 H 16.484 V 7.446 h 1.947 c 0.332,0 0.59,0.066 0.768,0.199 0.164,0.126 0.244,0.328 0.244,0.62 0,0.279 -0.088,0.502 -0.269,0.685 z"
   id="path34" />
	</g>
</g>
</svg>
